<?xml version="1.0" encoding="utf-8"?>
<!-- Generator: Adobe Illustrator 17.0.0, SVG Export Plug-In . SVG Version: 6.00 Build 0)  -->
<!DOCTYPE svg PUBLIC "-//W3C//DTD SVG 1.1//EN" "http://www.w3.org/Graphics/SVG/1.1/DTD/svg11.dtd">
<svg version="1.1" id="Layer_1" xmlns="http://www.w3.org/2000/svg" xmlns:xlink="http://www.w3.org/1999/xlink" x="0px" y="0px"
	 width="210px" height="172px" viewBox="0 0 210 172" enable-background="new 0 0 210 172" xml:space="preserve">
<g id="Group_199" transform="translate(-578.227 -5382)">
	<g id="Group_197" transform="translate(633.354 5384)">
		<g id="Group_194" transform="translate(0 2.568)">
			<path id="Path_459" fill="none" stroke="#464646" stroke-width="4" stroke-linecap="round" stroke-linejoin="round" d="
				M39.254,27.31"/>
		</g>
		<path id="Path_460" fill="none" stroke="#464646" stroke-width="4" stroke-linecap="round" stroke-linejoin="round" d="
			M130.406,4.2h-5.136c-1.417,0.003-2.563,1.152-2.564,2.568v48.787c0.001,1.418,1.15,2.567,2.568,2.568h5.132"/>
	</g>
	<path id="Path_463" fill="none" stroke="#464646" stroke-width="4" stroke-linecap="round" stroke-linejoin="round" d="
		M756.06,5395.903h-8.987l-43.651-5.135h-23.236c-3.256,0-6.429,1.032-9.062,2.948l-11.188,8.1"/>
	<g id="Group_198" transform="translate(62 5268)">
		<g id="receiving_money" transform="translate(519 116)">
			<g id="Group_193" transform="translate(0 97.574)">
				<path id="Path_454" fill="none" stroke="#464646" stroke-width="4" stroke-linecap="round" stroke-linejoin="round" d="
					M22.564,24.741l5.492-3.654c1.182-0.786,2.777-0.464,3.563,0.718c0.013,0.019,0.025,0.038,0.037,0.057l22.953,36.729
					c0.74,1.178,0.404,2.731-0.755,3.5l-5.613,3.736"/>
				<path id="Path_455" fill="none" stroke="#464646" stroke-width="4" stroke-linecap="round" stroke-linejoin="round" d="
					M86.762,24.742h25.677c5.673,0,10.271-4.598,10.271-10.271c0-5.673-4.598-10.271-10.271-10.271H70.881
					c-3.042,0-6.016,0.901-8.548,2.588l-28.307,18.87"/>
				<path id="Path_456" fill="none" stroke="#464646" stroke-width="4" stroke-linecap="round" stroke-linejoin="round" d="
					M115.776,24.182l44.089-16.567c5.222-2.215,11.251,0.223,13.466,5.446s-0.224,11.251-5.446,13.466
					c-0.053,0.023-0.107,0.045-0.16,0.066l-45.35,19.222c-3.171,1.343-6.579,2.036-10.022,2.036H72.365
					c-3.01-0.001-5.954,0.882-8.468,2.537L53.685,57.11"/>
			</g>
			<g id="Group_196" transform="translate(4.135)">
				<path id="Path_461" fill="none" stroke="#D2B593" stroke-width="4" stroke-linecap="round" stroke-linejoin="round" d="
					M65.969,90.368C33.921,73.686,22.564,43.332,22.564,43.332L67.376,4.2c2.588,10.628,7.967,18.745,15.029,25.677"/>
				<path id="Path_462" fill="none" stroke="#D2B593" stroke-width="4" stroke-linecap="round" stroke-linejoin="round" d="
					M121.009,53.665c15.406,12.839,20.878,34,20.878,34l-11.478,9.716"/>
				
					<line id="Line_18" fill="none" stroke="#D2B593" stroke-width="4" stroke-linecap="round" stroke-linejoin="round" x1="59.864" y1="28.596" x2="44.237" y2="42.928"/>
				
					<line id="Line_19" fill="none" stroke="#D2B593" stroke-width="4" stroke-linecap="round" stroke-linejoin="round" x1="126.254" y1="79.567" x2="111.368" y2="94.667"/>
			</g>
		</g>
		
			<text transform="matrix(0.6518 0.7584 -0.7584 0.6518 584.4992 175.8481)" fill="#D2B593" font-family="'SegoeUI'" font-size="42">€</text>
	</g>
	<path id="Path_464" fill="none" stroke="#464646" stroke-width="4" stroke-linecap="round" stroke-linejoin="round" d="
		M699.572,5414.876h-33.381c-5.666,0.016-10.255,4.605-10.271,10.271l0,0c0.016,5.666,4.605,10.255,10.271,10.271h37.229
		c0,0,11.478,9.855,24.393,7.7c15.406-2.568,19.258-7.7,19.258-7.7h8.987"/>
</g>
</svg>
