<?xml version="1.0" encoding="utf-8"?>
<!-- Generator: Adobe Illustrator 17.0.0, SVG Export Plug-In . SVG Version: 6.00 Build 0)  -->
<!DOCTYPE svg PUBLIC "-//W3C//DTD SVG 1.1//EN" "http://www.w3.org/Graphics/SVG/1.1/DTD/svg11.dtd">
<svg version="1.1" id="Layer_1" xmlns="http://www.w3.org/2000/svg" xmlns:xlink="http://www.w3.org/1999/xlink" x="0px" y="0px"
	 width="210px" height="172px" viewBox="0 0 210 172" enable-background="new 0 0 210 172" xml:space="preserve">
<g id="Group_220" transform="translate(-179 -114)">
	
		<line id="Line_25" fill="none" stroke="#D2B593" stroke-width="4" stroke-linecap="square" stroke-linejoin="round" x1="319.747" y1="261.37" x2="289.747" y2="261.37"/>
	<path id="Path_482" fill="none" stroke="#D2B593" stroke-width="4" stroke-linecap="square" stroke-linejoin="round" d="
		M215.877,141.629h-10.13v-7.6c0.023-6.983,5.679-12.638,12.662-12.659l0,0c6.984,0.021,12.641,5.678,12.662,12.662v126.622h12.662"
		/>
	<g id="Group_218" transform="translate(226.472 147.004)">
		
			<line id="Line_26" fill="none" stroke="#D2B593" stroke-width="4" stroke-linecap="round" stroke-linejoin="round" x1="70.275" y1="5.366" x2="40.275" y2="5.366"/>
		
			<line id="Line_27" fill="none" stroke="#D2B593" stroke-width="4" stroke-linecap="round" stroke-linejoin="round" x1="85.275" y1="27.366" x2="24.275" y2="27.366"/>
		
			<line id="Line_28" fill="none" stroke="#D2B593" stroke-width="4" stroke-linecap="round" stroke-linejoin="round" x1="77.275" y1="42.366" x2="24.275" y2="42.366"/>
		
			<line id="Line_29" fill="none" stroke="#D2B593" stroke-width="4" stroke-linecap="round" stroke-linejoin="round" x1="52.275" y1="58.366" x2="24.275" y2="58.366"/>
	</g>
	<g id="Group_219" transform="translate(227.454 215.633)">
		<path id="Path_483" fill="none" stroke="#D2B593" stroke-width="4" stroke-linecap="square" stroke-linejoin="round" d="
			M49.201,37.424l2.532,25.324l-10.13-5.065l-10.129,5.065l2.532-25.324"/>
		<path id="Path_484" fill="none" stroke="#D2B593" stroke-width="4" stroke-linecap="square" stroke-linejoin="round" d="
			M54.266,12.099L54.266,12.099c-0.001-1.398-1.134-2.531-2.532-2.532l0,0c-3.128-0.001-6.127-1.243-8.339-3.454l0,0
			c-0.987-0.989-2.589-0.99-3.578-0.003c-0.001,0.001-0.002,0.002-0.003,0.003l0,0c-2.212,2.211-5.211,3.453-8.339,3.454l0,0
			c-1.398,0.001-2.531,1.134-2.532,2.532l0,0c-0.001,3.128-1.243,6.127-3.454,8.339l0,0c-0.988,0.989-0.988,2.592,0,3.581l0,0
			c2.211,2.212,3.453,5.211,3.454,8.339l0,0c0.001,1.398,1.134,2.531,2.532,2.532l0,0c3.128,0.001,6.127,1.243,8.339,3.454l0,0
			c0.987,0.989,2.589,0.99,3.578,0.003c0.001-0.001,0.002-0.002,0.003-0.003l0,0c2.212-2.211,5.211-3.453,8.339-3.454l0,0
			c1.398-0.001,2.531-1.134,2.532-2.532l0,0c0.001-3.128,1.243-6.127,3.454-8.339l0,0c0.989-0.987,0.99-2.589,0.003-3.578
			c-0.001-0.001-0.002-0.002-0.003-0.003l0,0C55.509,18.226,54.267,15.226,54.266,12.099z"/>
	</g>
	<path id="Path_485" fill="none" stroke="#464646" stroke-width="4" stroke-linecap="round" stroke-linejoin="round" d="
		M355.16,270.783v-7.6l5.065-25.324V219.79c0-3.074-0.932-6.076-2.674-8.61l-25.183-36.629"/>
	<path id="Path_487" fill="none" stroke="#464646" stroke-width="4" stroke-linecap="square" stroke-linejoin="round" d="
		M317.174,278.384v-7.6h45.584v7.6"/>
	<path id="Path_488" fill="none" stroke="#D2B593" stroke-width="4" stroke-linecap="square" stroke-linejoin="round" d="
		M220.941,121.37h96.232c8.391-0.001,15.194,6.802,15.195,15.193c0,0.001,0,0.001,0,0.002v63.311"/>
	<path id="Path_489" fill="none" stroke="#464646" stroke-width="4" stroke-linecap="round" stroke-linejoin="round" d="
		M332.37,199.878l10.13,15.195v7.6c0.001,2.796-2.265,5.064-5.061,5.065c-0.001,0-0.003,0-0.004,0l0,0
		c-2.796,0.001-5.064-2.265-5.065-5.061c0-0.001,0-0.003,0-0.004V199.878c-0.011-4.193-3.407-7.589-7.6-7.6l0,0
		c-4.193,0.011-7.589,3.407-7.6,7.6v25.324c-3.456,7.075-4.351,15.131-2.532,22.792c1.54,6.074,5.115,11.437,10.13,15.195v7.6"/>
</g>
</svg>
