
<svg width="452px" height="178px" viewBox="0 0 452 178" version="1.1" xmlns="http://www.w3.org/2000/svg" xmlns:xlink="http://www.w3.org/1999/xlink">
    <g id="Page-1" stroke="none" stroke-width="1" fill="none" fill-rule="evenodd">
        <g id="Group-28">
            <rect id="Rectangle" fill="#13279A" x="0" y="0" width="452" height="178" rx="13"></rect>
            <path d="M254.22,60.78 C254.22,62.6600094 254.020002,64.5099909 253.62,66.33 C253.219998,68.1500091 252.610004,69.8699919 251.79,71.49 C250.969996,73.1100081 249.950006,74.5599936 248.73,75.84 C247.509994,77.1200064 246.080008,78.159996 244.44,78.96 C241.639986,80.3200068 238.480018,81 234.96,81 L223.38,81 L223.38,40.98 L234.66,40.98 C236.100007,40.98 237.699991,41.0999988 239.46,41.34 C241.220009,41.5800012 242.899992,42.0599964 244.5,42.78 C246.140008,43.580004 247.569994,44.6099937 248.79,45.87 C250.010006,47.1300063 251.019996,48.5499921 251.82,50.13 C252.620004,51.7100079 253.219998,53.4099909 253.62,55.23 C254.020002,57.0500091 254.22,58.8999906 254.22,60.78 Z M246.42,61.14 C246.42,58.8599886 246.020004,56.7100101 245.22,54.69 C244.419996,52.6699899 243.180008,51.1000056 241.5,49.98 C240.619996,49.379997 239.530007,48.9300015 238.23,48.63 C236.929993,48.3299985 235.640006,48.18 234.36,48.18 L231.06,48.18 L231.06,73.8 L234.18,73.8 C236.900014,73.8 239.199991,73.300005 241.08,72.3 C242.880009,71.299995 244.219996,69.7700103 245.1,67.71 C245.980004,65.6499897 246.42,63.4600116 246.42,61.14 Z M285.24,70.08 C285.24,72.0400098 284.840004,73.7599926 284.04,75.24 C283.239996,76.7200074 282.190006,77.9499951 280.89,78.93 C279.589993,79.9100049 278.120008,80.6399976 276.48,81.12 C274.839992,81.6000024 273.180008,81.84 271.5,81.84 C269.659991,81.84 267.990007,81.6800016 266.49,81.36 C264.989992,81.0399984 263.660006,80.6700021 262.5,80.25 C261.339994,79.8299979 260.370004,79.4000022 259.59,78.96 C258.809996,78.5199978 258.240002,78.1600014 257.88,77.88 L261.12,71.22 C261.480002,71.5400016 261.979997,71.9199978 262.62,72.36 C263.260003,72.8000022 264.009996,73.219998 264.87,73.62 C265.730004,74.020002 266.709994,74.3499987 267.81,74.61 C268.910006,74.8700013 270.119993,75 271.44,75 C273.36001,75 274.869995,74.5800042 275.97,73.74 C277.070005,72.8999958 277.62,71.780007 277.62,70.38 C277.62,69.5399958 277.520001,68.8100031 277.32,68.19 C277.119999,67.5699969 276.710003,66.9900027 276.09,66.45 C275.469997,65.9099973 274.590006,65.3900025 273.45,64.89 C272.309994,64.3899975 270.800009,63.8200032 268.92,63.18 C267.199991,62.6199972 265.680007,62.0000034 264.36,61.32 C263.039993,60.6399966 261.930004,59.8400046 261.03,58.92 C260.129996,57.9999954 259.450002,56.9200062 258.99,55.68 C258.529998,54.4399938 258.3,52.9800084 258.3,51.3 C258.3,49.699992 258.579997,48.2200068 259.14,46.86 C259.700003,45.4999932 260.539994,44.320005 261.66,43.32 C262.780006,42.319995 264.179992,41.5400028 265.86,40.98 C267.540008,40.4199972 269.479989,40.14 271.68,40.14 C273.520009,40.14 275.169993,40.3199982 276.63,40.68 C278.090007,41.0400018 279.359995,41.4899973 280.44,42.03 C281.520005,42.5700027 282.429996,43.1599968 283.17,43.8 C283.910004,44.4400032 284.519998,45.0399972 285,45.6 L280.98,50.94 C280.579998,50.4599976 280.050003,49.9800024 279.39,49.5 C278.729997,49.0199976 277.980004,48.580002 277.14,48.18 C276.299996,47.779998 275.390005,47.4500013 274.41,47.19 C273.429995,46.9299987 272.420005,46.8 271.38,46.8 C269.29999,46.8 267.840004,47.2099959 267,48.03 C266.159996,48.8500041 265.74,49.8399942 265.74,51 C265.74,51.7200036 265.859999,52.3299975 266.1,52.83 C266.340001,53.3300025 266.749997,53.7999978 267.33,54.24 C267.910003,54.6800022 268.689995,55.1099979 269.67,55.53 C270.650005,55.9500021 271.899992,56.4399972 273.42,57 C275.50001,57.7600038 277.289992,58.5299961 278.79,59.31 C280.290008,60.0900039 281.519995,60.979995 282.48,61.98 C283.440005,62.980005 284.139998,64.1299935 284.58,65.43 C285.020002,66.7300065 285.24,68.279991 285.24,70.08 Z M320.82,79.2 C320.499998,79.400001 319.990004,79.6499985 319.29,79.95 C318.589996,80.2500015 317.680006,80.5399986 316.56,80.82 C315.439994,81.1000014 314.140007,81.339999 312.66,81.54 C311.179993,81.740001 309.500009,81.84 307.62,81.84 C305.019987,81.84 302.630011,81.3800046 300.45,80.46 C298.269989,79.5399954 296.400008,78.1900089 294.84,76.41 C293.279992,74.6299911 292.070004,72.4600128 291.21,69.9 C290.349996,67.3399872 289.92,64.4200164 289.92,61.14 C289.92,57.539982 290.379995,54.4300131 291.3,51.81 C292.220005,49.1899869 293.459992,47.0100087 295.02,45.27 C296.580008,43.5299913 298.36999,42.2400042 300.39,41.4 C302.41001,40.5599958 304.539989,40.14 306.78,40.14 C310.220017,40.14 313.039989,40.7899935 315.24,42.09 C317.440011,43.3900065 319.099994,45.0599898 320.22,47.1 L314.94,51.96 C314.659999,51.4399974 314.290002,50.9000028 313.83,50.34 C313.369998,49.7799972 312.810003,49.2700023 312.15,48.81 C311.489997,48.3499977 310.720004,47.9700015 309.84,47.67 C308.959996,47.3699985 307.960006,47.22 306.84,47.22 C305.679994,47.22 304.550005,47.4999972 303.45,48.06 C302.349994,48.6200028 301.380004,49.4799942 300.54,50.64 C299.699996,51.8000058 299.020003,53.2499913 298.5,54.99 C297.979997,56.7300087 297.72,58.7799882 297.72,61.14 C297.72,63.3000108 297.979997,65.2199916 298.5,66.9 C299.020003,68.5800084 299.729995,69.9999942 300.63,71.16 C301.530005,72.3200058 302.609994,73.199997 303.87,73.8 C305.130006,74.400003 306.519992,74.7 308.04,74.7 C309.640008,74.7 310.929995,74.6100009 311.91,74.43 C312.890005,74.2499991 313.459999,74.1200004 313.62,74.04 L313.62,66.84 L307.38,66.84 L307.38,59.94 L320.82,59.94 L320.82,79.2 Z M337.98,81 L323.22,40.98 L331.44,40.98 L341.58,71.28 L351.54,40.98 L359.1,40.98 L345.12,81 L337.98,81 Z M395.64,60.96 C395.64,63.5200128 395.270004,66.0499875 394.53,68.55 C393.789996,71.0500125 392.690007,73.2799902 391.23,75.24 C389.769993,77.2000098 387.930011,78.7899939 385.71,80.01 C383.489989,81.2300061 380.900015,81.84 377.94,81.84 C375.019985,81.84 372.470011,81.2300061 370.29,80.01 C368.109989,78.7899939 366.290007,77.2000098 364.83,75.24 C363.369993,73.2799902 362.280004,71.0500125 361.56,68.55 C360.839996,66.0499875 360.48,63.5200128 360.48,60.96 C360.48,58.3999872 360.839996,55.8700125 361.56,53.37 C362.280004,50.8699875 363.369993,48.6400098 364.83,46.68 C366.290007,44.7199902 368.109989,43.140006 370.29,41.94 C372.470011,40.739994 375.019985,40.14 377.94,40.14 C380.900015,40.14 383.489989,40.739994 385.71,41.94 C387.930011,43.140006 389.769993,44.7199902 391.23,46.68 C392.690007,48.6400098 393.789996,50.8699875 394.53,53.37 C395.270004,55.8700125 395.64,58.3999872 395.64,60.96 Z M387.84,60.96 C387.84,59.1999912 387.630002,57.4900083 387.21,55.83 C386.789998,54.1699917 386.160004,52.7000064 385.32,51.42 C384.479996,50.1399936 383.440006,49.1200038 382.2,48.36 C380.959994,47.5999962 379.540008,47.22 377.94,47.22 C376.379992,47.22 374.990006,47.5999962 373.77,48.36 C372.549994,49.1200038 371.530004,50.1399936 370.71,51.42 C369.889996,52.7000064 369.270002,54.1699917 368.85,55.83 C368.429998,57.4900083 368.22,59.1999912 368.22,60.96 C368.22,62.7200088 368.429998,64.4299917 368.85,66.09 C369.270002,67.7500083 369.889996,69.2199936 370.71,70.5 C371.530004,71.7800064 372.549994,72.7999962 373.77,73.56 C374.990006,74.3200038 376.379992,74.7 377.94,74.7 C379.540008,74.7 380.959994,74.3200038 382.2,73.56 C383.440006,72.7999962 384.479996,71.7800064 385.32,70.5 C386.160004,69.2199936 386.789998,67.7500083 387.21,66.09 C387.630002,64.4299917 387.84,62.7200088 387.84,60.96 Z" id="DSGVO" fill="#FFFFFF"></path>
            <path d="M237.705,128 L234.05,119.099 C233.33333,117.464992 232.817335,116.425836 232.502,115.9815 C232.186665,115.537164 231.771003,115.200334 231.255,114.971 C230.738997,114.741666 230.180003,114.627 229.578,114.627 L225.579,114.627 L225.579,127.957 L222.311,127.957 L222.311,99.319 L225.579,99.319 L225.579,111.832 L229.062,111.832 C229.864671,111.832 230.55983,111.638502 231.1475,111.2515 C231.73517,110.864498 232.329997,109.99734 232.932,108.65 L237.017,99.319 L240.543,99.319 L236.2,109.037 C235.741331,110.040338 235.268336,110.83583 234.781,111.4235 C234.293664,112.01117 233.763336,112.419666 233.19,112.649 C234.021337,112.878334 234.673498,113.265331 235.1465,113.81 C235.619502,114.354669 236.056665,115.128662 236.458,116.132 L241.188,128 L237.705,128 Z M254.475,128.559 C252.468323,128.559 250.741174,128.129004 249.2935,127.269 C247.845826,126.408996 246.656171,125.28384 245.7245,123.8935 C244.792829,122.50316 244.104836,120.912176 243.6605,119.1205 C243.216164,117.328824 242.994,115.501343 242.994,113.638 C242.994,110.656652 243.509995,107.962012 244.542,105.554 C245.574005,103.145988 246.978658,101.411672 248.756,100.351 C250.533342,99.290328 252.439656,98.76 254.475,98.76 C257.313014,98.76 259.634991,99.6199914 261.441,101.34 C263.247009,103.060009 264.450997,105.073822 265.053,107.3815 C265.655003,109.689178 265.956,111.774657 265.956,113.638 C265.956,115.501343 265.733836,117.328824 265.2895,119.1205 C264.845164,120.912176 264.157171,122.50316 263.2255,123.8935 C262.293829,125.28384 261.104174,126.408996 259.6565,127.269 C258.208826,128.129004 256.481677,128.559 254.475,128.559 Z M254.475,125.506 C256.424343,125.506 258.058327,124.803674 259.377,123.399 C260.695673,121.994326 261.555665,120.389009 261.957,118.583 C262.358335,116.776991 262.559,115.128674 262.559,113.638 C262.559,111.287322 262.20067,109.173176 261.484,107.2955 C260.76733,105.417824 259.771173,104.034671 258.4955,103.146 C257.219827,102.257329 255.879674,101.813 254.475,101.813 C252.468323,101.813 250.820006,102.50816 249.53,103.8985 C248.239994,105.28884 247.394335,106.894158 246.993,108.7145 C246.591665,110.534842 246.391,112.175993 246.391,113.638 C246.391,115.128674 246.555832,116.583493 246.8855,118.0025 C247.215168,119.421507 247.709663,120.689994 248.369,121.808 C249.028337,122.926006 249.866828,123.82183 250.8845,124.4955 C251.902172,125.16917 253.098993,125.506 254.475,125.506 Z M271.288,128 L271.288,99.319 L274.599,99.319 L288.316,120.69 L288.316,99.319 L291.541,99.319 L291.541,128 L289.133,128 L274.513,105.253 L274.513,128 L271.288,128 Z M298.163,128 L298.163,99.319 L313.6,99.319 L313.6,102.286 L301.431,102.286 L301.431,111.961 L310.418,111.961 L310.418,114.928 L301.388,114.928 L301.388,128 L298.163,128 Z M326.328,128.559 C324.321323,128.559 322.594174,128.129004 321.1465,127.269 C319.698826,126.408996 318.509171,125.28384 317.5775,123.8935 C316.645829,122.50316 315.957836,120.912176 315.5135,119.1205 C315.069164,117.328824 314.847,115.501343 314.847,113.638 C314.847,110.656652 315.362995,107.962012 316.395,105.554 C317.427005,103.145988 318.831658,101.411672 320.609,100.351 C322.386342,99.290328 324.292656,98.76 326.328,98.76 C329.166014,98.76 331.487991,99.6199914 333.294,101.34 C335.100009,103.060009 336.303997,105.073822 336.906,107.3815 C337.508003,109.689178 337.809,111.774657 337.809,113.638 C337.809,115.501343 337.586836,117.328824 337.1425,119.1205 C336.698164,120.912176 336.010171,122.50316 335.0785,123.8935 C334.146829,125.28384 332.957174,126.408996 331.5095,127.269 C330.061826,128.129004 328.334677,128.559 326.328,128.559 Z M326.328,125.506 C328.277343,125.506 329.911327,124.803674 331.23,123.399 C332.548673,121.994326 333.408665,120.389009 333.81,118.583 C334.211335,116.776991 334.412,115.128674 334.412,113.638 C334.412,111.287322 334.05367,109.173176 333.337,107.2955 C332.62033,105.417824 331.624173,104.034671 330.3485,103.146 C329.072827,102.257329 327.732674,101.813 326.328,101.813 C324.321323,101.813 322.673006,102.50816 321.383,103.8985 C320.092994,105.28884 319.247335,106.894158 318.846,108.7145 C318.444665,110.534842 318.244,112.175993 318.244,113.638 C318.244,115.128674 318.408832,116.583493 318.7385,118.0025 C319.068168,119.421507 319.562663,120.689994 320.222,121.808 C320.881337,122.926006 321.719828,123.82183 322.7375,124.4955 C323.755172,125.16917 324.951993,125.506 326.328,125.506 Z M343.141,128 L343.141,99.319 L351.87,99.319 C354.908682,99.319 357.151826,100.035659 358.5995,101.469 C360.047174,102.90234 360.771,104.794322 360.771,107.145 C360.771,108.635674 360.462836,109.925661 359.8465,111.015 C359.230164,112.104339 358.556504,112.871164 357.8255,113.3155 C357.094496,113.759836 356.528335,114.039333 356.127,114.154 C357.101672,114.498002 357.832664,115.078496 358.32,115.8955 C358.807336,116.712504 359.222998,117.75166 359.567,119.013 C359.739001,119.64367 359.939666,120.353163 360.169,121.1415 C360.398334,121.929837 360.627666,122.739663 360.857,123.571 L362.018,128 L358.664,128 L357.503,123.528 C356.958331,121.46399 356.356337,119.643675 355.697,118.067 C355.324331,117.292996 354.994668,116.748335 354.708,116.433 C354.421332,116.117665 353.998503,115.874001 353.4395,115.702 C352.880497,115.529999 352.314336,115.444 351.741,115.444 L346.409,115.444 L346.409,128 L343.141,128 Z M346.409,112.477 L351.698,112.477 C355.482019,112.477 357.374,110.699684 357.374,107.145 C357.374,105.510992 356.908171,104.292671 355.9765,103.49 C355.044829,102.687329 353.704675,102.286 351.956,102.286 L346.409,102.286 L346.409,112.477 Z M377.584,128.473 L370.102,105.726 L369.113,128 L366.275,128 L367.522,99.319 L371.349,99.319 L378.831,122.754 L386.614,99.319 L390.398,99.319 L391.602,128 L388.463,128 L387.474,105.855 L379.734,128.473 L377.584,128.473 Z" id="KONFORM" fill="#FFFFFF"></path>
            <g id="Group-26" transform="translate(25.000000, 14.000000)" fill="#F8E71C">
                <polygon id="Star" points="74 16.5 67.5343622 19.8991869 68.7691892 12.6995935 63.5383783 7.60081306 70.7671811 6.55040653 74 0 77.2328189 6.55040653 84.4616217 7.60081306 79.2308108 12.6995935 80.4656378 19.8991869"></polygon>
                <polygon id="Star-Copy-16" points="74 143.5 67.5343622 146.899187 68.7691892 139.699593 63.5383783 134.600813 70.7671811 133.550407 74 127 77.2328189 133.550407 84.4616217 134.600813 79.2308108 139.699593 80.4656378 146.899187"></polygon>
                <polygon id="Star-Copy-7" points="128 48.5 121.534362 51.8991869 122.769189 44.6995935 117.538378 39.6008131 124.767181 38.5504065 128 32 131.232819 38.5504065 138.461622 39.6008131 133.230811 44.6995935 134.465638 51.8991869"></polygon>
                <polygon id="Star-Copy-19" points="128 110.5 121.534362 113.899187 122.769189 106.699593 117.538378 101.600813 124.767181 100.550407 128 94 131.232819 100.550407 138.461622 101.600813 133.230811 106.699593 134.465638 113.899187"></polygon>
                <polygon id="Star-Copy-8" points="19 48.5 12.5343622 51.8991869 13.7691892 44.6995935 8.53837832 39.6008131 15.7671811 38.5504065 19 32 22.2328189 38.5504065 29.4616217 39.6008131 24.2308108 44.6995935 25.4656378 51.8991869"></polygon>
                <polygon id="Star-Copy-20" points="19 110.5 12.5343622 113.899187 13.7691892 106.699593 8.53837832 101.600813 15.7671811 100.550407 19 94 22.2328189 100.550407 29.4616217 101.600813 24.2308108 106.699593 25.4656378 113.899187"></polygon>
                <polygon id="Star-Copy-17" points="11 78.5 4.53436222 81.8991869 5.76918916 74.6995935 0.538378321 69.6008131 7.76718111 68.5504065 11 62 14.2328189 68.5504065 21.4616217 69.6008131 16.2308108 74.6995935 17.4656378 81.8991869"></polygon>
                <polygon id="Star-Copy-18" points="136 78.5 129.534362 81.8991869 130.769189 74.6995935 125.538378 69.6008131 132.767181 68.5504065 136 62 139.232819 68.5504065 146.461622 69.6008131 141.230811 74.6995935 142.465638 81.8991869"></polygon>
                <polygon id="Star-Copy-11" points="43 24.5 36.5343622 27.8991869 37.7691892 20.6995935 32.5383783 15.6008131 39.7671811 14.5504065 43 8 46.2328189 14.5504065 53.4616217 15.6008131 48.2308108 20.6995935 49.4656378 27.8991869"></polygon>
                <polygon id="Star-Copy-14" points="43 133.5 36.5343622 136.899187 37.7691892 129.699593 32.5383783 124.600813 39.7671811 123.550407 43 117 46.2328189 123.550407 53.4616217 124.600813 48.2308108 129.699593 49.4656378 136.899187"></polygon>
                <polygon id="Star-Copy-12" points="105 24.5 98.5343622 27.8991869 99.7691892 20.6995935 94.5383783 15.6008131 101.767181 14.5504065 105 8 108.232819 14.5504065 115.461622 15.6008131 110.230811 20.6995935 111.465638 27.8991869"></polygon>
                <polygon id="Star-Copy-15" points="105 133.5 98.5343622 136.899187 99.7691892 129.699593 94.5383783 124.600813 101.767181 123.550407 105 117 108.232819 123.550407 115.461622 124.600813 110.230811 129.699593 111.465638 136.899187"></polygon>
            </g>
            <g id="Group-27" transform="translate(60.000000, 48.000000)" stroke="#FFFFFF" stroke-width="2">
                <path d="M1.51546564,8.55484563 C-1.77206095,51.7462724 10.6260858,77.4976609 38.6608142,86.1352095 C65.3794263,77.3811061 78.0681769,51.549864 76.6619915,8.3573818 C71.2560571,9.19732969 65.9580872,9.13414665 60.7727351,8.16662815 C55.3462105,7.15411001 48.1423358,4.79546088 39.143977,1.09120141 C31.9178652,4.41387916 24.5689167,6.77275821 17.0985621,8.16662815 C10.2658453,9.44152326 5.08466469,9.58519162 1.51546564,8.55484563 Z" id="Rectangle" fill="#142AA0"></path>
                <path d="M5.95214844,13.6210938 C8.53885484,13.8809939 13.0623125,13.4055759 19.5225215,12.1948398 C25.9827304,10.9841036 32.4640152,9.00183934 38.9663757,6.24804688 C46.5515038,9.33923206 52.6740474,11.3214964 57.3340066,12.1948398 C61.9939657,13.0681832 66.9119271,13.5436012 72.0878906,13.6210938 C72.4967448,51.75 61.2008517,74.2708333 38.2002113,81.1835938 C15.3199923,73.6627604 4.57063802,51.1419271 5.95214844,13.6210938 Z" id="Rectangle" fill="#FFFFFF"></path>
            </g>
            <polyline id="Path-32" stroke="#13279A" stroke-width="10" stroke-linecap="round" points="81 91 95.9179688 105 119.328125 73"></polyline>
        </g>
    </g>
</svg>