
<svg width="396px" height="178px" viewBox="0 0 396 178" version="1.1" xmlns="http://www.w3.org/2000/svg" xmlns:xlink="http://www.w3.org/1999/xlink">
    <g id="Page-1" stroke="none" stroke-width="1" fill="none" fill-rule="evenodd">
        <g id="Group-28">
            <rect id="Rectangle" fill="#13279A" x="0" y="0" width="396" height="178" rx="13"></rect>
            <text id="DSGVO" font-family="VodafoneRg-Bold, Vodafone Rg" font-size="60" font-weight="bold" fill="#FFFFFF">
                <tspan x="187" y="81">DSGVO</tspan>
            </text>
            <text id="KONFORM" font-family="VodafoneRg-Regular, Vodafone Rg" font-size="43" font-weight="normal" fill="#FFFFFF">
                <tspan x="187" y="128">KONFORM</tspan>
            </text>
            <g id="Group-26" transform="translate(25.000000, 14.000000)" fill="#F8E71C">
                <polygon id="Star" points="74 16.5 67.5343622 19.8991869 68.7691892 12.6995935 63.5383783 7.60081306 70.7671811 6.55040653 74 0 77.2328189 6.55040653 84.4616217 7.60081306 79.2308108 12.6995935 80.4656378 19.8991869"></polygon>
                <polygon id="Star-Copy-16" points="74 143.5 67.5343622 146.899187 68.7691892 139.699593 63.5383783 134.600813 70.7671811 133.550407 74 127 77.2328189 133.550407 84.4616217 134.600813 79.2308108 139.699593 80.4656378 146.899187"></polygon>
                <polygon id="Star-Copy-7" points="128 48.5 121.534362 51.8991869 122.769189 44.6995935 117.538378 39.6008131 124.767181 38.5504065 128 32 131.232819 38.5504065 138.461622 39.6008131 133.230811 44.6995935 134.465638 51.8991869"></polygon>
                <polygon id="Star-Copy-19" points="128 110.5 121.534362 113.899187 122.769189 106.699593 117.538378 101.600813 124.767181 100.550407 128 94 131.232819 100.550407 138.461622 101.600813 133.230811 106.699593 134.465638 113.899187"></polygon>
                <polygon id="Star-Copy-8" points="19 48.5 12.5343622 51.8991869 13.7691892 44.6995935 8.53837832 39.6008131 15.7671811 38.5504065 19 32 22.2328189 38.5504065 29.4616217 39.6008131 24.2308108 44.6995935 25.4656378 51.8991869"></polygon>
                <polygon id="Star-Copy-20" points="19 110.5 12.5343622 113.899187 13.7691892 106.699593 8.53837832 101.600813 15.7671811 100.550407 19 94 22.2328189 100.550407 29.4616217 101.600813 24.2308108 106.699593 25.4656378 113.899187"></polygon>
                <polygon id="Star-Copy-17" points="11 78.5 4.53436222 81.8991869 5.76918916 74.6995935 0.538378321 69.6008131 7.76718111 68.5504065 11 62 14.2328189 68.5504065 21.4616217 69.6008131 16.2308108 74.6995935 17.4656378 81.8991869"></polygon>
                <polygon id="Star-Copy-18" points="136 78.5 129.534362 81.8991869 130.769189 74.6995935 125.538378 69.6008131 132.767181 68.5504065 136 62 139.232819 68.5504065 146.461622 69.6008131 141.230811 74.6995935 142.465638 81.8991869"></polygon>
                <polygon id="Star-Copy-11" points="43 24.5 36.5343622 27.8991869 37.7691892 20.6995935 32.5383783 15.6008131 39.7671811 14.5504065 43 8 46.2328189 14.5504065 53.4616217 15.6008131 48.2308108 20.6995935 49.4656378 27.8991869"></polygon>
                <polygon id="Star-Copy-14" points="43 133.5 36.5343622 136.899187 37.7691892 129.699593 32.5383783 124.600813 39.7671811 123.550407 43 117 46.2328189 123.550407 53.4616217 124.600813 48.2308108 129.699593 49.4656378 136.899187"></polygon>
                <polygon id="Star-Copy-12" points="105 24.5 98.5343622 27.8991869 99.7691892 20.6995935 94.5383783 15.6008131 101.767181 14.5504065 105 8 108.232819 14.5504065 115.461622 15.6008131 110.230811 20.6995935 111.465638 27.8991869"></polygon>
                <polygon id="Star-Copy-15" points="105 133.5 98.5343622 136.899187 99.7691892 129.699593 94.5383783 124.600813 101.767181 123.550407 105 117 108.232819 123.550407 115.461622 124.600813 110.230811 129.699593 111.465638 136.899187"></polygon>
            </g>
            <g id="Group-27" transform="translate(60.000000, 48.000000)" stroke="#FFFFFF" stroke-width="2">
                <path d="M1.51546564,8.55484563 C-1.77206095,51.7462724 10.6260858,77.4976609 38.6608142,86.1352095 C65.3794263,77.3811061 78.0681769,51.549864 76.6619915,8.3573818 C71.2560571,9.19732969 65.9580872,9.13414665 60.7727351,8.16662815 C55.3462105,7.15411001 48.1423358,4.79546088 39.143977,1.09120141 C31.9178652,4.41387916 24.5689167,6.77275821 17.0985621,8.16662815 C10.2658453,9.44152326 5.08466469,9.58519162 1.51546564,8.55484563 Z" id="Rectangle" fill="#142AA0"></path>
                <path d="M5.95214844,13.6210938 C8.53885484,13.8809939 13.0623125,13.4055759 19.5225215,12.1948398 C25.9827304,10.9841036 32.4640152,9.00183934 38.9663757,6.24804688 C46.5515038,9.33923206 52.6740474,11.3214964 57.3340066,12.1948398 C61.9939657,13.0681832 66.9119271,13.5436012 72.0878906,13.6210938 C72.4967448,51.75 61.2008517,74.2708333 38.2002113,81.1835938 C15.3199923,73.6627604 4.57063802,51.1419271 5.95214844,13.6210938 Z" id="Rectangle" fill="#FFFFFF"></path>
            </g>
            <polyline id="Path-32" stroke="#13279A" stroke-width="10" stroke-linecap="round" points="81 91 95.9179688 105 119.328125 73"></polyline>
        </g>
    </g>
</svg>