
<svg width="129px" height="129px" viewBox="0 0 129 129" version="1.1" xmlns="http://www.w3.org/2000/svg" xmlns:xlink="http://www.w3.org/1999/xlink">
    <g id="Page-1" stroke="none" stroke-width="1" fill="none" fill-rule="evenodd">
        <polygon id="Rectangle" fill="#D4BB9F" points="0 0 129 0 129 129"></polygon>
        <path d="M68.0138447,32.9818447 L70.6698447,32.9818447 L70.6698447,41.5898447 L68.0138447,41.5898447 L68.0138447,32.9818447 Z M68.0138447,29.9818447 L70.6538447,29.9818447 L70.6538447,32.0938447 L68.0138447,32.0938447 L68.0138447,29.9818447 Z M75.6538447,33.1738447 L75.6538447,34.3098447 C76.0378447,33.6698447 76.9818447,32.9818447 78.3258447,32.9818447 C80.5338447,32.9818447 81.2218447,34.2778447 81.2218447,36.6138447 L81.2218447,41.7818447 L78.5818447,41.7818447 L78.5818447,37.2698447 C78.5818447,36.0378447 78.5338447,35.0298447 77.2538447,35.0298447 C76.1338447,35.0298447 75.6538447,35.7818447 75.6538447,37.3658447 L75.6538447,41.7818447 L73.0138447,41.7818447 L73.0138447,33.1738447 L75.6538447,33.1738447 Z M83.0138447,29.9818447 L85.6538447,29.9818447 L85.6538447,36.2538447 L88.5498447,32.9738447 L91.6698447,32.9738447 L88.5978447,36.2698447 L91.9258447,41.5818447 L88.8378447,41.5818447 L86.8058447,38.1898447 L85.6538447,39.4218447 L85.6538447,41.5818447 L83.0138447,41.5818447 L83.0138447,29.9818447 Z M95.6538447,29.9818447 L95.6538447,41.5818447 L93.0138447,41.5818447 L93.0138447,29.9818447 L95.6538447,29.9818447 Z M99.9898447,41.8298447 L97.0138447,41.8298447 L97.0138447,38.9818447 L99.9898447,38.9818447 L99.9898447,41.8298447 Z M30.9338447,45.6298447 C33.5098447,45.6298447 35.5898447,46.9258447 36.1338447,49.4538447 L33.4458447,49.4538447 C33.2058447,48.6538447 32.3898447,47.8858447 30.9018447,47.8858447 C29.2218447,47.8858447 27.9098447,49.1338447 27.9098447,51.5818447 C27.9098447,54.0298447 29.1258447,55.3738447 30.9498447,55.3738447 C32.2138447,55.3738447 33.5258447,54.8938447 33.5258447,53.4218447 L33.5258447,53.1978447 L30.7258447,53.1978447 L30.7258447,50.9578447 L36.2618447,50.9578447 L36.2618447,57.4218447 L34.1658447,57.4218447 L34.0858447,56.1418447 C33.3338447,57.1498447 32.1978447,57.6298447 30.5338447,57.6298447 C27.1098447,57.6298447 25.0138447,55.2938447 25.0138447,51.5818447 C25.0138447,47.9178447 27.4138447,45.6298447 30.9338447,45.6298447 Z M43.4298447,48.7658447 L43.4298447,51.3418447 C43.1418447,51.3098447 42.9498447,51.2938447 42.7098447,51.2938447 C41.4458447,51.2938447 40.7738447,51.7578447 40.7738447,53.1018447 L40.7738447,57.4218447 L38.1338447,57.4218447 L38.1338447,48.8138447 L40.6778447,48.8138447 L40.6778447,50.4458447 C41.0778447,49.4378447 41.7978447,48.7978447 43.0298447,48.7498447 C43.1578447,48.7498447 43.3018447,48.7498447 43.4298447,48.7658447 Z M49.7338447,52.0458447 L49.7338447,51.7098447 C49.7338447,50.7018447 49.2218447,50.3338447 48.2778447,50.3338447 C47.4298447,50.3338447 46.8378447,50.7658447 46.7418447,51.5978447 L44.2778447,51.5978447 C44.3898447,49.9818447 45.9578447,48.5418447 48.5018447,48.5418447 C50.9658447,48.5418447 52.3898447,49.5338447 52.3418447,52.1578447 L52.3098447,54.0298447 C52.2938447,55.1498447 52.3418447,56.6858447 52.5018447,57.4218447 L49.9098447,57.4218447 L49.8778447,56.3818447 C49.2378447,57.2938447 48.2138447,57.6298447 46.9818447,57.6298447 C45.3498447,57.6298447 44.0058447,56.6698447 44.0058447,55.1018447 C44.0058447,52.9898447 46.3898447,52.2858447 49.7338447,52.0458447 Z M49.7978447,53.5978447 C47.9578447,53.7578447 46.7258447,53.9978447 46.7258447,54.9098447 C46.7258447,55.4698447 47.2538447,55.8378447 47.9418447,55.8378447 C48.9978447,55.8378447 49.7978447,55.3898447 49.7978447,53.8058447 L49.7978447,53.5978447 Z M54.4378447,48.8138447 L54.4378447,46.4618447 L57.0778447,46.4618447 L57.0778447,48.8138447 L58.9658447,48.8138447 L58.9658447,50.6858447 L57.0778447,50.6858447 L57.0778447,54.5418447 C57.0778447,55.3578447 57.3338447,55.5178447 58.2138447,55.5178447 L58.9658447,55.5178447 L58.9658447,57.4218447 L57.2858447,57.4218447 C55.1738447,57.4218447 54.4378447,57.0218447 54.4378447,55.0058447 L54.4378447,50.6858447 L53.0778447,50.6858447 L53.0778447,48.8138447 L54.4378447,48.8138447 Z M60.3578447,48.8138447 L63.0138447,48.8138447 L63.0138447,57.4218447 L60.3578447,57.4218447 L60.3578447,48.8138447 Z M60.3578447,45.8218447 L62.9978447,45.8218447 L62.9978447,47.9338447 L60.3578447,47.9338447 L60.3578447,45.8218447 Z M72.6618447,51.3418447 L70.1978447,51.3418447 C70.0378447,50.7018447 69.3498447,50.5098447 68.5178447,50.5098447 C67.6218447,50.5098447 67.1418447,50.7498447 67.1418447,51.1498447 C67.1418447,51.5498447 67.4458447,51.7738447 68.1978447,51.9178447 L69.7978447,52.2058447 C71.8778447,52.5898447 72.8538447,53.1978447 72.8538447,54.7178447 C72.8538447,56.6538447 71.0778447,57.6298447 68.6938447,57.6298447 C66.4218447,57.6298447 64.7738447,56.6378447 64.4698447,54.6218447 L66.9178447,54.6218447 C67.1418447,55.4538447 67.8138447,55.7098447 68.7258447,55.7098447 C69.6538447,55.7098447 70.3258447,55.4538447 70.3258447,54.9418447 C70.3258447,54.5578447 69.9738447,54.3178447 68.9818447,54.1418447 L67.4458447,53.8858447 C65.7818447,53.6138447 64.6458447,52.7658447 64.6458447,51.2458447 C64.6458447,49.5178447 66.4538447,48.5898447 68.5818447,48.5898447 C70.5498447,48.5898447 72.3258447,49.3898447 72.6618447,51.3418447 Z M79.3978447,52.0458447 L79.3978447,51.7098447 C79.3978447,50.7018447 78.8858447,50.3338447 77.9418447,50.3338447 C77.0938447,50.3338447 76.5018447,50.7658447 76.4058447,51.5978447 L73.9418447,51.5978447 C74.0538447,49.9818447 75.6218447,48.5418447 78.1658447,48.5418447 C80.6298447,48.5418447 82.0538447,49.5338447 82.0058447,52.1578447 L81.9738447,54.0298447 C81.9578447,55.1498447 82.0058447,56.6858447 82.1658447,57.4218447 L79.5738447,57.4218447 L79.5418447,56.3818447 C78.9018447,57.2938447 77.8778447,57.6298447 76.6458447,57.6298447 C75.0138447,57.6298447 73.6698447,56.6698447 73.6698447,55.1018447 C73.6698447,52.9898447 76.0538447,52.2858447 79.3978447,52.0458447 Z M79.4618447,53.5978447 C77.6218447,53.7578447 76.3898447,53.9978447 76.3898447,54.9098447 C76.3898447,55.4698447 76.9178447,55.8378447 77.6058447,55.8378447 C78.6618447,55.8378447 79.4618447,55.3898447 79.4618447,53.8058447 L79.4618447,53.5978447 Z M86.3258447,48.8138447 L86.3258447,49.9498447 C86.7098447,49.3098447 87.6538447,48.6218447 88.9978447,48.6218447 C91.2058447,48.6218447 91.8938447,49.9178447 91.8938447,52.2538447 L91.8938447,57.4218447 L89.2538447,57.4218447 L89.2538447,52.9098447 C89.2538447,51.6778447 89.2058447,50.6698447 87.9258447,50.6698447 C86.8058447,50.6698447 86.3258447,51.4218447 86.3258447,53.0058447 L86.3258447,57.4218447 L83.6858447,57.4218447 L83.6858447,48.8138447 L86.3258447,48.8138447 Z M99.5098447,49.9818447 L99.5098447,48.8138447 L102.133845,48.8138447 L102.133845,56.2698447 C102.133845,59.4538447 100.101845,60.4298447 97.7178447,60.4298447 C95.1738447,60.4298447 93.6858447,59.0538447 93.4138447,57.4698447 L95.8938447,57.4698447 C96.1018447,58.2058447 96.7258447,58.5738447 97.6858447,58.5738447 C99.0138447,58.5738447 99.5098447,57.9018447 99.5098447,56.7818447 L99.5098447,55.7578447 C98.9498447,56.7018447 97.7978447,57.1178447 96.8538447,57.1178447 C94.6458447,57.1178447 93.0618447,55.5978447 93.0618447,52.8618447 C93.0618447,50.1258447 94.6458447,48.6218447 96.8538447,48.6218447 C97.7978447,48.6218447 98.9498447,49.0378447 99.5098447,49.9818447 Z M97.7178447,50.6698447 C96.6618447,50.6698447 95.7978447,51.3418447 95.7978447,52.8618447 C95.7978447,54.3818447 96.6618447,55.0698447 97.7178447,55.0698447 C98.7578447,55.0698447 99.6218447,54.5418447 99.6218447,52.8618447 C99.6218447,51.1658447 98.7578447,50.6698447 97.7178447,50.6698447 Z M110.085845,54.7178447 L112.517845,54.7178447 C111.749845,56.7498447 109.957845,57.6298447 108.229845,57.6298447 C105.429845,57.6298447 103.509845,55.9178447 103.509845,53.0698447 C103.509845,50.3178447 105.605845,48.5578447 108.117845,48.5578447 C110.965845,48.5578447 112.725845,50.7338447 112.549845,53.7898447 L106.165845,53.7898447 C106.245845,55.0058447 107.189845,55.5818447 108.149845,55.5818447 C109.141845,55.5818447 109.781845,55.2298447 110.085845,54.7178447 Z M108.117845,50.5738447 C107.189845,50.5738447 106.341845,51.0538447 106.197845,52.1898447 L109.925845,52.1898447 C109.893845,51.1178447 109.109845,50.5738447 108.117845,50.5738447 Z M118.357845,50.6698447 C117.317845,50.6698447 116.453845,51.3418447 116.453845,53.1178447 C116.453845,54.8938447 117.317845,55.5818447 118.357845,55.5818447 C119.413845,55.5818447 120.277845,54.7178447 120.277845,53.1178447 C120.277845,51.5178447 119.413845,50.6698447 118.357845,50.6698447 Z M116.581845,45.8218447 L116.581845,49.9818447 C117.141845,49.0378447 118.277845,48.6218447 119.221845,48.6218447 C121.429845,48.6218447 123.013845,50.3018447 123.013845,53.1178447 C123.013845,55.9338447 121.429845,57.6298447 119.221845,57.6298447 C118.277845,57.6298447 117.141845,57.2138447 116.581845,56.2698447 L116.581845,57.4218447 L113.941845,57.4218447 L113.941845,45.8218447 L116.581845,45.8218447 Z M128.517845,50.6058447 C127.477845,50.6058447 126.645845,51.2618447 126.645845,53.0858447 C126.645845,54.8938447 127.445845,55.5818447 128.517845,55.5818447 C129.589845,55.5818447 130.389845,54.8938447 130.389845,53.0858447 C130.389845,51.2618447 129.557845,50.6058447 128.517845,50.6058447 Z M128.517845,48.5578447 C130.901845,48.5578447 133.077845,49.9658447 133.077845,53.0858447 C133.077845,56.2058447 130.901845,57.6298447 128.517845,57.6298447 C126.133845,57.6298447 123.957845,56.2058447 123.957845,53.0858447 C123.957845,49.9658447 126.133845,48.5578447 128.517845,48.5578447 Z M134.869845,48.8138447 L134.869845,46.4618447 L137.509845,46.4618447 L137.509845,48.8138447 L139.397845,48.8138447 L139.397845,50.6858447 L137.509845,50.6858447 L137.509845,54.5418447 C137.509845,55.3578447 137.765845,55.5178447 138.645845,55.5178447 L139.397845,55.5178447 L139.397845,57.4218447 L137.717845,57.4218447 C135.605845,57.4218447 134.869845,57.0218447 134.869845,55.0058447 L134.869845,50.6858447 L133.509845,50.6858447 L133.509845,48.8138447 L134.869845,48.8138447 Z" id="inkl.-Gratisangebot" fill="#363636" transform="translate(82.205845, 45.205845) rotate(45.000000) translate(-82.205845, -45.205845) "></path>
    </g>
</svg>