
<svg width="24px" height="24px" viewBox="0 0 24 24" version="1.1" xmlns="http://www.w3.org/2000/svg" xmlns:xlink="http://www.w3.org/1999/xlink">
    <g id="Page-1" stroke="none" stroke-width="1" fill="none" fill-rule="evenodd">
        <g id="Edit_icon_(the_Noun_Project_30184)">
            <path d="M19.4469333,23.9797333 L0.857866667,23.9797333 C0.384266667,23.9797333 0,23.5957333 0,23.1216 L0,4.53253333 C0,4.05866667 0.384266667,3.67466667 0.857866667,3.67466667 L10.1522667,3.67466667 C10.6261333,3.67466667 11.0101333,4.05893333 11.0101333,4.53253333 C11.0101333,5.00613333 10.6258667,5.3904 10.1522667,5.3904 L1.716,5.3904 L1.716,22.2637333 L18.5890667,22.2637333 L18.5890667,13.8269333 C18.5890667,13.3530667 18.9733333,12.9690667 19.4469333,12.9690667 C19.9208,12.9690667 20.3048,13.3533333 20.3048,13.8269333 L20.3048,23.1216 C20.3050667,23.5957333 19.9208,23.9797333 19.4469333,23.9797333 Z" id="Path" fill="#333333"></path>
            <path d="M23.7490667,2.9424 L21.0752,0.2712 C20.7405333,-0.0634666667 20.1973333,-0.0634666667 19.8626667,0.2712 L17.4461333,2.69066667 L8.1056,12.0309333 C8.02826667,12.1082667 7.9656,12.1997333 7.92266667,12.2997333 L5.92373333,16.9698667 C5.78346667,17.2930667 5.85786667,17.6677333 6.104,17.9136 C6.26986667,18.0794667 6.4872,18.1653333 6.7104,18.1653333 C6.8248,18.1653333 6.9392,18.1424 7.05066667,18.0968 L11.7208,16.0978667 C11.8208,16.0549333 11.9125333,15.992 11.9896,15.9149333 L21.3298667,6.57466667 L23.7493333,4.15813333 C24.0837333,3.82026667 24.0837333,3.27706667 23.7490667,2.9424 Z M8.34293333,15.6773333 L9.12373333,13.8584 L10.1618667,14.8965333 L8.34293333,15.6773333 Z M11.18,14.2989333 L9.7216,12.8405333 L18.1352,4.42666667 L19.5938667,5.88506667 L11.18,14.2989333 Z M20.4029333,5.07573333 L18.9445333,3.61733333 L20.4688,2.09306667 L21.9272,3.5488 L20.4029333,5.07573333 Z" id="Shape" fill="#D2B593" fill-rule="nonzero"></path>
        </g>
    </g>
</svg>