<?xml version="1.0" encoding="utf-8"?>
<!-- Generator: Adobe Illustrator 17.0.0, SVG Export Plug-In . SVG Version: 6.00 Build 0)  -->
<!DOCTYPE svg PUBLIC "-//W3C//DTD SVG 1.1//EN" "http://www.w3.org/Graphics/SVG/1.1/DTD/svg11.dtd">
<svg version="1.1" id="Layer_1" xmlns="http://www.w3.org/2000/svg" xmlns:xlink="http://www.w3.org/1999/xlink" x="0px" y="0px"
	 width="210px" height="172px" viewBox="0 0 210 172" enable-background="new 0 0 210 172" xml:space="preserve">
<g transform="translate(-518 -214)">
	<g transform="translate(520 301.11)">
		<path fill="none" stroke="#464646" stroke-width="4" stroke-linecap="round" stroke-linejoin="round" d="M118.475,4.048h56.74
			l7.737,54.161h-49"/>
		<path fill="none" stroke="#464646" stroke-width="4" stroke-linecap="round" stroke-linejoin="round" d="M74.63,58.209H23.048
			l7.737-54.161h59.319"/>
		<path fill="none" stroke="#464646" stroke-width="4" stroke-linecap="round" stroke-linejoin="round" d="M74.63,45.313H48.396
			c0.338-4.748-3.745-7.737-9.873-7.737l2.579-18.054c5.924,0,9.7-2.989,10.035-5.158h26.072"/>
		<path fill="none" stroke="#464646" stroke-width="4" stroke-linecap="round" stroke-linejoin="round" d="M133.949,45.313h23.655
			c-0.338-4.748,3.745-7.737,9.873-7.737l-2.579-18.054c-5.924,0-9.7-2.989-10.035-5.158H131.37"/>
		<path fill="none" stroke="#464646" stroke-width="4" stroke-linecap="round" stroke-linejoin="round" d="M23.048,58.209v20.633
			h159.9V58.209"/>
		<path fill="none" stroke="#464646" stroke-width="4" stroke-linecap="round" stroke-linejoin="round" d="M79.788,4.048
			L74.63,55.63v23.212"/>
		<path fill="none" stroke="#464646" stroke-width="4" stroke-linecap="round" stroke-linejoin="round" d="M128.791,4.048
			l5.158,51.582v23.212"/>
	</g>
	<g transform="translate(543.01 216)">
		<path fill="none" stroke="#D4BB9F" stroke-width="4" stroke-linecap="round" stroke-linejoin="round" d="M79.99,73.683
			c45.9,0.449,43.845-51.582,43.845-51.582s-20.246-1.64-33.528,7.737"/>
		<path fill="none" stroke="#D4BB9F" stroke-width="4" stroke-linecap="round" stroke-linejoin="round" d="M77.41,65.948
			c18.054-54.161-38.044-43.334-49-61.9C27.848,7.331,3.919,71.187,61.938,73.684"/>
		<path fill="none" stroke="#D4BB9F" stroke-width="4" stroke-linecap="round" stroke-linejoin="round" d="M54.199,42.734
			c0,0,28.37,17.873,28.685,54.762l-0.315,14.874"/>
	</g>
</g>
</svg>
