<?xml version="1.0" encoding="utf-8"?>
<!-- Generator: Adobe Illustrator 16.2.1, SVG Export Plug-In . SVG Version: 6.00 Build 0)  -->
<!DOCTYPE svg PUBLIC "-//W3C//DTD SVG 1.1//EN" "http://www.w3.org/Graphics/SVG/1.1/DTD/svg11.dtd">
<svg version="1.1" id="Ebene_1" xmlns="http://www.w3.org/2000/svg" xmlns:xlink="http://www.w3.org/1999/xlink" x="0px" y="0px"
	 width="498.917px" height="82.807px" viewBox="0 0 498.917 82.807" enable-background="new 0 0 498.917 82.807"
	 xml:space="preserve">
<g id="Rot">
</g>
<g id="Ebene_1_1_">
	<g>
		<path fill="#A60D1F" d="M76.35,81.135l-14.545,0.062l-0.035-8.744c-5.454,7.681-14.803,10.353-22.148,10.353
			C15.582,82.804,0,64.441,0,41.402C0,18.364,15.582,0.001,39.622,0.001c14.663,0,30.207,6.967,34.78,22.549l0,0L54.87,28.716
			c-0.668-6.789-7.346-10.906-15.693-10.906C25.82,17.809,20.7,29.606,20.7,41.404s5.12,23.597,18.476,23.597
			c10.239,0,17.14-4.786,18.252-12.021H42.96V37.621H76.35V81.135z"/>
	</g>
	<g>
		<path fill="#A60D1F" d="M141.789,81.135h-18.364v-7.901h-0.224c-3.561,5.898-10.906,9.571-17.584,9.571
			c-16.583,0-21.369-9.571-21.369-24.709V23.37h18.92v33.502c0,7.68,3.339,10.351,9.35,10.351c4.117,0,10.35-2.671,10.35-12.909
			v-30.94h18.921L141.789,81.135L141.789,81.135z"/>
	</g>
	<g>
		<path fill="#A60D1F" d="M187.193,35.614h-11.687v26.267c0,4.562,2.671,5.564,6.79,5.564c1.559,0,3.229-0.224,4.896-0.224v13.912
			c-3.449,0.11-6.899,0.558-10.351,0.558c-16.138,0-20.256-4.675-20.256-20.367v-25.71h-9.571V23.372h9.571V5.897h18.92v17.475
			h11.687V35.614z"/>
	</g>
	<g>
		<path fill="#A60D1F" d="M208.56,56.873c0.334,7.901,4.897,13.133,12.912,13.133c4.561,0,9.014-2.113,10.795-6.345l15.87,4.928l0,0
			c-4.915,9.863-15.692,14.217-26.888,14.217c-18.809,0-31.607-11.354-31.607-30.719c0-17.696,14.135-30.385,31.164-30.385
			c20.7,0,31.051,15.581,30.161,35.171H208.56z M232.044,46.299c-0.334-6.455-4.896-11.798-11.241-11.798
			c-6.678,0-11.13,4.785-12.243,11.798H232.044z"/>
	</g>
	<g>
		<path fill="#A60D1F" d="M257.861,23.372h18.365V33.5h0.223c2.783-7.347,9.238-11.24,17.363-11.24c1.445,0,3.004,0.109,4.451,0.443
			v17.253c-2.449-0.668-4.674-1.113-7.234-1.113c-9.35,0-14.246,6.455-14.246,13.688v28.604h-18.92L257.861,23.372L257.861,23.372z"
			/>
	</g>
	<g>
		<path fill="#A60D1F" d="M324.97,1.669h40.512c14.023,0,27.824,6.345,27.824,22.371c0,8.569-4.117,16.693-12.465,19.922v0.224
			c8.459,2.004,10.904,11.464,11.572,19.031c0.225,3.339,0.559,15.024,3.34,17.919h-20.479c-1.781-2.671-2.115-10.462-2.338-12.688
			c-0.559-8.014-1.895-16.25-11.574-16.25h-15.693v28.938H324.97V1.669L324.97,1.669z M345.669,36.172h17.361
			c6.232,0,9.572-3.339,9.572-9.351c0-5.897-4.674-8.568-10.463-8.568h-16.471V36.172L345.669,36.172z"/>
	</g>
	<g>
		<path fill="#A60D1F" d="M400.535,41.178c0.334-7.567,3.896-12.465,9.018-15.47c5.119-2.896,11.797-4.008,18.361-4.008
			c13.689,0,26.938,3.006,26.938,19.365v25.266c0,4.896,0,10.238,2.225,14.803h-19.033c-0.668-1.78-0.891-3.562-1.111-5.453
			c-4.896,5.119-12.131,7.123-19.031,7.123c-11.021,0-19.699-5.564-19.699-17.476c0-18.809,20.479-17.361,33.611-20.032
			c3.227-0.668,5.008-1.78,5.008-5.343c0-4.341-5.229-6.011-9.127-6.011c-5.229,0-8.568,2.338-9.459,7.233L400.535,41.178
			L400.535,41.178z M425.021,71.118c9.016,0,12.02-5.119,11.574-17.027c-2.67,1.669-7.568,2.003-11.688,3.116
			c-4.229,1.001-7.791,2.781-7.791,7.346C417.119,69.225,420.791,71.118,425.021,71.118z"/>
	</g>
	<g>
		<path fill="#A60D1F" d="M498.917,35.614h-11.686v26.267c0,4.562,2.672,5.564,6.789,5.564c1.559,0,3.229-0.224,4.895-0.224v13.912
			c-3.447,0.11-6.898,0.558-10.35,0.558c-16.139,0-20.256-4.675-20.256-20.367v-25.71h-9.572V23.372h9.572V5.897h18.92v17.475
			h11.686L498.917,35.614L498.917,35.614z"/>
	</g>
</g>
</svg>
