<svg xmlns="http://www.w3.org/2000/svg" width="66.437" height="66.438" viewBox="0 0 66.437 66.438">
  <g id="search" transform="translate(-2041 -1069)">
    <g id="Group_1414" data-name="Group 1414" transform="translate(2043.151 1086.629)">
      <path id="Path_1674" data-name="Path 1674" d="M2097.948,1152.907l-6.938-5.4V1134h-9.354v6.236L2072.3,1134l-25.871,18.205" transform="translate(-2046.431 -1134)" fill="none" stroke="#d4bb9f" stroke-linecap="round" stroke-linejoin="round" stroke-width="2"/>
      <path id="Path_1675" data-name="Path 1675" d="M2132.551,1232.236V1226H2118v6.236" transform="translate(-2099.404 -1202.096)" fill="none" stroke="#d4bb9f" stroke-linecap="round" stroke-linejoin="round" stroke-width="2"/>
    </g>
    <g id="Group_1415" data-name="Group 1415" transform="translate(2042 1070)">
      <path id="Path_1676" data-name="Path 1676" d="M2104.264,1226a27.019,27.019,0,0,1-46.264.889" transform="translate(-2053.843 -1185.466)" fill="none" stroke="#464646" stroke-linecap="round" stroke-linejoin="round" stroke-width="2"/>
      <path id="Path_1677" data-name="Path 1677" d="M2094.667,1105.536a27.02,27.02,0,1,0-51.516-.7" transform="translate(-2042 -1070)" fill="none" stroke="#464646" stroke-linecap="round" stroke-linejoin="round" stroke-width="2"/>
      <path id="Path_1678" data-name="Path 1678" d="M2213.185,1235.3l14.4,14.4a4.157,4.157,0,0,1-5.879,5.879l-14.394-14.394" transform="translate(-2164.356 -1192.353)" fill="none" stroke="#464646" stroke-linecap="round" stroke-linejoin="round" stroke-width="2"/>
    </g>
  </g>
</svg>
