<?xml version="1.0" encoding="UTF-8"?>
<!DOCTYPE svg PUBLIC "-//W3C//DTD SVG 1.1//EN" "http://www.w3.org/Graphics/SVG/1.1/DTD/svg11.dtd">
<!-- Creator: CorelDRAW -->
<svg xmlns="http://www.w3.org/2000/svg" xml:space="preserve" width="800px" height="182px" style="shape-rendering:geometricPrecision; text-rendering:geometricPrecision; image-rendering:optimizeQuality; fill-rule:evenodd; clip-rule:evenodd"
viewBox="0 0 779.849 177.33"
 xmlns:xlink="http://www.w3.org/1999/xlink">
 <defs>
  <style type="text/css">
   <![CDATA[
    .fil6 {fill:#00A4E0}
    .fil5 {fill:#4AAD3F}
    .fil4 {fill:#DB2926}
    .fil3 {fill:#005EA2}
    .fil2 {fill:#005EA2;fill-rule:nonzero}
    .fil0 {fill:#242932;fill-rule:nonzero}
    .fil1 {fill:#F7FAFB;fill-rule:nonzero}
   ]]>
  </style>
 </defs>
<symbol id="Fm5-230-0" viewBox="400 61.4621 0.402134 0.400535">
 <polygon class="fil0" points="400.403,61.4621 400.403,61.7639 400.201,61.7639 400.201,61.8626 400,61.8626 400,61.4621 "/>
 <path class="fil1" d="M400.093 61.5793l-0.0132521 0 -0.00365577 0.0500383c-0.000799699,0.0105103 -0.00125667,0.0177076 -0.00205637,0.0314167 -0.000799699,-0.0145088 -0.00114243,-0.0229628 -0.00205637,-0.0302743l-0.00434122 -0.0511807 -0.0129094 0 -0.00445546 0.0536941c-0.000799699,0.00879668 -0.0015994,0.0140518 -0.00205637,0.0293604 -0.000342728,-0.0153085 -0.000799699,-0.0242194 -0.00114243,-0.030617l-0.00445546 -0.0524374 -0.0141661 0 0.0121097 0.128637 0.0141661 0 0.00399849 -0.0500383c0.000799699,-0.0108531 0.0015994,-0.0189643 0.0015994,-0.0342728 0.000799699,0.0170222 0.0015994,0.0258188 0.00205637,0.0355295l0.00399849 0.0487816 0.0145088 0 0.0121097 -0.128637zm0.0487816 0.061691c0,-0.0559789 -0.0137091,-0.0624907 -0.0258188,-0.0624907 -0.00559789,0 -0.0121097,0.000456971 -0.0161082,0.000799699l0 0.128637c0.00525516,0.000342728 0.0100534,0.000799699 0.0153085,0.000799699 0.0148515,0 0.0266185,-0.019764 0.0266185,-0.0677459zm-0.0145088 0.00285607c0,0.0250191 -0.00491243,0.0358722 -0.0100534,0.0358722 -0.00125667,0 -0.00251334,0 -0.00365577,0l0 -0.0730011c0.0015994,0 0.00285607,0 0.00365577,0 0.00845396,0 0.0100534,0.0165652 0.0100534,0.0371289zm0.0628335 0.0640901l-0.00971063 -0.0451259c-0.0015994,-0.00685456 -0.00274182,-0.0101676 -0.00399849,-0.0121097 0.00571213,-0.00365577 0.00971063,-0.0169079 0.00971063,-0.0339301 0,-0.0153085 -0.00319879,-0.0261616 -0.00765426,-0.0322164 -0.00365577,-0.00479819 -0.00845396,-0.00605486 -0.0137091,-0.00605486 -0.00479819,0 -0.0105103,0.000456971 -0.0153085,0.000799699l0 0.128637 0.0132521 0 0 -0.0471822 0.000799699 0c0.00125667,0 0.00205637,0.000799699 0.00331304,0.00811123l0.00674032 0.039071 0.0165652 0zm-0.0242194 -0.102361c0.00491243,0 0.00651183,0.00685456 0.00651183,0.0161082 0,0.0100534 -0.00319879,0.0164509 -0.00651183,0.0164509 0,0 -0.00194213,0 -0.00319879,-0.000342728l0 -0.0318737c0.000799699,-0.000342728 0.0023991,-0.000342728 0.00319879,-0.000342728z"/>
 <path class="fil1" d="M400.232 61.7236c-0.00594062,0.000456971 -0.0111958,0.000456971 -0.0145088,0l0.000913941 -0.0402134c0.00354152,0 0.00594062,0 0.0124525,-0.000913941 0.01131,-0.0015994 0.019307,-0.0156512 0.019307,-0.0374716 0,-0.0153085 -0.00399849,-0.0253619 -0.0121097,-0.0253619 -0.00639759,0 -0.0103961,0.000799699 -0.0161082,0.00365577l0.00365577 -0.11847 0.0439834 0 -0.00251334 0.0427268 -0.0233055 0 -0.00125667 0.0346155c0.0015994,-0.000799699 0.00399849,-0.00125667 0.00685456,-0.00125667 0.0129094,0 0.02262,0.0218203 0.0221631,0.0589492 0,0.0446689 -0.0153085,0.0821405 -0.039528,0.0837399z"/>
</symbol>
<symbol id="Fm1-210-0" viewBox="400 61.4621 0.402591 0.401791">
 <polygon class="fil2" points="400.389,61.5499 400.389,61.4875 400.365,61.5101 400.365,61.5254 400.373,61.5181 400.373,61.5653 "/>
 <polygon class="fil2" points="400,61.4879 400.347,61.4879 400.347,61.77 400.172,61.77 400.172,61.8639 400,61.8639 "/>
 <path class="fil1" d="M400.161 61.7159l-0.00845396 -0.0419271c-0.00125667,-0.00639759 -0.00205637,-0.00925366 -0.00365577,-0.0108531 0.00525516,-0.00319879 0.00891093,-0.0161082 0.00891093,-0.0314167 0,-0.0145088 -0.00285607,-0.0250191 -0.00685456,-0.0302743 -0.00285607,-0.00434122 -0.00731153,-0.00559789 -0.0116528,-0.00559789 -0.00445546,0 -0.0093679,0.000456971 -0.0133664,0.000799699l0 0.119269 0.01131 0 0 -0.0435265 0.000799699 0c0.00125667,0 0.0015994,0.000456971 0.00285607,0.00765426l0.00605486 0.0358722 0.0140518 0z"/>
 <path class="fil1" d="M400.119 61.6539c0,-0.0516377 -0.0116528,-0.0580353 -0.0221631,-0.0580353 -0.00479819,0 -0.0105103,0.000456971 -0.0140518,0.000799699l0 0.119269c0.00445546,0.000456971 0.00879668,0.000799699 0.0132521,0.000799699 0.0129094,0 0.0229628,-0.0185073 0.0229628,-0.0628335z"/>
 <path class="fil1" d="M400.077 61.5967l-0.01131 0 -0.00319879 0.0463825c-0.000799699,0.00959638 -0.00125667,0.0164509 -0.00205637,0.0293604 -0.000342728,-0.0132521 -0.000799699,-0.0213634 -0.0015994,-0.0282179l-0.00399849 -0.0475249 -0.0108531 0 -0.00411274 0.0495813c-0.000342728,0.00845396 -0.00114243,0.0132521 -0.0015994,0.0274182 0,-0.0141661 -0.000799699,-0.0221631 -0.00114243,-0.0282179l-0.00365577 -0.0487816 -0.0121097 0 0.0105103 0.119269 0.0121097 0 0.00354152 -0.0462683c0.000799699,-0.0101676 0.00125667,-0.0173649 0.0015994,-0.0318737 0.000456971,0.0156512 0.000799699,0.0242194 0.00171364,0.0330161l0.00319879 0.0451259 0.0124525 0 0.0105103 -0.119269z"/>
 <path class="fil2" d="M400.107 61.6563c0,0.0234197 -0.00399849,0.0339301 -0.00891093,0.0339301 -0.000799699,0 -0.00194213,0 -0.00274182,-0.000456971l0 -0.0672889c0.00114243,-0.000456971 0.00194213,-0.000456971 0.00274182,-0.000456971 0.00765426,0 0.00891093,0.0153085 0.00891093,0.0342728z"/>
 <path class="fil2" d="M400.141 61.6212c0.00399849,0 0.00525516,0.00605486 0.00525516,0.0145088 0,0.00971063 -0.0023991,0.0157655 -0.00559789,0.0157655 0,0 -0.0015994,0 -0.00285607,-0.000456971l0 -0.0293604c0.00205637,-0.000456971 0.00285607,-0.000456971 0.00319879,-0.000456971z"/>
 <path class="fil3" d="M400.379 61.4713c-0.0109673,0 -0.019764,0.0237625 -0.019764,0.0532371 0,0.0298173 0.00879668,0.0535798 0.019764,0.0535798 0.0108531,0 0.019764,-0.0237625 0.019764,-0.0535798 0,-0.0294746 -0.00891093,-0.0532371 -0.019764,-0.0532371zm0 -0.00925366c0.0129094,0 0.0233055,0.027761 0.0233055,0.0624907 0,0.0346155 -0.0103961,0.0628335 -0.0233055,0.0628335 -0.0129094,0 -0.0234197,-0.0282179 -0.0234197,-0.0628335 0,-0.0347298 0.0105103,-0.0624907 0.0234197,-0.0624907z"/>
</symbol>
<symbol id="Fm3-220-0" viewBox="400 61.4621 0.402134 0.400535">
 <polygon class="fil2" points="400.403,61.4621 400.403,61.7639 400.201,61.7639 400.201,61.8626 400,61.8626 400,61.4621 "/>
 <path class="fil1" d="M400.093 61.5793l-0.0132521 0 -0.00365577 0.0500383c-0.000799699,0.0105103 -0.00125667,0.0177076 -0.00205637,0.0314167 -0.000799699,-0.0145088 -0.00114243,-0.0229628 -0.00205637,-0.0302743l-0.00434122 -0.0511807 -0.0129094 0 -0.00445546 0.0536941c-0.000799699,0.00879668 -0.0015994,0.0140518 -0.00205637,0.0293604 -0.000342728,-0.0153085 -0.000799699,-0.0242194 -0.00114243,-0.030617l-0.00445546 -0.0524374 -0.0141661 0 0.0121097 0.128637 0.0141661 0 0.00399849 -0.0500383c0.000799699,-0.0108531 0.0015994,-0.0189643 0.0015994,-0.0342728 0.000799699,0.0170222 0.0015994,0.0258188 0.00205637,0.0355295l0.00399849 0.0487816 0.0145088 0 0.0121097 -0.128637z"/>
 <path class="fil1" d="M400.142 61.641c0,-0.0559789 -0.0137091,-0.0624907 -0.0258188,-0.0624907 -0.00559789,0 -0.0121097,0.000456971 -0.0161082,0.000799699l0 0.128637c0.00525516,0.000342728 0.0100534,0.000799699 0.0153085,0.000799699 0.0148515,0 0.0266185,-0.019764 0.0266185,-0.0677459z"/>
 <path class="fil2" d="M400.127 61.6439c0,0.0250191 -0.00491243,0.0358722 -0.0100534,0.0358722 -0.00125667,0 -0.00251334,0 -0.00365577,0l0 -0.0730011c0.0015994,0 0.00285607,0 0.00365577,0 0.00845396,0 0.0100534,0.0165652 0.0100534,0.0371289z"/>
 <path class="fil1" d="M400.19 61.7079l-0.00971063 -0.0451259c-0.0015994,-0.00685456 -0.00274182,-0.0101676 -0.00399849,-0.0121097 0.00571213,-0.00365577 0.00971063,-0.0169079 0.00971063,-0.0339301 0,-0.0153085 -0.00319879,-0.0261616 -0.00765426,-0.0322164 -0.00365577,-0.00479819 -0.00845396,-0.00605486 -0.0137091,-0.00605486 -0.00479819,0 -0.0105103,0.000456971 -0.0153085,0.000799699l0 0.128637 0.0132521 0 0 -0.0471822 0.000799699 0c0.00125667,0 0.00205637,0.000799699 0.00331304,0.00811123l0.00674032 0.039071 0.0165652 0z"/>
 <path class="fil1" d="M400.232 61.7236c-0.00594062,0.000456971 -0.0111958,0.000456971 -0.0145088,0l0.000913941 -0.0402134c0.00354152,0 0.00594062,0 0.0124525,-0.000913941 0.01131,-0.0015994 0.019307,-0.0156512 0.019307,-0.0374716 0,-0.0153085 -0.00399849,-0.0253619 -0.0121097,-0.0253619 -0.00639759,0 -0.0103961,0.000799699 -0.0161082,0.00365577l0.00365577 -0.11847 0.0439834 0 -0.00251334 0.0427268 -0.0233055 0 -0.00125667 0.0346155c0.0015994,-0.000799699 0.00399849,-0.00125667 0.00685456,-0.00125667 0.0129094,0 0.02262,0.0218203 0.0221631,0.0589492 0,0.0446689 -0.0153085,0.0821405 -0.039528,0.0837399z"/>
 <path class="fil2" d="M400.166 61.6056c0.00491243,0 0.00651183,0.00685456 0.00651183,0.0161082 0,0.0100534 -0.00319879,0.0164509 -0.00651183,0.0164509 0,0 -0.00194213,0 -0.00319879,-0.000342728l0 -0.0318737c0.000799699,-0.000342728 0.0023991,-0.000342728 0.00319879,-0.000342728z"/>
</symbol>
<symbol id="Fm0-226-0" viewBox="411.204 -168.866 34.1121 12.6633">
 <use transform="scale(84.7312 31.5171)" x="4.85304" y="-5.35792" width="0.402591" height="0.401791" xlink:href="#Fm1-210-0"/>
</symbol>
<symbol id="Fm2-233-0" viewBox="538.747 -32.0886 84.4482 33.4768">
 <use transform="scale(210 83.58)" x="2.56546" y="-0.383927" width="0.402134" height="0.400535" xlink:href="#Fm5-230-0"/>
</symbol>
<symbol id="Fm1-223-0" viewBox="538.844 -132.032 168.293 66.7143">
 <use transform="scale(418.5 166.563)" x="1.28756" y="-0.792685" width="0.402134" height="0.400535" xlink:href="#Fm3-220-0"/>
</symbol>
 <g id="Ebene_x0020_1">
  <metadata id="CorelCorpID_0Corel-Layer"/>
  <g id="_116960976">
   <path id="_118197680" class="fil4" d="M124.131 56.0201c0,-10.8995 3.16761,-21.4071 6.84268,-28.6234 1.64304,-3.22621 4.68612,-8.0276 6.9704,-10.7625 1.80481,-2.16067 7.88857,-7.0177 7.95015,-9.78294l-48.3628 0 0 56.4232 -49.1688 0 0 -56.4232 -48.3627 0 0 166.045 48.3627 0 0 -66.0958 49.1688 0 0 66.0958 48.3628 0 0 -66.9019c0,-0.703621 -7.0939,-7.96671 -8.22798,-9.50499 -2.81882,-3.82302 -4.51247,-6.26838 -6.68354,-10.6465 -3.82644,-7.71629 -6.8517,-16.663 -6.8517,-28.2112l0 -1.61208z"/>
   <path id="_120530688" class="fil5" d="M173.3 110.831c0,-14.6605 12.5998,-31.2696 20.4626,-38.7817 8.50845,-8.12928 25.1405,-17.2384 41.6028,-17.2384l6.85148 0c1.38942,0 1.56044,0.298059 2.82111,0.402934 -0.337587,-15.1573 -5.94816,-25.4945 -12.6544,-34.4991 -4.04408,-5.43007 -20.0813,-18.2969 -28.4538,-18.2969l-1.20914 0c-0.702478,-1.74037 -6.83651,-2.01513 -9.26942,-2.01513l-10.8816 0c-1.07788,0 -9.68184,2.01787 -10.801,2.49894 -3.34822,1.43946 -6.03818,1.58352 -9.27159,3.62503 -6.72215,4.24434 -9.08698,5.53529 -14.6877,11.1058 -7.62604,7.5848 -15.2146,21.2836 -15.2146,36.3723l0 5.23928c0,12.7891 5.85985,25.5912 11.7925,32.5401 3.50051,4.10017 6.91739,7.60822 11.3406,10.8255 2.12754,1.54742 12.0441,7.41526 14.751,7.41526l1.20914 0 0 0.806096 1.61208 0z"/>
   <path id="_112651616" class="fil6" d="M243.023 20.9571c0,0.140062 3.78989,6.19824 4.27359,7.41412 1.17099,2.94426 2.35146,5.39659 3.33383,8.35388 2.13474,6.42649 2.87115,11.5938 2.87115,20.101 2.84384,1.36463 6.43506,1.86296 9.54303,3.35382 3.25466,1.56124 5.44401,2.69179 8.46115,4.43547 5.38928,3.11448 9.71417,7.17844 13.9416,11.4489 4.09857,4.14027 7.65711,9.99086 10.3716,15.4217 3.39552,6.79321 4.13593,11.1491 6.04538,19.3452 21.7282,-5.06209 40.7052,-27.3648 40.7052,-54.8111l0 -2.82122c0,-15.8146 -9.56165,-29.5025 -17.6328,-37.5813 -8.31961,-8.32749 -22.644,-15.6177 -39.1933,-15.6177 -9.82841,0 -18.8058,3.16144 -25.3904,6.44831 -3.4587,1.72655 -17.33,10.8516 -17.33,14.5088z"/>
   <path id="_116960688" class="fil4" d="M376.423 45.1385l33.0479 0c3.5935,0 9.13404,2.66585 10.99,4.72782 2.34552,2.60565 3.51879,6.9872 3.51879,11.7961 0,10.3736 -5.54625,16.5239 -15.718,16.5239l-31.8387 0 0 -33.0479zm78.4298 -25.6338c-12.0446,-9.02951 -23.8009,-12.6534 -44.5759,-12.6534l-82.2167 0c0.0748289,2.70858 5.7921,7.31564 7.55921,9.36778 2.73497,3.17629 4.36658,6.30905 6.62802,9.89593 2.84019,4.5047 7.576,18.3733 7.576,25.4718l0 9.26954c0,9.87022 -4.00306,19.2687 -7.39024,26.0607 -1.92864,3.86723 -4.10177,7.08624 -6.64298,10.2839 -1.0997,1.38371 -7.73,7.85647 -7.73,8.79394l0 66.9019 48.3628 0 0 -56.4232 17.733 0c0.548136,2.35271 13.205,24.9864 15.3211,28.6084 1.81771,3.1114 14.3885,27.8148 16.1147,27.8148l53.602 0 -36.833 -65.1998c6.3038,-1.52183 16.6192,-10.1009 19.9091,-14.5958 3.55854,-4.86182 10.0725,-16.1369 10.0725,-24.1844l0 -9.26954c0,-17.2886 -7.63895,-32.7578 -17.4896,-40.1426z"/>
   <path id="_117162064" class="fil4" d="M545.29 132.997c2.42377,-3.61955 7.46119,-7.68236 10.0755,-11.2845 2.71166,-3.73631 7.27109,-7.52448 10.1508,-11.2095 2.78261,-3.56049 6.89157,-8.00544 10.1073,-11.2529 3.44544,-3.47949 6.37463,-7.64523 9.86874,-11.0884 3.66765,-3.61418 39.9992,-44.3084 39.9992,-45.0387l0 -36.6751 -137.834 0 0 40.3023 74.1563 0c-1.80298,2.69236 -7.68328,9.14467 -10.1766,11.5867 -3.52142,3.44887 -6.57329,7.81888 -10.0716,11.2884 -7.00068,6.94321 -13.6543,15.345 -20.3502,22.7732 -3.98193,4.41754 -40.4092,44.2097 -40.4092,45.4348l0 35.063 144.282 0 0 -39.8994 -79.7985 0z"/>
   <path id="_116960304" class="fil4" d="M180.957 122.922c0,6.91042 3.50165,17.4218 5.90075,22.3109 3.12031,6.35852 7.21408,11.1459 11.9324,15.8761 8.74128,8.76344 22.7696,15.4151 40.2021,15.4151l1.61219 0c13.5124,0 30.7195,-9.5612 37.1861,-16.8189 7.69527,-8.63663 16.0128,-21.5179 16.0128,-37.5893l0 -5.23928c0,-14.3608 -8.69752,-29.0559 -16.0207,-36.3721 -4.58878,-4.58456 -9.00986,-7.97082 -15.1479,-11.0486 -4.14118,-2.07647 -14.2525,-5.77817 -20.0153,-5.77817l-5.64222 0c-30.2167,0 -56.0203,25.2426 -56.0203,54.811l0 4.4333z"/>
   <path id="_117794096" class="fil4" d="M637.582 116.877c0,7.84984 3.85683,21.1075 6.70684,26.341 4.59724,8.44208 8.1832,11.6862 14.7517,17.8931 9.64848,9.11748 30.4589,16.2193 49.4735,16.2193 19.8307,0 38.8456,-6.6648 49.4735,-15.8161 5.98335,-5.152 11.1748,-10.2998 14.8754,-17.7695 3.01326,-6.08228 6.98617,-16.9041 6.98617,-25.6587l0 -111.234 -48.3628 0 0 102.368c0,15.6462 -5.45532,27.0025 -20.9571,27.0025l-3.6272 0c-12.8337,0 -20.5542,-9.48088 -20.5542,-22.1663l0 -107.607 -48.7657 0 0 110.428z"/>
  </g>
 </g>
</svg>
