
<svg width="79px" height="48px" viewBox="0 0 79 48" version="1.1" xmlns="http://www.w3.org/2000/svg" xmlns:xlink="http://www.w3.org/1999/xlink">
    <g id="Page-1" stroke="none" stroke-width="1" fill="none" fill-rule="evenodd">
        <g id="Group-23">
            <g id="growth-icon" transform="translate(17.000000, 18.000000)"></g>
            <g id="iconfinder_cash_3827994" fill="#D4BB9F" fill-rule="nonzero">
                <path d="M36.0895159,16.6557518 L36.0895159,7.59669409 C36.0895159,4.99482636 30.6760885,3.79834704 25.6425507,3.79834704 C24.0518478,3.79219622 22.4634236,3.91925177 20.8939302,4.17818175 L20.8939302,3.79834704 C20.8939302,1.19647932 15.4805029,0 10.4469651,0 C5.41342738,0 0,1.19647932 0,3.79834704 L0,32.2859499 C0,34.8878176 5.41342738,36.0842969 10.4469651,36.0842969 C12.2511388,36.0874149 14.0513678,35.9156865 15.8224035,35.5715201 C21.316125,39.2729582 28.6379536,38.6932898 33.4806147,34.1735213 C38.3232758,29.6537528 39.4050347,22.3901572 36.0895159,16.6557518 Z M30.1822319,11.0531899 C31.5687288,10.8701953 32.9197969,10.4796586 34.1900677,9.89469405 L34.1900677,14.0918675 C33.0435953,12.850809 31.6867855,11.8220972 30.1822319,11.0531899 Z M10.4469651,7.59669409 C13.3700323,7.70421187 16.2828316,7.19292773 18.994482,6.096347 L18.994482,9.49586761 C18.8425262,10.0276362 15.9933539,11.3950411 10.4469651,11.3950411 C4.90057636,11.3950411 2.05140406,10.0086445 1.8994482,9.49586761 L1.8994482,6.096347 C4.61109866,7.19292773 7.5238979,7.70421187 10.4469651,7.59669409 Z M10.3329982,18.9917352 C9.8672789,20.20932 9.58560068,21.4894904 9.49724102,22.7900823 C4.55867569,22.6381484 1.99442061,21.4036856 1.8994482,20.8909087 L1.8994482,17.4913881 C4.57682994,18.5684953 7.4483508,19.0793452 10.3329982,18.9917352 Z M1.8994482,26.5884293 L1.8994482,23.1889087 C4.3055509,24.1941917 6.8895629,24.7044602 9.49724102,24.6892558 C9.58835053,25.9858682 9.85677117,27.2638769 10.2950093,28.4876028 C4.8625874,28.4876028 2.05140406,27.1012061 1.8994482,26.5884293 Z M11.1687554,17.0925617 L10.4469651,17.0925617 C4.90057636,17.0925617 2.05140406,15.706165 1.8994482,15.1933882 L1.8994482,11.7938676 C4.61109866,12.8904483 7.5238979,13.4017324 10.4469651,13.2942146 C11.7552906,13.2989369 13.062476,13.2164565 14.3598284,13.0473221 C13.0599768,14.1914579 11.9787428,15.56211 11.1687554,17.0925617 Z M25.6425507,5.69752056 C31.207934,5.69752056 34.0571063,7.08391723 34.1900677,7.59669409 C34.323029,8.10947094 31.207934,9.49586761 25.6425507,9.49586761 C24.0511605,9.49949524 22.4624149,9.36605992 20.8939302,9.09704117 L20.8939302,6.096347 C22.4624149,5.82732826 24.0511605,5.69389293 25.6425507,5.69752056 Z M10.4469651,1.89917352 C15.9553649,1.89917352 18.8045372,3.26657846 18.994482,3.79834704 C18.8045372,4.31112389 16.1453097,5.58357015 11.0357941,5.69752056 L10.4469651,5.69752056 C4.90057636,5.69752056 2.05140406,4.31112389 1.8994482,3.79834704 C2.05140406,3.28557019 4.90057636,1.89917352 10.4469651,1.89917352 Z M10.4469651,34.1851234 C4.90057636,34.1851234 2.05140406,32.7987267 1.8994482,32.2859499 L1.8994482,28.8864293 C4.61109866,29.98301 7.5238979,30.4942941 10.4469651,30.3867763 L11.149761,30.3867763 C11.8534016,31.7182966 12.7637801,32.9298223 13.8469774,33.9762143 C12.7189616,34.1151144 11.583503,34.184881 10.4469651,34.1851234 Z M23.7431025,36.0842969 C16.9243667,36.0842969 11.3966892,30.5574187 11.3966892,23.739669 C11.3966892,16.9219193 16.9243667,11.3950411 23.7431025,11.3950411 C30.5618383,11.3950411 36.0895159,16.9219193 36.0895159,23.739669 C36.0790563,30.5530822 30.5575011,36.0738388 23.7431025,36.0842969 Z" id="Shape"></path>
            </g>
            <polyline id="Path" stroke="#464646" stroke-width="2" fill="#FFFFFF" stroke-linecap="round" stroke-linejoin="round" points="53 18.04125 74.2775 18.04125 77.178875 38.351625 58.803875 38.351625"></polyline>
            <polyline id="Path" stroke="#464646" stroke-width="2" fill="#FFFFFF" stroke-linecap="round" stroke-linejoin="round" points="36.34325 38.351625 17 38.351625 19.901375 18.04125 53.3745117 18.04125"></polyline>
            <path d="M36.540125,33.647125 L26.702375,33.647125 C26.829125,31.866625 25.298,30.74575 23,30.74575 L23.967125,23.9755 C26.188625,23.9755 27.604625,22.854625 27.73025,22.04125 L37.50725,22.04125" id="Path" stroke="#464646" stroke-width="2" fill="#FFFFFF" stroke-linecap="round" stroke-linejoin="round"></path>
            <path d="M58.967125,33.647125 L67.83775,33.647125 C67.711,31.866625 69.242125,30.74575 71.540125,30.74575 L70.573,23.9755 C68.3515,23.9755 66.9355,22.854625 66.809875,22.04125 L58,22.04125" id="Path" stroke="#464646" stroke-width="2" fill="#FFFFFF" stroke-linecap="round" stroke-linejoin="round"></path>
            <polyline id="Path" stroke="#464646" stroke-width="2" fill="#FFFFFF" stroke-linecap="round" stroke-linejoin="round" points="17 39.04125 17 46.778625 76.9625 46.778625 76.9625 39.04125"></polyline>
            <polyline id="Path" stroke="#464646" stroke-width="2" fill="#FFFFFF" stroke-linecap="round" stroke-linejoin="round" points="37.93425 18.04125 36 37.3845 36 46.089"></polyline>
            <polyline id="Path" stroke="#464646" stroke-width="2" fill="#FFFFFF" stroke-linecap="round" stroke-linejoin="round" points="57 18.04125 58.93425 37.3845 58.93425 46.089"></polyline>
        </g>
    </g>
</svg>