
<svg width="60px" height="60px" viewBox="0 0 60 60" version="1.1" xmlns="http://www.w3.org/2000/svg" xmlns:xlink="http://www.w3.org/1999/xlink">
    <g id="Page-1" stroke="none" stroke-width="1" fill="none" fill-rule="evenodd">
        <g id="unterstutzung-2">
            <g id="unterstutzung">
                <path d="M20,0 C11.71575,0 5,6.71575 5,15 L5,26 C5.004375,29.864125 8.135875,32.995625 12,33 L12,33 C12.5522847,33 13,32.5522847 13,32 L13,32 C13,31.4477153 12.5522847,31 12,31 C9.24,30.99675 7.00325,28.76 7,26 L7,15 C7,7.82025 12.82025,2 20,2 C27.17975,2 33,7.82025 33,15 L33,26 C32.99675,28.76 30.76,30.99675 28,31 L28,31 C27.4477153,31 27,31.4477153 27,32 L27,32 C27,32.5522847 27.4477153,33 28,33 C31.864125,32.995625 34.995625,29.864125 35,26 L35,15 C35,6.71575 28.28425,0 20,0 Z" id="Path" fill="#464646"></path>
                <path d="M8.241,47.129 L8.43575636,46.8223453 C8.73183011,46.3561608 8.59392808,45.7382284 8.12774357,45.4421546 C8.12766239,45.4421031 8.1275812,45.4420515 8.1275,45.442 L8.1275,45.442 C7.66114423,45.1460063 7.04313786,45.284112 6.74714414,45.7504678 C6.74712549,45.7504972 6.74710684,45.7505266 6.74708819,45.750556 L6.552,46.058 C4.341125,49.542 4.50525,54.028 6.965,57.341 L6.965,59 C6.965,59.5522847 7.41271525,60 7.965,60 L7.965,60 C8.51728475,60 8.965,59.5522847 8.965,59 L8.965,57 C8.965125,56.772875 8.887875,56.552375 8.746,56.375 C6.62,53.71725 6.417125,50.0025 8.241,47.129 Z" id="Path" fill="#464646"></path>
                <path d="M55,0 L42,0 C39.24,0.00325 37.00325,2.24 37,5 L37,15 C37.00325,17.76 39.24,19.99675 42,20 L44,20 L44,24 C43.999875,24.404375 44.243375,24.769125 44.617,24.924 C44.738375,24.974625 44.8685,25.000375 45,25 C45.26525,25 45.5195,24.8945 45.707,24.707 L50.414,20 L55,20 C57.76,19.99675 59.99675,17.76 60,15 L60,5 C59.99675,2.24 57.76,0.00325 55,0 Z M58,15 C58,16.656875 56.656875,18 55,18 L50,18 C49.73475,18 49.4805,18.1055 49.293,18.293 L46,21.586 L46,19 C46,18.44775 45.55225,18 45,18 L42,18 C40.343125,18 39,16.656875 39,15 L39,5 C39,3.343125 40.343125,2 42,2 L55,2 C56.656875,2 58,3.343125 58,5 L58,15 Z" id="Shape" fill="#D4BB9F" fill-rule="nonzero"></path>
                <rect id="Rectangle" fill="#D4BB9F" x="42" y="5" width="7" height="2"></rect>
                <rect id="Rectangle" fill="#D4BB9F" x="51" y="5" width="4" height="2"></rect>
                <rect id="Rectangle" fill="#D4BB9F" x="42" y="9" width="13" height="2"></rect>
                <rect id="Rectangle" fill="#D4BB9F" x="42" y="13" width="7" height="2"></rect>
                <path d="M33.448,46.058 L33.2529118,45.750556 C32.9569668,45.2841693 32.3389749,45.145999 31.8725882,45.441944 C31.8725588,45.4419627 31.8725294,45.4419813 31.8725,45.442 L31.8725,45.442 C31.4060813,45.7380337 31.2679268,46.3561063 31.5639118,46.822556 L31.759,47.13 C33.583,50.003125 33.380125,53.717625 31.254,56.375 C31.112125,56.552375 31.034875,56.772875 31.035,57 L31.035,59 C31.035,59.5522847 31.4827153,60 32.035,60 L32.035,60 C32.5872847,60 33.035,59.5522847 33.035,59 L33.035,57.341 C35.49475,54.028 35.658875,49.542 33.448,46.058 Z" id="Path" fill="#464646"></path>
                <path d="M59,34 L50,34 C46.248,34.004375 43.16675,36.966125 43.014,40.715 L40,46.141 L40,42 C39.995625,38.135875 36.864125,35.004375 33,35 L29.345,35 L29.318,34.979 L29.3,35 L27,35 C25.895375,35 25,34.104625 25,33 L25,30.647 C28.089875,28.863 29.99525,25.567875 30,22 L30,14 C29.9985,12.343125 29.58625,10.7125 28.8,9.254 C28.548125,8.79 27.978875,8.601625 27.5,8.824 L10.574,16.788 C10.2235,16.953 9.999875,17.305625 10,17.693 L10,22 C10.00475,25.567875 11.910125,28.863 15,30.647 L15,33 C15,34.104625 14.104625,35 13,35 L7,35 C3.135875,35.004375 0.004375,38.135875 0,42 L0,59 C6.76353751e-17,59.5522847 0.44771525,60 1,60 L1,60 C1.55228475,60 2,59.5522847 2,59 L2,42 C2.00325,39.24 4.24,37.00325 7,37 L10.182,37 L19.187,49.582 C19.372,49.840625 19.669,49.99575 19.987,50 L20,50 C20.31475,50 20.611125,49.85175 20.8,49.6 L30.3,37 L33,37 C35.76,37.00325 37.99675,39.24 38,42 L38,50 C38.0005,50.55225 38.448625,50.999625 39.000875,50.999125 C39.363625,50.99875 39.69775,50.802125 39.874,50.485 L44.588,42 L50.321,42 L41.1127721,58.9998054 C40.9345575,59.3288168 41.0568026,59.7400047 41.385814,59.9182193 C41.4849009,59.9718913 41.5958106,60 41.7085,60 L41.7085,60 C42.4094017,60 43.0540104,59.6161383 43.3879439,58.9998985 L52.6,42 L53,42 C56.864125,41.995625 59.995625,38.864125 60,35 C60,34.44775 59.55225,34 59,34 Z M12,22 L12,18.328 L27.441,11.062 C27.810375,11.9975 28,12.99425 28,14 L28,22 C28,26.41825 24.41825,30 20,30 C15.58175,30 12,26.41825 12,22 Z M20.021,47.312 L16.935,43 L23.271,43 L20.021,47.312 Z M24.784,41 L15.5,41 L12.637,37 L13,37 C15.209125,37 17,35.209125 17,33 L17,31.539 C18.95275,32.153625 21.04725,32.153625 23,31.539 L23,33 C23,35.209125 24.790875,37 27,37 L27.8,37 L24.784,41 Z M53,40 L45.1,40 C45.578125,37.673375 47.62475,36.002625 50,36 L57.9,36 C57.421875,38.326625 55.37525,39.997375 53,40 Z" id="Shape" fill="#464646" fill-rule="nonzero"></path>
            </g>
        </g>
    </g>
</svg>