
<svg width="51px" height="58px" viewBox="0 0 51 58" version="1.1" xmlns="http://www.w3.org/2000/svg" xmlns:xlink="http://www.w3.org/1999/xlink">
    <g id="Page-1" stroke="none" stroke-width="1" fill="none" fill-rule="evenodd" stroke-linejoin="round">
        <g id="Group-4" transform="translate(1.000000, 1.000000)" stroke-width="2">
            <circle id="Oval" stroke="#D4BB9F" stroke-linecap="round" cx="2" cy="38" r="2"></circle>
            <circle id="Oval-Copy-4" stroke="#D4BB9F" stroke-linecap="round" cx="47" cy="38" r="2"></circle>
            <path d="M4,38 L45,38" id="Path-5" stroke="#D4BB9F" stroke-linecap="round"></path>
            <path d="M7.5,38 L7.5,50.7976484" id="Path-6" stroke="#D4BB9F" stroke-linecap="round"></path>
            <path d="M2,41 L2,52" id="Path-6-Copy-8" stroke="#D4BB9F" stroke-linecap="round"></path>
            <path d="M47,41 L47,52" id="Path-6-Copy-9" stroke="#D4BB9F" stroke-linecap="round"></path>
            <path d="M12.5,38 L12.5,50.7976484" id="Path-6-Copy" stroke="#D4BB9F" stroke-linecap="round"></path>
            <path d="M17.5,38 L17.5,50.7976484" id="Path-6-Copy-2" stroke="#D4BB9F" stroke-linecap="round"></path>
            <path d="M22.5,38 L22.5,50.7976484" id="Path-6-Copy-3" stroke="#D4BB9F" stroke-linecap="round"></path>
            <path d="M27.5,38 L27.5,50.7976484" id="Path-6-Copy-4" stroke="#D4BB9F" stroke-linecap="round"></path>
            <path d="M32.5,38 L32.5,50.7976484" id="Path-6-Copy-5" stroke="#D4BB9F" stroke-linecap="round"></path>
            <path d="M37.5,38 L37.5,50.7976484" id="Path-6-Copy-6" stroke="#D4BB9F" stroke-linecap="round"></path>
            <path d="M42.5,38 L42.5,50.7976484" id="Path-6-Copy-7" stroke="#D4BB9F" stroke-linecap="round"></path>
            <polyline id="Path-7" stroke="#464646" points="10 37.0415332 10 0 40 0 40 37.0415332"></polyline>
            <path d="M25,1 L25,36" id="Line_41" stroke="#464646" stroke-linecap="square"></path>
            <path d="M10,22.2936641 L39,22.2936641" id="Line_42" stroke="#464646" stroke-linecap="round"></path>
            <polygon id="Path-8" stroke="#D4BB9F" stroke-linecap="round" points="0 52 49 52 49 55.96 0 55.96"></polygon>
        </g>
    </g>
</svg>