
<svg width="54px" height="54px" viewBox="0 0 54 54" version="1.1" xmlns="http://www.w3.org/2000/svg" xmlns:xlink="http://www.w3.org/1999/xlink">
    <g id="Page-1" stroke="none" stroke-width="1" fill="none" fill-rule="evenodd">
        <g id="garten" transform="translate(12.000000, 0.000000)">
            <path d="M37.7837238,12.3107371 C38.9396128,10.9792379 39.5684534,9.33056748 39.5684534,7.59087822 C39.5684534,5.58815381 38.7359178,3.70516929 37.2242519,2.28905666 C33.9660148,-0.763122198 28.6650933,-0.762915571 25.4069664,2.28905666 C23.2038185,4.35294241 22.4141834,7.4313628 23.3543564,10.2027366 L17.9797651,15.2377005 L23.0804104,20.0159313 L19.0015195,20.3490804 C17.9006159,20.4389983 17.0810501,21.4043497 17.170968,22.5052532 C17.1711896,22.5079668 17.1714168,22.5106799 17.1716495,22.5133925 L17.2202356,23.0797379 C17.3054826,24.0734206 18.1097833,24.8524366 19.1056813,24.905911 L28.1315021,25.39055 C28.6017162,25.415798 29.0479428,25.6061493 29.3915974,25.9280813 L29.6976845,26.2148205 C30.1691736,26.6565065 30.9025139,26.6565048 31.3740009,26.2148164 L40.4419153,17.7200082 C41.248022,16.9648487 41.2893228,15.6991924 40.5341634,14.8930858 C40.5044172,14.8613328 40.4736428,14.8305589 40.4418893,14.8008133 L37.7837238,12.3107371 Z M26.5768615,3.38489869 C29.1899359,0.937101456 33.441503,0.937204769 36.0544672,3.38489869 C37.2538081,4.50842863 37.9141901,6.0021294 37.9141901,7.59087822 C37.9140798,8.91576539 37.4534226,10.1737057 36.6052266,11.2068366 L29.4439205,4.49820063 L24.7196751,8.92382381 C24.3455911,6.9289512 25.0217436,4.84171668 26.5768615,3.38489869 Z M20.3192243,15.2378038 L29.4439205,6.68988469 L30.7697574,7.93191476 L21.6450613,16.4798339 L20.3192243,15.2378038 Z M30.535624,24.8084193 L29.5832094,23.9163107 L18.902072,23.3428196 L18.7803182,21.9228844 L24.5104166,21.4548851 C25.0608685,21.4099276 25.4706526,20.9272529 25.4256951,20.376801 C25.4054805,20.1292974 25.2938997,19.8981689 25.1126687,19.7283984 L22.8147357,17.5757792 L31.9394319,9.0278601 L39.6602099,16.2607068 L30.535624,24.8084193 Z" id="Shape" fill="#464646" fill-rule="nonzero"></path>
            <path d="M14,26.0885584 L14.161628,27 C14.4381504,26.9507529 14.7202143,26.9257591 15,26.9257591 L15,26 C14.6662151,26 14.3297211,26.0297457 14,26.0885584 Z" id="Path" fill="#464646"></path>
            <path d="M10.4123878,26 C9.90863616,26.2200364 9.43342651,26.4883687 9,26.7978164 L9.85312148,28 C10.2035702,27.7498648 10.5895248,27.5321891 11,27.3528746 L10.4123878,26 Z" id="Path" fill="#464646"></path>
            <path d="M6.10341262,32 C6.04464992,32.3092352 6.00979378,32.6368925 6,32.9736396 L6.91216011,33 C6.92055478,32.7110047 6.95011862,32.4314629 7,32.1691916 L6.10341262,32 Z" id="Path" fill="#464646"></path>
            <path d="M7.84814508,28 C7.51723297,28.4219335 7.23195047,28.8868778 7,29.3815988 L8.32491591,30 C8.50996929,29.6050212 8.7371423,29.2347589 9,28.899528 L7.84814508,28 Z" id="Path" fill="#464646"></path>
            <rect id="Rectangle" fill="#464646" x="15" y="23" width="1" height="1"></rect>
            <path d="M8.67810484,22 C8.10684664,22.115489 7.54220198,22.2726582 7,22.4672745 L7.54892394,24 C8.0174012,23.8319766 8.50571909,23.6959731 9,23.5960056 L8.67810484,22 Z" id="Path" fill="#464646"></path>
            <path d="M0.57807309,28 C0.354028239,28.5012191 0.159468439,29.022462 0,29.5492037 L1.49065615,30 C1.63112542,29.5357161 1.8024294,29.0764123 2,28.6349536 L0.57807309,28 Z" id="Path" fill="#464646"></path>
            <path d="M12.2195764,23 C12.1459676,23 12.0727536,23.0009973 12,23.0029918 L12.0264439,24 C12.0904486,23.9982049 12.154848,23.9973406 12.2195764,23.9973406 L13,23.9973406 L13,23 L12.2195764,23 Z" id="Path" fill="#464646"></path>
            <path d="M0.0667168769,33 C0.0224063265,33.3323924 0,33.6688621 0,34 L0.941505052,34 C0.94144229,33.7102622 0.961149815,33.4155689 1,33.1242002 L0.0667168769,33 Z" id="Path" fill="#464646"></path>
            <path d="M5.26996015,24 C4.82922848,24.2590619 4.4019396,24.5542273 4,24.8775265 L4.90268376,26 C5.25018004,25.7206779 5.61947285,25.4655528 6,25.2418263 L5.26996015,24 Z" id="Path" fill="#464646"></path>
            <path d="M2.92158825,26 C2.59068592,26.3795913 2.28066161,26.7878615 2,27.2130913 L3.19395586,28 C3.43963011,27.6276499 3.71085371,27.2706398 4,26.9387833 L2.92158825,26 Z" id="Path" fill="#464646"></path>
            <g id="Group" transform="translate(26.000000, 17.000000)" fill="#000000">
                <polygon id="Rectangle" transform="translate(1.051441, 1.039887) rotate(-135.000000) translate(-1.051441, -1.039887) " points="0.69572118 0.684229785 1.73329898 0.358075839 1.40716154 1.39554412 0.369583733 1.72169807"></polygon>
                <polygon id="Rectangle" transform="translate(2.977333, 3.011763) rotate(-45.000000) translate(-2.977333, -3.011763) " points="2.29547521 2.32995148 3.33305301 2.65610542 3.65919046 3.69357371 2.62161265 3.36741976"></polygon>
            </g>
            <polygon id="Path" fill="#000000" points="34.1429187 14 33 15.1999774 34.7142703 17 33 18.8000226 34.1429187 20 37 17"></polygon>
        </g>
        <g id="Group-6" transform="translate(0.000000, 37.000000)" fill="#D4BB9F">
            <path d="M50.0372421,10.0467267 L42.9758784,10.0467267 L42.9758784,7.63560145 C44.054642,7.5532813 45.9076345,7.2138443 47.1971,5.90923023 C49.0766151,4.00752778 48.9297367,0.893580884 48.9224456,0.761975548 L48.8834542,0.0450418475 L48.1748452,0.00548541012 C48.0448736,-0.0019982402 44.9667674,-0.150388335 43.0872523,1.75120721 C42.6952244,2.14794759 42.3922745,2.59771497 42.1568464,3.0618082 C41.9214183,2.59771497 41.6185741,2.14794759 41.2264405,1.75120721 C39.3469254,-0.150281426 36.2688192,-0.00178442162 36.1388476,0.00548541012 L35.4302386,0.0450418475 L35.3912472,0.761975548 C35.3840618,0.893580884 35.2370777,4.00752778 37.1165928,5.90923023 C38.4276145,7.2356538 40.3206551,7.56429296 41.3907541,7.63945019 L41.3907541,10.0467267 L28.1813144,10.0467267 L28.1813144,7.63560145 C29.2601837,7.5532813 31.1130705,7.2138443 32.402536,5.90923023 C34.2820511,4.00752778 34.1351727,0.893580884 34.1278817,0.761975548 L34.0888902,0.0450418475 L33.3802812,0.00548541012 C33.2504153,-0.0019982402 30.1722035,-0.150388335 28.2926884,1.75120721 C27.9006604,2.14794759 27.5977105,2.59771497 27.3622824,3.0618082 C27.12696,2.59771497 26.8240101,2.14794759 26.4318765,1.75120721 C24.5523614,-0.150281426 21.4742552,-0.00178442162 21.3442837,0.00548541012 L20.6356747,0.0450418475 L20.5966832,0.761975548 C20.5894978,0.893580884 20.4425137,4.00752778 22.3220288,5.90923023 C23.6330506,7.2356538 25.5260912,7.56429296 26.5961901,7.63945019 L26.5961901,10.0467267 L13.3866448,10.0467267 L13.3866448,7.63560145 C14.4655141,7.5532813 16.3184009,7.2138443 17.6078664,5.90923023 C19.4873815,4.00752778 19.3405031,0.893580884 19.333212,0.761975548 L19.2942206,0.0450418475 L18.5856116,0.00548541012 C18.4555344,-0.0019982402 15.3775338,-0.150388335 13.4980187,1.75120721 C13.1059908,2.14794759 12.8030409,2.59771497 12.5676128,3.0618082 C12.3322904,2.59771497 12.0293405,2.14794759 11.6372068,1.75120721 C9.75769174,-0.150281426 6.67958555,-0.00178442162 6.54961402,0.00548541012 L5.84100502,0.0450418475 L5.80201356,0.761975548 C5.79482814,0.893580884 5.64784408,4.00752778 7.52735918,5.90923023 C8.83838093,7.2356538 10.7314215,7.56429296 11.8015204,7.63945019 L11.8015204,10.0467267 L3.9628636,10.0467267 C1.77775691,10.0467267 0,11.8452617 0,14.0561458 L0,17 L54,17 L54,14.0560389 C54,11.8452617 52.2223488,10.0467267 50.0372421,10.0467267 Z M38.237518,4.77513648 C37.3454695,3.87260826 37.0785523,2.49689951 37.0015204,1.63670736 C37.8536265,1.7165686 39.2189615,1.9881182 40.1055153,2.88508714 C40.9974581,3.78750846 41.2643752,5.16278957 41.3415128,6.02351627 C40.4894068,5.94365503 39.1240717,5.67210543 38.237518,4.77513648 Z M23.4430597,4.77513648 C22.5510112,3.87260826 22.284094,2.49689951 22.2070621,1.63670736 C23.0591682,1.7165686 24.4245032,1.9881182 25.311057,2.88508714 C26.2029998,3.78750846 26.4699169,5.16278957 26.5470545,6.02351627 C25.6948428,5.94365503 24.3295078,5.67210543 23.4430597,4.77513648 Z M8.6484957,4.77513648 C7.75644721,3.87260826 7.48953007,2.49689951 7.41249817,1.63670736 C8.26460419,1.7165686 9.62993924,1.9881182 10.516493,2.88508714 C11.4084358,3.78750846 11.675353,5.16278957 11.7524905,6.02351627 C10.9003845,5.94365503 9.53504946,5.67210543 8.6484957,4.77513648 Z M44.2081775,2.88519405 C45.100226,1.98266582 46.4599607,1.71271987 47.3101647,1.63467608 C47.2312307,2.49689951 46.9628342,3.87816754 46.0761748,4.77524339 C45.1843377,5.67766471 43.82492,5.94761067 42.9741877,6.02565445 C43.0531216,5.16343103 43.3216238,3.782163 44.2081775,2.88519405 Z M29.4137192,2.88519405 C30.3057677,1.98266582 31.6655024,1.71271987 32.5157064,1.63467608 C32.4367724,2.49689951 32.1683759,3.87816754 31.2817165,4.77524339 C30.3898794,5.67766471 29.0304617,5.94761067 28.1797294,6.02565445 C28.2586633,5.16343103 28.5270598,3.782163 29.4137192,2.88519405 Z M14.6191552,2.88519405 C15.5112037,1.98266582 16.8709384,1.71271987 17.7211424,1.63467608 C17.6422085,2.49689951 17.373812,3.87816754 16.4871525,4.77524339 C15.5953154,5.67766471 14.2358977,5.94761067 13.3851654,6.02565445 C13.4640993,5.16343103 13.7324958,3.782163 14.6191552,2.88519405 Z M52.415087,15.3962537 L1.58522997,15.3962537 L1.58522997,14.0560389 C1.58522997,12.7295084 2.65194752,11.650366 3.96296927,11.650366 L50.0373477,11.650366 C51.3483695,11.650366 52.415087,12.7295084 52.415087,14.0560389 L52.415087,15.3962537 Z" id="Shape" fill-rule="nonzero"></path>
            <rect id="Rectangle" x="7" y="14" width="2" height="1" rx="0.5"></rect>
            <rect id="Rectangle" x="14" y="14" width="6" height="1" rx="0.5"></rect>
            <rect id="Rectangle" x="26" y="14" width="2" height="1" rx="0.5"></rect>
            <rect id="Rectangle" x="31" y="14" width="11" height="1" rx="0.5"></rect>
            <rect id="Rectangle" x="45" y="14" width="4" height="1" rx="0.5"></rect>
        </g>
    </g>
</svg>