
<svg width="86px" height="62px" viewBox="0 0 86 62" version="1.1" xmlns="http://www.w3.org/2000/svg" xmlns:xlink="http://www.w3.org/1999/xlink">
    <g id="Page-1" stroke="none" stroke-width="1" fill="none" fill-rule="evenodd">
        <g id="Group-Copy" transform="translate(1.000000, 2.000000)" stroke-linejoin="round" stroke-width="2">
            <g id="5f90456225840218ab61f4b0_bright_house-copy-3">
                <polyline id="Path_1679" stroke="#464646" stroke-linecap="round" points="29.4238281 58.22 6.573 58.22 6.573 32.866"></polyline>
                <polyline id="Path_1680" stroke="#464646" stroke-linecap="round" points="29.11 0 0 20.659 0 28.171 7.512 28.171 7.512 24.415 29.112 8.921"></polyline>
                <g id="Group_1416" transform="translate(19.000000, 28.000000)" stroke="#D4BB9F" stroke-linecap="square">
                    <polygon id="Rectangle_482" points="0.316 0.226 10.3681641 0.226 10.4057617 20.2924805 0.316 20.226"></polygon>
                    <path d="M0.316,10.226 L10.3989258,10.226" id="Line_42"></path>
                </g>
            </g>
            <g id="5f90456225840218ab61f4b0_bright_house-copy-5" transform="translate(57.500000, 29.500000) scale(-1, 1) translate(-57.500000, -29.500000) translate(31.000000, 0.000000)" stroke="#E6E6E6">
                <polyline id="Path_1679" stroke-linecap="round" points="52.5571289 58.1870117 6.573 58.22 6.573 32.866"></polyline>
                <polyline id="Path_1680" stroke-linecap="round" points="29.11 0 0 20.659 0 28.171 7.512 28.171 7.512 24.415 29.112 8.921"></polyline>
                <g id="Group_1416" transform="translate(19.000000, 28.000000)" stroke-linecap="square">
                    <polygon id="Rectangle_482" points="0.316 0.226 10.3681641 0.226 10.4057617 20.2924805 0.316 20.226"></polygon>
                    <path d="M0.316,10.226 L10.3989258,10.226" id="Line_42"></path>
                </g>
            </g>
            <polyline id="Path_1681-Copy-2" stroke="#E6E6E6" stroke-linecap="round" points="68 2.817 68 0 77.39 0 77.39 11.268"></polyline>
            <g id="5f90456225840218ab61f4b0_bright_house-copy-4" transform="translate(41.500000, 38.500000) scale(-1, 1) translate(-41.500000, -38.500000) translate(36.000000, 28.000000)" stroke="#E6E6E6" stroke-linecap="square">
                <g id="Group_1416">
                    <polygon id="Rectangle_482" points="0.316 0.226 10.3681641 0.226 10.4057617 20.2924805 0.316 20.226"></polygon>
                    <path d="M0.316,10.226 L10.3989258,10.226" id="Line_42"></path>
                </g>
            </g>
        </g>
        <path d="M32.3574219,1.5 L55.1772461,1.5" id="Path-2" stroke="#E6E6E6" stroke-width="2" stroke-linecap="round" stroke-linejoin="round"></path>
        <path d="M32.3574219,10.5 L55.776,10.5" id="Path-3" stroke="#E6E6E6" stroke-width="2" stroke-linecap="round"></path>
        <circle id="Oval" stroke="#E6E6E6" stroke-width="2" cx="42" cy="20" r="3"></circle>
    </g>
</svg>