
<svg width="89px" height="58px" viewBox="0 0 89 58" version="1.1" xmlns="http://www.w3.org/2000/svg" xmlns:xlink="http://www.w3.org/1999/xlink">
    <g id="Page-1" stroke="none" stroke-width="1" fill="none" fill-rule="evenodd">
        <g id="Group-11" transform="translate(0.000000, 1.000000)">
            <g id="Group-10" transform="translate(1.000000, 0.000000)" stroke-linecap="round" stroke-linejoin="round" stroke-width="2">
                <rect id="Rectangle" stroke="#464646" x="0" y="0" width="87" height="5"></rect>
                <polyline id="Rectangle-Copy" stroke="#464646" transform="translate(43.500000, 30.000000) rotate(270.000000) translate(-43.500000, -30.000000) " points="18.5 -7.7 68.5 -7.7 68.5 67.7 46.8610026 67.7 18.5 67.7"></polyline>
                <polyline id="Rectangle-Copy" stroke="#D4BB9F" transform="translate(43.500000, 32.000000) rotate(270.000000) translate(-43.500000, -32.000000) " points="20.5 0.1 66.5 0.1 66.5 63.9 43.2373047 63.9 20.5 63.9"></polyline>
            </g>
            <path d="M15,14.5 L76,14.5" id="Path-13" stroke="#D4BB9F"></path>
            <path d="M15,19.5 L76,19.5" id="Path-13-Copy" stroke="#D4BB9F"></path>
            <path d="M15,24.5 L76,24.5" id="Path-13-Copy-2" stroke="#D4BB9F"></path>
            <path d="M15,29.5 L76,29.5" id="Path-13-Copy-3" stroke="#D4BB9F"></path>
            <path d="M15,34.5 L76,34.5" id="Path-13-Copy-4" stroke="#D4BB9F"></path>
            <path d="M15,39.5 L76,39.5" id="Path-13-Copy-5" stroke="#D4BB9F"></path>
            <path d="M15,44.5 L76,44.5" id="Path-13-Copy-6" stroke="#D4BB9F"></path>
            <path d="M15,49.5 L76,49.5" id="Path-13-Copy-7" stroke="#D4BB9F"></path>
            <path d="M1.44262295,55.5 L88,55.5" id="Path-13-Copy-9" stroke="#464646" stroke-width="2" stroke-linecap="round" stroke-linejoin="round"></path>
            <path d="M39.2511936,52.5 L50.6671007,52.5" id="Path-13-Copy-10" stroke="#D4BB9F" stroke-width="2" stroke-linecap="round" stroke-linejoin="round"></path>
        </g>
    </g>
</svg>