
<svg width="61px" height="61px" viewBox="0 0 61 61" version="1.1" xmlns="http://www.w3.org/2000/svg" xmlns:xlink="http://www.w3.org/1999/xlink">
    <g id="Page-1" stroke="none" stroke-width="1" fill="none" fill-rule="evenodd">
        <g id="Group-21" transform="translate(1.000000, 1.000000)">
            <g id="Group-18-Copy-2" stroke="#464646" stroke-linecap="round" stroke-linejoin="round" stroke-width="2">
                <g id="5f90456225840218ab61f4b0_bright_house-copy-18">
                    <polyline id="Path_1679" points="50.707 33.805 50.707 58.22 6.573 58.22 6.573 32.866"></polyline>
                    <polygon id="Path_1680" points="29.11 0 0 20.659 0 28.171 7.512 28.171 7.512 24.415 29.112 8.921 50.712 24.415 50.712 29.115 58.224 29.115 58.224 20.664"></polygon>
                    <polyline id="Path_1681" points="41 2.817 41 0 50.39 0 50.39 11.268"></polyline>
                </g>
            </g>
            <path d="M47.0257772,39.3792991 L42.1868783,39.3792991 C41.4399665,39.3792991 40.834475,38.7738075 40.834475,38.0268958 C40.834475,37.2799841 41.4399665,36.6744925 42.1868783,36.6744925 L47.0257772,36.6744925 C47.4818432,36.6742576 47.9070739,36.4441762 48.1567732,36.0625396 C48.4064725,35.6809031 48.4470051,35.1991193 48.2645786,34.7811279 C47.0427575,31.9754252 44.3446138,30.0973041 41.2892287,29.9257336 C38.2338437,29.754163 35.342399,31.3184092 33.8141495,33.9696859 L22.940827,33.9696859 C21.4125775,31.3184092 18.5211328,29.754163 15.4657477,29.9257336 C12.4103627,30.0973041 9.71221893,31.9754252 8.49039783,34.7811279 C8.30797136,35.1991193 8.34850394,35.6809031 8.59820328,36.0625396 C8.84790262,36.4441762 9.27313328,36.6742576 9.72919924,36.6744925 L14.5680982,36.6744925 C15.3150099,36.6744925 15.9205015,37.2799841 15.9205015,38.0268958 C15.9205015,38.7738075 15.3150099,39.3792991 14.5680982,39.3792991 L9.72919924,39.3792991 C9.27313328,39.379534 8.84790262,39.6096153 8.59820328,39.9912519 C8.34850394,40.3728884 8.30797136,40.8546723 8.49039783,41.2726637 C9.71221893,44.0783664 12.4103627,45.9564874 15.4657477,46.128058 C18.5211328,46.2996285 21.4125775,44.7353823 22.940827,42.0841056 L33.8141495,42.0841056 C35.342399,44.7353823 38.2338437,46.2996285 41.2892287,46.128058 C44.3446138,45.9564874 47.0427575,44.0783664 48.2645786,41.2726637 C48.4470051,40.8546723 48.4064725,40.3728884 48.1567732,39.9912519 C47.9070739,39.6096153 47.4818432,39.379534 47.0257772,39.3792991 Z M40.834475,43.4365089 C38.6854864,43.4343269 36.7415689,42.1603231 35.8819741,40.190741 C35.6669771,39.6981208 35.1806653,39.379576 34.6431727,39.3792991 L22.1118038,39.3792991 C21.5743112,39.379576 21.0879994,39.6981208 20.8730024,40.190741 C20.1841769,41.7735182 18.7798616,42.9313544 17.0947964,43.3058133 C15.4097313,43.6802723 13.6472092,43.2261777 12.3528616,42.0841056 L14.5680982,42.0841056 C16.8088334,42.0841056 18.6253081,40.2676309 18.6253081,38.0268958 C18.6253081,35.7861606 16.8088334,33.9696859 14.5680982,33.9696859 L12.3488044,33.9696859 C13.6431519,32.8276138 15.4056741,32.3735193 17.0907392,32.7479782 C18.7758044,33.1224371 20.1801197,34.2802733 20.8689452,35.8630505 C21.0839422,36.3556707 21.5702539,36.6742156 22.1077466,36.6744925 L34.6391155,36.6744925 C35.1766081,36.6742156 35.6629199,36.3556707 35.8779169,35.8630505 C36.5667424,34.2802733 37.9710577,33.1224371 39.6561228,32.7479782 C41.341188,32.3735193 43.1037101,32.8276138 44.3980576,33.9696859 L42.1801162,33.9696859 C39.9393811,33.9696859 38.1229064,35.7861606 38.1229064,38.0268958 C38.1229064,40.2676309 39.9393811,42.0841056 42.1801162,42.0841056 L44.3980576,42.0841056 C43.414392,42.95361 42.1473465,43.4344622 40.834475,43.4365089 Z" id="Shape" fill="#D4BB9F" fill-rule="nonzero" transform="translate(28.377488, 38.026896) rotate(-30.000000) translate(-28.377488, -38.026896) "></path>
        </g>
    </g>
</svg>