
<svg width="61px" height="61px" viewBox="0 0 61 61" version="1.1" xmlns="http://www.w3.org/2000/svg" xmlns:xlink="http://www.w3.org/1999/xlink">
    <g id="Page-1" stroke="none" stroke-width="1" fill="none" fill-rule="evenodd">
        <g id="Group-19" transform="translate(1.000000, 1.000000)">
            <g id="Group-18" stroke="#464646" stroke-linecap="round" stroke-linejoin="round" stroke-width="2">
                <g id="5f90456225840218ab61f4b0_bright_house-copy-18">
                    <polyline id="Path_1679" points="50.707 33.805 50.707 58.22 6.573 58.22 6.573 32.866"></polyline>
                    <polygon id="Path_1680" points="29.11 0 0 20.659 0 28.171 7.512 28.171 7.512 24.415 29.112 8.921 50.712 24.415 50.712 29.115 58.224 29.115 58.224 20.664"></polygon>
                    <polyline id="Path_1681" points="41 2.817 41 0 50.39 0 50.39 11.268"></polyline>
                </g>
            </g>
            <path d="M46.4934371,38.4403765 C45.1327519,38.8412672 44.0588008,39.8860079 43.6204817,41.2350578 C43.1821625,42.5841077 43.4370011,44.0605769 44.3021668,45.1847308 C44.9394261,46.0125495 44.7361736,46.8996841 44.3335741,47.4537872 C43.9308933,48.0078903 43.1500229,48.4754199 42.1657372,48.1250575 C40.8292991,47.6497167 39.3462392,47.8635468 38.1987332,48.6973866 C37.0511458,49.5312263 36.3894767,50.8754756 36.4287765,52.2933612 C36.4575801,53.3376137 35.7718266,53.93598 35.1203283,54.1476132 C34.4689113,54.3594091 33.5624117,54.2783685 32.9720193,53.4165388 C32.1703191,52.246413 30.844784,51.5477223 29.4263289,51.5477223 C28.0078737,51.5477223 26.6823387,52.246413 25.8806385,53.4165388 C25.2901648,54.2784499 24.3836651,54.359165 23.7323295,54.1476132 C23.0809125,53.93598 22.3950777,53.3377764 22.4238813,52.2933612 C22.4630997,50.8753942 21.801512,49.5310636 20.6539246,48.6973866 C19.9091807,48.156302 19.0232667,47.8763213 18.1277514,47.8763213 C17.643379,47.8763213 17.1560775,47.9581756 16.6869206,48.1251388 C15.7025535,48.4753385 14.9217645,48.0079716 14.519165,47.4537872 C14.1164842,46.8996027 13.9133131,46.0125495 14.5505723,45.1847308 C15.415738,44.0606582 15.6705767,42.5841077 15.2322575,41.2350578 C14.7939383,39.8860079 13.7199059,38.8412672 12.3592206,38.4403765 C11.3571158,38.1451803 11,37.3080045 11,36.6230647 C11,35.9381249 11.3570344,35.1009492 12.3592206,34.805753 C13.7199059,34.4048622 14.793857,33.3601215 15.2321761,32.0110717 C15.6704953,30.6620218 15.4156567,29.1855526 14.550491,28.0613986 C13.9132317,27.23358 14.1164842,26.3464454 14.5190837,25.7923423 C14.9216831,25.2381578 15.7025535,24.7707096 16.6869206,25.121072 C18.0233587,25.5964941 19.5064185,25.382664 20.6539246,24.5487429 C21.801512,23.7149845 22.4631811,22.3706538 22.4238813,20.9527683 C22.3950777,19.9085158 23.0808311,19.3101495 23.7323295,19.0985163 C24.3837464,18.886639 25.2902461,18.967761 25.8806385,19.8295907 C26.6822573,20.9998792 28.0077924,21.6985699 29.4262475,21.6985699 C30.8447027,21.6985699 32.1702378,20.9998792 32.9719379,19.8297534 C33.562493,18.9679237 34.4689927,18.8870458 35.1202469,19.098679 C35.7716639,19.3103122 36.4574987,19.9085158 36.4286951,20.952931 C36.3894767,22.3708979 37.0511458,23.7152286 38.1986518,24.5489056 C39.3462392,25.3825826 40.829055,25.5967382 42.1657372,25.1211534 C43.1497788,24.7708723 43.9308119,25.2383205 44.3334928,25.792505 C44.7361736,26.3466895 44.9393447,27.2337427 44.3020854,28.0615613 C43.4369197,29.185634 43.1820811,30.6621845 43.6204003,32.0112344 C44.0587194,33.3602843 45.1327519,34.4050249 46.4934371,34.8059157 C47.4954606,35.1009492 47.8524951,35.9381249 47.8524951,36.6230647 C47.8526578,37.3080045 47.495542,38.1451803 46.4934371,38.4403765 Z" id="Path" stroke="#D4BB9F" stroke-width="2" fill-rule="nonzero"></path>
            <path d="M28,43.8494311 L25.8865283,45.1496093 L19.9964946,41.5552079 L22.9297,46.9686086 L21.2531479,48 L17,40.1505689 L19.1134717,38.8503907 L25.0035054,42.4447921 L22.0703,37.0313914 L23.7468521,36 L28,43.8494311 Z M29.2949722,43 L25,35.3757662 L30.7050278,32 L31.5936428,33.5774277 L27.6432188,35.9149636 L28.3955795,37.2505191 L32.1305257,35.0404851 L33.0250648,36.6284289 L29.2901185,38.8384629 L30.155037,40.3738259 L34.105461,38.0362899 L35,39.6242338 L29.2949722,43 Z M32,31.650732 L33.8174196,30.6550778 L36.4743879,35.0218541 C37.1248235,36.0908571 37.7525631,36.5403047 39.0173171,35.8474225 C40.2926993,35.1487178 40.0986305,34.340669 39.4420587,33.2615811 L36.8464523,28.9956542 L38.6638719,28 L41.1735717,32.1247378 C42.5419411,34.373678 42.2783528,35.9434194 39.876383,37.2593132 C37.5700669,38.5228042 36.0130652,38.2462786 34.5465169,35.8359795 L32,31.650732 Z" id="NEU" fill="#D4BB9F"></path>
        </g>
    </g>
</svg>