
<svg width="60px" height="60px" viewBox="0 0 60 60" version="1.1" xmlns="http://www.w3.org/2000/svg" xmlns:xlink="http://www.w3.org/1999/xlink">
    <g id="Page-1" stroke="none" stroke-width="1" fill="none" fill-rule="evenodd">
        <g id="parkplatz-2">
            <g id="parkplatz">
                <g id="Group">
                    <path d="M15.2626901,23.5032749 L33.6796491,23.5032749 C34.5819883,23.5032749 35.3160234,22.7692398 35.3160234,21.8669006 L35.3160234,3.44994152 C35.3160234,2.54760234 34.5819883,1.81345029 33.6796491,1.81345029 L15.2626901,1.81345029 C14.3603509,1.81345029 13.6263158,2.54760234 13.6263158,3.44994152 L13.6263158,3.83251462 L10.4837427,3.83251462 L10.4837427,3.11836257 C10.4837427,1.39883041 9.08491228,-1.42108547e-14 7.36538012,-1.42108547e-14 C5.64584795,-1.42108547e-14 4.24701754,1.39883041 4.24701754,3.11836257 L4.24701754,35.3604678 C4.24701754,35.8449123 4.63976608,36.2376608 5.12421053,36.2376608 C5.60865497,36.2376608 6.00140351,35.8449123 6.00140351,35.3604678 L6.00140351,3.11836257 C6.00140351,2.36619883 6.61321637,1.75438596 7.36538012,1.75438596 C8.11754386,1.75438596 8.72935673,2.36619883 8.72935673,3.11836257 L8.72935673,4.7097076 L8.72935673,8.93684211 L8.72935673,16.379883 L8.72935673,20.6070175 L8.72935673,53.1488889 L6.00140351,53.1488889 L6.00140351,35.1552692 C6.00140351,34.6708247 5.89002262,34.2780762 5.12421053,34.2780762 C4.35839844,34.2780762 4.24701754,34.6708247 4.24701754,35.1552692 C4.24701754,38.9009134 4.24701754,41.0089878 4.24701754,41.4794922 C4.24701754,44.0726915 4.24701754,47.9624904 4.24701754,53.1488889 L3.36374269,53.1488889 C1.50888889,53.1488889 1.0658141e-14,54.6563743 1.0658141e-14,56.5093567 L1.0658141e-14,58.488655 C1.0658141e-14,59.2520468 0.621052632,59.8730994 1.38444444,59.8730994 L13.3463158,59.8730994 C14.111462,59.8730994 14.7340351,59.2520468 14.7340351,58.488655 L14.7340351,56.5093567 C14.7340351,54.6563743 13.2251462,53.1488889 11.3702924,53.1488889 L10.4836257,53.1488889 L10.4836257,21.4842105 L13.6260819,21.4842105 L13.6260819,21.8667836 C13.6261988,22.7692398 14.3603509,23.5032749 15.2626901,23.5032749 Z M12.9797661,56.5093567 L12.9797661,58.1187135 L1.75438596,58.1187135 L1.75438596,56.5093567 C1.75438596,55.6237427 2.47637427,54.9032749 3.36374269,54.9032749 L5.12421053,54.9032749 L9.60654971,54.9032749 L11.3704094,54.9032749 C12.2577778,54.9032749 12.9797661,55.6237427 12.9797661,56.5093567 Z M10.4837427,9.81415205 L13.6261988,9.81415205 L13.6261988,15.502807 L10.4837427,15.502807 L10.4837427,9.81415205 Z M15.3805848,3.56783626 L33.5616374,3.56783626 L33.5616374,21.7488889 L15.3805848,21.7488889 L15.3805848,20.6070175 L15.3805848,16.379883 L15.3805848,8.93695906 L15.3805848,4.70982456 L15.3805848,3.56783626 Z M13.6261988,5.58701754 L13.6261988,8.05976608 L10.4837427,8.05976608 L10.4837427,5.58701754 L13.6261988,5.58701754 Z M10.4837427,19.7298246 L10.4837427,17.257076 L13.6261988,17.257076 L13.6261988,19.7298246 L10.4837427,19.7298246 Z" id="Shape" fill="#D4BB9F" fill-rule="nonzero"></path>
                    <path d="M56.3136842,33.3726316 L52.960117,33.3726316 L51.8116959,30.9499415 C51.1183626,29.4874854 50.594386,28.4897076 49.6635088,27.9676023 C48.8040936,27.485614 47.8232749,27.4888889 46.0385965,27.494152 L31.3250292,27.4945029 L31.2072515,27.494152 C29.4252632,27.4884211 28.4439766,27.485614 27.5849123,27.9677193 C26.6545029,28.4898246 26.1305263,29.4874854 25.4373099,30.9499415 L24.2888889,33.3726316 L20.9353216,33.3726316 C18.9671345,33.3726316 17.3659649,34.9826901 17.3659649,36.9618713 C17.3659649,38.9245614 18.9409357,40.5235088 20.8866667,40.5498246 L19.8711111,42.6922807 C19.3051462,43.8830409 19.265848,44.0473684 19.271345,45.2049123 C19.2718129,45.3065497 19.2722807,53.1840936 19.2722807,53.1840936 C19.2722807,53.8470175 19.2732164,54.8678363 20.217193,55.2443275 L20.217193,57.6897076 C20.217193,58.8991813 21.2011696,59.8830409 22.4105263,59.8830409 L26.4784795,59.8830409 C27.6860819,59.8830409 28.668538,58.8990643 28.668538,57.6897076 L28.668538,55.3906433 L36.6534503,55.3906433 C37.1380117,55.3906433 37.5306433,54.9978947 37.5306433,54.5134503 C37.5306433,54.0290058 37.1380117,53.6362573 36.6534503,53.6362573 L21.094386,53.6362573 C21.0729825,53.6362573 21.0533333,53.6360234 21.0353216,53.6355556 C21.0266667,53.4888889 21.0260819,45.3008187 21.025614,45.1967251 C21.0217544,44.3582456 21.0217544,44.3582456 21.4560234,43.4445614 L22.8276023,40.5511111 L54.4212865,40.5511111 L55.7933333,43.4454971 C56.2245614,44.3526316 56.2245614,44.3526316 56.220117,45.1815205 C56.2195322,45.2897076 56.2189474,53.4888889 56.2105263,53.6357895 C56.1934503,53.6362573 34.3642578,53.6364912 34.3642578,53.6364912 C33.8796964,53.6364912 33.4870648,54.0292398 33.4870648,54.5136842 C33.4870648,54.9981287 33.8796964,55.3908772 34.3642578,55.3908772 L48.5769591,55.3908772 L48.5769591,57.6898246 C48.5769591,58.8992982 49.5608187,59.8831579 50.7702924,59.8831579 L54.8382456,59.8831579 C56.0477193,59.8831579 57.0316959,58.8991813 57.0316959,57.6898246 L57.0316959,55.2437427 C57.9723977,54.8667836 57.9733333,53.8466667 57.9733333,53.1842105 C57.9733333,53.1842105 57.9739181,45.2960234 57.9745029,45.1905263 C57.9804678,44.0530994 57.9357895,43.8663158 57.3781287,42.6932164 L56.3621053,40.5499415 C58.3079532,40.5235088 59.8830409,38.9245614 59.8830409,36.9618713 C59.8830409,34.982807 58.2818713,33.3726316 56.3136842,33.3726316 Z M19.1203509,36.9618713 C19.1203509,35.9501754 19.9345029,35.1270175 20.9353216,35.1270175 L23.4573099,35.1270175 L21.7178947,38.7966082 L20.9354386,38.7966082 C19.9345029,38.7966082 19.1203509,37.9735673 19.1203509,36.9618713 Z M26.914269,55.3906433 L26.914269,57.6895906 C26.914269,57.9276023 26.7147368,58.128538 26.4785965,58.128538 L22.4106433,58.128538 C22.1726316,58.128538 21.9716959,57.9274854 21.9716959,57.6895906 L21.9716959,55.3906433 L26.914269,55.3906433 Z M27.0225731,31.7014035 C27.6380117,30.4031579 28.0076023,29.7423392 28.4433918,29.4977778 C28.9,29.2416374 29.7654971,29.2438596 31.2018713,29.248655 L45.9259649,29.2490058 L46.0439766,29.248655 C47.4814035,29.2438596 48.3483041,29.2415205 48.8053801,29.4978947 C49.2415205,29.7424561 49.6111111,30.4032749 50.2263158,31.7014035 L53.5897076,38.7967251 L23.6592982,38.7967251 L27.0225731,31.7014035 Z M55.2774269,57.6897076 C55.2774269,57.9277193 55.0763743,58.128655 54.8383626,58.128655 L50.7704094,58.128655 C50.5325146,58.128655 50.331462,57.9276023 50.331462,57.6897076 L50.331462,55.3906433 L55.2774269,55.3906433 L55.2774269,57.6897076 Z M56.3136842,38.7966082 L55.5312281,38.7966082 L53.7916959,35.1270175 L56.3136842,35.1270175 C57.3145029,35.1270175 58.128655,35.9501754 58.128655,36.9618713 C58.128655,37.9735673 57.3145029,38.7966082 56.3136842,38.7966082 Z" id="Shape" fill="#464646" fill-rule="nonzero"></path>
                    <path d="M34.1769591,46.7176608 L43.0721637,46.7176608 C43.5567251,46.7176608 43.9493567,46.3249123 43.9493567,45.8404678 C43.9493567,45.3560234 43.5567251,44.9632749 43.0721637,44.9632749 L34.1769591,44.9632749 C33.6923977,44.9632749 33.2997661,45.3560234 33.2997661,45.8404678 C33.2997661,46.3249123 33.6923977,46.7176608 34.1769591,46.7176608 Z" id="Path" fill="#464646"></path>
                    <path d="M34.1769591,50.682807 L43.0721637,50.682807 C43.5567251,50.682807 43.9493567,50.2900585 43.9493567,49.805614 C43.9493567,49.3211696 43.5567251,48.9284211 43.0721637,48.9284211 L34.1769591,48.9284211 C33.6923977,48.9284211 33.2997661,49.3211696 33.2997661,49.805614 C33.2997661,50.2900585 33.6923977,50.682807 34.1769591,50.682807 Z" id="Path" fill="#464646"></path>
                    <path d="M53.3484211,46.9975439 C53.3484211,44.9653801 51.6967251,43.3122807 49.6664327,43.3122807 C47.634386,43.3122807 45.9811696,44.9654971 45.9811696,46.9975439 C45.9811696,49.0295906 47.634386,50.682924 49.6664327,50.682924 C51.6967251,50.682807 53.3484211,49.0295906 53.3484211,46.9975439 Z M47.7355556,46.9975439 C47.7355556,45.9328655 48.6017544,45.0666667 49.6664327,45.0666667 C50.7293567,45.0666667 51.5940351,45.9328655 51.5940351,46.9975439 C51.5940351,48.0623392 50.7292398,48.928538 49.6664327,48.928538 C48.6017544,48.9284211 47.7355556,48.0622222 47.7355556,46.9975439 Z" id="Shape" fill="#464646" fill-rule="nonzero"></path>
                    <path d="M23.9005848,46.9975439 C23.9005848,49.0297076 25.5523977,50.682924 27.5825731,50.682924 C29.6147368,50.682924 31.2678363,49.0297076 31.2678363,46.9975439 C31.2678363,44.9653801 29.6146199,43.3122807 27.5825731,43.3122807 C25.5523977,43.3121637 23.9005848,44.9653801 23.9005848,46.9975439 Z M29.5135673,46.9975439 C29.5135673,48.0623392 28.6473684,48.928538 27.5826901,48.928538 C26.5197661,48.928538 25.6550877,48.0623392 25.6550877,46.9975439 C25.6550877,45.9328655 26.519883,45.0666667 27.5826901,45.0666667 C28.6473684,45.0665497 29.5135673,45.9328655 29.5135673,46.9975439 Z" id="Shape" fill="#464646" fill-rule="nonzero"></path>
                </g>
                <path d="M24.7145029,5.31684211 L21.1146199,5.31684211 C20.6373099,5.31684211 20.2374269,5.71660819 20.2374269,6.19403509 L20.2374269,19.122807 C20.2374269,19.6072515 20.6301754,20 21.1146199,20 C21.5990643,20 21.9918129,19.6072515 21.9918129,19.122807 L21.9918129,14.3794152 C22.8348538,14.3747368 24.0902924,14.3683041 24.7145029,14.3683041 C27.2493567,14.3683041 29.3116959,12.3381287 29.3116959,9.8425731 C29.3116959,7.34701754 27.2493567,5.31684211 24.7145029,5.31684211 Z M24.7145029,12.6139181 C24.0940351,12.6139181 22.8564912,12.6202339 22.0118129,12.6249123 C22.0070175,11.7589474 22.0007018,10.4754386 22.0007018,9.8425731 C22.0007018,9.30994152 21.997076,7.97111111 21.994386,7.07122807 L24.714386,7.07122807 C26.2553216,7.07122807 27.557193,8.34035088 27.557193,9.8425731 C27.557193,11.3447953 26.2553216,12.6139181 24.7145029,12.6139181 Z" id="Shape" fill="#D4BB9F" fill-rule="nonzero"></path>
            </g>
        </g>
    </g>
</svg>