
<svg width="57px" height="54px" viewBox="0 0 57 54" version="1.1" xmlns="http://www.w3.org/2000/svg" xmlns:xlink="http://www.w3.org/1999/xlink">
    <g id="Page-1" stroke="none" stroke-width="1" fill="none" fill-rule="evenodd">
        <g id="Group-12" transform="translate(1.000000, 7.000000)">
            <g id="Group-7-Copy-3" transform="translate(15.000000, 0.000000)">
                <path d="M23.7710649,3.86220096 L21.7433265,3.86220096 L21.0489324,2.39390395 C20.6297076,1.5075669 20.3128845,0.902853092 19.7500286,0.58642566 C19.2303822,0.294311536 18.637329,0.296296296 17.5582211,0.299486089 L8.66164559,0.299698742 L8.59043112,0.299486089 C7.51294982,0.296012759 6.91961376,0.294311536 6.40017952,0.586496544 C5.83760642,0.902923977 5.52078335,1.5075669 5.10162927,2.39390395 L4.40723514,3.86220096 L2.3794968,3.86220096 C1.18943016,3.86220096 0.22128111,4.83799397 0.22128111,6.03749778 C0.22128111,7.22700691 1.17358901,8.19606592 2.35007752,8.21201489 L1.73602067,9.51047315 C1.39380933,10.232146 1.3700476,10.3317384 1.37337141,11.0332802 C1.37365429,11.0948786 1.37393717,15.8691476 1.37393717,15.8691476 C1.37393717,16.2709197 1.37450292,16.8895977 1.94527948,17.1177742 L1.94527948,18.5998228 C1.94527948,19.3328371 2.54024208,19.9291157 3.27148103,19.9291157 L5.73117367,19.9291157 C6.46135183,19.9291157 7.05539508,19.3327663 7.05539508,18.5998228 L7.05539508,17.2064505 L11.8834816,17.2064505 C12.1764722,17.2064505 12.4138773,16.9684211 12.4138773,16.6748184 C12.4138773,16.3812157 12.1764722,16.1431862 11.8834816,16.1431862 L2.47567523,16.1431862 C2.46273358,16.1431862 2.45085271,16.1430445 2.43996192,16.1427609 C2.43472868,16.0538721 2.43437508,11.0914053 2.43409221,11.0283183 C2.43175847,10.5201489 2.43175847,10.5201489 2.69433973,9.96640085 L3.52366653,8.21279461 L22.6268244,8.21279461 L23.4564341,9.96696792 C23.7171767,10.5167464 23.7171767,10.5167464 23.7144893,11.0191033 C23.7141357,11.0846713 23.7137821,16.0538721 23.7086903,16.1429027 C23.6983653,16.1431862 10.4993187,16.143328 10.4993187,16.143328 C10.2063281,16.143328 9.96892292,16.3813574 9.96892292,16.6749601 C9.96892292,16.9685628 10.2063281,17.2065922 10.4993187,17.2065922 L19.093045,17.2065922 L19.093045,18.5998937 C19.093045,19.332908 19.6879369,19.9291866 20.4192466,19.9291866 L22.8789392,19.9291866 C23.6102489,19.9291866 24.2052115,19.3328371 24.2052115,18.5998937 L24.2052115,17.1174198 C24.7740079,16.8889598 24.7745736,16.2707071 24.7745736,15.8692185 C24.7745736,15.8692185 24.7749272,11.088499 24.7752808,11.0245614 C24.7788875,10.3352118 24.7518727,10.2220096 24.4146824,9.51104023 L23.8003427,8.21208577 C24.9769019,8.19606592 25.9292806,7.22700691 25.9292806,6.03749778 C25.9292806,4.83806486 24.9611315,3.86220096 23.7710649,3.86220096 Z M1.28207262,6.03749778 C1.28207262,5.42434875 1.77435061,4.92546518 2.3794968,4.92546518 L3.90441996,4.92546518 L2.85268054,7.14945951 L2.37956752,7.14945951 C1.77435061,7.14945951 1.28207262,6.65064682 1.28207262,6.03749778 Z M5.99467428,17.2064505 L5.99467428,18.5997519 C5.99467428,18.7440014 5.87402693,18.8657806 5.73124439,18.8657806 L3.27155175,18.8657806 C3.1276377,18.8657806 3.00614171,18.7439305 3.00614171,18.5997519 L3.00614171,17.2064505 L5.99467428,17.2064505 Z M6.06016048,2.84933546 C6.43228614,2.06251994 6.65575955,1.66202375 6.91926017,1.51380471 C7.19534884,1.35856814 7.71867265,1.35991494 8.58717802,1.36282119 L17.4901183,1.36303385 L17.5614742,1.36282119 C18.4306161,1.35991494 18.9547885,1.35849725 19.2311601,1.5138756 C19.4948728,1.66209463 19.7183463,2.06259082 20.0903305,2.84933546 L22.1240092,7.14953039 L4.02655243,7.14953039 L6.06016048,2.84933546 Z M23.1444907,18.5998228 C23.1444907,18.7440723 23.022924,18.8658515 22.8790099,18.8658515 L20.4193173,18.8658515 C20.275474,18.8658515 20.1539072,18.7440014 20.1539072,18.5998228 L20.1539072,17.2064505 L23.1444907,17.2064505 L23.1444907,18.5998228 Z M23.7710649,7.14945951 L23.2979519,7.14945951 L22.2461417,4.92546518 L23.7710649,4.92546518 C24.3762111,4.92546518 24.8684891,5.42434875 24.8684891,6.03749778 C24.8684891,6.65064682 24.3762111,7.14945951 23.7710649,7.14945951 Z" id="Shape" fill="#D4BB9F" fill-rule="nonzero"></path>
                <path d="M10.3860683,11.9500975 L15.7645641,11.9500975 C16.0575547,11.9500975 16.2949599,11.712068 16.2949599,11.4184654 C16.2949599,11.1248627 16.0575547,10.8868332 15.7645641,10.8868332 L10.3860683,10.8868332 C10.0930777,10.8868332 9.85567251,11.1248627 9.85567251,11.4184654 C9.85567251,11.712068 10.0930777,11.9500975 10.3860683,11.9500975 Z" id="Path" fill="#D4BB9F"></path>
                <path d="M10.3860683,14.3532164 L15.7645641,14.3532164 C16.0575547,14.3532164 16.2949599,14.115187 16.2949599,13.8215843 C16.2949599,13.5279816 16.0575547,13.2899522 15.7645641,13.2899522 L10.3860683,13.2899522 C10.0930777,13.2899522 9.85567251,13.5279816 9.85567251,13.8215843 C9.85567251,14.115187 10.0930777,14.3532164 10.3860683,14.3532164 Z" id="Path" fill="#D5BDA3"></path>
                <path d="M21.9781151,12.1197236 C21.9781151,10.8881092 20.9794152,9.88623073 19.7517965,9.88623073 C18.5231171,9.88623073 17.5234979,10.88818 17.5234979,12.1197236 C17.5234979,13.3512671 18.5231171,14.3532873 19.7517965,14.3532873 C20.9794152,14.3532164 21.9781151,13.3512671 21.9781151,12.1197236 Z M18.5842894,12.1197236 C18.5842894,11.4744639 19.1080375,10.9494949 19.7517965,10.9494949 C20.3944948,10.9494949 20.9173235,11.4744639 20.9173235,12.1197236 C20.9173235,12.765054 20.394424,13.290023 19.7517965,13.290023 C19.1080375,13.2899522 18.5842894,12.7649832 18.5842894,12.1197236 Z" id="Shape" fill="#D4BB9F" fill-rule="nonzero"></path>
                <path d="M4.17244662,12.1197236 C4.17244662,13.3513379 5.17121719,14.3532873 6.39876513,14.3532873 C7.6275153,14.3532873 8.62706378,13.3513379 8.62706378,12.1197236 C8.62706378,10.8881092 7.62744458,9.88623073 6.39876513,9.88623073 C5.17121719,9.88615984 4.17244662,10.8881092 4.17244662,12.1197236 Z M7.56634299,12.1197236 C7.56634299,12.765054 7.04259486,13.290023 6.39883585,13.290023 C5.75613763,13.290023 5.23330885,12.765054 5.23330885,12.1197236 C5.23330885,11.4744639 5.75620835,10.9494949 6.39883585,10.9494949 C7.04259486,10.9494241 7.56634299,11.4744639 7.56634299,12.1197236 Z" id="Shape" fill="#D4BB9F" fill-rule="nonzero"></path>
            </g>
            <rect id="Rectangle" fill="#464646" x="10" y="20" width="36" height="2"></rect>
            <g id="Group-7-Copy-4" transform="translate(15.000000, 25.000000)">
                <path d="M23.7710649,3.86220096 L21.7433265,3.86220096 L21.0489324,2.39390395 C20.6297076,1.5075669 20.3128845,0.902853092 19.7500286,0.58642566 C19.2303822,0.294311536 18.637329,0.296296296 17.5582211,0.299486089 L8.66164559,0.299698742 L8.59043112,0.299486089 C7.51294982,0.296012759 6.91961376,0.294311536 6.40017952,0.586496544 C5.83760642,0.902923977 5.52078335,1.5075669 5.10162927,2.39390395 L4.40723514,3.86220096 L2.3794968,3.86220096 C1.18943016,3.86220096 0.22128111,4.83799397 0.22128111,6.03749778 C0.22128111,7.22700691 1.17358901,8.19606592 2.35007752,8.21201489 L1.73602067,9.51047315 C1.39380933,10.232146 1.3700476,10.3317384 1.37337141,11.0332802 C1.37365429,11.0948786 1.37393717,15.8691476 1.37393717,15.8691476 C1.37393717,16.2709197 1.37450292,16.8895977 1.94527948,17.1177742 L1.94527948,18.5998228 C1.94527948,19.3328371 2.54024208,19.9291157 3.27148103,19.9291157 L5.73117367,19.9291157 C6.46135183,19.9291157 7.05539508,19.3327663 7.05539508,18.5998228 L7.05539508,17.2064505 L11.8834816,17.2064505 C12.1764722,17.2064505 12.4138773,16.9684211 12.4138773,16.6748184 C12.4138773,16.3812157 12.1764722,16.1431862 11.8834816,16.1431862 L2.47567523,16.1431862 C2.46273358,16.1431862 2.45085271,16.1430445 2.43996192,16.1427609 C2.43472868,16.0538721 2.43437508,11.0914053 2.43409221,11.0283183 C2.43175847,10.5201489 2.43175847,10.5201489 2.69433973,9.96640085 L3.52366653,8.21279461 L22.6268244,8.21279461 L23.4564341,9.96696792 C23.7171767,10.5167464 23.7171767,10.5167464 23.7144893,11.0191033 C23.7141357,11.0846713 23.7137821,16.0538721 23.7086903,16.1429027 C23.6983653,16.1431862 10.4993187,16.143328 10.4993187,16.143328 C10.2063281,16.143328 9.96892292,16.3813574 9.96892292,16.6749601 C9.96892292,16.9685628 10.2063281,17.2065922 10.4993187,17.2065922 L19.093045,17.2065922 L19.093045,18.5998937 C19.093045,19.332908 19.6879369,19.9291866 20.4192466,19.9291866 L22.8789392,19.9291866 C23.6102489,19.9291866 24.2052115,19.3328371 24.2052115,18.5998937 L24.2052115,17.1174198 C24.7740079,16.8889598 24.7745736,16.2707071 24.7745736,15.8692185 C24.7745736,15.8692185 24.7749272,11.088499 24.7752808,11.0245614 C24.7788875,10.3352118 24.7518727,10.2220096 24.4146824,9.51104023 L23.8003427,8.21208577 C24.9769019,8.19606592 25.9292806,7.22700691 25.9292806,6.03749778 C25.9292806,4.83806486 24.9611315,3.86220096 23.7710649,3.86220096 Z M1.28207262,6.03749778 C1.28207262,5.42434875 1.77435061,4.92546518 2.3794968,4.92546518 L3.90441996,4.92546518 L2.85268054,7.14945951 L2.37956752,7.14945951 C1.77435061,7.14945951 1.28207262,6.65064682 1.28207262,6.03749778 Z M5.99467428,17.2064505 L5.99467428,18.5997519 C5.99467428,18.7440014 5.87402693,18.8657806 5.73124439,18.8657806 L3.27155175,18.8657806 C3.1276377,18.8657806 3.00614171,18.7439305 3.00614171,18.5997519 L3.00614171,17.2064505 L5.99467428,17.2064505 Z M6.06016048,2.84933546 C6.43228614,2.06251994 6.65575955,1.66202375 6.91926017,1.51380471 C7.19534884,1.35856814 7.71867265,1.35991494 8.58717802,1.36282119 L17.4901183,1.36303385 L17.5614742,1.36282119 C18.4306161,1.35991494 18.9547885,1.35849725 19.2311601,1.5138756 C19.4948728,1.66209463 19.7183463,2.06259082 20.0903305,2.84933546 L22.1240092,7.14953039 L4.02655243,7.14953039 L6.06016048,2.84933546 Z M23.1444907,18.5998228 C23.1444907,18.7440723 23.022924,18.8658515 22.8790099,18.8658515 L20.4193173,18.8658515 C20.275474,18.8658515 20.1539072,18.7440014 20.1539072,18.5998228 L20.1539072,17.2064505 L23.1444907,17.2064505 L23.1444907,18.5998228 Z M23.7710649,7.14945951 L23.2979519,7.14945951 L22.2461417,4.92546518 L23.7710649,4.92546518 C24.3762111,4.92546518 24.8684891,5.42434875 24.8684891,6.03749778 C24.8684891,6.65064682 24.3762111,7.14945951 23.7710649,7.14945951 Z" id="Shape" fill="#D4BB9F" fill-rule="nonzero"></path>
                <path d="M10.3860683,11.9500975 L15.7645641,11.9500975 C16.0575547,11.9500975 16.2949599,11.712068 16.2949599,11.4184654 C16.2949599,11.1248627 16.0575547,10.8868332 15.7645641,10.8868332 L10.3860683,10.8868332 C10.0930777,10.8868332 9.85567251,11.1248627 9.85567251,11.4184654 C9.85567251,11.712068 10.0930777,11.9500975 10.3860683,11.9500975 Z" id="Path" fill="#D4BB9F"></path>
                <path d="M10.3860683,14.3532164 L15.7645641,14.3532164 C16.0575547,14.3532164 16.2949599,14.115187 16.2949599,13.8215843 C16.2949599,13.5279816 16.0575547,13.2899522 15.7645641,13.2899522 L10.3860683,13.2899522 C10.0930777,13.2899522 9.85567251,13.5279816 9.85567251,13.8215843 C9.85567251,14.115187 10.0930777,14.3532164 10.3860683,14.3532164 Z" id="Path" fill="#D5BDA3"></path>
                <path d="M21.9781151,12.1197236 C21.9781151,10.8881092 20.9794152,9.88623073 19.7517965,9.88623073 C18.5231171,9.88623073 17.5234979,10.88818 17.5234979,12.1197236 C17.5234979,13.3512671 18.5231171,14.3532873 19.7517965,14.3532873 C20.9794152,14.3532164 21.9781151,13.3512671 21.9781151,12.1197236 Z M18.5842894,12.1197236 C18.5842894,11.4744639 19.1080375,10.9494949 19.7517965,10.9494949 C20.3944948,10.9494949 20.9173235,11.4744639 20.9173235,12.1197236 C20.9173235,12.765054 20.394424,13.290023 19.7517965,13.290023 C19.1080375,13.2899522 18.5842894,12.7649832 18.5842894,12.1197236 Z" id="Shape" fill="#D4BB9F" fill-rule="nonzero"></path>
                <path d="M4.17244662,12.1197236 C4.17244662,13.3513379 5.17121719,14.3532873 6.39876513,14.3532873 C7.6275153,14.3532873 8.62706378,13.3513379 8.62706378,12.1197236 C8.62706378,10.8881092 7.62744458,9.88623073 6.39876513,9.88623073 C5.17121719,9.88615984 4.17244662,10.8881092 4.17244662,12.1197236 Z M7.56634299,12.1197236 C7.56634299,12.765054 7.04259486,13.290023 6.39883585,13.290023 C5.75613763,13.290023 5.23330885,12.765054 5.23330885,12.1197236 C5.23330885,11.4744639 5.75620835,10.9494949 6.39883585,10.9494949 C7.04259486,10.9494241 7.56634299,11.4744639 7.56634299,12.1197236 Z" id="Shape" fill="#D4BB9F" fill-rule="nonzero"></path>
            </g>
            <path d="M0,45.5 L55,45.5" id="Path-13-Copy-11" stroke="#464646" stroke-width="2" stroke-linecap="round" stroke-linejoin="round"></path>
        </g>
        <rect id="Rectangle" stroke="#464646" stroke-width="2" stroke-linecap="round" stroke-linejoin="round" x="5" y="1" width="6" height="51"></rect>
        <rect id="Rectangle-Copy-2" stroke="#464646" stroke-width="2" stroke-linecap="round" stroke-linejoin="round" x="47" y="1" width="6" height="51"></rect>
        <path d="M5,18.232 L11,13" id="Path-17" stroke="#464646"></path>
        <path d="M47,18.232 L53,13" id="Path-17-Copy-6" stroke="#464646"></path>
        <path d="M5,28.232 L11,23" id="Path-17-Copy-2" stroke="#464646"></path>
        <path d="M47,28.232 L53,23" id="Path-17-Copy-7" stroke="#464646"></path>
        <path d="M5,38.232 L11,33" id="Path-17-Copy-4" stroke="#464646"></path>
        <path d="M47,38.232 L53,33" id="Path-17-Copy-8" stroke="#464646"></path>
        <path d="M5,21.232 L11,16" id="Path-17-Copy" stroke="#464646"></path>
        <path d="M47,21.232 L53,16" id="Path-17-Copy-9" stroke="#464646"></path>
        <path d="M5,31.232 L11,26" id="Path-17-Copy-3" stroke="#464646"></path>
        <path d="M47,31.232 L53,26" id="Path-17-Copy-10" stroke="#464646"></path>
        <path d="M5,41.232 L11,36" id="Path-17-Copy-5" stroke="#464646"></path>
        <path d="M47,41.232 L53,36" id="Path-17-Copy-11" stroke="#464646"></path>
    </g>
</svg>