
<svg width="61px" height="61px" viewBox="0 0 61 61" version="1.1" xmlns="http://www.w3.org/2000/svg" xmlns:xlink="http://www.w3.org/1999/xlink">
    <g id="Page-1" stroke="none" stroke-width="1" fill="none" fill-rule="evenodd">
        <g id="Group-20" transform="translate(1.000000, 1.000000)">
            <g id="Group-18-Copy" stroke="#464646" stroke-linecap="round" stroke-linejoin="round" stroke-width="2">
                <g id="5f90456225840218ab61f4b0_bright_house-copy-18">
                    <polyline id="Path_1679" points="50.707 33.805 50.707 58.22 6.573 58.22 6.573 32.866"></polyline>
                    <polygon id="Path_1680" points="29.11 0 0 20.659 0 28.171 7.512 28.171 7.512 24.415 29.112 8.921 50.712 24.415 50.712 29.115 58.224 29.115 58.224 20.664"></polygon>
                    <polyline id="Path_1681" points="41 2.817 41 0 50.39 0 50.39 11.268"></polyline>
                </g>
            </g>
            <path d="M42.7918358,28.4543196 C41.9861247,27.7760438 40.7729394,27.8677752 40.0824971,28.6589905 L25.8820493,44.9277725 L17.0745192,38.4409057 C16.2256147,37.8157779 15.0212762,37.9848038 14.3844353,38.8183076 C13.7475943,39.6519391 13.9198471,40.8346099 14.7687516,41.4599932 L25.0166221,49.0076482 C25.3613879,49.2616343 25.76626,49.3850501 26.1685302,49.3850501 C26.7115688,49.3850501 27.2497938,49.1598099 27.6283856,48.7261938 L43.0002565,31.1150414 C43.6908289,30.3235706 43.5976771,29.1324677 42.7918358,28.4543196 Z" id="Path-Copy-4" fill="#D4BB9F"></path>
        </g>
    </g>
</svg>