
<svg width="47px" height="61px" viewBox="0 0 47 61" version="1.1" xmlns="http://www.w3.org/2000/svg" xmlns:xlink="http://www.w3.org/1999/xlink">
    <g id="Page-1" stroke="none" stroke-width="1" fill="none" fill-rule="evenodd">
        <g id="Group-2-Copy" transform="translate(1.000000, 1.000000)" stroke-width="2">
            <g id="5f90456225840218ab61f4b0_bright_house-copy-2" stroke-linejoin="round">
                <polygon id="Path_1679" stroke="#464646" stroke-linecap="round" points="44.707 33.805 44.707 58.22 33.2216797 58.22 0.573 58.22 0.573 0.804199219 44.707 14"></polygon>
                <g id="Group_1416" transform="translate(10.000000, 40.000000)" stroke="#D4BB9F" stroke-linecap="square">
                    <rect id="Rectangle_482" x="0" y="0" width="11" height="11"></rect>
                    <path d="M5.5,0 L5.5,11" id="Line_41"></path>
                    <path d="M0,5.5 L11,5.5" id="Line_42"></path>
                </g>
                <g id="Group_1416-Copy-2" transform="translate(10.000000, 24.000000)" stroke="#D4BB9F" stroke-linecap="square">
                    <rect id="Rectangle_482" x="0" y="0" width="11" height="11"></rect>
                    <path d="M5.5,0 L5.5,11" id="Line_41"></path>
                    <path d="M0,5.5 L11,5.5" id="Line_42"></path>
                </g>
                <g id="Group_1416-Copy-3" transform="translate(25.000000, 24.000000)" stroke="#D4BB9F" stroke-linecap="square">
                    <rect id="Rectangle_482" x="0" y="0" width="11" height="11"></rect>
                    <path d="M5.5,0 L5.5,11" id="Line_41"></path>
                    <path d="M0,5.5 L11,5.5" id="Line_42"></path>
                </g>
                <polyline id="Path_1681" stroke="#464646" stroke-linecap="round" points="35 7.28857422 35 0 44.39 0 44.39 11.268"></polyline>
            </g>
            <circle id="Oval-Copy" stroke="#D4BB9F" cx="13" cy="15" r="3"></circle>
            <polyline id="Path" stroke="#D4BB9F" stroke-linecap="round" stroke-linejoin="round" points="28 57.22 28 40 36.4458008 40 36.4458008 57.22"></polyline>
        </g>
    </g>
</svg>