
<svg width="61px" height="61px" viewBox="0 0 61 61" version="1.1" xmlns="http://www.w3.org/2000/svg" xmlns:xlink="http://www.w3.org/1999/xlink">
    <g id="Page-1" stroke="none" stroke-width="1" fill="none" fill-rule="evenodd" stroke-linejoin="round">
        <g id="Group" transform="translate(1.000000, 1.000000)" stroke-width="2">
            <g id="5f90456225840218ab61f4b0_bright_house-copy-3">
                <polyline id="Path_1679" stroke="#464646" stroke-linecap="round" points="29.4238281 58.22 6.573 58.22 6.573 32.866"></polyline>
                <polygon id="Path_1680" stroke="#464646" stroke-linecap="round" points="29.11 0 0 20.659 0 28.171 7.512 28.171 7.512 24.415 29.112 8.921"></polygon>
                <g id="Group_1416" transform="translate(19.000000, 28.000000)" stroke="#D4BB9F" stroke-linecap="square">
                    <polygon id="Rectangle_482" points="0.316 0.226 10.3681641 0.226 10.4057617 20.2924805 0.316 20.226"></polygon>
                    <path d="M0.316,10.226 L10.3989258,10.226" id="Line_42"></path>
                </g>
            </g>
            <g id="5f90456225840218ab61f4b0_bright_house-copy-3" transform="translate(44.000000, 29.500000) scale(-1, 1) translate(-44.000000, -29.500000) translate(29.000000, 0.000000)" stroke="#E6E6E6">
                <polyline id="Path_1679" stroke-linecap="round" points="29.4238281 58.22 6.573 58.22 6.573 32.866"></polyline>
                <polygon id="Path_1680" stroke-linecap="round" points="29.11 0 0 20.659 0 28.171 7.512 28.171 7.512 24.415 29.112 8.921"></polygon>
                <polyline id="Path_1681-Copy" stroke-linecap="round" transform="translate(11.695000, 5.634000) scale(-1, 1) translate(-11.695000, -5.634000) " points="7 2.817 7 0 16.39 0 16.39 11.268"></polyline>
                <g id="Group_1416" transform="translate(19.000000, 28.000000)" stroke-linecap="square">
                    <polygon id="Rectangle_482" points="0.316 0.226 10.3681641 0.226 10.4057617 20.2924805 0.316 20.226"></polygon>
                    <path d="M0.316,10.226 L10.3989258,10.226" id="Line_42"></path>
                </g>
            </g>
        </g>
    </g>
</svg>