
<svg width="61px" height="61px" viewBox="0 0 61 61" version="1.1" xmlns="http://www.w3.org/2000/svg" xmlns:xlink="http://www.w3.org/1999/xlink">
    <g id="Page-1" stroke="none" stroke-width="1" fill="none" fill-rule="evenodd">
        <g id="Group-13-Copy" transform="translate(1.000000, 1.000000)">
            <g id="5f90456225840218ab61f4b0_bright_house" stroke="#464646" stroke-linecap="round" stroke-linejoin="round" stroke-width="2">
                <polyline id="Path_1679" points="50.707 33.805 50.707 58.22 6.573 58.22 6.573 32.866"></polyline>
                <polygon id="Path_1680" points="29.11 0 0 20.659 0 28.171 7.512 28.171 7.512 24.415 29.112 8.921 50.712 24.415 50.712 29.115 58.224 29.115 58.224 20.664"></polygon>
                <polyline id="Path_1681" points="41.317 2.817 41.317 0 50.707 0 50.707 11.268"></polyline>
            </g>
            <g id="Group-7-Copy-3" transform="translate(16.000000, 41.000000)">
                <path d="M19.2370262,2.90440367 L17.580635,2.90440367 L17.0134078,1.70764994 C16.6709571,0.985229913 16.412155,0.492350411 15.9523769,0.234442299 C15.5278952,-0.00364894766 15.04345,-0.00203124446 14.1619631,0.000568635697 L6.89464983,0.000741961041 L6.83647712,0.000568635697 C5.95631889,-0.00226234491 5.47164263,-0.00364894766 5.04733427,0.234500074 C4.58778723,0.492408186 4.32898512,0.985229913 3.98659225,1.70764994 L3.41936504,2.90440367 L1.7629738,2.90440367 C0.790848397,2.90440367 0,3.69973589 0,4.67740638 C0,5.64693058 0.777908291,6.43677417 1.73894218,6.44977357 L1.2373398,7.50809812 C0.957798862,8.09630656 0.938388704,8.17748059 0.941103815,8.7492809 C0.941334888,8.79948748 0.941565962,12.6908148 0.941565962,12.6908148 C0.941565962,13.0182841 0.942028108,13.5225453 1.40827628,13.7085234 L1.40827628,14.9164855 C1.40827628,15.513938 1.89428121,15.9999422 2.49160571,15.9999422 L4.50084589,15.9999422 C5.09730387,15.9999422 5.58255782,15.5138802 5.58255782,14.9164855 L5.58255782,13.7808001 L9.52645927,13.7808001 C9.76579345,13.7808001 9.95972172,13.5867912 9.95972172,13.3474867 C9.95972172,13.1081822 9.76579345,12.9141734 9.52645927,12.9141734 L1.84153873,12.9141734 C1.83096712,12.9141734 1.82126205,12.9140578 1.81236572,12.9138267 C1.80809087,12.8413767 1.80780203,8.7966565 1.80757095,8.74523664 C1.8056646,8.33104685 1.8056646,8.33104685 2.0201584,7.87970765 L2.69760757,6.4504091 L18.3023347,6.4504091 L18.9800149,7.88016985 C19.1930067,8.32827364 19.1930067,8.32827364 19.1908115,8.73772588 C19.1905227,8.79116786 19.1902339,12.8413767 19.1860745,12.9139423 C19.1776404,12.9141734 8.39578316,12.9142889 8.39578316,12.9142889 C8.15644898,12.9142889 7.96252071,13.1082977 7.96252071,13.3476023 C7.96252071,13.5869068 8.15644898,13.7809156 8.39578316,13.7809156 L15.4157091,13.7809156 L15.4157091,14.9165433 C15.4157091,15.5139957 15.9016563,16 16.4990386,16 L18.5082788,16 C19.105661,16 19.591666,15.513938 19.591666,14.9165433 L19.591666,13.7082345 C20.0562966,13.5220253 20.0567588,13.0181108 20.0567588,12.6908725 C20.0567588,12.6908725 20.0570476,8.79428772 20.0573364,8.74217456 C20.0602826,8.18031157 20.0382151,8.08804472 19.7627757,7.50856032 L19.2609423,6.44983134 C20.2220339,6.43677417 21,5.64693058 21,4.67740638 C21,3.69979367 20.2091516,2.90440367 19.2370262,2.90440367 Z M0.866524905,4.67740638 C0.866524905,4.17765164 1.26865023,3.77103038 1.7629738,3.77103038 L3.00863224,3.77103038 L2.14950168,5.5837246 L1.76303157,5.5837246 C1.26865023,5.5837246 0.866524905,5.17716112 0.866524905,4.67740638 Z M4.71609068,13.7808001 L4.71609068,14.9164277 C4.71609068,15.0340001 4.61753791,15.1332577 4.50090366,15.1332577 L2.49166348,15.1332577 C2.37410493,15.1332577 2.27485895,15.0339423 2.27485895,14.9164277 L2.27485895,13.7808001 L4.71609068,13.7808001 Z M4.76958415,2.07885506 C5.07356109,1.43755128 5.256109,1.11112189 5.47135379,0.990314123 C5.69688134,0.863786622 6.12436696,0.864884349 6.83381978,0.867253129 L14.1063322,0.867426454 L14.1646205,0.867253129 C14.8745932,0.864884349 15.3027721,0.863728847 15.5285307,0.990371898 C15.7439488,1.11117966 15.9264967,1.43760906 16.2303581,2.07885506 L17.8916019,5.58378238 L3.10839814,5.58378238 L4.76958415,2.07885506 Z M18.7251988,14.9164855 C18.7251988,15.0340579 18.6258951,15.1333155 18.5083365,15.1333155 L16.4990963,15.1333155 C16.3815956,15.1333155 16.2822918,15.0340001 16.2822918,14.9164855 L16.2822918,13.7808001 L18.7251988,13.7808001 L18.7251988,14.9164855 Z M19.2370262,5.5837246 L18.8505561,5.5837246 L17.9913678,3.77103038 L19.2370262,3.77103038 C19.7313498,3.77103038 20.1334751,4.17765164 20.1334751,4.67740638 C20.1334751,5.17716112 19.7313498,5.5837246 19.2370262,5.5837246 Z" id="Shape" fill="#D4BB9F" fill-rule="nonzero"></path>
                <path d="M7.57658093,9 L13.4234191,9 C13.7419224,9 14,8.77613333 14,8.5 C14,8.22386667 13.7419224,8 13.4234191,8 L7.57658093,8 C7.25807762,8 7,8.22386667 7,8.5 C7,8.77613333 7.25807762,9 7.57658093,9 Z" id="Path" fill="#D4BB9F"></path>
                <path d="M7.57658093,11 L13.4234191,11 C13.7419224,11 14,10.7761333 14,10.5 C14,10.2238667 13.7419224,10 13.4234191,10 L7.57658093,10 C7.25807762,10 7,10.2238667 7,10.5 C7,10.7761333 7.25807762,11 7.57658093,11 Z" id="Path" fill="#D5BDA3"></path>
                <path d="M18,9.4999762 C18,8.6728447 17.3274171,8 16.5006668,8 C15.6732021,8 15,8.6728923 15,9.4999762 C15,10.3270601 15.6732021,11 16.5006668,11 C17.3274171,10.9999524 18,10.3270601 18,9.4999762 Z M15.7143991,9.4999762 C15.7143991,9.0666307 16.0671218,8.71407036 16.5006668,8.71407036 C16.9334974,8.71407036 17.2856009,9.0666307 17.2856009,9.4999762 C17.2856009,9.9333693 16.9334498,10.2859296 16.5006668,10.2859296 C16.0671218,10.285882 15.7143991,9.9333217 15.7143991,9.4999762 Z" id="Shape" fill="#D4BB9F" fill-rule="nonzero"></path>
                <path d="M3,9.4999762 C3,10.3271077 3.67263058,11 4.49933323,11 C5.32684553,11 6,10.3271077 6,9.4999762 C6,8.6728447 5.3267979,8 4.49933323,8 C3.67263058,7.9999524 3,8.6728447 3,9.4999762 Z M5.28564852,9.4999762 C5.28564852,9.9333693 4.93292586,10.2859296 4.49938085,10.2859296 C4.06655025,10.2859296 3.71444674,9.9333693 3.71444674,9.4999762 C3.71444674,9.0666307 4.06659787,8.71407036 4.49938085,8.71407036 C4.93292586,8.71402276 5.28564852,9.0666307 5.28564852,9.4999762 Z" id="Shape" fill="#D4BB9F" fill-rule="nonzero"></path>
            </g>
            <polyline id="Path" stroke="#464646" stroke-width="2" stroke-linecap="round" stroke-linejoin="round" points="15 37.22 15 24 22.4458008 24 22.4458008 37.22"></polyline>
            <path d="M6.573,38.3122807 L50.707,38.3122807" id="Path-14" stroke="#464646" stroke-width="2"></path>
            <g id="Group_1416-Copy-4" transform="translate(31.000000, 24.000000)" stroke="#464646" stroke-linecap="square" stroke-linejoin="round" stroke-width="2">
                <rect id="Rectangle_482" x="0" y="0" width="11" height="11"></rect>
                <path d="M5.5,0 L5.5,11" id="Line_41"></path>
                <path d="M0,5.5 L11,5.5" id="Line_42"></path>
            </g>
        </g>
    </g>
</svg>