
<svg width="70px" height="58px" viewBox="0 0 70 58" version="1.1" xmlns="http://www.w3.org/2000/svg" xmlns:xlink="http://www.w3.org/1999/xlink">
    <g id="Page-1" stroke="none" stroke-width="1" fill="none" fill-rule="evenodd">
        <g id="Group-9-Copy" transform="translate(1.000000, 1.000000)">
            <g id="Group-8" stroke="#D4BB9F" stroke-width="2">
                <ellipse id="Oval-Copy-6" cx="13" cy="18" rx="13" ry="18"></ellipse>
                <path d="M12.78125,0 L12.78125,55.3962537" id="Path-10"></path>
                <path d="M13,10.1407952 L21.1523438,5" id="Path-11"></path>
                <path d="M13,20.1407952 L26,12" id="Path-11-Copy"></path>
                <path d="M13,30.1407952 L26,22" id="Path-11-Copy-2"></path>
                <path d="M7.22363281,55.3962537 L19.6933594,55.3962537" id="Path-12" stroke-linecap="round" stroke-linejoin="round"></path>
            </g>
            <g id="Group-7-Copy" transform="translate(26.000000, 24.000000)" fill="#464646">
                <path d="M39.3136842,6.37263158 L35.960117,6.37263158 L34.8116959,3.94994152 C34.1183626,2.48748538 33.594386,1.4897076 32.6635088,0.967602339 C31.8040936,0.485614035 30.8232749,0.488888889 29.0385965,0.494152047 L14.3250292,0.494502924 L14.2072515,0.494152047 C12.4252632,0.488421053 11.4439766,0.485614035 10.5849123,0.967719298 C9.65450292,1.48982456 9.13052632,2.48748538 8.43730994,3.94994152 L7.28888889,6.37263158 L3.93532164,6.37263158 C1.9671345,6.37263158 0.365964912,7.98269006 0.365964912,9.96187135 C0.365964912,11.9245614 1.94093567,13.5235088 3.88666667,13.5498246 L2.87111111,15.6922807 C2.3051462,16.8830409 2.26584795,17.0473684 2.27134503,18.2049123 C2.27181287,18.3065497 2.2722807,26.1840936 2.2722807,26.1840936 C2.2722807,26.8470175 2.27321637,27.8678363 3.21719298,28.2443275 L3.21719298,30.6897076 C3.21719298,31.8991813 4.20116959,32.8830409 5.41052632,32.8830409 L9.47847953,32.8830409 C10.6860819,32.8830409 11.668538,31.8990643 11.668538,30.6897076 L11.668538,28.3906433 L19.6534503,28.3906433 C20.1380117,28.3906433 20.5306433,27.9978947 20.5306433,27.5134503 C20.5306433,27.0290058 20.1380117,26.6362573 19.6534503,26.6362573 L4.09438596,26.6362573 C4.07298246,26.6362573 4.05333333,26.6360234 4.03532164,26.6355556 C4.02666667,26.4888889 4.02608187,18.3008187 4.02561404,18.1967251 C4.02175439,17.3582456 4.02175439,17.3582456 4.45602339,16.4445614 L5.82760234,13.5511111 L37.4212865,13.5511111 L38.7933333,16.4454971 C39.2245614,17.3526316 39.2245614,17.3526316 39.220117,18.1815205 C39.2195322,18.2897076 39.2189474,26.4888889 39.2105263,26.6357895 C39.1934503,26.6362573 17.3642578,26.6364912 17.3642578,26.6364912 C16.8796964,26.6364912 16.4870648,27.0292398 16.4870648,27.5136842 C16.4870648,27.9981287 16.8796964,28.3908772 17.3642578,28.3908772 L31.5769591,28.3908772 L31.5769591,30.6898246 C31.5769591,31.8992982 32.5608187,32.8831579 33.7702924,32.8831579 L37.8382456,32.8831579 C39.0477193,32.8831579 40.0316959,31.8991813 40.0316959,30.6898246 L40.0316959,28.2437427 C40.9723977,27.8667836 40.9733333,26.8466667 40.9733333,26.1842105 C40.9733333,26.1842105 40.9739181,18.2960234 40.9745029,18.1905263 C40.9804678,17.0530994 40.9357895,16.8663158 40.3781287,15.6932164 L39.3621053,13.5499415 C41.3079532,13.5235088 42.8830409,11.9245614 42.8830409,9.96187135 C42.8830409,7.98280702 41.2818713,6.37263158 39.3136842,6.37263158 Z M2.12035088,9.96187135 C2.12035088,8.95017544 2.93450292,8.12701754 3.93532164,8.12701754 L6.45730994,8.12701754 L4.71789474,11.7966082 L3.9354386,11.7966082 C2.93450292,11.7966082 2.12035088,10.9735673 2.12035088,9.96187135 Z M9.91426901,28.3906433 L9.91426901,30.6895906 C9.91426901,30.9276023 9.71473684,31.128538 9.47859649,31.128538 L5.41064327,31.128538 C5.17263158,31.128538 4.97169591,30.9274854 4.97169591,30.6895906 L4.97169591,28.3906433 L9.91426901,28.3906433 Z M10.0225731,4.70140351 C10.6380117,3.40315789 11.0076023,2.74233918 11.4433918,2.49777778 C11.9,2.24163743 12.7654971,2.24385965 14.2018713,2.24865497 L28.9259649,2.24900585 L29.0439766,2.24865497 C30.4814035,2.24385965 31.3483041,2.24152047 31.8053801,2.49789474 C32.2415205,2.74245614 32.6111111,3.40327485 33.2263158,4.70140351 L36.5897076,11.7967251 L6.65929825,11.7967251 L10.0225731,4.70140351 Z M38.2774269,30.6897076 C38.2774269,30.9277193 38.0763743,31.128655 37.8383626,31.128655 L33.7704094,31.128655 C33.5325146,31.128655 33.331462,30.9276023 33.331462,30.6897076 L33.331462,28.3906433 L38.2774269,28.3906433 L38.2774269,30.6897076 Z M39.3136842,11.7966082 L38.5312281,11.7966082 L36.7916959,8.12701754 L39.3136842,8.12701754 C40.3145029,8.12701754 41.128655,8.95017544 41.128655,9.96187135 C41.128655,10.9735673 40.3145029,11.7966082 39.3136842,11.7966082 Z" id="Shape" fill-rule="nonzero"></path>
                <path d="M17.1769591,19.7176608 L26.0721637,19.7176608 C26.5567251,19.7176608 26.9493567,19.3249123 26.9493567,18.8404678 C26.9493567,18.3560234 26.5567251,17.9632749 26.0721637,17.9632749 L17.1769591,17.9632749 C16.6923977,17.9632749 16.2997661,18.3560234 16.2997661,18.8404678 C16.2997661,19.3249123 16.6923977,19.7176608 17.1769591,19.7176608 Z" id="Path"></path>
                <path d="M17.1769591,23.682807 L26.0721637,23.682807 C26.5567251,23.682807 26.9493567,23.2900585 26.9493567,22.805614 C26.9493567,22.3211696 26.5567251,21.9284211 26.0721637,21.9284211 L17.1769591,21.9284211 C16.6923977,21.9284211 16.2997661,22.3211696 16.2997661,22.805614 C16.2997661,23.2900585 16.6923977,23.682807 17.1769591,23.682807 Z" id="Path"></path>
                <path d="M36.3484211,19.9975439 C36.3484211,17.9653801 34.6967251,16.3122807 32.6664327,16.3122807 C30.634386,16.3122807 28.9811696,17.9654971 28.9811696,19.9975439 C28.9811696,22.0295906 30.634386,23.682924 32.6664327,23.682924 C34.6967251,23.682807 36.3484211,22.0295906 36.3484211,19.9975439 Z M30.7355556,19.9975439 C30.7355556,18.9328655 31.6017544,18.0666667 32.6664327,18.0666667 C33.7293567,18.0666667 34.5940351,18.9328655 34.5940351,19.9975439 C34.5940351,21.0623392 33.7292398,21.928538 32.6664327,21.928538 C31.6017544,21.9284211 30.7355556,21.0622222 30.7355556,19.9975439 Z" id="Shape" fill-rule="nonzero"></path>
                <path d="M6.9005848,19.9975439 C6.9005848,22.0297076 8.55239766,23.682924 10.5825731,23.682924 C12.6147368,23.682924 14.2678363,22.0297076 14.2678363,19.9975439 C14.2678363,17.9653801 12.6146199,16.3122807 10.5825731,16.3122807 C8.55239766,16.3121637 6.9005848,17.9653801 6.9005848,19.9975439 Z M12.5135673,19.9975439 C12.5135673,21.0623392 11.6473684,21.928538 10.5826901,21.928538 C9.51976608,21.928538 8.65508772,21.0623392 8.65508772,19.9975439 C8.65508772,18.9328655 9.51988304,18.0666667 10.5826901,18.0666667 C11.6473684,18.0665497 12.5135673,18.9328655 12.5135673,19.9975439 Z" id="Shape" fill-rule="nonzero"></path>
            </g>
        </g>
    </g>
</svg>