
<svg width="61px" height="61px" viewBox="0 0 61 61" version="1.1" xmlns="http://www.w3.org/2000/svg" xmlns:xlink="http://www.w3.org/1999/xlink">
    <g id="Page-1" stroke="none" stroke-width="1" fill="none" fill-rule="evenodd">
        <g id="5f90456225840218ab61f4b0_bright_house-copy-6" transform="translate(1.000000, 1.000000)" stroke-linejoin="round" stroke-width="2">
            <polyline id="Path_1679" stroke="#464646" stroke-linecap="round" points="50.707 33.805 50.707 58.22 6.573 58.22 6.573 32.866"></polyline>
            <polygon id="Path_1680" stroke="#E6E6E6" stroke-linecap="round" points="29.11 0 0 20.659 0 28.171 7.512 28.171 7.512 24.415 29.112 8.921 50.712 24.415 50.712 29.115 58.224 29.115 58.224 20.664"></polygon>
            <g id="Group_1416" transform="translate(16.000000, 40.000000)" stroke="#D4BB9F" stroke-linecap="square">
                <rect id="Rectangle_482" x="0" y="0" width="11" height="11"></rect>
                <path d="M5.5,0 L5.5,11" id="Line_41"></path>
                <path d="M0,5.5 L11,5.5" id="Line_42"></path>
            </g>
            <g id="Group_1416-Copy-2" transform="translate(16.000000, 24.000000)" stroke="#E6E6E6" stroke-linecap="square">
                <rect id="Rectangle_482" x="0" y="0" width="11" height="11"></rect>
                <path d="M5.5,0 L5.5,11" id="Line_41"></path>
                <path d="M0,5.5 L11,5.5" id="Line_42"></path>
            </g>
            <g id="Group_1416-Copy" transform="translate(31.000000, 40.000000)" stroke="#D4BB9F" stroke-linecap="square">
                <rect id="Rectangle_482" x="0" y="0" width="11" height="11"></rect>
                <path d="M5.5,0 L5.5,11" id="Line_41"></path>
                <path d="M0,5.5 L11,5.5" id="Line_42"></path>
            </g>
            <g id="Group_1416-Copy-3" transform="translate(31.000000, 24.000000)" stroke="#E6E6E6" stroke-linecap="square">
                <rect id="Rectangle_482" x="0" y="0" width="11" height="11"></rect>
                <path d="M5.5,0 L5.5,11" id="Line_41"></path>
                <path d="M0,5.5 L11,5.5" id="Line_42"></path>
            </g>
            <polyline id="Path_1681" stroke="#E6E6E6" stroke-linecap="round" points="41 2.817 41 0 50.39 0 50.39 11.268"></polyline>
        </g>
        <circle id="Oval-Copy-3" stroke="#E6E6E6" stroke-width="2" cx="30" cy="18" r="3"></circle>
    </g>
</svg>