
<svg width="62px" height="58px" viewBox="0 0 62 58" version="1.1" xmlns="http://www.w3.org/2000/svg" xmlns:xlink="http://www.w3.org/1999/xlink">
    <g id="Page-1" stroke="none" stroke-width="1" fill="none" fill-rule="evenodd">
        <g id="Group-11" transform="translate(0.000000, 1.000000)">
            <g id="Group-10" transform="translate(1.000000, 0.000000)" stroke-linecap="round" stroke-linejoin="round" stroke-width="2">
                <rect id="Rectangle" stroke="#464646" x="0" y="0" width="60" height="5"></rect>
                <polyline id="Rectangle-Copy" stroke="#464646" transform="translate(30.000000, 30.000000) rotate(270.000000) translate(-30.000000, -30.000000) " points="5 4 55 4 55 56 33.3610026 56 5 56"></polyline>
                <polyline id="Rectangle-Copy" stroke="#D4BB9F" transform="translate(30.000000, 32.000000) rotate(270.000000) translate(-30.000000, -32.000000) " points="7 10 53 10 53 54 29.7373047 54 7 54"></polyline>
            </g>
            <path d="M10,14.5 L52.8830409,14.5" id="Path-13" stroke="#D4BB9F"></path>
            <path d="M10,19.5 L52.8830409,19.5" id="Path-13-Copy" stroke="#D4BB9F"></path>
            <path d="M10,24.5 L52.8830409,24.5" id="Path-13-Copy-2" stroke="#D4BB9F"></path>
            <path d="M10,29.5 L52.8830409,29.5" id="Path-13-Copy-3" stroke="#D4BB9F"></path>
            <path d="M10,34.5 L52.8830409,34.5" id="Path-13-Copy-4" stroke="#D4BB9F"></path>
            <path d="M10,39.5 L52.8830409,39.5" id="Path-13-Copy-5" stroke="#D4BB9F"></path>
            <path d="M10,44.5 L52.8830409,44.5" id="Path-13-Copy-6" stroke="#D4BB9F"></path>
            <path d="M10,49.5 L52.8830409,49.5" id="Path-13-Copy-7" stroke="#D4BB9F"></path>
            <path d="M1,55.5 L61,55.5" id="Path-13-Copy-9" stroke="#464646" stroke-width="2" stroke-linecap="round" stroke-linejoin="round"></path>
            <path d="M27.8662109,52.5 L35.7695313,52.5" id="Path-13-Copy-10" stroke="#D4BB9F" stroke-width="2" stroke-linecap="round" stroke-linejoin="round"></path>
        </g>
    </g>
</svg>