
<svg width="71px" height="61px" viewBox="0 0 71 61" version="1.1" xmlns="http://www.w3.org/2000/svg" xmlns:xlink="http://www.w3.org/1999/xlink">
    <g id="Page-1" stroke="none" stroke-width="1" fill="none" fill-rule="evenodd" stroke-linecap="round" stroke-linejoin="round">
        <g id="Group-17" transform="translate(1.000000, 1.000000)" stroke-width="2">
            <g id="5f90456225840218ab61f4b0_bright_house-copy-12" transform="translate(6.000000, 0.000000)" stroke="#464646">
                <polyline id="Path_1679" points="50.707 49.2124308 50.707 58.22 6.573 58.22 6.573 48.866"></polyline>
                <polygon id="Path_1680" points="29.11 0 0 20.659 0 28.171 7.512 28.171 7.512 24.415 29.112 8.921 50.712 24.415 50.712 29.115 58.224 29.115 58.224 20.664"></polygon>
                <polyline id="Path_1681" points="41 2.817 41 0 50.39 0 50.39 11.268"></polyline>
            </g>
            <polygon id="Star" stroke="#D4BB9F" points="7.5 43.25 3.09161061 45.5676275 3.93353806 40.6588137 0.367076128 37.1823725 5.2958053 36.4661863 7.5 32 9.7041947 36.4661863 14.6329239 37.1823725 11.0664619 40.6588137 11.9083894 45.5676275"></polygon>
            <polygon id="Star-Copy" stroke="#D4BB9F" points="25.5 43.25 21.0916106 45.5676275 21.9335381 40.6588137 18.3670761 37.1823725 23.2958053 36.4661863 25.5 32 27.7041947 36.4661863 32.6329239 37.1823725 29.0664619 40.6588137 29.9083894 45.5676275"></polygon>
            <polygon id="Star-Copy-2" stroke="#D4BB9F" points="43.5 43.25 39.0916106 45.5676275 39.9335381 40.6588137 36.3670761 37.1823725 41.2958053 36.4661863 43.5 32 45.7041947 36.4661863 50.6329239 37.1823725 47.0664619 40.6588137 47.9083894 45.5676275"></polygon>
            <polygon id="Star-Copy-3" stroke="#D4BB9F" points="61.5 43.25 57.0916106 45.5676275 57.9335381 40.6588137 54.3670761 37.1823725 59.2958053 36.4661863 61.5 32 63.7041947 36.4661863 68.6329239 37.1823725 65.0664619 40.6588137 65.9083894 45.5676275"></polygon>
        </g>
    </g>
</svg>