
<svg width="61px" height="59px" viewBox="0 0 61 59" version="1.1" xmlns="http://www.w3.org/2000/svg" xmlns:xlink="http://www.w3.org/1999/xlink">
    <g id="Page-1" stroke="none" stroke-width="1" fill="none" fill-rule="evenodd">
        <g id="Group-3" transform="translate(1.000000, 1.000000)">
            <g id="5f90456225840218ab61f4b0_bright_house-copy-7" stroke="#464646" stroke-linejoin="round" stroke-width="2">
                <polyline id="Path_1679" stroke-linecap="round" points="26.4882812 56.22 6.573 56.22 6.573 32.866"></polyline>
                <polygon id="Path_1680" stroke-linecap="round" points="29.11 0 0 20.659 0 28.171 7.512 28.171 7.512 24.415 29.112 8.921 50.712 24.415 50.712 29.115 58.224 29.115 58.224 20.664"></polygon>
                <g id="Group_1416" transform="translate(19.000000, 28.000000)">
                    <polyline id="Rectangle_482" stroke-linecap="round" transform="translate(10.816000, 10.226000) scale(-1, 1) translate(-10.816000, -10.226000) " points="0.316 4.16210938 0.316 0.226 21.316 0.226 21.316 20.226 11.6622734 20.226"></polyline>
                    <path d="M10.316,0.226 L10.316,20.226" id="Line_41" stroke-linecap="square"></path>
                    <path d="M0.316,10.226 L17.796875,10.226" id="Line_42" stroke-linecap="round"></path>
                </g>
                <polyline id="Path_1681" stroke-linecap="round" points="41.317 2.817 41.317 0 50.707 0 50.707 11.268"></polyline>
            </g>
            <rect id="Rectangle" stroke="#D4BB9F" stroke-width="2" x="34" y="42" width="21" height="15" rx="3"></rect>
            <polyline id="Path-4" stroke="#D4BB9F" stroke-width="2" stroke-linecap="round" stroke-linejoin="bevel" points="40 39.1318359 40 37 48.434082 37 48.434082 39.1318359"></polyline>
            <g id="iconfinder_cash_3827994" transform="translate(42.000000, 45.000000)" fill="#D4BB9F" fill-rule="nonzero">
                <path d="M3.01431621,4 L3.01431621,1.7 C3.48502998,1.78522986 3.86993074,2.12394252 4.01431621,2.58 C4.05718808,2.75863279 4.19210278,2.90082443 4.36823926,2.9530127 C4.54437573,3.00520097 4.73497465,2.95945723 4.86823926,2.8330127 C5.00150386,2.70656818 5.05718808,2.51863279 5.01431621,2.34 C4.72231183,1.45500797 3.94065362,0.821864823 3.01431621,0.72 L3.01431621,0.5 C3.01431621,0.223857625 2.79045858,0 2.51431621,0 C2.23817383,0 2.01431621,0.223857625 2.01431621,0.5 L2.01431621,0.71 C0.922119534,0.838882072 0.0794106154,1.73215353 0.0143162078,2.83 C0.0155452862,2.98462031 0.0322959642,3.13872655 0.0643162078,3.29 C0.321625575,4.19378465 1.08466967,4.86291563 2.01431621,5 L2.01431621,7.31 C1.54360243,7.22477014 1.15870168,6.88605748 1.01431621,6.43 C0.948042038,6.15385763 0.670458583,5.98372583 0.394316208,6.05 C0.118173833,6.11627417 -0.0519579622,6.39385763 0.0143162078,6.67 C0.305194791,7.55408491 1.0885058,8.18465027 2.01431621,8.28 L2.01431621,8.5 C2.01431621,8.77614237 2.23817383,9 2.51431621,9 C2.79045858,9 3.01431621,8.77614237 3.01431621,8.5 L3.01431621,8.28 C3.95571158,8.17513882 4.74319767,7.51758794 5.01431621,6.61 C5.04522026,6.46530314 5.06196589,6.3179416 5.06431621,6.17 C5.01531034,5.03768493 4.14201675,4.11327172 3.01431621,4 Z M1.01431621,3 C1.00392239,2.92703496 1.00392239,2.85296504 1.01431621,2.78 C1.06752597,2.23442863 1.47533863,1.78991282 2.01431621,1.69 L2.01431621,3.88 C1.55668765,3.80174784 1.17552577,3.48538348 1.01431621,3.05 L1.01431621,3 Z M4.01431621,6.38 C3.86993074,6.83605748 3.48502998,7.17477014 3.01431621,7.26 L3.01431621,5.07 C3.55658884,5.17096427 3.96533696,5.6205872 4.01431621,6.17 C4.02331667,6.23971068 4.02331667,6.31028932 4.01431621,6.38 Z" id="Shape"></path>
            </g>
        </g>
    </g>
</svg>