
<svg width="61px" height="61px" viewBox="0 0 61 61" version="1.1" xmlns="http://www.w3.org/2000/svg" xmlns:xlink="http://www.w3.org/1999/xlink">
    <g id="Page-1" stroke="none" stroke-width="1" fill="none" fill-rule="evenodd" stroke-linecap="round" stroke-linejoin="round">
        <g id="Group-15" transform="translate(1.000000, 1.000000)" stroke-width="2">
            <g id="5f90456225840218ab61f4b0_bright_house-copy-14" stroke="#464646">
                <polyline id="Path_1679" points="50.707 34.7679644 50.707 58.22 6.573 58.22 6.573 33.866"></polyline>
                <polygon id="Path_1680" points="29.11 0 0 20.659 0 28.171 7.512 28.171 7.512 24.415 29.112 8.921 50.712 24.415 50.712 29.115 58.224 29.115 58.224 20.664"></polygon>
                <polyline id="Path_1681" points="41 2.817 41 0 50.39 0 50.39 11.268"></polyline>
            </g>
            <polygon id="Star-Copy-9" stroke="#D4BB9F" points="18.5 43.25 14.0916106 45.5676275 14.9335381 40.6588137 11.3670761 37.1823725 16.2958053 36.4661863 18.5 32 20.7041947 36.4661863 25.6329239 37.1823725 22.0664619 40.6588137 22.9083894 45.5676275"></polygon>
            <polygon id="Star-Copy-10" stroke="#D4BB9F" points="36.5 43.25 32.0916106 45.5676275 32.9335381 40.6588137 29.3670761 37.1823725 34.2958053 36.4661863 36.5 32 38.7041947 36.4661863 43.6329239 37.1823725 40.0664619 40.6588137 40.9083894 45.5676275"></polygon>
        </g>
    </g>
</svg>