
<svg width="67px" height="67px" viewBox="0 0 67 67" version="1.1" xmlns="http://www.w3.org/2000/svg" xmlns:xlink="http://www.w3.org/1999/xlink">
    <g id="Page-1" stroke="none" stroke-width="1" fill="none" fill-rule="evenodd">
        <rect id="Rectangle" stroke="#464646" stroke-width="2" x="1" y="26" width="8" height="8"></rect>
        <rect id="Rectangle-Copy-4" stroke="#464646" stroke-width="2" x="1" y="42" width="8" height="8"></rect>
        <rect id="Rectangle-Copy-12" stroke="#464646" stroke-width="2" x="1" y="58" width="8" height="8"></rect>
        <rect id="Rectangle-Copy-3" stroke="#464646" stroke-width="2" x="9" y="26" width="14" height="8"></rect>
        <rect id="Rectangle-Copy-7" stroke="#464646" stroke-width="2" x="9" y="42" width="14" height="8"></rect>
        <rect id="Rectangle-Copy-13" stroke="#464646" stroke-width="2" x="9" y="58" width="14" height="8"></rect>
        <rect id="Rectangle-Copy-9" stroke="#464646" stroke-width="2" x="1" y="50" width="14" height="8"></rect>
        <rect id="Rectangle-Copy-8" stroke="#464646" stroke-width="2" x="23" y="42" width="14" height="8"></rect>
        <rect id="Rectangle-Copy-14" stroke="#464646" stroke-width="2" x="23" y="58" width="14" height="8"></rect>
        <rect id="Rectangle-Copy-15" stroke="#464646" stroke-width="2" x="37" y="58" width="14" height="8"></rect>
        <rect id="Rectangle-Copy-10" stroke="#464646" stroke-width="2" x="15" y="50" width="14" height="8"></rect>
        <rect id="Rectangle-Copy-11" stroke="#464646" stroke-width="2" x="30" y="50" width="14" height="8"></rect>
        <rect id="Rectangle-Copy-5" stroke="#464646" stroke-width="2" x="1" y="34" width="14" height="8"></rect>
        <rect id="Rectangle-Copy-6" stroke="#464646" stroke-width="2" x="15" y="34" width="14" height="8"></rect>
        <g id="Group-24" transform="translate(44.537320, 18.537320) rotate(-45.000000) translate(-44.537320, -18.537320) translate(19.037320, -10.462680)" stroke="#D4BB9F" stroke-width="2">
            <path d="M20.8068796,39.5504839 L10.4337203,15.0131353 C9.78856711,13.4870478 10.5027055,11.7269093 12.0287931,11.0817561 C12.7655017,10.7703127 13.5960762,10.7659511 14.336015,11.0696402 L39.2764238,21.3057986 C40.8092027,21.9348889 41.5417872,23.6874302 40.9126969,25.2202092 C40.7583361,25.5963093 40.5291431,25.9371115 40.2390355,26.2219205 L25.6717861,40.5231108 C24.4894659,41.6838368 22.5900516,41.6663313 21.4293255,40.4840111 C21.1649816,40.2147493 20.9538069,39.8980354 20.8068796,39.5504839 Z" id="Path-18" transform="translate(25.541976, 25.958513) rotate(45.000000) translate(-25.541976, -25.958513) "></path>
            <path d="M25.7685547,36.734375 L25.7685547,42.0644531" id="Path-29"></path>
            <rect id="Rectangle" x="22" y="43" width="7" height="14" rx="3"></rect>
        </g>
    </g>
</svg>