
<svg width="61px" height="61px" viewBox="0 0 61 61" version="1.1" xmlns="http://www.w3.org/2000/svg" xmlns:xlink="http://www.w3.org/1999/xlink">
    <g id="Page-1" stroke="none" stroke-width="1" fill="none" fill-rule="evenodd" stroke-linecap="round" stroke-linejoin="round">
        <g id="Group-16" transform="translate(1.000000, 1.000000)" stroke-width="2">
            <g id="5f90456225840218ab61f4b0_bright_house-copy-13" stroke="#464646">
                <polyline id="Path_1679" points="50.707 49.2124308 50.707 58.22 6.573 58.22 6.573 48.866"></polyline>
                <polygon id="Path_1680" points="29.11 0 0 20.659 0 28.171 7.512 28.171 7.512 24.415 29.112 8.921 50.712 24.415 50.712 29.115 58.224 29.115 58.224 20.664"></polygon>
                <polyline id="Path_1681" points="41 2.817 41 0 50.39 0 50.39 11.268"></polyline>
            </g>
            <polygon id="Star-Copy-4" stroke="#D4BB9F" points="9.5 43.25 5.09161061 45.5676275 5.93353806 40.6588137 2.36707613 37.1823725 7.2958053 36.4661863 9.5 32 11.7041947 36.4661863 16.6329239 37.1823725 13.0664619 40.6588137 13.9083894 45.5676275"></polygon>
            <polygon id="Star-Copy-5" stroke="#D4BB9F" points="27.5 43.25 23.0916106 45.5676275 23.9335381 40.6588137 20.3670761 37.1823725 25.2958053 36.4661863 27.5 32 29.7041947 36.4661863 34.6329239 37.1823725 31.0664619 40.6588137 31.9083894 45.5676275"></polygon>
            <polygon id="Star-Copy-6" stroke="#D4BB9F" points="45.5 43.25 41.0916106 45.5676275 41.9335381 40.6588137 38.3670761 37.1823725 43.2958053 36.4661863 45.5 32 47.7041947 36.4661863 52.6329239 37.1823725 49.0664619 40.6588137 49.9083894 45.5676275"></polygon>
        </g>
    </g>
</svg>