
<svg width="62px" height="54px" viewBox="0 0 62 54" version="1.1" xmlns="http://www.w3.org/2000/svg" xmlns:xlink="http://www.w3.org/1999/xlink">
    <g id="Page-1" stroke="none" stroke-width="1" fill="none" fill-rule="evenodd">
        <g id="Group-29" transform="translate(1.000000, 1.000000)">
            <path d="M29.3830232,23.1599869 L29.3830232,5.92520149 C29.3830232,4.23051963 28.585809,2.63456225 27.2308434,1.61671417 L27.2308434,1.61671417 C25.8339322,0.567356645 24.1340344,-6.97720996e-15 22.3868904,-3.55271368e-15 L3.90136825,3.80805194e-14 L3.90136825,30.0956249 L21.959017,30.0956249 C24.9255233,30.0956249 27.7019587,31.5557861 29.3830232,34 L-1.08357767e-13,34 L-1.08357767e-13,1.40730401 L2.76566517,1.40730401" id="Path-34" stroke="#484848" stroke-width="2"></path>
            <path d="M59.3830232,23.1599869 L59.3830232,5.92520149 C59.3830232,4.23051963 58.585809,2.63456225 57.2308434,1.61671417 L57.2308434,1.61671417 C55.8339322,0.567356645 54.1340344,-6.97720996e-15 52.3868904,-3.55271368e-15 L33.9013683,3.80805194e-14 L33.9013683,30.0956249 L51.959017,30.0956249 C54.9255233,30.0956249 57.7019587,31.5557861 59.3830232,34 L30,34 L30,1.40730401 L32.7656652,1.40730401" id="Path-34-Copy" stroke="#484848" stroke-width="2" transform="translate(44.691512, 17.000000) scale(-1, 1) translate(-44.691512, -17.000000) "></path>
            <path d="M37.2708337,39.7281309 L37.2708337,39.7281309 C37.2708337,39.0563698 36.9893563,38.4153429 36.4947724,37.9607555 L24.3481227,26.7963956 C23.8147525,26.3061585 23.6322494,25.5412879 23.8868129,24.8630448 L23.9032357,24.8192888 C24.1467235,24.1705549 24.7670023,23.7408333 25.459925,23.7408333 L25.459925,23.7408333 C26.2006335,23.7408333 26.9142348,24.0194879 27.4589397,24.5214297 L37.2708337,33.5630226 L35.6963436,32.1296444 C34.9035075,31.4078653 34.8459043,30.1800272 35.5676834,29.3871911 C35.6083014,29.3425743 35.6509775,29.2998753 35.6955724,29.2592333 L35.6955724,29.2592333 C36.6039446,28.43138 37.9783384,28.3835771 38.9420331,29.146318 L40.6074647,30.4644664 L38.773919,28.8739026 C38.2579056,28.4262714 38.0437197,27.7227393 38.2227549,27.0635049 L38.2350703,27.0181579 C38.4074265,26.3835167 38.9188737,25.897682 39.5615255,25.7581297 L39.5615255,25.7581297 C40.2184399,25.6154802 40.9039083,25.7967057 41.4044885,26.2453758 L43.1653147,27.8236045 L40.6074647,25.5310032 L41.1338977,24.3778126 C41.628164,23.2950857 42.8526714,22.7514358 43.9872723,23.1109874 L43.9872723,23.1109874 C45.2907542,23.5240569 46.4673923,24.2626536 47.4060045,25.2569868 L53.9430635,32.1821201 C54.8090371,33.0995025 55.5634745,34.1160832 56.1906561,35.2106808 L59.3830232,40.7822044 L59.3830232,51.3442755 C58.1345147,51.7488613 56.755701,51.7488613 55.2465823,51.3442755 C52.9829041,50.7373968 52.0045546,49.6720716 50.8318551,49.3393679 C49.5191354,48.9669394 48.4605408,48.754465 47.6560714,48.7019446 L47.6560714,48.7019444 C44.6336835,48.5046255 41.729382,47.4534813 39.2808103,45.670714 L32.5666048,40.7822044 L32.5666048,34.9279742" id="Path-33" stroke="#D4BB9F" stroke-width="2" fill="#FFFFFF" stroke-linecap="round" stroke-linejoin="round"></path>
            <path d="M33,11 L33.3571094,10.4787171 C34.8486071,8.30153437 37.317888,7 39.9569579,7 L44.93425,7" id="Path-35" stroke="#464646" stroke-width="2" stroke-linecap="round"></path>
            <path d="M33,15 L33.3571094,14.4787171 C34.8486071,12.3015344 37.317888,11 39.9569579,11 L44.93425,11" id="Path-35-Copy" stroke="#464646" stroke-width="2" stroke-linecap="round"></path>
            <path d="M33,19 L33.3571094,18.4787171 C34.8486071,16.3015344 37.317888,15 39.9569579,15 L44.93425,15" id="Path-35-Copy-2" stroke="#464646" stroke-width="2" stroke-linecap="round"></path>
            <path d="M33,23 L33.3571094,22.4787171 C34.8486071,20.3015344 37.317888,19 39.9569579,19 L44.93425,19" id="Path-35-Copy-3" stroke="#464646" stroke-width="2" stroke-linecap="round"></path>
            <path d="M47.2651367,7 L50.215332,7" id="Path-36" stroke="#464646" stroke-width="2" stroke-linecap="round"></path>
            <path d="M47.2651367,11 L50.215332,11" id="Path-37" stroke="#484848" stroke-width="2" stroke-linecap="round"></path>
            <path d="M47.2651367,15 L50.215332,15" id="Path-38" stroke="#484848" stroke-width="2" stroke-linecap="round"></path>
            <path d="M47.2651367,19.2207031 L50.215332,19.2207031" id="Path-39" stroke="#484848" stroke-width="2" stroke-linecap="round"></path>
            <path d="M18.4306641,9.40458015 C18.4306641,10.1170519 18.1889362,10.7277328 17.7054732,11.2366412 C17.2220102,11.7455496 16.6367744,12 15.949748,12 C15.2372763,12 14.6393179,11.7582721 14.1558549,11.2748092 C13.6723919,10.7913462 13.4306641,10.1806653 13.4306641,9.44274809 C13.4306641,8.73027634 13.6723919,8.14504046 14.1558549,7.6870229 C14.6393179,7.22900534 15.2627213,7 16.0260839,7 C16.7131102,7 17.2856236,7.22900534 17.7436412,7.6870229 C18.2016587,8.14504046 18.4306641,8.71755382 18.4306641,9.40458015 Z M20.4306641,22.8226164 C20.4306641,22.9260907 20.3446434,22.9778271 20.1725995,22.9778271 L16.3589795,22.9334812 L13.6062913,22.9778271 C13.4915954,22.9778271 13.3482276,22.985218 13.1761838,23 L12.9181193,23 C12.6887274,23 12.5740332,22.9408727 12.5740332,22.8226164 C12.5740332,22.7339242 12.7938638,22.6821878 13.2335314,22.6674058 C13.883475,22.6526237 14.2657889,22.5971919 14.3804849,22.5011086 C14.4951808,22.4050254 14.5525279,22.1130845 14.5525279,21.6252772 L14.5525279,15.2616408 C14.5525279,14.6999233 14.4904018,14.3636369 14.3661479,14.2527716 C14.241894,14.1419063 13.864359,14.0864745 13.2335314,14.0864745 C12.8320957,14.0864745 12.5979284,14.0790836 12.5310225,14.0643016 C12.4641165,14.0495195 12.4306641,13.9977831 12.4306641,13.9090909 C12.4306641,13.8056166 12.5740318,13.7538803 12.8607716,13.7538803 C14.96353,13.7390982 16.7604057,13.4878073 18.2514526,13 C18.2896846,13.1773845 18.3374738,13.6651845 18.3948218,14.4634146 L18.4234956,17.2793792 L18.4234956,21.4478936 C18.4234956,22.0539572 18.4951795,22.4087208 18.6385494,22.5121951 C18.7819193,22.6156694 19.2741485,22.6674058 20.1152519,22.6674058 C20.3255277,22.6674058 20.4306641,22.7191421 20.4306641,22.8226164 Z" id="i" fill="#363636"></path>
        </g>
    </g>
</svg>