
<svg width="135px" height="44px" viewBox="0 0 135 44" version="1.1" xmlns="http://www.w3.org/2000/svg" xmlns:xlink="http://www.w3.org/1999/xlink">
    <g id="Page-1" stroke="none" stroke-width="1" fill="none" fill-rule="evenodd">
        <g id="Hr-iNFO-Logo_2015" transform="translate(0.000000, -1.000000)" fill="#FFFFFF">
            <g id="g10" transform="translate(68.000000, 22.526667) scale(-1, 1) rotate(-180.000000) translate(-68.000000, -22.526667) translate(-0.000000, 0.026667)">
                <g id="g12" transform="translate(0.666667, 0.266667)">
                    <polyline id="path14" points="84.6015979 36.3729324 84.6015979 10.8473331 80.0270647 10.8473331 67.5639983 27.8557326 67.5639983 10.8473331 62.5677318 10.8473331 62.5677318 36.3729324 67.1415983 36.3729324 79.605198 19.4587995 79.605198 36.3729324 84.6015979 36.3729324"></polyline>
                    <polyline id="path16" points="109.676531 36.3729324 109.676531 32.3234659 95.8281309 32.3234659 95.8281309 25.3969327 107.620797 25.3969327 107.620797 21.3463995 95.8281309 21.3463995 95.8281309 10.8473331 90.4969311 10.8473331 90.4969311 36.3729324 109.676531 36.3729324"></polyline>
                    <path d="M127.270263,31.3729325 C127.26933,31.3729325 127.26933,31.3745325 127.26933,31.3745325 L127.27133,31.3707992 C127.270263,31.3729325 127.270263,31.3729325 127.270263,31.3729325" id="path18"></path>
                    <path d="M131.36933,34.2635991 C129.12533,36.2239991 126.489597,37.0327991 123.20573,37.0327991 C119.89213,37.0327991 117.25933,36.1729324 115.015064,34.2125325 C112.041597,31.6087992 112.045331,27.8259993 112.045331,23.9239994 L112.045331,23.1869328 C112.045331,19.0942662 112.209331,15.5103996 115.066664,12.779733 C117.223464,10.7193331 119.89213,10.0947997 123.20573,10.0947997 C126.489597,10.0947997 129.02533,10.7953331 131.36933,12.9510663 C134.31733,15.6630663 134.246663,18.9406662 134.246663,23.4890661 L134.246663,23.8630661 C134.246663,28.4087993 134.383997,31.6250659 131.36933,34.2635991 Z M127.27133,15.7390663 C126.294264,14.7562663 124.85053,14.2671996 123.20573,14.2671996 C121.556797,14.2671996 120.05933,14.769333 119.10053,15.7349329 C117.815064,16.9843996 117.539064,18.3729329 117.539064,23.5551994 C117.539064,28.7401326 117.815064,30.1270659 119.096397,31.3729325 C120.061997,32.3431992 121.558797,32.8994658 123.20573,32.8994658 C124.847864,32.8994658 126.290664,32.3573325 127.26933,31.3745325 L127.26773,31.3754659 C127.268797,31.3745325 127.26933,31.3745325 127.270263,31.3729325 C128.49213,30.1827992 128.871997,28.9469326 128.871997,23.5551994 C128.871997,18.1603995 128.49213,16.9250662 127.27133,15.7390663 Z" id="path20" fill-rule="nonzero"></path>
                    <polygon id="path22" points="51.2863987 33.4213325 56.6192119 33.4213325 56.6192119 36.3728924 51.2863987 36.3728924"></polygon>
                    <path d="M56.6193319,29.2598659 C56.6193319,28.7765326 56.6193319,10.8473331 56.6193319,10.8473331 L51.2863987,10.8473331 C51.2863987,10.8473331 51.2863987,28.7765326 51.2863987,29.2598659 C51.7254654,29.2598659 56.1786653,29.2598659 56.6193319,29.2598659" id="path24"></path>
                    <path d="M28.657866,0.0406266657 C19.1035995,-0.126039997 7.52499981,1.61773329 0.0416666656,4.84733321 L0.0416666656,7.75786647 C7.90677314,4.42026656 18.6046662,2.6530666 28.1583993,2.81773326 C38.465599,2.99639993 49.1973321,4.73026655 56.6270653,7.64693314 L56.6265319,4.82399988 C48.3150655,1.86826662 38.9030657,0.215106661 28.657866,0.0406266657" id="path26"></path>
                    <path d="M5.01614654,43.4687989 L5.01406654,32.6953325 C5.01406654,32.6953325 8.39843979,33.3994658 11.3723997,33.3697325 C16.3171996,33.3197325 18.7942662,30.6619992 18.9693329,27.1917327 C19.0139995,26.3093327 19.0046662,25.8229327 19.0046662,24.8745327 L19.0046662,10.8473331 L13.790133,10.8473331 L13.790133,25.1739994 C13.790133,26.9265327 13.9015997,29.1051993 9.96199975,29.0863993 C7.15573315,29.0729326 5.17499987,28.533866 5.17499987,28.533866 L5.17499987,10.8473331 L0.0859333312,10.8473331 L0.0859333312,43.1437323 L5.01614654,43.4687989" id="path28"></path>
                    <path d="M36.8921324,33.3958658 C36.8286657,33.4078658 32.2359992,33.2906658 29.5229326,32.6671992 C26.3587993,31.9442659 24.3302661,30.0327992 24.0469327,27.111466 C23.9921327,26.5499993 23.9661327,26.192666 23.9661327,24.909866 L23.9661327,10.8473331 L29.1770659,10.8473331 L29.1765326,25.2259994 C29.1765326,26.487466 29.2745326,27.2885327 30.0989326,28.028666 C31.0333326,28.8655993 33.1639992,28.9874659 34.3827991,29.0869326 C35.2187991,29.1551993 36.8921324,29.2327993 36.8921324,29.2327993 L36.8921324,33.3958658" id="path30"></path>
                </g>
            </g>
        </g>
    </g>
</svg>