
<svg width="887px" height="109px" viewBox="0 0 887 109" version="1.1" xmlns="http://www.w3.org/2000/svg" xmlns:xlink="http://www.w3.org/1999/xlink">
    <defs>
        <polygon id="path-1" points="5.5444672 1.38786916 1007.69815 1.38786916 1007.69815 199.369508 5.5444672 199.369508"></polygon>
    </defs>
    <g id="Page-1" stroke="none" stroke-width="1" fill="none" fill-rule="evenodd">
        <g id="Hannoversche_Allgemeine_logo" transform="translate(-63.000000, -49.000000)">
            <g id="g6257" transform="translate(505.062330, 102.413022) scale(-1, 1) rotate(-180.000000) translate(-505.062330, -102.413022) translate(0.382636, 0.776139)">
                <g id="g6259-Clipped">
                    <mask id="mask-2" fill="white">
                        <use xlink:href="#path-1"></use>
                    </mask>
                    <g id="path6263"></g>
                    <g id="g6259" mask="url(#mask-2)">
                        <g transform="translate(56.075522, 42.056641)">
                            <path d="M230.891661,72.29817 L230.891661,30.451812 C230.891661,28.7134708 230.064547,28.1457062 228.326206,28.5101971 C226.51777,29.2812355 224.078485,30.0312456 222.914918,30.6971424 C222.115842,30.9074256 220.51068,31.3420109 220.51068,33.5289563 C220.38451,47.6950349 220.791058,61.3003583 220.51068,75.8799939 C220.51068,79.1253648 226.784129,75.6346635 229.868283,74.2327755 C231.03185,73.8472563 230.891661,72.29817 230.891661,72.29817 M207.073583,25.8045532 C208.74884,27.34663 208.74884,28.8957163 208.74884,32.4985685 L208.74884,69.7257054 C208.875009,72.9640668 205.012808,76.0342016 207.599291,77.1206649 C214.797986,78.8660155 219.494311,80.8216493 225.101864,86.8497679 C225.879911,88.1395049 227.071516,87.6067874 227.807507,87.3684664 C233.148701,85.6441441 236.800619,83.1768212 241.973586,81.6978293 C243.648842,81.5716594 243.263323,79.8964032 243.263323,79.8964032 C242.618455,77.9688071 242.618455,75.0178328 242.618455,75.0178328 L242.618455,36.6201194 C242.618455,30.4377931 239.274952,29.1480561 239.274952,29.1480561 C234.760872,26.7017615 229.517811,20.2670954 227.681338,17.8137913 C226.77712,16.6572337 226.076176,16.7834036 224.975694,17.1759323 C218.982622,19.2997926 214.286297,21.549823 208.61566,23.2250792 C207.585272,23.6105984 206.428715,24.7741654 207.073583,25.8045532" id="path6267" fill="#FFFFFF" fill-rule="evenodd"></path>
                            <path d="M230.891661,72.29817 L230.891661,30.451812 C230.891661,28.7134708 230.064547,28.1457062 228.326206,28.5101971 C226.51777,29.2812355 224.078485,30.0312456 222.914918,30.6971424 C222.115842,30.9074256 220.51068,31.3420109 220.51068,33.5289563 C220.38451,47.6950349 220.791058,61.3003583 220.51068,75.8799939 C220.51068,79.1253648 226.784129,75.6346635 229.868283,74.2327755 C231.03185,73.8472563 230.891661,72.29817 230.891661,72.29817 Z M207.073583,25.8045532 C208.74884,27.34663 208.74884,28.8957163 208.74884,32.4985685 L208.74884,69.7257054 C208.875009,72.9640668 205.012808,76.0342016 207.599291,77.1206649 C214.797986,78.8660155 219.494311,80.8216493 225.101864,86.8497679 C225.879911,88.1395049 227.071516,87.6067874 227.807507,87.3684664 C233.148701,85.6441441 236.800619,83.1768212 241.973586,81.6978293 C243.648842,81.5716594 243.263323,79.8964032 243.263323,79.8964032 C242.618455,77.9688071 242.618455,75.0178328 242.618455,75.0178328 L242.618455,36.6201194 C242.618455,30.4377931 239.274952,29.1480561 239.274952,29.1480561 C234.760872,26.7017615 229.517811,20.2670954 227.681338,17.8137913 C226.77712,16.6572337 226.076176,16.7834036 224.975694,17.1759323 C218.982622,19.2997926 214.286297,21.549823 208.61566,23.2250792 C207.585272,23.6105984 206.428715,24.7741654 207.073583,25.8045532 Z" id="path6271" fill="none"></path>
                            <path d="M316.63604,86.5953252 C320.421138,78.884941 322.664159,72.8077563 326.168879,64.9571833 C327.844135,63.0856627 322.159479,60.4501132 319.320656,56.4547323 C314.967793,50.3214721 312.25514,47.0270352 308.11957,40.7395674 L308.11957,33.0151643 C308.11957,33.0151643 307.860221,31.5992574 309.409307,30.8282189 C313.783198,29.7978312 317.51923,27.8632257 320.224874,29.7978312 C320.869742,30.8282189 322.671168,30.1833504 322.0263,28.8936134 L313.397679,18.7159063 C313.397679,18.7159063 312.107942,16.9144801 309.794827,18.3303871 C305.925616,19.746294 299.603101,22.1575414 296.140437,23.615505 C294.934813,24.1201847 293.434793,24.5127133 293.911435,25.606186 C295.495569,28.122575 295.495569,33.6600328 295.495569,33.6600328 L295.495569,67.6628272 C295.495569,67.6628272 295.621739,73.3264549 294.983879,73.9713234 C294.35303,75.9900422 292.278236,77.8335249 294.983879,77.8335249 C302.23865,79.3405546 308.11957,82.214425 313.783198,86.8546745 C315.591634,88.5299307 316.124351,87.8850622 316.63604,86.5953252 M315.332284,59.5458954 C316.229493,58.2561584 314.946765,56.7140816 314.946765,56.7140816 C314.946765,56.7140816 311.217743,49.9289435 309.276128,47.5667621 C308.50509,46.1508552 307.860221,45.8915059 307.986391,48.2116306 L307.986391,73.7119741 C307.986391,76.0320988 308.764439,75.9059289 309.535477,73.9713234 C312.178036,69.38014 315.332284,59.5458954 315.332284,59.5458954" id="path6275" fill="#FFFFFF" fill-rule="evenodd"></path>
                            <path d="M316.63604,86.5953252 C320.421138,78.884941 322.664159,72.8077563 326.168879,64.9571833 C327.844135,63.0856627 322.159479,60.4501132 319.320656,56.4547323 C314.967793,50.3214721 312.25514,47.0270352 308.11957,40.7395674 L308.11957,33.0151643 C308.11957,33.0151643 307.860221,31.5992574 309.409307,30.8282189 C313.783198,29.7978312 317.51923,27.8632257 320.224874,29.7978312 C320.869742,30.8282189 322.671168,30.1833504 322.0263,28.8936134 L313.397679,18.7159063 C313.397679,18.7159063 312.107942,16.9144801 309.794827,18.3303871 C305.925616,19.746294 299.603101,22.1575414 296.140437,23.615505 C294.934813,24.1201847 293.434793,24.5127133 293.911435,25.606186 C295.495569,28.122575 295.495569,33.6600328 295.495569,33.6600328 L295.495569,67.6628272 C295.495569,67.6628272 295.621739,73.3264549 294.983879,73.9713234 C294.35303,75.9900422 292.278236,77.8335249 294.983879,77.8335249 C302.23865,79.3405546 308.11957,82.214425 313.783198,86.8546745 C315.591634,88.5299307 316.124351,87.8850622 316.63604,86.5953252 Z M315.332284,59.5458954 C316.229493,58.2561584 314.946765,56.7140816 314.946765,56.7140816 C314.946765,56.7140816 311.217743,49.9289435 309.276128,47.5667621 C308.50509,46.1508552 307.860221,45.8915059 307.986391,48.2116306 L307.986391,73.7119741 C307.986391,76.0320988 308.764439,75.9059289 309.535477,73.9713234 C312.178036,69.38014 315.332284,59.5458954 315.332284,59.5458954 Z" id="path6279" fill="none"></path>
                            <path d="M476.640532,85.8221839 C480.425629,78.1117997 482.661641,72.034615 486.17337,64.184042 C487.848627,62.3125215 482.163971,59.676972 479.325147,55.6815911 C474.972285,49.5483309 472.259632,46.253894 468.124062,39.9664261 L468.124062,32.242023 C468.124062,32.242023 467.864713,30.8261161 469.413799,30.0550777 C473.78769,29.02469 477.523721,27.0900845 480.229365,29.02469 C480.874234,30.0550777 482.67566,29.4102092 482.030791,28.1204722 L473.40217,17.942765 C473.40217,17.942765 472.112433,16.1413389 469.799318,17.5572458 C465.930107,18.9731527 459.607592,21.3844002 456.144929,22.8423637 C454.939305,23.3470434 453.439285,23.7395721 453.915927,24.8330447 C455.50006,27.3494338 455.50006,32.8868915 455.50006,32.8868915 L455.50006,69.4621505 C455.50006,69.4621505 455.703334,71.3546993 455.37389,72.4271437 C454.743041,74.4458625 452.282727,77.0673931 454.988371,77.0673931 C462.243142,78.5674133 468.124062,81.4412838 473.78769,86.0815332 C475.596125,87.7567894 476.121833,87.1119209 476.640532,85.8221839 M475.336776,58.7727542 C476.233984,57.4830172 474.951257,55.9409403 474.951257,55.9409403 C474.951257,55.9409403 471.222234,49.1558022 469.28062,46.7936209 C468.509581,45.377714 467.864713,45.1183647 467.990883,47.4384894 L467.990883,72.9458423 C467.990883,75.2589575 468.76893,75.1327876 469.539969,73.1981821 C472.182528,68.6069988 475.336776,58.7727542 475.336776,58.7727542" id="path6283" fill="#FFFFFF" fill-rule="evenodd"></path>
                            <path d="M476.640532,85.8221839 C480.425629,78.1117997 482.661641,72.034615 486.17337,64.184042 C487.848627,62.3125215 482.163971,59.676972 479.325147,55.6815911 C474.972285,49.5483309 472.259632,46.253894 468.124062,39.9664261 L468.124062,32.242023 C468.124062,32.242023 467.864713,30.8261161 469.413799,30.0550777 C473.78769,29.02469 477.523721,27.0900845 480.229365,29.02469 C480.874234,30.0550777 482.67566,29.4102092 482.030791,28.1204722 L473.40217,17.942765 C473.40217,17.942765 472.112433,16.1413389 469.799318,17.5572458 C465.930107,18.9731527 459.607592,21.3844002 456.144929,22.8423637 C454.939305,23.3470434 453.439285,23.7395721 453.915927,24.8330447 C455.50006,27.3494338 455.50006,32.8868915 455.50006,32.8868915 L455.50006,69.4621505 C455.50006,69.4621505 455.703334,71.3546993 455.37389,72.4271437 C454.743041,74.4458625 452.282727,77.0673931 454.988371,77.0673931 C462.243142,78.5674133 468.124062,81.4412838 473.78769,86.0815332 C475.596125,87.7567894 476.121833,87.1119209 476.640532,85.8221839 Z M475.336776,58.7727542 C476.233984,57.4830172 474.951257,55.9409403 474.951257,55.9409403 C474.951257,55.9409403 471.222234,49.1558022 469.28062,46.7936209 C468.509581,45.377714 467.864713,45.1183647 467.990883,47.4384894 L467.990883,72.9458423 C467.990883,75.2589575 468.76893,75.1327876 469.539969,73.1981821 C472.182528,68.6069988 475.336776,58.7727542 475.336776,58.7727542 Z" id="path6287" fill="none"></path>
                            <path d="M678.580401,85.020304 C682.365499,77.3099197 684.075802,71.3869428 687.580522,63.5293603 C689.255778,61.6578398 683.571122,59.0222903 680.739309,55.0339188 C676.386446,48.8936492 673.673793,45.6062217 669.531214,39.3187539 L669.531214,31.5943508 C669.531214,31.5943508 669.278874,30.1714344 670.820951,29.400396 C675.201851,28.3700083 678.937882,26.4354028 681.643526,28.3700083 C682.288395,29.400396 684.089821,28.7555275 683.444953,27.4657905 L674.816332,17.2950927 C674.816332,17.2950927 673.526595,15.4936666 671.20647,16.9095735 C667.344268,18.3254805 661.014744,20.7297184 657.55909,22.187682 C656.353466,22.6923617 654.853446,23.0918998 655.330088,24.178363 C656.914221,26.6947521 656.914221,32.2322098 656.914221,32.2322098 L656.914221,67.0200615 C657.124505,70.4967439 656.346457,72.6836892 656.346457,72.6836892 C656.346457,72.6836892 653.689879,76.4127114 656.395523,76.4127114 C663.650293,77.9127316 670.063931,80.6394038 675.727559,85.2796532 C677.535994,86.9549095 678.068712,86.310041 678.580401,85.020304 M676.743928,58.1250819 C677.648145,56.8353449 676.358408,55.2932681 676.358408,55.2932681 C676.358408,55.2932681 672.636396,48.5011205 670.694781,46.1459486 C669.923742,44.7300417 669.278874,44.4706924 669.405044,46.7908171 L669.405044,72.2911606 C669.405044,74.6112853 670.176082,74.4781059 670.95413,72.5505098 C673.596689,67.9523171 676.743928,58.1250819 676.743928,58.1250819" id="path6291" fill="#FFFFFF" fill-rule="evenodd"></path>
                            <path d="M678.580401,85.020304 C682.365499,77.3099197 684.075802,71.3869428 687.580522,63.5293603 C689.255778,61.6578398 683.571122,59.0222903 680.739309,55.0339188 C676.386446,48.8936492 673.673793,45.6062217 669.531214,39.3187539 L669.531214,31.5943508 C669.531214,31.5943508 669.278874,30.1714344 670.820951,29.400396 C675.201851,28.3700083 678.937882,26.4354028 681.643526,28.3700083 C682.288395,29.400396 684.089821,28.7555275 683.444953,27.4657905 L674.816332,17.2950927 C674.816332,17.2950927 673.526595,15.4936666 671.20647,16.9095735 C667.344268,18.3254805 661.014744,20.7297184 657.55909,22.187682 C656.353466,22.6923617 654.853446,23.0918998 655.330088,24.178363 C656.914221,26.6947521 656.914221,32.2322098 656.914221,32.2322098 L656.914221,67.0200615 C657.124505,70.4967439 656.346457,72.6836892 656.346457,72.6836892 C656.346457,72.6836892 653.689879,76.4127114 656.395523,76.4127114 C663.650293,77.9127316 670.063931,80.6394038 675.727559,85.2796532 C677.535994,86.9549095 678.068712,86.310041 678.580401,85.020304 Z M676.743928,58.1250819 C677.648145,56.8353449 676.358408,55.2932681 676.358408,55.2932681 C676.358408,55.2932681 672.636396,48.5011205 670.694781,46.1459486 C669.923742,44.7300417 669.278874,44.4706924 669.405044,46.7908171 L669.405044,72.2911606 C669.405044,74.6112853 670.176082,74.4781059 670.95413,72.5505098 C673.596689,67.9523171 676.743928,58.1250819 676.743928,58.1250819 Z" id="path6295" fill="none"></path>
                            <path d="M779.104185,84.0354776 C781.858895,75.9606025 784.42435,69.7362196 787.936079,61.8786371 C789.611336,60.0071166 784.108925,57.2383877 781.087856,53.3831956 C776.342465,47.3130204 774.40786,44.2919517 770.587715,38.1797198 L770.587715,30.4553167 C770.587715,30.4553167 770.328366,29.0394098 771.877452,28.2683714 C776.251343,27.2379837 778.978015,25.4015103 781.052809,26.5230208 C781.697678,27.5534085 783.940699,27.3291064 783.29583,26.0463788 L776.062088,16.5976534 C776.062088,16.5976534 774.77936,14.7892179 772.459236,16.2121342 C768.597034,17.6280412 762.267509,20.0322791 758.804846,21.4902427 C757.599222,21.9949224 756.099202,22.3944605 756.575844,23.4809237 C758.159978,25.9973128 757.963713,31.1001852 757.963713,31.1001852 L757.963713,64.5702622 C757.928666,66.6310376 757.99876,70.3250126 757.669317,71.3974569 C757.038467,73.4161757 755.867891,75.0003092 758.019789,75.4769511 C765.274559,76.9839808 770.419488,79.5143887 776.083116,84.1476287 C777.891552,85.8228849 778.585486,85.3252146 779.104185,84.0354776 M777.16257,56.9860479 C778.059778,55.6963109 777.372853,54.3645172 777.372853,54.3645172 C777.372853,54.3645172 773.720935,47.2779732 771.77932,44.9228013 C771.001272,43.5068944 769.690507,43.3316584 769.816677,45.6517831 L769.816677,71.1521265 C769.816677,73.4722512 770.587715,73.3460813 771.365763,71.4114758 C774.008322,66.8202925 777.16257,56.9860479 777.16257,56.9860479" id="path6299" fill="#FFFFFF" fill-rule="evenodd"></path>
                            <path d="M779.104185,84.0354776 C781.858895,75.9606025 784.42435,69.7362196 787.936079,61.8786371 C789.611336,60.0071166 784.108925,57.2383877 781.087856,53.3831956 C776.342465,47.3130204 774.40786,44.2919517 770.587715,38.1797198 L770.587715,30.4553167 C770.587715,30.4553167 770.328366,29.0394098 771.877452,28.2683714 C776.251343,27.2379837 778.978015,25.4015103 781.052809,26.5230208 C781.697678,27.5534085 783.940699,27.3291064 783.29583,26.0463788 L776.062088,16.5976534 C776.062088,16.5976534 774.77936,14.7892179 772.459236,16.2121342 C768.597034,17.6280412 762.267509,20.0322791 758.804846,21.4902427 C757.599222,21.9949224 756.099202,22.3944605 756.575844,23.4809237 C758.159978,25.9973128 757.963713,31.1001852 757.963713,31.1001852 L757.963713,64.5702622 C757.928666,66.6310376 757.99876,70.3250126 757.669317,71.3974569 C757.038467,73.4161757 755.867891,75.0003092 758.019789,75.4769511 C765.274559,76.9839808 770.419488,79.5143887 776.083116,84.1476287 C777.891552,85.8228849 778.585486,85.3252146 779.104185,84.0354776 Z M777.16257,56.9860479 C778.059778,55.6963109 777.372853,54.3645172 777.372853,54.3645172 C777.372853,54.3645172 773.720935,47.2779732 771.77932,44.9228013 C771.001272,43.5068944 769.690507,43.3316584 769.816677,45.6517831 L769.816677,71.1521265 C769.816677,73.4722512 770.587715,73.3460813 771.365763,71.4114758 C774.008322,66.8202925 777.16257,56.9860479 777.16257,56.9860479 Z" id="path6303" fill="none"></path>
                            <path d="M883.517507,83.6394442 C887.302605,75.92906 889.104031,69.9850547 892.608751,62.1344817 C894.284007,60.2559517 888.599351,57.6274117 885.760528,53.6320307 C881.407666,47.4917611 878.386597,44.5968623 873.599149,38.8771591 L873.599149,31.152756 C873.599149,31.152756 873.3398,29.7368491 874.888886,28.9588012 C878.877258,27.0031674 883.040865,24.7601466 884.954442,26.3653084 C885.599311,27.3956961 888.157756,27.3326111 887.519897,26.0428741 L878.884267,15.8651669 C878.884267,15.8651669 877.601539,14.0637408 875.281415,15.4796477 C871.419213,16.8955547 866.042973,19.3348398 862.580309,20.785794 C861.374685,21.2974831 859.874665,21.6900118 860.351307,22.7834844 C861.935441,25.292864 861.935441,30.8373312 861.935441,30.8373312 L861.935441,63.0246806 C861.935441,67.2724014 861.851327,70.4967439 861.851327,70.4967439 C861.984507,72.0388207 859.152693,75.1580216 862.243856,75.1580216 C869.498627,76.6580418 875.001037,79.2585441 880.664665,83.8987935 C882.4731,85.5740497 883.005818,84.9291812 883.517507,83.6394442 M881.772156,56.7231939 C882.676374,55.4334569 881.386637,53.89138 881.386637,53.89138 C881.386637,53.89138 877.657615,47.0992325 875.716,44.7440606 C874.944962,43.3281537 874.300093,43.0688044 874.426263,45.3889291 L874.426263,71.7023676 C874.426263,74.0224923 875.204311,73.8893129 875.975349,71.9617169 C878.624918,67.3635241 881.772156,56.7231939 881.772156,56.7231939" id="path6307" fill="#FFFFFF" fill-rule="evenodd"></path>
                            <path d="M883.517507,83.6394442 C887.302605,75.92906 889.104031,69.9850547 892.608751,62.1344817 C894.284007,60.2559517 888.599351,57.6274117 885.760528,53.6320307 C881.407666,47.4917611 878.386597,44.5968623 873.599149,38.8771591 L873.599149,31.152756 C873.599149,31.152756 873.3398,29.7368491 874.888886,28.9588012 C878.877258,27.0031674 883.040865,24.7601466 884.954442,26.3653084 C885.599311,27.3956961 888.157756,27.3326111 887.519897,26.0428741 L878.884267,15.8651669 C878.884267,15.8651669 877.601539,14.0637408 875.281415,15.4796477 C871.419213,16.8955547 866.042973,19.3348398 862.580309,20.785794 C861.374685,21.2974831 859.874665,21.6900118 860.351307,22.7834844 C861.935441,25.292864 861.935441,30.8373312 861.935441,30.8373312 L861.935441,63.0246806 C861.935441,67.2724014 861.851327,70.4967439 861.851327,70.4967439 C861.984507,72.0388207 859.152693,75.1580216 862.243856,75.1580216 C869.498627,76.6580418 875.001037,79.2585441 880.664665,83.8987935 C882.4731,85.5740497 883.005818,84.9291812 883.517507,83.6394442 Z M881.772156,56.7231939 C882.676374,55.4334569 881.386637,53.89138 881.386637,53.89138 C881.386637,53.89138 877.657615,47.0992325 875.716,44.7440606 C874.944962,43.3281537 874.300093,43.0688044 874.426263,45.3889291 L874.426263,71.7023676 C874.426263,74.0224923 875.204311,73.8893129 875.975349,71.9617169 C878.624918,67.3635241 881.772156,56.7231939 881.772156,56.7231939 Z" id="path6311" fill="none"></path>
                            <path d="M60.3078216,106.190916 C62.5508425,106.050727 64.4574102,108.7774 65.4106941,108.39889 C66.476129,107.978323 65.473779,106.471294 65.473779,106.471294 C61.9690589,102.693206 59.4666888,96.7982663 54.279703,95.3963783 C48.945519,95.3963783 41.0458799,98.3123054 41.0458799,98.3123054 C38.5995853,99.2165232 38.7047269,97.4992103 38.7047269,97.4992103 L38.7047269,78.0970799 C38.7047269,74.4872182 40.6954079,77.0666922 40.6954079,77.0666922 C42.9384288,80.5714123 44.7468643,83.3331317 47.6908292,86.2770966 C53.8591366,84.4546421 59.6349153,83.9920191 65.3896657,81.188243 C65.3896657,81.188243 66.8686576,80.9849692 66.5462234,80.2840252 C65.9013549,78.8681183 65.2775147,76.5129464 65.2564864,75.0059167 C65.2354581,72.8820564 65.2354581,69.6086478 65.2354581,69.6086478 L65.2354581,25.7996465 C65.2354581,19.2318011 54.7493355,12.909286 49.4151515,8.28305548 C48.5179432,7.38584714 46.9688569,8.41623485 48.1254145,9.57279248 C51.0763888,13.9186454 51.8894839,13.9536926 51.8894839,24.4468246 L51.8894839,70.106318 C51.8894839,70.106318 51.8334084,70.7932432 51.6020969,71.1367058 C51.2796626,71.6203571 50.6698413,71.7395176 50.3193693,71.9147536 C47.5786782,73.2325284 44.901072,73.274585 41.79589,73.5199154 C41.79589,73.5199154 40.7374646,73.274585 40.2748415,72.811962 C38.2140661,70.7511865 38.4243493,68.178722 38.4243493,68.178722 L38.4243493,28.2459412 C38.4243493,25.7996465 40.2958698,26.5286283 41.5575691,27.0893835 C42.4617868,27.9936013 44.2071375,26.9632136 42.79824,25.5473067 L30.3564836,15.4957695 C29.3260959,14.850901 28.0363589,15.6289488 28.0363589,15.6289488 C28.0363589,15.6289488 15.8048858,20.3042454 10.1342486,22.8416628 C8.33282251,22.8416628 9.74872943,24.3837396 9.74872943,24.3837396 L16.1483483,28.6244509 C18.244171,30.727283 17.9497745,32.7600207 17.9497745,32.7600207 L17.9497745,50.949518 L7.08514215,50.7462442 L12.7067132,62.7113586 L17.9567839,62.7113586 L17.9567839,67.4217025 C17.9567839,67.4217025 11.0384664,67.2604853 7.81412393,67.4006741 C8.97068157,71.396055 11.318844,75.5596625 12.8609209,79.2115809 L18.2301521,79.2676564 C18.3703409,85.5761526 18.6507185,92.031847 14.8656208,96.7982663 C14.8656208,96.7982663 14.1646768,98.4735225 14.8586113,98.6347397 C29.1929165,101.922167 30.8331256,106.590454 38.8098685,112.387261 C46.2398751,110.985373 53.1511831,108.153559 60.3078216,106.190916 M35.760762,98.4454848 L35.760762,29.9211974 C35.760762,27.734252 34.2747607,27.5449972 34.2747607,27.5449972 L23.9428458,30.6221414 L31.5550979,38.052148 L31.5550979,99.1534382 C31.253692,102.048337 33.833166,100.50626 33.833166,100.50626 C35.3752428,99.9875616 35.8939414,99.8613917 35.760762,98.4454848" id="path6315" fill="#FFFFFF" fill-rule="evenodd"></path>
                            <path d="M60.3078216,106.190916 C62.5508425,106.050727 64.4574102,108.7774 65.4106941,108.39889 C66.476129,107.978323 65.473779,106.471294 65.473779,106.471294 C61.9690589,102.693206 59.4666888,96.7982663 54.279703,95.3963783 C48.945519,95.3963783 41.0458799,98.3123054 41.0458799,98.3123054 C38.5995853,99.2165232 38.7047269,97.4992103 38.7047269,97.4992103 L38.7047269,78.0970799 C38.7047269,74.4872182 40.6954079,77.0666922 40.6954079,77.0666922 C42.9384288,80.5714123 44.7468643,83.3331317 47.6908292,86.2770966 C53.8591366,84.4546421 59.6349153,83.9920191 65.3896657,81.188243 C65.3896657,81.188243 66.8686576,80.9849692 66.5462234,80.2840252 C65.9013549,78.8681183 65.2775147,76.5129464 65.2564864,75.0059167 C65.2354581,72.8820564 65.2354581,69.6086478 65.2354581,69.6086478 L65.2354581,25.7996465 C65.2354581,19.2318011 54.7493355,12.909286 49.4151515,8.28305548 C48.5179432,7.38584714 46.9688569,8.41623485 48.1254145,9.57279248 C51.0763888,13.9186454 51.8894839,13.9536926 51.8894839,24.4468246 L51.8894839,70.106318 C51.8894839,70.106318 51.8334084,70.7932432 51.6020969,71.1367058 C51.2796626,71.6203571 50.6698413,71.7395176 50.3193693,71.9147536 C47.5786782,73.2325284 44.901072,73.274585 41.79589,73.5199154 C41.79589,73.5199154 40.7374646,73.274585 40.2748415,72.811962 C38.2140661,70.7511865 38.4243493,68.178722 38.4243493,68.178722 L38.4243493,28.2459412 C38.4243493,25.7996465 40.2958698,26.5286283 41.5575691,27.0893835 C42.4617868,27.9936013 44.2071375,26.9632136 42.79824,25.5473067 L30.3564836,15.4957695 C29.3260959,14.850901 28.0363589,15.6289488 28.0363589,15.6289488 C28.0363589,15.6289488 15.8048858,20.3042454 10.1342486,22.8416628 C8.33282251,22.8416628 9.74872943,24.3837396 9.74872943,24.3837396 L16.1483483,28.6244509 C18.244171,30.727283 17.9497745,32.7600207 17.9497745,32.7600207 L17.9497745,50.949518 L7.08514215,50.7462442 L12.7067132,62.7113586 L17.9567839,62.7113586 L17.9567839,67.4217025 C17.9567839,67.4217025 11.0384664,67.2604853 7.81412393,67.4006741 C8.97068157,71.396055 11.318844,75.5596625 12.8609209,79.2115809 L18.2301521,79.2676564 C18.3703409,85.5761526 18.6507185,92.031847 14.8656208,96.7982663 C14.8656208,96.7982663 14.1646768,98.4735225 14.8586113,98.6347397 C29.1929165,101.922167 30.8331256,106.590454 38.8098685,112.387261 C46.2398751,110.985373 53.1511831,108.153559 60.3078216,106.190916 Z M35.760762,98.4454848 L35.760762,29.9211974 C35.760762,27.734252 34.2747607,27.5449972 34.2747607,27.5449972 L23.9428458,30.6221414 L31.5550979,38.052148 L31.5550979,99.1534382 C31.253692,102.048337 33.833166,100.50626 33.833166,100.50626 C35.3752428,99.9875616 35.8939414,99.8613917 35.760762,98.4454848 Z" id="path6319" fill="none"></path>
                            <path d="M108.698193,79.510884 C108.698193,79.510884 109.791666,79.3777046 109.728581,78.221147 C109.672505,77.2258065 108.452863,75.2631632 108.438844,74.3238982 C108.424825,73.6159448 108.438844,73.6650108 108.445853,72.5084532 C108.466881,65.9756549 108.529966,44.5898529 108.410806,31.7275301 C108.410806,27.8653286 112.448243,27.7041114 112.819744,28.2508478 C113.506669,29.6737641 116.170256,28.8957163 114.62117,27.34663 L107.022937,18.3324899 C105.60703,16.916583 104.835991,17.6876214 104.835991,17.6876214 L96.9784089,22.4540407 C95.4293227,23.9961176 93.7540665,22.71339 93.7540665,22.71339 L87.9642688,17.8137913 C86.2890126,16.1455446 85.7703141,17.1759323 85.7703141,17.1759323 L75.0809178,21.423653 C73.0201423,22.0685215 73.5388409,22.9657299 73.5388409,22.9657299 L74.7164269,26.4494217 L74.7164269,58.7769599 C74.7164269,62.2536422 72.6346231,62.6251425 74.1767,64.1672194 C81.4665178,66.1298626 88.9946566,68.5621384 95.0227751,72.5084532 C90.1512142,75.1299838 82.4338205,77.3099197 79.3777046,77.3099197 C76.4968247,77.3099197 76.0832677,75.2631632 74.7374552,76.6089757 C73.9313696,77.4080519 76.4617775,79.1884497 77.1416932,79.8964032 C80.3660357,82.4758772 82.2235373,84.4385204 85.7703141,86.7235979 C87.3194003,88.6582034 89.1208265,87.4946364 89.1208265,87.4946364 L108.698193,79.510884 Z M96.4737292,30.2625571 C96.3335404,28.1176684 96.0461534,27.5779415 95.1769828,26.7017615 C94.7914636,26.3162423 92.9760186,26.6036293 92.4783483,26.7438181 C87.5787496,29.0218862 87.186221,30.0522739 87.186221,31.6013602 L87.186221,61.0900751 C87.186221,61.0900751 87.1932304,64.4616159 88.3497881,65.085456 C91.0133753,67.0480993 93.7540665,68.5200817 96.4737292,69.7887904 L96.4737292,30.2625571 Z" id="path6323" fill="#FFFFFF" fill-rule="evenodd"></path>
                            <path d="M108.698193,79.510884 C108.698193,79.510884 109.791666,79.3777046 109.728581,78.221147 C109.672505,77.2258065 108.452863,75.2631632 108.438844,74.3238982 C108.424825,73.6159448 108.438844,73.6650108 108.445853,72.5084532 C108.466881,65.9756549 108.529966,44.5898529 108.410806,31.7275301 C108.410806,27.8653286 112.448243,27.7041114 112.819744,28.2508478 C113.506669,29.6737641 116.170256,28.8957163 114.62117,27.34663 L107.022937,18.3324899 C105.60703,16.916583 104.835991,17.6876214 104.835991,17.6876214 L96.9784089,22.4540407 C95.4293227,23.9961176 93.7540665,22.71339 93.7540665,22.71339 L87.9642688,17.8137913 C86.2890126,16.1455446 85.7703141,17.1759323 85.7703141,17.1759323 L75.0809178,21.423653 C73.0201423,22.0685215 73.5388409,22.9657299 73.5388409,22.9657299 L74.7164269,26.4494217 L74.7164269,58.7769599 C74.7164269,62.2536422 72.6346231,62.6251425 74.1767,64.1672194 C81.4665178,66.1298626 88.9946566,68.5621384 95.0227751,72.5084532 C90.1512142,75.1299838 82.4338205,77.3099197 79.3777046,77.3099197 C76.4968247,77.3099197 76.0832677,75.2631632 74.7374552,76.6089757 C73.9313696,77.4080519 76.4617775,79.1884497 77.1416932,79.8964032 C80.3660357,82.4758772 82.2235373,84.4385204 85.7703141,86.7235979 C87.3194003,88.6582034 89.1208265,87.4946364 89.1208265,87.4946364 L108.698193,79.510884 Z M96.4737292,30.2625571 C96.3335404,28.1176684 96.0461534,27.5779415 95.1769828,26.7017615 C94.7914636,26.3162423 92.9760186,26.6036293 92.4783483,26.7438181 C87.5787496,29.0218862 87.186221,30.0522739 87.186221,31.6013602 L87.186221,61.0900751 C87.186221,61.0900751 87.1932304,64.4616159 88.3497881,65.085456 C91.0133753,67.0480993 93.7540665,68.5200817 96.4737292,69.7887904 L96.4737292,30.2625571 Z" id="path6327" fill="none"></path>
                            <path d="M132.430756,79.6398577 C133.461143,79.1211591 136.370061,83.5931819 138.613082,85.696014 C139.64347,87.8829593 142.608463,86.0815332 142.608463,86.0815332 L153.809548,82.4716715 C157.54558,82.0861523 153.557208,77.9646015 153.424029,75.0066177 C153.557208,59.9363213 153.297859,46.541281 153.424029,31.3378052 C153.297859,27.9943023 156.255843,27.0900845 157.300249,27.5456981 C158.316618,28.6321613 159.606355,27.3494338 158.575968,26.0596968 L151.237084,17.6904252 C149.821177,16.2675088 148.27209,17.6904252 148.27209,17.6904252 C147.115533,18.3352937 138.872431,22.0643159 138.872431,22.8423637 C138.872431,23.452185 141.578075,26.1858667 141.578075,35.4593561 C141.872472,39.0692178 141.578075,72.3009738 141.578075,72.3009738 C141.578075,72.3009738 142.089764,75.1327876 140.155159,75.1327876 C137.968213,76.029996 134.106012,77.0673931 133.461143,76.6748645 C132.577954,76.1491564 131.919066,75.5183068 131.919066,72.9388328 C131.785887,56.8451581 131.919066,46.9268003 131.933085,30.1812476 C132.059255,25.1694979 133.972832,23.9989214 133.972832,23.9989214 C133.972832,23.9989214 134.365361,23.4802228 134.365361,23.0947036 C134.365361,22.5830144 133.075624,21.811976 133.075624,21.811976 L127.019468,16.7862074 C126.066184,15.7558197 125.463372,14.9988001 123.928305,16.7862074 C123.928305,16.7862074 121.222661,19.1063321 118.005328,22.0643159 C116.715591,22.8423637 117.619808,23.6134021 117.619808,23.6134021 C117.619808,23.6134021 119.806754,25.9335269 119.687593,30.4476063 L119.680584,71.1374067 C119.119829,73.3804276 118.916555,75.265967 117.234289,76.8080438 C116.203902,77.4529123 116.855779,77.8664693 117.360459,78.60947 C119.421235,80.9295947 122.351181,85.0231077 124.187654,86.3408825 C125.393278,87.2030436 125.73674,87.3642608 127.482091,85.0160983 L132.430756,79.6398577 Z" id="path6331" fill="#FFFFFF" fill-rule="evenodd"></path>
                            <path d="M132.430756,79.6398577 C133.461143,79.1211591 136.370061,83.5931819 138.613082,85.696014 C139.64347,87.8829593 142.608463,86.0815332 142.608463,86.0815332 L153.809548,82.4716715 C157.54558,82.0861523 153.557208,77.9646015 153.424029,75.0066177 C153.557208,59.9363213 153.297859,46.541281 153.424029,31.3378052 C153.297859,27.9943023 156.255843,27.0900845 157.300249,27.5456981 C158.316618,28.6321613 159.606355,27.3494338 158.575968,26.0596968 L151.237084,17.6904252 C149.821177,16.2675088 148.27209,17.6904252 148.27209,17.6904252 C147.115533,18.3352937 138.872431,22.0643159 138.872431,22.8423637 C138.872431,23.452185 141.578075,26.1858667 141.578075,35.4593561 C141.872472,39.0692178 141.578075,72.3009738 141.578075,72.3009738 C141.578075,72.3009738 142.089764,75.1327876 140.155159,75.1327876 C137.968213,76.029996 134.106012,77.0673931 133.461143,76.6748645 C132.577954,76.1491564 131.919066,75.5183068 131.919066,72.9388328 C131.785887,56.8451581 131.919066,46.9268003 131.933085,30.1812476 C132.059255,25.1694979 133.972832,23.9989214 133.972832,23.9989214 C133.972832,23.9989214 134.365361,23.4802228 134.365361,23.0947036 C134.365361,22.5830144 133.075624,21.811976 133.075624,21.811976 L127.019468,16.7862074 C126.066184,15.7558197 125.463372,14.9988001 123.928305,16.7862074 C123.928305,16.7862074 121.222661,19.1063321 118.005328,22.0643159 C116.715591,22.8423637 117.619808,23.6134021 117.619808,23.6134021 C117.619808,23.6134021 119.806754,25.9335269 119.687593,30.4476063 L119.680584,71.1374067 C119.119829,73.3804276 118.916555,75.265967 117.234289,76.8080438 C116.203902,77.4529123 116.855779,77.8664693 117.360459,78.60947 C119.421235,80.9295947 122.351181,85.0231077 124.187654,86.3408825 C125.393278,87.2030436 125.73674,87.3642608 127.482091,85.0160983 L132.430756,79.6398577 Z" id="path6335" fill="none"></path>
                            <path d="M176.44233,79.4127518 C177.472717,78.9010627 181.096598,84.1020673 183.339619,86.2119088 C184.370007,88.3988541 187.846689,86.0787294 187.846689,86.0787294 L197.765047,81.9571786 C201.367899,81.9571786 198.283745,77.1907593 198.150566,74.2327755 C198.283745,59.1624791 198.024396,45.8936088 198.150566,30.6971424 C198.024396,27.34663 200.98238,26.4494217 202.026786,26.9050353 C203.043155,27.9914985 204.332892,26.7017615 203.302505,25.4190339 L196.734659,17.8137913 C194.933233,16.0123652 195.059403,16.6572337 192.998627,17.6876214 C191.84207,18.3324899 185.526564,21.549823 185.526564,21.549823 C183.094288,22.1105782 184.370007,23.7437777 184.370007,23.7437777 C186.556952,25.9307231 186.304612,35.4635617 186.304612,35.4635617 L186.304612,71.5271316 C186.304612,71.5271316 186.816301,74.3589454 184.881696,74.3589454 C182.69475,75.2631632 178.832549,77.0645893 178.18768,76.6790701 C177.304491,76.1463527 176.645603,75.5155031 176.645603,72.9430385 C176.512424,56.8423544 176.645603,46.9239965 176.659622,30.1784438 C176.785792,25.1666941 178.706379,23.9961176 178.706379,23.9961176 C178.706379,23.9961176 179.091898,23.477419 179.091898,23.0989092 C179.091898,22.5802107 177.802161,21.8091722 177.802161,21.8091722 L171.746005,16.7834036 C171.746005,16.7834036 170.238975,15.3044117 168.654842,16.7834036 L164.035621,21.0521527 C161.168759,23.1690036 162.977195,24.3746274 162.977195,24.3746274 C162.977195,24.3746274 164.533291,25.9307231 164.41413,30.4448026 L164.407121,71.1346029 C163.846366,73.3776238 163.643092,75.2631632 161.960826,76.80524 C160.930438,77.4501085 161.582316,77.8636655 162.086996,78.6066662 C164.147772,80.9267909 166.727246,83.7586047 168.402502,85.4338609 C169.601116,86.3030315 169.741305,87.1441643 171.486655,84.7889924 L176.44233,79.4127518 Z" id="path6339" fill="#FFFFFF" fill-rule="evenodd"></path>
                            <path d="M176.44233,79.4127518 C177.472717,78.9010627 181.096598,84.1020673 183.339619,86.2119088 C184.370007,88.3988541 187.846689,86.0787294 187.846689,86.0787294 L197.765047,81.9571786 C201.367899,81.9571786 198.283745,77.1907593 198.150566,74.2327755 C198.283745,59.1624791 198.024396,45.8936088 198.150566,30.6971424 C198.024396,27.34663 200.98238,26.4494217 202.026786,26.9050353 C203.043155,27.9914985 204.332892,26.7017615 203.302505,25.4190339 L196.734659,17.8137913 C194.933233,16.0123652 195.059403,16.6572337 192.998627,17.6876214 C191.84207,18.3324899 185.526564,21.549823 185.526564,21.549823 C183.094288,22.1105782 184.370007,23.7437777 184.370007,23.7437777 C186.556952,25.9307231 186.304612,35.4635617 186.304612,35.4635617 L186.304612,71.5271316 C186.304612,71.5271316 186.816301,74.3589454 184.881696,74.3589454 C182.69475,75.2631632 178.832549,77.0645893 178.18768,76.6790701 C177.304491,76.1463527 176.645603,75.5155031 176.645603,72.9430385 C176.512424,56.8423544 176.645603,46.9239965 176.659622,30.1784438 C176.785792,25.1666941 178.706379,23.9961176 178.706379,23.9961176 C178.706379,23.9961176 179.091898,23.477419 179.091898,23.0989092 C179.091898,22.5802107 177.802161,21.8091722 177.802161,21.8091722 L171.746005,16.7834036 C171.746005,16.7834036 170.238975,15.3044117 168.654842,16.7834036 L164.035621,21.0521527 C161.168759,23.1690036 162.977195,24.3746274 162.977195,24.3746274 C162.977195,24.3746274 164.533291,25.9307231 164.41413,30.4448026 L164.407121,71.1346029 C163.846366,73.3776238 163.643092,75.2631632 161.960826,76.80524 C160.930438,77.4501085 161.582316,77.8636655 162.086996,78.6066662 C164.147772,80.9267909 166.727246,83.7586047 168.402502,85.4338609 C169.601116,86.3030315 169.741305,87.1441643 171.486655,84.7889924 L176.44233,79.4127518 Z" id="path6343" fill="none"></path>
                            <path d="M274.636876,72.0409235 L274.503697,30.839434 C274.503697,29.1010929 273.662564,28.9188474 271.924223,29.2833383 C270.122797,30.0543767 267.823701,30.4188676 266.660134,31.0847645 C264.970858,31.4702837 264.970858,31.729633 264.970858,33.9165783 C264.844689,48.0826569 265.167123,61.0431119 264.886745,75.6227475 C264.19982,78.608769 270.529345,75.3774171 273.613498,73.975529 C274.777065,73.5900098 274.636876,72.0409235 274.636876,72.0409235 M251.029082,25.154778 C252.18564,26.9632136 252.68331,28.4632338 252.571159,33.7553612 L252.571159,69.7207988 C252.830508,77.9639005 248.968306,76.0363045 249.613175,77.8377306 C250.124864,79.1274676 254.765114,84.531746 256.30719,86.2070022 C257.463748,87.6229091 259.012834,85.821483 259.012834,85.821483 L263.646074,81.0550636 C265.45451,78.4825991 267.641455,82.7303198 267.641455,82.7303198 L270.858788,86.0808323 C270.858788,86.0808323 272.281705,88.7864762 274.980339,87.11122 C280.321532,85.3868977 281.555194,84.531746 286.707133,82.6041499 C289.538946,82.0854514 287.86369,80.1578553 287.86369,80.1578553 C286.447783,77.9639005 285.676745,75.4054548 285.676745,75.4054548 L285.676745,37.0077414 C285.676745,29.9211974 281.162665,28.1197713 281.162665,28.1197713 C278.330851,26.7038643 272.954611,20.6547174 271.118137,18.2014134 C270.220929,17.0448557 269.512976,17.1710257 268.412494,17.5565449 C263.008215,19.8766696 259.398353,21.937445 252.444989,23.227182 C251.414601,23.6127012 250.643563,23.6127012 251.029082,25.154778" id="path6347" fill="#FFFFFF" fill-rule="evenodd"></path>
                            <path d="M274.636876,72.0409235 L274.503697,30.839434 C274.503697,29.1010929 273.662564,28.9188474 271.924223,29.2833383 C270.122797,30.0543767 267.823701,30.4188676 266.660134,31.0847645 C264.970858,31.4702837 264.970858,31.729633 264.970858,33.9165783 C264.844689,48.0826569 265.167123,61.0431119 264.886745,75.6227475 C264.19982,78.608769 270.529345,75.3774171 273.613498,73.975529 C274.777065,73.5900098 274.636876,72.0409235 274.636876,72.0409235 Z M251.029082,25.154778 C252.18564,26.9632136 252.68331,28.4632338 252.571159,33.7553612 L252.571159,69.7207988 C252.830508,77.9639005 248.968306,76.0363045 249.613175,77.8377306 C250.124864,79.1274676 254.765114,84.531746 256.30719,86.2070022 C257.463748,87.6229091 259.012834,85.821483 259.012834,85.821483 L263.646074,81.0550636 C265.45451,78.4825991 267.641455,82.7303198 267.641455,82.7303198 L270.858788,86.0808323 C270.858788,86.0808323 272.281705,88.7864762 274.980339,87.11122 C280.321532,85.3868977 281.555194,84.531746 286.707133,82.6041499 C289.538946,82.0854514 287.86369,80.1578553 287.86369,80.1578553 C286.447783,77.9639005 285.676745,75.4054548 285.676745,75.4054548 L285.676745,37.0077414 C285.676745,29.9211974 281.162665,28.1197713 281.162665,28.1197713 C278.330851,26.7038643 272.954611,20.6547174 271.118137,18.2014134 C270.220929,17.0448557 269.512976,17.1710257 268.412494,17.5565449 C263.008215,19.8766696 259.398353,21.937445 252.444989,23.227182 C251.414601,23.6127012 250.643563,23.6127012 251.029082,25.154778 Z" id="path6351" fill="none"></path>
                            <path d="M358.391276,77.8223098 C359.09222,71.7941912 355.426282,67.3992722 351.360807,64.3151186 C350.456589,63.9295993 349.559381,64.3151186 350.975288,65.8571954 C351.262675,67.6866593 351.585109,69.6002365 350.253315,71.3736248 C348.991616,73.4764569 347.870106,75.1587225 345.907463,76.7007994 C344.792962,76.805941 344.666792,74.0372121 344.666792,74.0372121 L344.666792,32.4992695 C344.386414,30.4384941 349.552371,28.1884638 352.643535,29.3099742 C353.344479,29.5903518 353.765045,30.2912958 354.746367,30.0109182 C356.379566,28.8964172 346.594388,19.4897485 346.594388,19.4897485 C345.585028,17.4219636 342.711158,18.6275873 342.711158,18.6275873 L332.554479,22.5809116 C328.944617,23.6183088 329.982014,24.5155171 329.982014,24.5155171 C332.04279,27.221161 332.442328,32.7586188 332.442328,32.7586188 L332.442328,72.4250409 C332.29513,75.516204 326.757672,77.8363287 328.818447,79.6377548 C331.397921,82.3433987 333.458697,85.308392 335.519472,87.3691674 C336.290511,88.7850743 341.568619,82.0840495 341.568619,82.0840495 C341.568619,82.0840495 343.243875,80.023274 344.919131,81.9578795 L350.330419,87.6285167 C351.227628,88.7850743 352.650544,87.235988 352.650544,87.235988 C352.650544,87.235988 357.669303,82.8620973 358.391276,77.8223098" id="path6355" fill="#FFFFFF" fill-rule="evenodd"></path>
                            <path d="M358.391276,77.8223098 C359.09222,71.7941912 355.426282,67.3992722 351.360807,64.3151186 C350.456589,63.9295993 349.559381,64.3151186 350.975288,65.8571954 C351.262675,67.6866593 351.585109,69.6002365 350.253315,71.3736248 C348.991616,73.4764569 347.870106,75.1587225 345.907463,76.7007994 C344.792962,76.805941 344.666792,74.0372121 344.666792,74.0372121 L344.666792,32.4992695 C344.386414,30.4384941 349.552371,28.1884638 352.643535,29.3099742 C353.344479,29.5903518 353.765045,30.2912958 354.746367,30.0109182 C356.379566,28.8964172 346.594388,19.4897485 346.594388,19.4897485 C345.585028,17.4219636 342.711158,18.6275873 342.711158,18.6275873 L332.554479,22.5809116 C328.944617,23.6183088 329.982014,24.5155171 329.982014,24.5155171 C332.04279,27.221161 332.442328,32.7586188 332.442328,32.7586188 L332.442328,72.4250409 C332.29513,75.516204 326.757672,77.8363287 328.818447,79.6377548 C331.397921,82.3433987 333.458697,85.308392 335.519472,87.3691674 C336.290511,88.7850743 341.568619,82.0840495 341.568619,82.0840495 C341.568619,82.0840495 343.243875,80.023274 344.919131,81.9578795 L350.330419,87.6285167 C351.227628,88.7850743 352.650544,87.235988 352.650544,87.235988 C352.650544,87.235988 357.669303,82.8620973 358.391276,77.8223098 Z" id="path6359" fill="none"></path>
                            <path d="M391.508778,103.724995 C392.798515,104.369864 392.700382,102.876853 392.700382,102.876853 C389.47604,100.493643 386.742358,93.6804673 381.618458,95.4398368 C379.796003,96.1407808 378.765615,97.416499 377.08335,97.416499 C375.408094,97.8020182 375.45015,96.2529319 375.45015,96.2529319 L375.45015,16.2682098 L364.978046,7.51341895 C363.17662,5.71199282 363.667281,9.05549579 363.667281,9.05549579 L363.667281,45.1190656 L358.410201,45.1190656 C357.120464,45.1190656 357.246634,45.5045848 358.150852,46.5349725 C362.531752,53.1098275 363.814479,57.8692373 363.814479,62.1239675 L363.814479,88.2691795 C364.459348,93.0355988 359.440589,95.7412427 361.985016,96.4211584 C368.721088,98.1104335 374.749206,102.175909 379.515625,107.92365 C381.078731,109.907321 386.321792,100.78103 391.508778,103.724995" id="path6363" fill="#FFFFFF" fill-rule="evenodd"></path>
                            <path d="M391.508778,103.724995 C392.798515,104.369864 392.700382,102.876853 392.700382,102.876853 C389.47604,100.493643 386.742358,93.6804673 381.618458,95.4398368 C379.796003,96.1407808 378.765615,97.416499 377.08335,97.416499 C375.408094,97.8020182 375.45015,96.2529319 375.45015,96.2529319 L375.45015,16.2682098 L364.978046,7.51341895 C363.17662,5.71199282 363.667281,9.05549579 363.667281,9.05549579 L363.667281,45.1190656 L358.410201,45.1190656 C357.120464,45.1190656 357.246634,45.5045848 358.150852,46.5349725 C362.531752,53.1098275 363.814479,57.8692373 363.814479,62.1239675 L363.814479,88.2691795 C364.459348,93.0355988 359.440589,95.7412427 361.985016,96.4211584 C368.721088,98.1104335 374.749206,102.175909 379.515625,107.92365 C381.078731,109.907321 386.321792,100.78103 391.508778,103.724995 Z" id="path6367" fill="none"></path>
                            <path d="M405.968552,84.9207699 C407.510629,81.1847383 413.055096,76.9370175 413.055096,76.9370175 C413.181266,76.9370175 406.725571,70.5163703 406.725571,70.5163703 C406.725571,70.5163703 405.197513,68.6939158 403.907776,69.9766434 L398.755838,75.9066298 C397.339931,77.581886 397.466101,74.0701565 397.466101,74.0701565 L397.501148,31.6350055 C397.501148,28.0111249 399.463791,27.7027096 399.463791,27.7027096 C399.463791,27.7027096 403.136738,26.1886705 403.781606,26.7073691 L405.197513,27.7307473 C406.48725,27.7307473 406.61342,26.5741897 405.064334,25.0321128 C403.003559,22.7119881 400.928764,19.2983908 397.984799,16.9151811 C397.213761,16.1441427 395.790845,16.7890112 395.790845,16.7890112 C395.790845,16.7890112 388.683272,19.8801743 385.620147,21.5554305 C384.933222,21.9269308 383.300022,22.0671196 384.20424,23.3568566 C385.360798,24.6465936 385.984638,29.0204843 385.984638,29.0204843 L386.005666,69.205605 C386.131836,72.6822873 383.559372,75.9066298 384.58275,76.4253284 C388.788414,76.705706 393.001087,78.6683493 397.066563,80.4908037 L403.003559,84.5352507 C405.709203,87.2408946 405.968552,84.9207699 405.968552,84.9207699" id="path6371" fill="#FFFFFF" fill-rule="evenodd"></path>
                            <path d="M405.968552,84.9207699 C407.510629,81.1847383 413.055096,76.9370175 413.055096,76.9370175 C413.181266,76.9370175 406.725571,70.5163703 406.725571,70.5163703 C406.725571,70.5163703 405.197513,68.6939158 403.907776,69.9766434 L398.755838,75.9066298 C397.339931,77.581886 397.466101,74.0701565 397.466101,74.0701565 L397.501148,31.6350055 C397.501148,28.0111249 399.463791,27.7027096 399.463791,27.7027096 C399.463791,27.7027096 403.136738,26.1886705 403.781606,26.7073691 L405.197513,27.7307473 C406.48725,27.7307473 406.61342,26.5741897 405.064334,25.0321128 C403.003559,22.7119881 400.928764,19.2983908 397.984799,16.9151811 C397.213761,16.1441427 395.790845,16.7890112 395.790845,16.7890112 C395.790845,16.7890112 388.683272,19.8801743 385.620147,21.5554305 C384.933222,21.9269308 383.300022,22.0671196 384.20424,23.3568566 C385.360798,24.6465936 385.984638,29.0204843 385.984638,29.0204843 L386.005666,69.205605 C386.131836,72.6822873 383.559372,75.9066298 384.58275,76.4253284 C388.788414,76.705706 393.001087,78.6683493 397.066563,80.4908037 L403.003559,84.5352507 C405.709203,87.2408946 405.968552,84.9207699 405.968552,84.9207699 Z" id="path6375" fill="none"></path>
                            <path d="M426.061112,107.203079 C427.736368,107.714768 427.659265,106.635315 427.477019,106.298862 C421.995637,100.761404 424.203611,86.5252308 423.663884,76.5578068 C427.014396,79.1372808 432.243438,85.3055882 432.243438,85.3055882 C433.273826,86.7214951 434.500478,85.5789563 435.075252,85.4387675 C439.070633,83.8896813 442.73657,82.4807838 446.661857,80.7844992 C447.825424,80.4129989 447.313735,79.1232619 447.313735,79.1232619 C446.023998,77.0624865 444.99361,70.7539903 444.99361,61.9921901 C444.99361,49.3751977 444.99361,38.4264521 444.99361,25.543101 C444.99361,18.2042171 437.157056,13.648081 432.762137,10.2204648 C430.568182,8.41202918 430.568182,10.2204648 431.339221,11.1176731 C432.369608,12.53358 432.951392,14.5032327 433.652336,16.465876 L434.072902,71.2656795 C434.304214,73.200285 433.014477,73.3264549 433.014477,73.3264549 C433.014477,73.3264549 426.832151,75.7727495 425.801763,75.0017111 C424.259686,74.2306727 423.614818,72.4292465 423.614818,72.4292465 L423.551733,27.5478009 C423.551733,25.8024503 425.542414,24.253364 425.542414,24.253364 C426.572801,23.3561557 425.030724,22.325768 425.030724,22.325768 C425.030724,22.325768 420.649824,19.1014255 418.589049,17.1738294 C417.299312,15.8840924 416.142754,16.9144801 416.142754,16.9144801 C416.142754,16.9144801 411.509514,20.2299454 409.701079,21.9402488 C409.336588,22.2837113 408.544521,22.325768 408.824899,23.4823256 C411.208108,26.1459129 412.750185,28.248745 412.750185,33.5759195 L412.469808,95.9949845 C412.666072,99.0861476 409.960428,100.249715 411.895034,100.635234 C417.642774,101.476367 421.939561,104.238086 426.061112,107.203079" id="path6379" fill="#FFFFFF" fill-rule="evenodd"></path>
                            <path d="M426.061112,107.203079 C427.736368,107.714768 427.659265,106.635315 427.477019,106.298862 C421.995637,100.761404 424.203611,86.5252308 423.663884,76.5578068 C427.014396,79.1372808 432.243438,85.3055882 432.243438,85.3055882 C433.273826,86.7214951 434.500478,85.5789563 435.075252,85.4387675 C439.070633,83.8896813 442.73657,82.4807838 446.661857,80.7844992 C447.825424,80.4129989 447.313735,79.1232619 447.313735,79.1232619 C446.023998,77.0624865 444.99361,70.7539903 444.99361,61.9921901 C444.99361,49.3751977 444.99361,38.4264521 444.99361,25.543101 C444.99361,18.2042171 437.157056,13.648081 432.762137,10.2204648 C430.568182,8.41202918 430.568182,10.2204648 431.339221,11.1176731 C432.369608,12.53358 432.951392,14.5032327 433.652336,16.465876 L434.072902,71.2656795 C434.304214,73.200285 433.014477,73.3264549 433.014477,73.3264549 C433.014477,73.3264549 426.832151,75.7727495 425.801763,75.0017111 C424.259686,74.2306727 423.614818,72.4292465 423.614818,72.4292465 L423.551733,27.5478009 C423.551733,25.8024503 425.542414,24.253364 425.542414,24.253364 C426.572801,23.3561557 425.030724,22.325768 425.030724,22.325768 C425.030724,22.325768 420.649824,19.1014255 418.589049,17.1738294 C417.299312,15.8840924 416.142754,16.9144801 416.142754,16.9144801 C416.142754,16.9144801 411.509514,20.2299454 409.701079,21.9402488 C409.336588,22.2837113 408.544521,22.325768 408.824899,23.4823256 C411.208108,26.1459129 412.750185,28.248745 412.750185,33.5759195 L412.469808,95.9949845 C412.666072,99.0861476 409.960428,100.249715 411.895034,100.635234 C417.642774,101.476367 421.939561,104.238086 426.061112,107.203079 Z" id="path6383" fill="none"></path>
                            <path d="M543.774146,87.9656707 L543.767137,63.1172052 L530.722569,63.1172052 L530.722569,88.4703504 C536.049743,93.1736848 537.893226,91.9960988 543.774146,87.9656707 Z M524.554261,63.1172052 L524.554261,84.944602 L528.318331,87.1245379 L528.339359,63.1172052 L524.554261,63.1172052 Z M561.409898,24.2989254 C559.229962,21.7755269 557.134139,19.4133456 554.694854,17.0721926 C554.295316,16.6936828 554.190174,15.8946066 552.830343,16.2871352 L542.59656,21.6073004 C541.418974,22.2802066 541.923654,23.289566 541.923654,23.289566 L543.85125,26.8012955 L543.85125,51.0048926 L530.386115,51.0609681 L530.386115,22.7848863 L528.283283,21.1026207 L528.318331,51.0048926 L523.790232,51.0609681 L523.804251,19.0909113 C523.804251,17.4226646 513.353176,10.8898663 509.000313,6.82439098 C507.927869,5.77297495 506.119433,6.52999449 507.927869,8.49964719 C510.955947,12.6983019 510.444258,16.203022 510.850806,21.7755269 C510.850806,30.8457425 511.17324,51.0609681 511.17324,51.0609681 L500.098324,51.0048926 C503.294629,56.2129066 506.652151,63.4396395 506.652151,63.4396395 L511.264363,63.3975828 L511.257353,76.5613115 C511.257353,76.5613115 511.257353,79.435182 510.009673,80.9071645 C508.66386,82.0847504 509.16854,82.7576567 511.691938,83.4305629 C518.778482,86.0310652 525.297262,87.6292176 532.180532,92.6690051 C532.853438,93.5101379 532.145485,93.8465911 531.514635,94.1830442 C525.395394,97.3863584 517.068179,100.898088 511.523712,96.5312067 C511.523712,96.5312067 509.336766,96.3629801 511.019032,98.3816989 C518.575209,103.589713 523.622006,111.075795 528.150104,109.63886 C531.844079,108.461274 550.250869,101.017248 557.211243,96.8676598 C559.468283,95.8653098 558.893509,95.1924036 558.388829,94.1830442 C556.636469,92.5218069 556.293006,85.4492817 556.293006,85.4492817 L556.293006,32.1915551 C556.293006,25.932125 557.884149,27.1517676 559.398188,26.6470879 C561.914577,27.8246738 562.251031,26.4788613 562.251031,26.4788613 C562.923937,25.4695019 561.409898,24.2989254 561.409898,24.2989254 Z" id="path6387" fill="#FFFFFF" fill-rule="evenodd"></path>
                            <path d="M543.774146,87.9656707 L543.767137,63.1172052 L530.722569,63.1172052 L530.722569,88.4703504 C536.049743,93.1736848 537.893226,91.9960988 543.774146,87.9656707 Z M524.554261,63.1172052 L524.554261,84.944602 L528.318331,87.1245379 L528.339359,63.1172052 L524.554261,63.1172052 Z M561.409898,24.2989254 C559.229962,21.7755269 557.134139,19.4133456 554.694854,17.0721926 C554.295316,16.6936828 554.190174,15.8946066 552.830343,16.2871352 L542.59656,21.6073004 C541.418974,22.2802066 541.923654,23.289566 541.923654,23.289566 L543.85125,26.8012955 L543.85125,51.0048926 L530.386115,51.0609681 L530.386115,22.7848863 L528.283283,21.1026207 L528.318331,51.0048926 L523.790232,51.0609681 L523.804251,19.0909113 C523.804251,17.4226646 513.353176,10.8898663 509.000313,6.82439098 C507.927869,5.77297495 506.119433,6.52999449 507.927869,8.49964719 C510.955947,12.6983019 510.444258,16.203022 510.850806,21.7755269 C510.850806,30.8457425 511.17324,51.0609681 511.17324,51.0609681 L500.098324,51.0048926 C503.294629,56.2129066 506.652151,63.4396395 506.652151,63.4396395 L511.264363,63.3975828 L511.257353,76.5613115 C511.257353,76.5613115 511.257353,79.435182 510.009673,80.9071645 C508.66386,82.0847504 509.16854,82.7576567 511.691938,83.4305629 C518.778482,86.0310652 525.297262,87.6292176 532.180532,92.6690051 C532.853438,93.5101379 532.145485,93.8465911 531.514635,94.1830442 C525.395394,97.3863584 517.068179,100.898088 511.523712,96.5312067 C511.523712,96.5312067 509.336766,96.3629801 511.019032,98.3816989 C518.575209,103.589713 523.622006,111.075795 528.150104,109.63886 C531.844079,108.461274 550.250869,101.017248 557.211243,96.8676598 C559.468283,95.8653098 558.893509,95.1924036 558.388829,94.1830442 C556.636469,92.5218069 556.293006,85.4492817 556.293006,85.4492817 L556.293006,32.1915551 C556.293006,25.932125 557.884149,27.1517676 559.398188,26.6470879 C561.914577,27.8246738 562.251031,26.4788613 562.251031,26.4788613 C562.923937,25.4695019 561.409898,24.2989254 561.409898,24.2989254 Z" id="path6391" fill="none"></path>
                            <path d="M568.10882,83.2616354 C568.10882,91.4907182 568.073773,94.5187964 567.400866,95.8646089 C567.155536,96.614619 565.557383,98.2127714 567.050394,98.7875455 C572.805145,99.6286783 577.094922,102.390398 581.216473,105.355391 C582.183776,106.610081 583.361362,105.607731 582.639389,104.451173 C578.99448,100.23149 580.410387,84.7967028 579.87066,74.8362883 C579.99683,59.7659919 579.74449,44.8569126 579.87066,29.6604462 C579.74449,26.3099338 581.770219,26.1136695 582.814625,26.5762925 C583.732862,27.2702271 585.13475,26.5412453 584.489881,25.0272062 L577.683715,17.5200958 C576.779497,16.1041889 575.62294,17.1345766 575.62294,17.1345766 C572.685984,18.6486157 565.72561,21.9430525 565.72561,21.9430525 C564.379798,22.6159588 565.269996,23.3379311 565.389157,23.4570916 C566.447582,24.5155171 568.10882,26.8286324 568.10882,35.1278096 L568.10882,83.2616354 Z" id="path6395" fill="#FFFFFF" fill-rule="evenodd"></path>
                            <path d="M568.10882,83.2616354 C568.10882,91.4907182 568.073773,94.5187964 567.400866,95.8646089 C567.155536,96.614619 565.557383,98.2127714 567.050394,98.7875455 C572.805145,99.6286783 577.094922,102.390398 581.216473,105.355391 C582.183776,106.610081 583.361362,105.607731 582.639389,104.451173 C578.99448,100.23149 580.410387,84.7967028 579.87066,74.8362883 C579.99683,59.7659919 579.74449,44.8569126 579.87066,29.6604462 C579.74449,26.3099338 581.770219,26.1136695 582.814625,26.5762925 C583.732862,27.2702271 585.13475,26.5412453 584.489881,25.0272062 L577.683715,17.5200958 C576.779497,16.1041889 575.62294,17.1345766 575.62294,17.1345766 C572.685984,18.6486157 565.72561,21.9430525 565.72561,21.9430525 C564.379798,22.6159588 565.269996,23.3379311 565.389157,23.4570916 C566.447582,24.5155171 568.10882,26.8286324 568.10882,35.1278096 L568.10882,83.2616354 Z" id="path6399" fill="none"></path>
                            <path d="M591.044409,83.2616354 C591.044409,92.0024073 590.862164,93.7757957 590.196267,95.1216082 C589.950936,95.8716183 588.345775,97.4697707 589.838785,98.0445448 C595.593536,98.8856776 599.890323,102.390398 604.011873,105.355391 C604.958148,106.301665 606.149753,105.607731 605.42778,104.451173 C601.866985,100.890378 603.198778,84.7967028 602.659051,74.8362883 C602.792231,59.7659919 602.532881,44.8569126 602.659051,29.6604462 C602.532881,26.3099338 604.607676,26.3589999 605.645073,26.8146135 C606.822659,27.6557463 607.572669,26.8356418 606.920791,25.3286122 L600.472106,17.5200958 C599.567888,16.1041889 598.411331,17.1345766 598.411331,17.1345766 C595.474375,18.6486157 589.018681,21.9430525 589.018681,21.9430525 C587.672868,22.6159588 588.563067,23.3379311 588.682228,23.4570916 C589.929908,24.704772 591.044409,27.3473309 591.044409,35.1278096 L591.044409,83.2616354 Z" id="path6403" fill="#FFFFFF" fill-rule="evenodd"></path>
                            <path d="M591.044409,83.2616354 C591.044409,92.0024073 590.862164,93.7757957 590.196267,95.1216082 C589.950936,95.8716183 588.345775,97.4697707 589.838785,98.0445448 C595.593536,98.8856776 599.890323,102.390398 604.011873,105.355391 C604.958148,106.301665 606.149753,105.607731 605.42778,104.451173 C601.866985,100.890378 603.198778,84.7967028 602.659051,74.8362883 C602.792231,59.7659919 602.532881,44.8569126 602.659051,29.6604462 C602.532881,26.3099338 604.607676,26.3589999 605.645073,26.8146135 C606.822659,27.6557463 607.572669,26.8356418 606.920791,25.3286122 L600.472106,17.5200958 C599.567888,16.1041889 598.411331,17.1345766 598.411331,17.1345766 C595.474375,18.6486157 589.018681,21.9430525 589.018681,21.9430525 C587.672868,22.6159588 588.563067,23.3379311 588.682228,23.4570916 C589.929908,24.704772 591.044409,27.3473309 591.044409,35.1278096 L591.044409,83.2616354 Z" id="path6407" fill="none"></path>
                            <path d="M715.609171,85.0791833 L726.922407,79.5136877 C727.952795,78.9949892 731.611723,83.228691 733.854744,85.3315231 C734.885131,87.5254779 737.843115,85.7170423 737.843115,85.7170423 L748.539521,81.3992272 C752.086298,80.600151 747.733435,76.0440148 747.607265,73.0790216 C747.733435,58.0087252 747.474086,45.6861293 747.607265,30.489663 C747.474086,27.1391506 750.165711,26.1998856 751.609656,27.0480278 C752.401722,27.9592551 753.915761,26.8517635 752.885374,25.5620265 L745.960047,17.6904252 C745.062839,16.2675088 743.899271,17.2978965 743.899271,17.2978965 C740.16324,19.232502 733.847734,22.8704015 733.847734,23.6414399 C733.847734,24.2512612 735.670189,26.557367 735.915519,28.5059914 C736.174868,30.5667668 736.006642,54.756345 736.006642,70.7518875 C736.006642,74.1023999 734.64681,74.1023999 732.845384,74.614089 C730.658439,74.9996083 727.693446,75.903826 727.048577,75.5183068 C726.165388,74.9855894 726.165388,74.5369852 726.165388,71.9645206 C726.039218,55.8638365 725.990152,47.9081219 726.01118,31.1625692 C726.13735,26.1508195 727.868682,25.0293091 727.868682,25.0293091 C727.868682,25.0293091 728.254201,24.5106105 728.254201,24.1321007 C728.254201,23.6134021 726.964464,22.8423637 726.964464,22.8423637 L721.686355,17.8796801 L720.403628,16.9824717 C720.403628,16.9824717 718.917627,17.1647172 718.595192,17.8796801 C718.595192,17.8796801 715.952633,19.9054083 712.728291,22.863392 C711.445563,23.6414399 712.342772,24.4124783 712.342772,24.4124783 C712.342772,24.4124783 714.536726,26.732603 714.410557,31.2466825 L714.403547,71.9364829 C713.849801,73.4014559 712.889508,73.7168807 709.209552,74.677174 C706.489889,75.4762502 705.052954,75.1608254 705.052954,75.1608254 C704.169764,74.6281079 704.246868,74.0603433 704.246868,71.4808693 C704.113689,55.3871946 704.246868,46.9268003 704.260887,30.1812476 C704.394066,25.1694979 706.412785,24.8751014 706.412785,24.8751014 C706.412785,24.8751014 706.798304,24.3564028 706.798304,23.977893 C706.798304,23.4591945 705.515577,22.688156 705.515577,22.688156 L699.459421,17.6623874 L698.169684,16.7651791 C698.169684,16.7651791 696.690692,16.9474245 696.368257,17.6623874 C696.368257,17.6623874 693.662614,19.9825121 690.44528,22.9475053 C689.155543,23.7185437 690.059761,24.4895822 690.059761,24.4895822 C690.059761,24.4895822 692.141565,25.9335269 692.015395,30.4476063 L692.008386,73.2402388 C691.44763,75.4832596 691.854178,74.5790418 690.171912,76.1211187 C689.141525,76.7659872 689.372836,77.1865536 689.884525,77.9295543 C691.945301,80.249679 694.58085,84.0838428 696.410314,85.4016175 C697.615938,86.2637787 697.875287,86.5651846 699.620638,84.2170221 L704.569302,78.8407815 C705.59969,78.3220829 708.894127,82.9062568 711.137148,85.0160983 C712.167536,87.2030436 715.609171,85.0791833 715.609171,85.0791833" id="path6411" fill="#FFFFFF" fill-rule="evenodd"></path>
                            <path d="M715.609171,85.0791833 L726.922407,79.5136877 C727.952795,78.9949892 731.611723,83.228691 733.854744,85.3315231 C734.885131,87.5254779 737.843115,85.7170423 737.843115,85.7170423 L748.539521,81.3992272 C752.086298,80.600151 747.733435,76.0440148 747.607265,73.0790216 C747.733435,58.0087252 747.474086,45.6861293 747.607265,30.489663 C747.474086,27.1391506 750.165711,26.1998856 751.609656,27.0480278 C752.401722,27.9592551 753.915761,26.8517635 752.885374,25.5620265 L745.960047,17.6904252 C745.062839,16.2675088 743.899271,17.2978965 743.899271,17.2978965 C740.16324,19.232502 733.847734,22.8704015 733.847734,23.6414399 C733.847734,24.2512612 735.670189,26.557367 735.915519,28.5059914 C736.174868,30.5667668 736.006642,54.756345 736.006642,70.7518875 C736.006642,74.1023999 734.64681,74.1023999 732.845384,74.614089 C730.658439,74.9996083 727.693446,75.903826 727.048577,75.5183068 C726.165388,74.9855894 726.165388,74.5369852 726.165388,71.9645206 C726.039218,55.8638365 725.990152,47.9081219 726.01118,31.1625692 C726.13735,26.1508195 727.868682,25.0293091 727.868682,25.0293091 C727.868682,25.0293091 728.254201,24.5106105 728.254201,24.1321007 C728.254201,23.6134021 726.964464,22.8423637 726.964464,22.8423637 L721.686355,17.8796801 L720.403628,16.9824717 C720.403628,16.9824717 718.917627,17.1647172 718.595192,17.8796801 C718.595192,17.8796801 715.952633,19.9054083 712.728291,22.863392 C711.445563,23.6414399 712.342772,24.4124783 712.342772,24.4124783 C712.342772,24.4124783 714.536726,26.732603 714.410557,31.2466825 L714.403547,71.9364829 C713.849801,73.4014559 712.889508,73.7168807 709.209552,74.677174 C706.489889,75.4762502 705.052954,75.1608254 705.052954,75.1608254 C704.169764,74.6281079 704.246868,74.0603433 704.246868,71.4808693 C704.113689,55.3871946 704.246868,46.9268003 704.260887,30.1812476 C704.394066,25.1694979 706.412785,24.8751014 706.412785,24.8751014 C706.412785,24.8751014 706.798304,24.3564028 706.798304,23.977893 C706.798304,23.4591945 705.515577,22.688156 705.515577,22.688156 L699.459421,17.6623874 L698.169684,16.7651791 C698.169684,16.7651791 696.690692,16.9474245 696.368257,17.6623874 C696.368257,17.6623874 693.662614,19.9825121 690.44528,22.9475053 C689.155543,23.7185437 690.059761,24.4895822 690.059761,24.4895822 C690.059761,24.4895822 692.141565,25.9335269 692.015395,30.4476063 L692.008386,73.2402388 C691.44763,75.4832596 691.854178,74.5790418 690.171912,76.1211187 C689.141525,76.7659872 689.372836,77.1865536 689.884525,77.9295543 C691.945301,80.249679 694.58085,84.0838428 696.410314,85.4016175 C697.615938,86.2637787 697.875287,86.5651846 699.620638,84.2170221 L704.569302,78.8407815 C705.59969,78.3220829 708.894127,82.9062568 711.137148,85.0160983 C712.167536,87.2030436 715.609171,85.0791833 715.609171,85.0791833 Z" id="path6415" fill="none"></path>
                            <path d="M804.713876,71.3203531 C804.840045,56.2500567 804.587706,45.252245 804.713876,30.0557786 C804.587706,26.7052662 807.545689,25.8080579 808.590096,26.2636715 C809.606465,27.3501347 810.896202,26.0674072 809.865814,24.7776702 L802.52693,16.4013891 C801.622712,14.9854822 800.466155,16.0158699 800.466155,16.0158699 C796.730123,17.9504754 790.526769,20.7892987 790.526769,21.5603371 C790.526769,22.1701584 792.601563,25.2753404 792.846893,27.2239648 C793.106243,29.2847402 793.01512,34.2053672 793.01512,34.2053672 L793.00811,70.0165972 C792.902969,73.0797226 792.244081,74.1451575 790.554806,75.6872343 C789.531428,76.3321028 790.176297,76.7456598 790.687986,77.4886605 C792.748761,79.8087852 796.190396,83.7621094 798.01986,85.0798842 C799.225484,85.9420453 799.568946,86.1102719 801.314297,83.7621094 L805.863424,78.1966139 C807.139142,77.2433301 805.863424,76.1218196 805.863424,76.1218196 C805.863424,76.1218196 804.419479,73.8787988 804.713876,71.3203531" id="path6419" fill="#FFFFFF" fill-rule="evenodd"></path>
                            <path d="M804.713876,71.3203531 C804.840045,56.2500567 804.587706,45.252245 804.713876,30.0557786 C804.587706,26.7052662 807.545689,25.8080579 808.590096,26.2636715 C809.606465,27.3501347 810.896202,26.0674072 809.865814,24.7776702 L802.52693,16.4013891 C801.622712,14.9854822 800.466155,16.0158699 800.466155,16.0158699 C796.730123,17.9504754 790.526769,20.7892987 790.526769,21.5603371 C790.526769,22.1701584 792.601563,25.2753404 792.846893,27.2239648 C793.106243,29.2847402 793.01512,34.2053672 793.01512,34.2053672 L793.00811,70.0165972 C792.902969,73.0797226 792.244081,74.1451575 790.554806,75.6872343 C789.531428,76.3321028 790.176297,76.7456598 790.687986,77.4886605 C792.748761,79.8087852 796.190396,83.7621094 798.01986,85.0798842 C799.225484,85.9420453 799.568946,86.1102719 801.314297,83.7621094 L805.863424,78.1966139 C807.139142,77.2433301 805.863424,76.1218196 805.863424,76.1218196 C805.863424,76.1218196 804.419479,73.8787988 804.713876,71.3203531 Z" id="path6423" fill="none"></path>
                            <path d="M799.622919,106.678773 L806.344972,99.8025124 C806.912737,99.2277383 806.912737,98.3024922 806.344972,97.7347275 L800.015448,91.3911842 C799.447683,90.8234195 798.122899,90.5850985 797.548125,91.1528632 L790.826072,98.0361335 C790.251298,98.6109076 790.251298,99.3889554 790.826072,99.9567201 L797.555134,106.678773 C798.129908,107.246538 799.055154,107.246538 799.622919,106.678773" id="path6427" fill="#FFFFFF" fill-rule="evenodd"></path>
                            <path d="M799.622919,106.678773 L806.344972,99.8025124 C806.912737,99.2277383 806.912737,98.3024922 806.344972,97.7347275 L800.015448,91.3911842 C799.447683,90.8234195 798.122899,90.5850985 797.548125,91.1528632 L790.826072,98.0361335 C790.251298,98.6109076 790.251298,99.3889554 790.826072,99.9567201 L797.555134,106.678773 C798.129908,107.246538 799.055154,107.246538 799.622919,106.678773 Z" id="path6431" fill="none"></path>
                            <path d="M829.525892,78.5197491 C830.55628,78.0010505 833.465197,82.4730734 835.708218,84.5759055 C836.738606,86.7628508 839.703599,84.9614247 839.703599,84.9614247 L850.904685,81.351563 C854.640716,80.9660438 850.645335,76.8444929 850.519165,73.8865091 C850.645335,58.8162127 850.392995,45.4211725 850.519165,30.2176967 C850.392995,26.8741937 853.350979,25.9699759 854.395386,26.4255896 C855.411755,27.5190622 856.701492,26.2293252 855.671104,24.9395882 L848.33222,16.5703166 C847.428002,15.1544097 846.271445,16.1847974 846.271445,16.1847974 C842.535413,18.1123935 835.967568,20.9442073 835.967568,21.7222552 C835.967568,22.3320765 838.042362,25.4372585 838.280683,27.3858829 C838.540032,29.4466583 838.673211,34.3392475 838.673211,34.3392475 C838.967608,37.9491092 838.673211,71.1808652 838.673211,71.1808652 C838.413862,71.3701201 838.932561,72.2953662 838.673211,72.9822914 C838.476947,73.4939805 837.523663,73.788377 837.257305,74.0126791 C835.06335,74.9168969 831.201148,75.9472846 830.55628,75.5547559 C829.67309,75.0290479 829.007193,74.3981983 829.007193,71.8187243 C828.881023,55.7250496 829.007193,45.8066917 829.028222,29.0611391 C829.154392,24.0493893 831.074978,22.8788128 831.074978,22.8788128 C831.074978,22.8788128 831.460497,22.3601142 831.460497,21.974595 C831.460497,21.4629059 830.17076,20.6918675 830.17076,20.6918675 L824.114604,15.6660988 L822.824867,14.7618811 C822.824867,14.7618811 821.345875,14.9511359 821.023441,15.6660988 C821.023441,15.6660988 818.317797,17.9862236 815.100464,20.9442073 C813.810727,21.7222552 814.714945,22.4932936 814.714945,22.4932936 C814.714945,22.4932936 816.90189,24.8134183 816.78273,29.3274978 L816.77572,70.0172982 C816.214965,72.260319 816.011691,74.1458584 814.329426,75.6879353 C813.299038,76.3328038 813.950916,76.7463607 814.455596,77.4893614 C816.516371,79.8094861 819.446317,83.9029992 821.28279,85.220774 C822.488414,86.0829351 822.824867,86.2511617 824.570218,83.8959898 L829.525892,78.5197491 Z" id="path6435" fill="#FFFFFF" fill-rule="evenodd"></path>
                            <path d="M829.525892,78.5197491 C830.55628,78.0010505 833.465197,82.4730734 835.708218,84.5759055 C836.738606,86.7628508 839.703599,84.9614247 839.703599,84.9614247 L850.904685,81.351563 C854.640716,80.9660438 850.645335,76.8444929 850.519165,73.8865091 C850.645335,58.8162127 850.392995,45.4211725 850.519165,30.2176967 C850.392995,26.8741937 853.350979,25.9699759 854.395386,26.4255896 C855.411755,27.5190622 856.701492,26.2293252 855.671104,24.9395882 L848.33222,16.5703166 C847.428002,15.1544097 846.271445,16.1847974 846.271445,16.1847974 C842.535413,18.1123935 835.967568,20.9442073 835.967568,21.7222552 C835.967568,22.3320765 838.042362,25.4372585 838.280683,27.3858829 C838.540032,29.4466583 838.673211,34.3392475 838.673211,34.3392475 C838.967608,37.9491092 838.673211,71.1808652 838.673211,71.1808652 C838.413862,71.3701201 838.932561,72.2953662 838.673211,72.9822914 C838.476947,73.4939805 837.523663,73.788377 837.257305,74.0126791 C835.06335,74.9168969 831.201148,75.9472846 830.55628,75.5547559 C829.67309,75.0290479 829.007193,74.3981983 829.007193,71.8187243 C828.881023,55.7250496 829.007193,45.8066917 829.028222,29.0611391 C829.154392,24.0493893 831.074978,22.8788128 831.074978,22.8788128 C831.074978,22.8788128 831.460497,22.3601142 831.460497,21.974595 C831.460497,21.4629059 830.17076,20.6918675 830.17076,20.6918675 L824.114604,15.6660988 L822.824867,14.7618811 C822.824867,14.7618811 821.345875,14.9511359 821.023441,15.6660988 C821.023441,15.6660988 818.317797,17.9862236 815.100464,20.9442073 C813.810727,21.7222552 814.714945,22.4932936 814.714945,22.4932936 C814.714945,22.4932936 816.90189,24.8134183 816.78273,29.3274978 L816.77572,70.0172982 C816.214965,72.260319 816.011691,74.1458584 814.329426,75.6879353 C813.299038,76.3328038 813.950916,76.7463607 814.455596,77.4893614 C816.516371,79.8094861 819.446317,83.9029992 821.28279,85.220774 C822.488414,86.0829351 822.824867,86.2511617 824.570218,83.8959898 L829.525892,78.5197491 Z" id="path6439" fill="none"></path>
                            <path d="M633.930267,14.2656127 C630.425547,15.3871231 626.332034,16.3684448 622.827314,17.3497664 C625.112391,20.7142977 629.682546,24.429301 633.306427,27.82187 C633.916248,28.3896347 634.652239,28.4947763 634.988692,27.1489638 C634.708315,22.2423556 635.752721,18.4712768 633.930267,14.2656127 M611.472021,26.9807372 C613.490739,28.999456 613.820183,36.2261888 613.820183,36.2261888 L613.820183,67.4672638 C613.722051,69.4579448 613.820183,72.6752779 612.817833,74.6939967 C611.640247,77.2103857 612.894937,76.6215927 613.651956,77.3786123 C620.107651,79.3412555 624.425466,82.2501732 629.612452,86.4558373 C630.958264,87.7946404 633.944286,85.9371387 633.944286,85.9371387 C633.944286,85.9371387 642.082246,83.0772871 647.150071,80.5398698 C647.150071,80.5398698 649.855715,79.3833122 648.313638,77.8342259 C645.607994,75.128582 646.308938,64.109742 646.308938,64.109742 L646.308938,24.2961216 C646.308938,11.8613747 638.850894,16.3964825 632.801747,6.98981377 C631.294717,4.97810443 630.285358,3.80051848 628.098413,4.80987787 C624.572664,6.14868094 618.691744,10.6907982 613.154286,8.67207942 C611.135567,7.3262669 610.799114,8.67207942 611.303794,9.84966537 C614.387948,12.9338191 618.937074,16.165171 622.056275,19.5927872 C622.483851,20.0624197 623.065635,20.6021466 621.888049,21.2750529 C617.857621,22.9503091 616.911346,23.0904979 612.98606,24.6325748 C610.126208,25.6419341 611.472021,26.9807372 611.472021,26.9807372 M635.030749,70.1588888 L635.030749,34.7331781 C634.14756,30.6817216 633.306427,29.3359091 630.958264,30.0088154 L626.423157,31.3546279 C624.909117,32.1887513 625.245571,35.385056 625.245571,35.385056 L625.245571,74.3575435 C626.25493,76.5444889 627.180176,76.0818658 628.266639,75.703356 C634.820466,73.3481841 635.030749,73.6846373 635.030749,70.1588888" id="path6443" fill="#FFFFFF" fill-rule="evenodd"></path>
                            <path d="M633.930267,14.2656127 C630.425547,15.3871231 626.332034,16.3684448 622.827314,17.3497664 C625.112391,20.7142977 629.682546,24.429301 633.306427,27.82187 C633.916248,28.3896347 634.652239,28.4947763 634.988692,27.1489638 C634.708315,22.2423556 635.752721,18.4712768 633.930267,14.2656127 Z M611.472021,26.9807372 C613.490739,28.999456 613.820183,36.2261888 613.820183,36.2261888 L613.820183,67.4672638 C613.722051,69.4579448 613.820183,72.6752779 612.817833,74.6939967 C611.640247,77.2103857 612.894937,76.6215927 613.651956,77.3786123 C620.107651,79.3412555 624.425466,82.2501732 629.612452,86.4558373 C630.958264,87.7946404 633.944286,85.9371387 633.944286,85.9371387 C633.944286,85.9371387 642.082246,83.0772871 647.150071,80.5398698 C647.150071,80.5398698 649.855715,79.3833122 648.313638,77.8342259 C645.607994,75.128582 646.308938,64.109742 646.308938,64.109742 L646.308938,24.2961216 C646.308938,11.8613747 638.850894,16.3964825 632.801747,6.98981377 C631.294717,4.97810443 630.285358,3.80051848 628.098413,4.80987787 C624.572664,6.14868094 618.691744,10.6907982 613.154286,8.67207942 C611.135567,7.3262669 610.799114,8.67207942 611.303794,9.84966537 C614.387948,12.9338191 618.937074,16.165171 622.056275,19.5927872 C622.483851,20.0624197 623.065635,20.6021466 621.888049,21.2750529 C617.857621,22.9503091 616.911346,23.0904979 612.98606,24.6325748 C610.126208,25.6419341 611.472021,26.9807372 611.472021,26.9807372 Z M635.030749,70.1588888 L635.030749,34.7331781 C634.14756,30.6817216 633.306427,29.3359091 630.958264,30.0088154 L626.423157,31.3546279 C624.909117,32.1887513 625.245571,35.385056 625.245571,35.385056 L625.245571,74.3575435 C626.25493,76.5444889 627.180176,76.0818658 628.266639,75.703356 C634.820466,73.3481841 635.030749,73.6846373 635.030749,70.1588888 Z" id="path6447" fill="none"></path>
                        </g>
                    </g>
                </g>
            </g>
        </g>
    </g>
</svg>