
<svg width="568px" height="399px" viewBox="0 0 568 399" version="1.1" xmlns="http://www.w3.org/2000/svg" xmlns:xlink="http://www.w3.org/1999/xlink">
    <g id="Page-1" stroke="none" stroke-width="1" fill="none" fill-rule="evenodd">
        <g id="NDR_2_Logo">
            <path d="M130.357491,0.721264 L130.357491,158.870194 L150.282951,158.870194 L150.282951,0.721264 L130.357491,0.721264 Z M150.282951,158.870194 L150.282951,327.107321 L209.808381,327.107321 C250.661111,327.107321 272.847111,310.707161 272.847111,268.083791 L272.847111,217.391821 C272.847111,176.282484 249.147111,158.870184 209.808381,158.870194 L150.282951,158.870194 Z M150.282951,327.107321 L130.357491,327.107321 L130.357491,398.979511 L150.282951,398.979511 L150.282951,327.107321 Z M130.357491,327.107321 L130.357491,158.870194 L94.797821,158.870194 L94.797821,263.541591 L38.032851,158.870194 L0.716531,158.870194 L0.716531,327.107321 L36.276191,327.107321 L36.276191,228.985721 L90.757521,327.107321 L130.357491,327.107321 Z M290.012121,158.870194 L290.012121,327.107321 L327.328441,327.107321 L327.328441,262.537791 L347.504851,262.537791 L377.518521,327.107321 L417.620391,327.107321 L382.060721,255.711941 C401.742901,248.141861 409.790721,231.745201 409.790731,211.318821 C409.790731,170.966484 385.583531,158.870184 348.759601,158.870194 L290.012121,158.870194 Z M326.575591,188.632901 L350.290401,188.632901 C365.161101,188.632901 373.980121,192.913661 373.980121,209.311221 C373.980121,223.938141 364.416921,232.022221 350.290401,232.022221 L326.575591,232.022221 L326.575591,188.632901 Z M188.603071,190.640511 L206.520931,190.640511 C227.203901,190.640511 236.534591,200.729711 236.534591,221.156071 L236.534591,264.545391 C236.534591,284.971761 227.203901,295.311911 206.520931,295.311911 L188.603071,295.311911 L188.603071,190.640511 Z" id="path41" fill="#FFFFFF"></path>
            <path d="M456.712011,296.253481 L457.738461,295.278351 C522.892411,233.293561 531.476101,222.875091 531.476101,207.683621 C531.476101,196.238701 525.522691,188.835421 513.295101,188.835421 C500.066711,188.835421 493.561581,196.597951 493.561581,206.798311 L493.561581,215.920891 L457.379201,215.920891 L457.379201,205.002021 C457.379201,179.302264 478.049351,156.694694 511.062571,156.694694 C543.896151,156.694694 567.645651,173.785094 567.645651,207.016431 C567.645651,227.019381 555.995441,244.366401 542.035711,259.545031 C530.449651,272.131891 516.823521,283.640961 505.866161,294.418701 L505.237461,295.034571 L565.182171,295.034571 L565.182171,327.175301 L456.712011,327.175301 L456.712011,296.253481" id="path51" fill="#CC0000"></path>
        </g>
    </g>
</svg>