
<svg width="627px" height="266px" viewBox="0 0 627 266" version="1.1" xmlns="http://www.w3.org/2000/svg" xmlns:xlink="http://www.w3.org/1999/xlink">
    <g id="Page-1" stroke="none" stroke-width="1" fill="none" fill-rule="evenodd">
        <g id="Wirtschaftswoche-Logo">
            <polygon id="_130734048" fill="#FF0000" points="624.072974 264.189157 624.072974 147.484689 507.031514 147.484689 507.031514 264.189157"></polygon>
            <polygon id="_131059136" fill="#FF0000" points="0 263.704469 116.704495 263.704469 116.704495 147 0 147"></polygon>
            <path d="M604.676709,126.750823 C598.324489,126.750823 592.639769,124.075013 589.295779,118.390643 L587.624279,125.078633 L577.925379,125.078633 L577.925379,95.651503 L593.643439,95.651503 C593.643439,101.337543 592.973229,115.715183 602.003269,115.715183 C606.349239,115.715183 608.356159,112.038103 608.356159,108.025223 C608.356159,90.635343 577.257079,85.954613 577.257079,58.867753 C577.257079,45.156983 585.616589,32.784273 599.996219,32.784273 C606.349109,32.784273 611.364939,35.460073 615.043729,40.811013 L616.713869,34.456423 L624.072419,34.456423 L624.072419,62.880293 L609.692759,62.880293 C609.692759,56.527403 611.031859,44.488123 602.003139,44.488123 C597.988929,44.488123 595.983659,47.832463 595.983659,51.176463 C595.983659,64.101983 621.378159,70.007723 626.512329,92.931273 L626.512329,108.917333 C623.994529,119.096593 616.305549,126.750663 604.676529,126.750663 L604.676709,126.750823 Z" id="_130367672" fill="#FFFFFF"></path>
            <path d="M556.188719,126.750823 C542.813049,126.750823 539.133949,115.715183 539.133949,104.346123 L539.133949,45.491853 L532.446269,45.491853 L532.446269,34.456533 L539.133949,34.456533 L539.133949,14.392853 L563.211839,14.392853 L563.211839,34.456533 L573.577259,34.456533 L573.577259,45.491853 L563.211839,45.491853 L563.211839,107.355143 C563.211839,108.358783 563.544929,109.362413 563.880379,110.365703 L565.217429,111.034573 C567.224379,110.365703 568.227989,109.027303 569.900179,107.690573 L574.580559,115.046443 C569.900179,121.401353 564.213789,126.750963 556.188719,126.750963 L556.188719,126.750823 Z" id="_129819432" fill="#FFFFFF"></path>
            <path d="M525.089369,29.440483 C525.089369,24.424303 526.093019,14.727423 518.736479,14.727423 C513.720649,14.727423 511.378599,19.743603 511.378599,24.424333 C511.378599,34.456353 520.073219,34.456353 527.765169,34.456353 L527.765169,45.491663 L516.729539,45.491663 L516.729539,114.377863 L525.424159,114.377863 L525.424159,125.078393 L487.637829,125.078393 L487.637829,114.377863 L492.653319,114.377863 L492.653319,45.491663 L486.633519,45.491663 L486.633519,34.456353 L492.653319,34.456353 L492.653319,25.427983 C492.653319,11.448173 504.121329,1.093823 517.311189,0.094533 L522.494079,0.094533 C526.566319,0.300153 530.722759,0.885503 534.452849,1.685523 L534.452849,29.440453 L525.089369,29.440453 L525.089369,29.440483 Z" id="_130358720" fill="#FFFFFF"></path>
            <path d="M387.315899,125.078603 L387.315899,57.531073 C387.315899,51.511273 386.981139,48.500683 382.968599,48.500683 C379.293509,48.500683 376.615719,54.187083 376.615719,57.864163 L376.615719,114.378083 L382.968599,114.378083 L382.968599,125.078603 L347.523949,125.078603 L347.523949,114.378083 L352.539789,114.378083 L352.539789,12.720583 L347.523949,12.720583 L347.523949,1.350163 L376.615689,1.350163 L376.615689,41.479503 C380.628229,35.460023 385.981179,32.784213 393.002259,32.784213 C410.392479,32.784213 411.394429,46.160233 411.394429,65.555243 L411.394429,114.377843 L416.745369,114.377843 L416.745369,125.078603 L387.315849,125.078373 L387.315899,125.078603 Z" id="_129768008" fill="#FFFFFF"></path>
            <path d="M320.772699,126.750823 C294.020779,126.750823 290.342029,99.665363 290.342029,78.597953 C290.342029,59.203153 294.689669,32.784113 319.436149,32.784113 C324.451639,32.784113 329.133059,35.124473 332.476709,39.139013 L334.483659,34.456273 L343.512029,34.456273 L343.512029,66.223753 L329.133059,66.223753 C329.133059,49.170663 328.129419,44.487913 321.441079,44.487913 C316.424899,44.487913 315.423619,50.507393 315.423619,54.186813 L315.423619,98.994993 C315.423619,105.014473 317.095779,112.705763 324.785079,112.705763 C332.811479,112.705763 334.483659,98.994993 335.487299,93.310963 L346.187509,94.982463 C345.852409,110.365413 338.496539,126.750743 320.772889,126.750743 L320.772699,126.750823 Z" id="_130358232" fill="#FFFFFF"></path>
            <path d="M264.594179,126.750823 C258.241959,126.750823 252.890349,124.075013 249.211569,118.390643 L247.539399,125.078633 L238.178289,125.078633 L238.178289,95.651503 L253.559229,95.651503 C253.559229,101.337543 253.225799,115.715183 261.919069,115.715183 C266.266369,115.715183 268.606739,112.038103 268.606739,108.025223 C268.606739,90.635343 237.174109,85.954613 237.174109,58.867753 C237.174109,45.156983 245.534289,32.784273 259.913599,32.784273 C266.599929,32.784273 271.617439,35.460073 274.961459,40.811013 L276.966709,34.456423 L283.990149,34.456423 L283.990149,62.880293 L269.608819,62.880293 C269.608819,56.527403 270.949249,44.488123 261.919199,44.488123 C257.906669,44.488123 255.901079,47.832463 255.901079,51.176463 C255.901079,65.220663 287.331839,71.240143 287.331839,101.337463 C287.331839,115.046223 279.309449,126.750743 264.592689,126.750743 L264.594369,126.750743 L264.594179,126.750823 Z" id="_129874072" fill="#FFFFFF"></path>
            <path d="M216.774319,126.750823 C203.063549,126.750823 199.719559,115.715183 199.719559,104.346123 L199.719559,45.491853 L193.031219,45.491853 L193.031219,34.456533 L199.719559,34.456533 L199.719559,14.392853 L223.797449,14.392853 L223.797449,34.456533 L234.162209,34.456533 L234.162209,45.491853 L223.797449,45.491853 L223.797449,107.355143 C223.797449,108.358783 224.130879,109.362413 224.465649,110.365703 L225.802369,111.034573 C227.809979,110.365703 228.813629,109.027303 230.150359,107.690573 L234.832439,115.046443 C230.485149,121.401353 224.798749,126.750963 216.774369,126.750963 L216.774319,126.750823 Z" id="_129881688" fill="#FFFFFF"></path>
            <path d="M178.987459,63.215053 C178.987459,58.199563 180.324189,47.499353 172.634579,47.499353 C167.283639,47.499353 165.276369,52.514843 165.276369,57.195913 L165.276369,114.377973 L172.634579,114.377973 L172.634579,125.078503 L136.183999,125.078503 L136.183999,114.377973 L141.200179,114.377973 L141.200179,45.491773 L136.183999,45.491773 L136.183999,34.456453 L162.267479,34.456453 L163.939649,40.811043 C166.948219,35.795553 173.636559,32.784293 179.656009,32.784293 C182.331149,32.784293 187.011879,33.119733 189.354249,34.121023 L189.354249,63.215153 L178.987479,63.215153 L178.987459,63.215053 Z" id="_130412376" fill="#FFFFFF"></path>
            <path d="M100.067469,1.350143 L125.815499,1.350143 L125.815499,25.426363 L100.067469,25.426363 L100.067469,1.350143 Z M96.388339,125.078743 L96.388359,114.378053 L101.739299,114.378053 L101.739299,45.491853 L96.388359,45.491853 L96.388339,34.456533 L125.817089,34.456533 L125.817089,114.378213 L132.169979,114.378213 L132.169979,125.078743 L96.388339,125.078743 Z" id="_129767728" fill="#FFFFFF" fill-rule="nonzero"></path>
            <polygon id="_129767808" fill="#FFFFFF" points="90.7039353 13.3890713 76.3245711 125.078608 55.257427 125.078608 48.2379667 60.8746989 39.2061178 125.078608 19.4772998 125.078608 5.76785545 13.3890713 0.0821537221 13.3890713 0.0821537221 1.35013801 34.1916106 1.35013801 34.1916106 13.3890713 28.1706436 13.3890713 35.8619623 72.911853 44.8919523 1.35013801 65.2909557 1.35013801 72.9822744 72.2437123 80.3371328 13.3890713 74.989352 13.3890713 74.989352 1.35013801 96.0564961 1.35013801 96.0564961 13.3890713"></polygon>
            <path d="M469.580049,128.089223 C462.892379,128.089223 457.876539,126.417393 454.532549,120.731023 C451.188549,126.081963 445.837269,127.754123 439.819799,127.754123 C423.433229,127.754123 418.084309,114.713213 418.084309,100.334323 C418.084309,79.935213 432.796709,70.906923 451.188609,70.906923 L451.188609,53.183623 C451.188609,48.893343 451.130899,44.488333 445.503909,44.488333 C441.665799,44.488333 437.477829,46.275563 437.477829,66.224183 L422.429659,66.224183 L422.429659,34.456693 L432.796789,34.456693 L434.803729,40.476493 C438.816269,36.128853 444.165529,33.788153 450.185329,33.788153 C472.591039,33.788153 474.931069,46.160523 474.931069,65.555643 L474.931069,109.362403 C474.931069,110.365703 475.264509,112.038203 476.603579,112.706083 C478.275729,112.371313 480.278989,109.697853 481.283959,108.358783 L485.298169,118.057683 C481.283959,124.075153 477.272089,128.089353 469.580109,128.089353 L469.580049,128.089223 Z M449.181609,81.271843 C442.160179,81.271843 440.821779,92.307473 440.821779,97.323653 C440.821779,101.337523 440.821779,113.374803 446.840909,113.374803 C450.182889,113.374803 451.188549,111.034443 451.188549,106.018273 L451.188549,81.271843 L449.181609,81.271873 L449.181609,81.271843 Z" id="_130809840" fill="#FFFFFF" fill-rule="nonzero"></path>
            <path d="M394.005269,264.189153 L394.005269,196.640033 C394.005269,190.287463 393.336729,187.612003 389.657979,187.612003 C385.646799,187.612003 382.969639,192.962943 382.969639,196.975483 L382.969639,253.489133 L389.326219,253.489133 L389.326219,264.189343 L353.877849,264.189423 L353.877849,253.489133 L358.895359,253.489133 L358.895359,151.830043 L353.877849,151.830043 L353.877849,140.461643 L382.969589,140.461643 L382.969589,180.589123 C386.983789,174.569643 392.335079,171.895853 399.358179,171.895853 C416.746379,171.895853 417.749679,184.936763 417.749679,204.666883 L417.749679,253.489213 L423.100619,253.489213 L423.100619,264.189423 L394.005169,264.189423 L394.005269,264.189153 Z" id="_130358344" fill="#FFFFFF"></path>
            <path d="M327.124819,265.862163 C300.373169,265.862163 297.029539,238.775383 297.029539,217.707973 C297.029539,198.313173 301.376839,171.896253 325.787739,171.896253 C330.803919,171.896253 335.486639,174.236623 338.830659,178.249143 L340.835929,173.233303 L349.866319,173.233303 L349.866319,205.335663 L335.486669,205.335663 C335.486669,187.946103 334.483019,183.265053 327.795369,183.265053 C323.112629,183.265053 321.775889,189.617623 321.775889,192.963633 L321.775889,238.107213 C321.775889,244.126353 323.782809,251.815963 331.139369,251.815963 C339.163779,251.815963 341.171039,238.107213 341.839579,232.422493 L352.539789,234.094663 C352.206669,249.475603 344.850169,265.862133 327.124839,265.862133 L327.124819,265.862163 Z" id="_130495440" fill="#FFFFFF"></path>
            <polygon id="_129946616" fill="#FFFFFF" points="228.478203 152.499993 214.098574 264.189157 193.366828 264.189157 186.010642 199.983921 176.98012 264.189157 157.584656 264.189157 143.875822 152.499993 138.189457 152.499993 138.189457 140.461511 172.299418 140.461511 172.299418 152.499993 166.280044 152.499993 173.636496 211.687801 183.000025 140.461511 203.063631 140.461511 211.090082 211.354262 218.446534 152.499993 213.095301 152.499993 213.095301 140.461511 234.162179 140.461511 234.162179 152.499993"></polygon>
            <path d="M455.200159,265.862163 C429.117339,265.862163 424.435949,240.447543 424.435949,219.380183 C424.435949,200.988333 430.788829,171.896253 454.198479,171.896253 C475.263789,171.896253 482.955349,191.960253 482.955349,210.016653 C482.953329,215.701023 482.622259,218.043393 482.286809,222.055583 L448.847379,222.055583 L448.847379,239.110703 C448.847379,246.467233 451.522839,252.151263 459.547909,252.151263 C467.574299,252.151263 471.586519,240.447433 472.923249,233.759413 L483.625799,235.431583 C481.618539,252.486033 474.262319,265.861983 455.199809,265.861983 L455.200159,265.862163 Z M459.548139,192.293403 C459.548139,188.949723 459.548139,182.261383 454.531959,182.261383 C449.515779,182.261383 448.847589,189.953023 448.847589,193.631803 L448.847589,212.023973 L459.882909,212.023973 L459.548139,192.293403 Z" id="_129791232" fill="#FFFFFF" fill-rule="nonzero"></path>
            <path d="M259.912419,265.862163 C234.832579,265.862163 228.478199,239.444243 228.478199,219.045053 C228.478199,198.981043 234.832449,171.896253 259.912419,171.896253 C284.992259,171.896253 291.345039,198.980913 291.345039,219.045053 C291.345039,239.444163 284.992149,265.862163 259.912419,265.862163 Z M265.596789,192.293403 C265.596789,188.616313 264.928599,182.261383 259.912419,182.261383 C254.896579,182.261383 254.226369,188.616293 254.226369,192.293403 L254.226369,245.128293 C254.226369,248.807743 254.896579,255.495413 259.912419,255.495413 C264.928599,255.495413 265.596789,248.807743 265.596789,245.128293 L265.596789,192.293403 Z" id="_129871768" fill="#FFFFFF" fill-rule="nonzero"></path>
        </g>
    </g>
</svg>