
<svg width="459px" height="73px" viewBox="0 0 459 73" version="1.1" xmlns="http://www.w3.org/2000/svg" xmlns:xlink="http://www.w3.org/1999/xlink">
    <g id="Page-1" stroke="none" stroke-width="1" fill="none" fill-rule="evenodd">
        <g id="MünchnerMerkur" transform="translate(0.000000, -1.000000)">
            <g id="Group" transform="translate(233.026465, 67.220310) scale(-1, 1) rotate(-180.000000) translate(-233.026465, -67.220310) translate(7.779690, 61.171280)" fill="#4499D4">
                <polygon id="Path" points="0 6.04903 0 0 225.246775 0 450.49355 0 450.49355 6.04903 450.49355 12.09806 225.246775 12.09806 0 12.09806"></polygon>
            </g>
            <path d="M153.27478,45.1428277 C152.096811,44.4742507 149.518014,43.4873037 147.480446,42.9142377 C144.806138,42.1501497 144.551442,40.5264627 147.034728,40.0807447 C147.607794,39.9533967 148.371882,39.5713527 148.690252,39.2211457 C149.263318,38.5844057 149.295155,37.7566437 149.295155,21.5197737 C149.295155,2.32206267 149.518014,3.88207567 146.748195,3.43635767 C145.220019,3.21349867 145.156345,3.11798767 145.602063,1.90818167 L145.920433,1.11225667 L152.447018,1.14409367 C158.177678,1.14409367 159.00544,1.20776767 159.037277,1.65348567 C159.164625,3.14982467 158.750744,3.59554267 157.254405,3.59554267 C156.713176,3.59554267 156.108273,3.75472767 155.885414,3.97758667 C155.598881,4.26411967 155.50337,6.81107967 155.50337,13.4968497 L155.50337,22.6659057 L156.872361,23.7802007 C159.482995,25.9132797 162.061792,26.4545087 164.003849,25.2447027 C165.945906,24.0667337 166.00958,23.7165267 166.00958,13.3058277 C166.00958,6.01515467 165.914069,3.91391267 165.627536,3.91391267 C165.404677,3.91391267 164.672426,3.75472767 164.035686,3.59554267 C162.82588,3.24533567 162.348325,2.51308467 162.698532,1.52613767 C162.921391,1.01674567 163.271598,0.984908667 166.614483,1.14409367 C168.652051,1.27144167 171.358196,1.23960467 172.631676,1.11225667 C173.905156,0.984908667 175.083125,0.953071667 175.274147,1.08041967 C175.465169,1.17593067 175.56068,1.68532267 175.497006,2.19471467 C175.401495,2.95880267 175.178636,3.14982467 173.905156,3.53186867 L172.408817,3.94574967 L172.313306,13.8788937 C172.217795,25.1491917 172.122284,25.5630727 169.575324,27.8553367 C166.455298,30.6569927 161.265867,30.1794377 157.190731,26.6773677 C156.45848,26.0724647 155.789903,25.5630727 155.694392,25.5630727 C155.598881,25.5630727 155.50337,30.0839267 155.50337,35.5917277 L155.50337,45.6203827 L154.802956,45.6203827 C154.389075,45.5885457 153.720498,45.3975237 153.27478,45.1428277 Z" id="Path" fill="#FFFFFF" transform="translate(160.415618, 23.309866) scale(-1, 1) rotate(-180.000000) translate(-160.415618, -23.309866) "></path>
            <path d="M375.910921,44.011137 C371.931296,42.642146 371.6766,42.514798 371.6766,41.718873 C371.6766,40.986622 371.867622,40.827437 373.077428,40.509067 C373.841516,40.318045 374.637441,39.936001 374.892137,39.649468 C375.274181,39.20375 375.337855,36.211072 375.274181,22.234629 C375.242344,12.970062 375.146833,5.042649 375.051322,4.628768 C374.892137,4.055702 374.510093,3.832843 373.109265,3.54631 C371.421904,3.196103 371.35823,3.132429 371.35823,2.177319 L371.35823,1.158535 L378.044,1.158535 L384.72977,1.158535 L384.72977,2.177319 C384.72977,3.100592 384.634259,3.196103 383.45629,3.387125 C381.450559,3.737332 381.2277,4.278561 381.2277,9.308807 C381.2277,13.574965 381.2277,13.670476 382.023625,14.179868 C382.787713,14.68926 382.787713,14.68926 385.302836,11.569234 C388.964091,7.04838 391.09717,4.18305 391.09717,3.832843 C391.09717,3.673658 390.715126,3.54631 390.269408,3.54631 C388.932254,3.54631 388.23184,2.973244 388.23184,1.95446 L388.23184,0.99935 L394.91761,1.094861 L401.60338,1.158535 L401.60338,2.018134 C401.60338,2.654874 401.348684,3.036918 400.616433,3.450799 C400.043367,3.769169 396.955178,7.175728 393.739641,11.028005 L387.849796,18.000308 L388.900417,18.923581 C392.243302,21.757074 396.19109,24.431382 398.356006,25.354655 C400.202552,26.118743 400.839292,26.532624 400.902966,27.042016 C400.998477,27.74243 400.96664,27.74243 394.790262,27.74243 L388.55021,27.74243 L388.55021,26.819157 C388.55021,26.023232 388.741232,25.83221 390.205734,25.227307 L391.861258,24.55873 L390.746963,23.380761 C390.14206,22.775858 387.881633,20.801964 385.68488,19.050929 L381.705255,15.867229 L381.609744,30.703271 L381.54607,45.57115 L380.813819,45.539313 C380.431775,45.507476 378.203185,44.807062 375.910921,44.011137 Z" id="Path" fill="#FFFFFF" transform="translate(386.480805, 23.285250) scale(-1, 1) rotate(-180.000000) translate(-386.480805, -23.285250) "></path>
            <path d="M2.462911,45.6712433 C2.240052,45.5757323 2.04903,44.9389923 2.04903,44.3022523 C2.04903,43.0924463 2.04903,43.0924463 3.768228,42.7104023 C4.723338,42.4875433 5.86947,42.0418253 6.315188,41.6916183 C7.14295,41.0548783 7.14295,41.0230413 7.14295,36.2156543 C7.14295,27.9061973 6.442536,9.18604127 6.060492,7.68970227 C5.646611,6.03417827 4.309457,4.91988327 2.335563,4.60151327 C1.316779,4.44232827 1.09392,4.25130627 0.934735,3.45538127 C0.807387,2.94598927 0.77555,2.46843427 0.839224,2.37292327 C0.934735,2.30924927 4.182109,2.18190127 8.066223,2.11822727 L15.134037,2.02271627 L15.038526,3.13701127 C14.943015,4.18763227 14.815667,4.28314327 13.223817,4.85620927 C11.122575,5.55662327 10.103791,6.44805927 9.68991,7.91256127 C9.37154,9.12236727 9.658073,35.6744253 9.976443,35.6744253 C10.103791,35.6744253 10.422161,35.0695223 10.708694,34.3372713 C10.995227,33.5731833 13.255654,27.7470123 15.73894,21.3477753 C18.254063,14.9485383 20.83286,7.97623527 21.533274,5.84315627 C22.647569,2.40476027 22.870428,1.89536827 23.602679,1.73618327 C24.716974,1.44965027 25.130855,1.99087927 25.894943,4.79253527 C26.786379,8.00807227 28.537414,13.1338293 31.65744,21.5069603 C33.090105,25.3592373 34.936651,30.3894833 35.732576,32.6499103 L37.228915,36.7887203 L37.451774,35.0376853 C37.547285,34.0825753 37.801981,27.7151753 37.993003,20.8702203 C38.279536,9.75910727 38.215862,6.44805927 37.610959,5.87499327 C37.515448,5.77948227 36.624012,5.49294927 35.573391,5.20641627 C33.312964,4.63335027 32.93092,4.34681727 32.93092,3.16884827 L32.93092,2.27741227 L39.393831,2.34108627 C42.927738,2.37292327 47.162059,2.27741227 48.785746,2.11822727 L51.746587,1.86353127 L51.651076,2.91415227 C51.555565,3.93293627 51.428217,4.06028427 49.008605,4.98355727 L46.461645,6.00234127 L46.238786,7.84888727 C46.143275,8.89950827 45.888579,14.3754723 45.697557,20.0742953 C45.506535,25.7731183 45.283676,31.2172453 45.188165,32.1723553 C45.092654,33.1274653 45.02898,35.4834033 44.997143,37.3936233 C44.965306,41.4687593 44.965306,41.5005963 48.117169,42.5512173 C50.282085,43.2834683 50.282085,43.2834683 50.377596,44.5569483 L50.473107,45.8304283 L45.920416,45.6394063 C43.405293,45.5438953 40.508126,45.3847103 39.457505,45.2573623 L37.547285,45.0663403 L36.655849,42.8377503 C36.146457,41.6279443 34.745629,37.7438303 33.535823,34.2735973 C29.938242,24.0539203 26.24515,14.7575163 26.24515,15.9991593 C26.24515,16.0946703 24.844322,19.7877623 23.093287,24.2449423 C21.374089,28.7021223 19.145499,34.5601303 18.126715,37.2662753 C17.107931,39.9724203 15.961799,42.8695873 15.547918,43.6973493 L14.78383,45.1618513 L12.809936,45.3528733 C9.467051,45.6394063 2.876792,45.8304283 2.462911,45.6712433 Z" id="Path" fill="#FFFFFF" transform="translate(26.276987, 23.749178) scale(-1, 1) rotate(-180.000000) translate(-26.276987, -23.749178) "></path>
            <path d="M272.759041,45.6157931 C272.536182,45.5202821 272.34516,44.8835421 272.34516,44.2468021 C272.34516,43.0369961 272.34516,43.0369961 274.096195,42.6549521 C275.083142,42.4320931 276.229274,41.9545381 276.674992,41.5724941 C277.470917,40.9039171 277.470917,40.7447321 277.502754,37.0516401 C277.534591,30.7160771 276.770503,10.1175381 276.48397,8.27099212 C276.292948,7.31588212 276.006415,6.32893512 275.783556,6.07423912 C275.242327,5.43749912 273.013737,4.41871512 272.122301,4.41871512 C271.517398,4.41871512 271.39005,4.22769312 271.39005,3.46360512 C271.39005,2.95421312 271.358213,2.44482112 271.326376,2.34931012 C271.262702,2.25379912 274.414565,2.12645112 278.330516,2.06277712 L285.430167,1.96726612 L285.334656,3.08156112 C285.239145,4.13218212 285.143634,4.25953012 283.424436,4.80075912 C281.386868,5.50117312 280.145225,6.55179412 279.890529,7.85711112 C279.635833,9.13059112 280.049714,36.0010191 280.30441,35.7144861 C280.431758,35.5871381 281.164009,33.8997771 281.89626,31.9577201 C282.628511,30.0475001 285.07996,23.7437741 287.30855,17.9494401 C289.53714,12.1869431 291.733893,6.20158712 292.211448,4.67341112 C292.943699,2.28563612 293.166558,1.83991812 293.835135,1.68073312 C294.94943,1.39420012 295.395148,1.87175512 295.872703,3.81381212 C296.604954,6.58363112 299.120077,13.9061411 303.418072,25.5584831 L307.525045,36.7014331 L307.747904,34.9503981 C307.875252,33.9952881 308.098111,27.7233991 308.289133,20.9739551 C308.543829,10.0538641 308.480155,6.36077212 307.907089,5.81954312 C307.811578,5.72403212 306.920142,5.43749912 305.869521,5.15096612 C303.609094,4.57790012 303.22705,4.29136712 303.22705,3.11339812 L303.22705,2.22196212 L309.689961,2.28563612 C313.223868,2.31747312 317.458189,2.22196212 319.081876,2.06277712 L322.01088,1.77624412 L322.01088,2.79502812 C322.01088,3.87748612 321.628836,4.13218212 318.031255,5.40566212 C316.789612,5.85138012 316.757775,5.94689112 316.534916,7.60241512 C316.407568,8.55752512 316.152872,14.0016521 315.96185,19.7004751 C315.770828,25.3992981 315.484295,32.2760901 315.356947,34.9822351 C315.197762,37.6883801 315.197762,40.2353401 315.356947,40.6173841 C315.675317,41.4451461 316.471242,41.9227011 318.82718,42.6549521 C320.546378,43.1643441 320.578215,43.1961811 320.673726,44.5014981 L320.769237,45.8386521 L317.330841,45.6476301 C315.452458,45.5521191 312.555291,45.3929341 310.931604,45.2974231 L307.938926,45.1064011 L307.206675,43.4508771 C306.824631,42.5594411 305.391966,38.6753271 304.022975,34.8230501 C300.138861,23.7437741 296.54128,14.6702291 296.54128,15.9437091 C296.54128,16.0392201 295.235963,19.4457791 293.644113,23.5527521 C292.052263,27.6597251 289.759999,33.6132441 288.550193,36.8287811 C287.340387,40.0443181 286.066907,43.2280181 285.7167,43.8965951 C285.111797,45.0745641 285.016286,45.1382381 283.106066,45.2974231 C279.763181,45.5839561 273.172922,45.7749781 272.759041,45.6157931 Z" id="Path" fill="#FFFFFF" transform="translate(296.668154, 23.721453) scale(-1, 1) rotate(-180.000000) translate(-296.668154, -23.721453) "></path>
            <path d="M61.966264,11.3542747 C60.883806,10.6220237 60.31074,9.22119566 60.31074,7.37464966 C60.31074,5.94198466 60.438088,5.62361466 61.393198,4.66850466 C62.794026,3.26767666 64.322202,3.20400266 65.754867,4.47748266 C67.537739,6.06933266 67.378554,9.73058766 65.468334,11.2269267 C64.513224,11.9910147 62.953211,12.0546887 61.966264,11.3542747 Z" id="Path" fill="#FFFFFF" transform="translate(63.656144, 7.704988) scale(-1, 1) rotate(-180.000000) translate(-63.656144, -7.704988) "></path>
            <path d="M71.517364,11.2958828 C70.49858,10.5954688 69.86184,9.16280382 69.86184,7.66646482 C69.86184,4.00520982 73.109214,2.25417482 75.465152,4.61011282 C76.452099,5.59705982 76.54761,5.85175582 76.54761,7.66646482 C76.54761,9.48117382 76.452099,9.73586982 75.465152,10.7228168 C74.255346,11.9326228 72.759007,12.1554818 71.517364,11.2958828 Z" id="Path" fill="#FFFFFF" transform="translate(73.204725, 7.675792) scale(-1, 1) rotate(-180.000000) translate(-73.204725, -7.675792) "></path>
            <path d="M93.134687,43.8575927 C91.638348,42.1383947 90.205683,41.2469587 87.881582,40.6738927 C86.608102,40.3555227 86.41708,40.1963377 86.41708,39.4640867 C86.41708,38.7955097 86.671776,38.5089767 87.786071,37.9995847 C88.518322,37.6175407 89.314247,36.9489637 89.537106,36.4714087 C90.110172,35.2934397 90.173846,18.8655477 89.632617,18.3243187 C89.409758,18.1014597 88.677507,17.7830897 87.945256,17.6239047 C86.544428,17.2736977 85.875851,16.5732837 86.194221,15.8091957 C86.353406,15.3953147 87.340353,15.2998037 92.688969,15.3316407 C96.986964,15.3316407 99.056369,15.4271517 99.215554,15.6818477 C99.78862,16.5096097 99.438413,17.1781867 98.037585,17.8467637 C97.273497,18.2288077 96.541246,18.7700367 96.445735,19.0247327 C96.350224,19.2794287 96.191039,23.2590537 96.095528,27.8117447 L95.936343,36.1212017 L97.337171,37.4265187 C100.170664,40.0371527 103.29069,40.8330777 104.850703,39.4004127 C106.47439,37.8722367 106.601738,37.0126377 106.729086,27.8754187 C106.79276,23.1635427 106.760923,18.9928957 106.665412,18.5790147 C106.506227,17.9741117 106.15602,17.7512527 104.723355,17.4647197 C103.131505,17.1463497 102.97232,17.0190017 102.97232,16.2549137 L102.97232,15.3953147 L109.65809,15.3953147 C116.280186,15.3953147 116.34386,15.3953147 116.34386,16.0638917 C116.34386,16.9234907 115.866305,17.3373717 114.529151,17.5920677 C113.987922,17.7194157 113.383019,18.0059487 113.191997,18.1969707 C113.032812,18.4198297 112.84179,22.5586397 112.778116,28.4484847 C112.682605,37.9359107 112.650768,38.3816287 111.982191,39.6232717 C111.027081,41.4061437 109.02135,43.0935047 107.238478,43.5710597 C104.309474,44.3988217 100.520871,43.3482007 97.655541,40.8649147 C96.92329,40.2600117 96.254713,39.7506197 96.159202,39.7506197 C96.063691,39.7506197 95.96818,41.0559367 95.96818,42.6159497 C95.96818,45.3857687 95.936343,45.4812797 95.267766,45.4812797 C94.790211,45.4494427 94.026123,44.8763767 93.134687,43.8575927 Z" id="Path" fill="#FFFFFF" transform="translate(101.229976, 30.403640) scale(-1, 1) rotate(-180.000000) translate(-101.229976, -30.403640) "></path>
            <path d="M184.506877,43.883789 C183.042375,42.196428 181.673384,41.336829 179.38112,40.731926 C176.961508,40.095186 176.83416,39.171913 179.030913,38.057618 C180.145208,37.484552 180.686437,36.97516 180.941133,36.242909 C181.323177,35.160451 181.450525,19.560321 181.100318,18.637048 C181.004807,18.350515 180.145208,17.904797 179.190098,17.618264 C177.630085,17.172546 177.4709,17.045198 177.4709,16.217436 L177.4709,15.326 L183.965648,15.326 C190.173863,15.326 190.460396,15.357837 190.619581,15.96274 C190.874277,16.91785 190.619581,17.268057 189.155079,18.000308 C187.945273,18.573374 187.786088,18.764396 187.595066,20.037876 C187.499555,20.833801 187.372207,24.781589 187.372207,28.824888 L187.34037,36.179235 L188.741198,37.484552 C192.466127,40.922948 195.968197,40.954785 197.464536,37.580063 C197.878417,36.65679 198.005765,34.778407 198.101276,27.455897 L198.228624,18.5097 L197.464536,18.032145 C197.082492,17.777449 196.191056,17.459079 195.554316,17.363568 C194.503695,17.172546 194.34451,17.013361 194.34451,16.28111 L194.34451,15.421511 L200.934769,15.421511 C205.742156,15.421511 207.556865,15.548859 207.620539,15.803555 C207.875235,16.567643 207.111147,17.331731 205.742156,17.650101 L204.373165,18.000308 L204.21398,27.997126 C204.022958,38.980891 203.991121,39.20375 202.017227,41.43234 C199.056386,44.807062 193.453074,44.61604 189.186916,41.018459 C188.359154,40.349882 187.626903,39.776816 187.531392,39.776816 C187.435881,39.776816 187.34037,41.082133 187.34037,42.642146 C187.34037,45.411965 187.308533,45.507476 186.639956,45.507476 C186.162401,45.475639 185.398313,44.902573 184.506877,43.883789 Z" id="Path" fill="#FFFFFF" transform="translate(192.569692, 30.416738) scale(-1, 1) rotate(-180.000000) translate(-192.569692, -30.416738) "></path>
            <path d="M244.073904,44.5610906 C242.482054,42.4598486 239.839583,40.1994216 238.629777,39.8173776 C237.515482,39.4990076 237.32446,39.3079856 237.32446,38.5757346 C237.32446,37.8434836 237.547319,37.5887876 238.566103,37.1749066 C239.266517,36.9202106 239.998768,36.4108186 240.18979,36.0606116 C240.412649,35.6467306 240.476323,32.5267046 240.444486,27.0507406 L240.348975,18.6776096 L238.59794,17.7861736 C237.197112,17.0857596 236.846905,16.7355526 236.846905,16.1306496 C236.846905,15.6849316 236.942416,15.3347246 237.101601,15.3347246 C237.228949,15.3347246 240.635508,15.3347246 244.64697,15.3347246 L251.96948,15.3347246 L251.96948,16.0669756 C251.96948,17.0539226 251.396414,17.5633146 250.313956,17.5633146 C248.849454,17.5633146 247.225767,18.3910766 247.066582,19.2188386 C246.971071,19.6327196 246.843723,22.9437676 246.748212,26.6050226 C246.589027,33.6091626 246.811886,35.8059156 247.83067,37.0475586 C248.403736,37.7479726 248.46741,37.7479726 249.327009,37.2385806 C251.682947,35.8059156 252.28785,35.5830566 253.147449,35.9014266 C254.357255,36.3153076 255.47155,38.0663426 255.47155,39.5945186 C255.47155,42.0141306 254.007048,43.6696546 251.873969,43.6696546 C250.218445,43.6696546 248.976802,42.7463816 247.735159,40.5177916 L246.716375,38.7349196 L246.620864,41.5684126 C246.55719,43.1602626 246.366168,44.6247646 246.175146,44.8476236 C245.665754,45.4843636 244.710644,45.3570156 244.073904,44.5610906 Z" id="Path" fill="#FFFFFF" transform="translate(246.159228, 30.293752) scale(-1, 1) rotate(-180.000000) translate(-246.159228, -30.293752) "></path>
            <path d="M358.846289,44.5502978 C357.063417,42.3217078 354.80299,40.3478138 353.656858,39.9657698 C352.001334,39.4563778 351.842149,39.2653558 352.224193,38.3102458 C352.415215,37.7690168 352.860933,37.4188098 353.497673,37.2596248 C355.280545,36.8775808 355.280545,36.8139068 355.280545,27.4219918 L355.280545,18.7941648 L353.433999,17.9027288 C351.778475,17.1068038 351.587453,16.9157818 351.682964,16.1516938 C351.746638,15.6741388 351.873986,15.3239318 352.033171,15.3876058 C352.160519,15.4194428 355.567078,15.4512798 359.610377,15.4512798 L366.932887,15.4512798 L366.837376,16.3108788 C366.741865,17.2341518 366.710028,17.2341518 363.812861,17.9982398 C362.985099,18.1892618 362.316522,18.6031428 362.061826,19.0488608 C361.838967,19.4945788 361.647945,22.2962348 361.552434,27.1036218 C361.425086,34.0122508 361.456923,34.5216428 362.061826,35.9224708 C362.44387,36.7502328 362.953262,37.5143208 363.207958,37.6098318 C363.494491,37.7053428 364.35409,37.3551358 365.213689,36.8139068 C366.932887,35.6677748 367.792486,35.5722638 368.906781,36.4955368 C371.262719,38.3420828 370.530468,42.9902848 367.760649,43.7225358 C365.723081,44.2637648 363.812861,43.0857958 362.380196,40.4114878 C361.998152,39.6473998 361.552434,39.0106598 361.425086,39.0106598 C361.297738,39.0106598 361.138553,40.4114878 361.106716,42.1306858 C361.011205,45.0596898 360.979368,45.2188748 360.278954,45.3143858 C359.801399,45.3780598 359.323844,45.1233638 358.846289,44.5502978 Z" id="Path" fill="#FFFFFF" transform="translate(360.991224, 30.352030) scale(-1, 1) rotate(-180.000000) translate(-360.991224, -30.352030) "></path>
            <path d="M441.781674,44.7074735 C439.744106,42.1286765 437.993071,40.5686635 436.560406,40.0592715 C435.255089,39.6135535 435.03223,39.3906945 435.03223,38.6902805 C435.03223,37.9898665 435.255089,37.7351705 436.30571,37.3212895 C437.133472,37.0029195 437.706538,36.5253645 437.89756,35.9841355 C438.088582,35.4747435 438.184093,31.8453255 438.152256,26.9742645 L438.056745,18.8239925 L436.30571,17.9325565 C434.841208,17.2003055 434.554675,16.9137725 434.554675,16.1815215 C434.554675,15.7039665 434.71386,15.3219225 434.968556,15.3537595 C435.159578,15.3855965 438.566137,15.4174335 442.513925,15.4492705 L449.67725,15.4811075 L449.67725,16.2133585 C449.67725,17.2003055 449.104184,17.7096975 448.021726,17.7096975 C446.716409,17.7096975 444.997211,18.5056225 444.806189,19.2060365 C444.710678,19.5244065 444.551493,23.0901505 444.455982,27.1016125 C444.296797,33.5963605 444.328634,34.5833075 444.838026,35.8249505 C445.665788,37.8943555 446.143343,38.0535405 447.958052,36.8755715 C449.645413,35.7294395 450.473175,35.6339285 451.523796,36.3661795 C453.17932,37.5123115 453.688712,40.2821305 452.54258,42.1286765 C451.810329,43.3384825 450.887056,43.8797115 449.518065,43.8797115 C448.021726,43.8797115 446.875594,42.9882755 445.474766,40.7915225 L444.26496,38.8813025 L444.26496,41.7784695 C444.26496,43.5613415 444.137612,44.7711475 443.882916,45.0258435 C443.30985,45.5989095 442.418414,45.4715615 441.781674,44.7074735 Z" id="Path" fill="#FFFFFF" transform="translate(443.857692, 30.366944) scale(-1, 1) rotate(-180.000000) translate(-443.857692, -30.366944) "></path>
            <path d="M130.67051,45.9211093 C123.061467,44.1382373 118.222243,36.2108243 119.654908,27.9013673 C120.546344,22.9347953 122.743097,19.7829323 126.754559,17.9363863 C129.651726,16.5673953 132.612567,16.3763733 135.796267,17.3633203 C137.801998,17.9682233 138.375064,18.3184303 140.062425,20.0057913 C142.418363,22.3935663 143.40531,24.6221563 142.482037,25.4499183 C141.622438,26.2458433 141.081209,26.0548213 140.126099,24.6858303 C138.62976,22.5527513 137.324443,21.7568263 135.032179,21.5976413 C132.644404,21.4066193 131.179902,22.0115223 129.269682,23.9535793 C125.958634,27.3601383 124.876176,34.6189743 127.009255,39.2353393 C127.996202,41.4002553 128.823964,42.3553653 130.415814,43.1831273 C133.058285,44.5202813 134.904831,43.6925193 136.0828,40.6043303 C137.03791,38.0892073 138.088531,37.1022603 139.744055,37.1022603 C141.367742,37.1022603 142.099993,37.8026743 142.4502,39.6173833 C142.895918,42.1325063 141.017535,44.9341623 138.343227,45.6982503 C136.433007,46.2394793 132.548893,46.3668273 130.67051,45.9211093 Z" id="Path" fill="#FFFFFF" transform="translate(131.114382, 31.467235) scale(-1, 1) rotate(-180.000000) translate(-131.114382, -31.467235) "></path>
            <path d="M220.578198,45.85611 C218.445119,45.410392 217.203476,44.773652 215.35693,43.086291 C211.918534,39.934428 210.58138,36.527869 210.58138,31.020068 C210.58138,24.716342 213.032829,19.877118 217.426335,17.584854 C218.859,16.820766 219.368392,16.725255 222.36107,16.725255 C225.321911,16.725255 225.926814,16.820766 227.518664,17.584854 C229.651743,18.571801 231.5938,20.06814 232.771769,21.596316 L233.599531,22.678774 L232.803606,23.474699 L232.007681,24.270624 L230.702364,23.315514 C227.964382,21.34162 223.825572,21.086924 221.437797,22.742448 C218.890837,24.493483 217.426335,27.677183 217.044291,32.134363 L216.853269,34.490301 L223.666387,34.235605 C234.331782,33.821724 233.312998,33.726213 233.440346,35.063367 C233.567694,36.527869 232.453399,39.838917 231.27543,41.589952 C228.951329,44.932837 224.685171,46.652035 220.578198,45.85611 Z M224.58966,43.054454 C225.735792,42.194855 226.81825,40.093613 227.041109,38.247067 L227.232131,36.62338 L222.201885,36.62338 L217.171639,36.62338 L217.362661,38.056045 C217.999401,42.576899 221.72433,45.155696 224.58966,43.054454 Z" id="Shape" fill="#FFFFFF" fill-rule="nonzero" transform="translate(222.090455, 31.386980) scale(-1, 1) rotate(-180.000000) translate(-222.090455, -31.386980) "></path>
            <path d="M335.06405,45.926778 C332.803623,45.449223 331.370958,44.557787 329.33339,42.329197 C326.499897,39.241008 325.449276,36.280167 325.385602,31.249921 C325.353765,27.397644 326.117853,24.595988 328.028073,21.635147 C330.2885,18.133077 333.504037,16.573064 338.056728,16.82776 C341.526961,17.018782 343.97841,18.164914 346.684555,20.902896 L348.562938,22.813116 L347.735176,23.640878 L346.907414,24.46864 L345.538423,23.545367 C343.66004,22.271887 342.322886,21.858006 340.15797,21.858006 C337.802032,21.858006 335.923649,22.844953 334.395473,24.850684 C332.930971,26.792741 332.19872,28.989494 331.975861,32.173194 L331.784839,34.688317 L338.597957,34.433621 C342.354723,34.274436 346.047815,34.147088 346.84374,34.147088 L348.276405,34.115251 L348.212731,35.993634 C348.085383,39.654889 345.315564,43.761862 341.909005,45.258201 C339.903274,46.181474 337.324477,46.404333 335.06405,45.926778 Z M339.553067,43.156959 C340.699199,42.329197 341.654309,40.38714 341.940842,38.285898 L342.163701,36.821396 L337.165292,36.821396 L332.19872,36.821396 L332.19872,37.712832 C332.19872,39.049986 333.058319,41.310413 333.949755,42.329197 C335.668953,44.271254 337.579173,44.557787 339.553067,43.156959 Z" id="Shape" fill="#FFFFFF" fill-rule="nonzero" transform="translate(336.973794, 31.485988) scale(-1, 1) rotate(-180.000000) translate(-336.973794, -31.485988) "></path>
            <path d="M54.484569,45.9904763 C54.357221,45.8631283 54.26171,45.2900623 54.26171,44.7169963 C54.26171,43.7300493 54.357221,43.6345383 55.630701,43.2843313 C56.362952,43.0933093 57.158877,42.7749393 57.381736,42.6157543 C57.668269,42.3610583 57.76378,40.1643053 57.76378,33.5740463 C57.76378,23.3543693 57.954802,22.1445633 59.737674,20.2025063 C61.329524,18.4833083 63.239744,17.7192203 65.500171,17.9102423 C67.728761,18.1012643 69.670818,19.0563743 72.026756,21.2212903 L74.00065,23.0041623 L74.00065,20.4253653 C74.00065,17.3053393 73.968813,17.3371763 78.298645,18.9608633 C79.922332,19.5657663 81.832552,20.1388323 82.564803,20.2661803 C84.092979,20.5208763 84.315838,20.7755723 84.061142,21.8261933 C83.901957,22.4947703 83.647261,22.5902813 82.182759,22.6857923 L80.527235,22.7813033 L80.463561,33.6058833 C80.431724,39.5594023 80.399887,44.8125073 80.399887,45.3218993 L80.36805,46.1814983 L76.006381,46.1814983 C70.466743,46.1814983 70.18021,46.0859873 70.18021,44.7488333 C70.18021,43.6027013 70.594091,43.3161683 72.122267,43.3161683 C72.663496,43.3161683 73.36391,43.1569833 73.714117,42.9977983 C74.287183,42.6794283 74.31902,42.2337103 74.31902,34.6565043 C74.31902,26.7290913 74.31902,26.6335803 73.523095,25.2964263 C72.376963,23.3543693 70.18021,21.9853783 68.142642,21.9853783 C66.264259,21.9853783 65.340986,22.4947703 64.513224,23.9911093 C64.035669,24.8825453 63.940158,26.3152103 63.81281,35.5161033 L63.653625,46.0223133 L59.164608,46.1178243 C56.713159,46.1496613 54.611917,46.0859873 54.484569,45.9904763 Z" id="Path" fill="#FFFFFF" transform="translate(69.206410, 32.027229) scale(-1, 1) rotate(-180.000000) translate(-69.206410, -32.027229) "></path>
            <path d="M402.781349,45.9928886 C402.654001,45.8655406 402.55849,45.2924746 402.55849,44.7194086 C402.55849,43.7324616 402.654001,43.6369506 403.927481,43.2867436 C404.659732,43.0957216 405.455657,42.7773516 405.678516,42.6181666 C405.965049,42.3634706 406.06056,40.1030436 406.06056,33.3217626 C406.06056,23.1657596 406.251582,21.9241166 408.098128,20.0138966 C409.594467,18.4857206 411.632035,17.7216326 413.796951,17.9126546 C416.057378,18.1036766 417.967598,19.0587866 420.228025,21.1918656 C421.278646,22.1469756 422.170082,22.9429006 422.201919,22.9429006 C422.265593,22.9429006 422.29743,21.7967686 422.29743,20.3959406 C422.29743,17.3077516 422.265593,17.3395886 426.595425,18.9632756 C428.219112,19.5681786 430.129332,20.1412446 430.861583,20.2685926 C432.389759,20.5232886 432.612618,20.7779846 432.357922,21.8286056 C432.198737,22.4971826 431.944041,22.5926936 430.479539,22.6882046 L428.824015,22.7837156 L428.760341,33.6082956 C428.728504,39.5618146 428.696667,44.8149196 428.696667,45.3243116 L428.66483,46.1839106 L424.303161,46.1839106 C418.763523,46.1839106 418.47699,46.0883996 418.47699,44.7512456 C418.47699,43.6051136 418.890871,43.3185806 420.419047,43.3185806 C420.960276,43.3185806 421.66069,43.1593956 422.010897,43.0002106 C422.583963,42.6818406 422.6158,42.2361226 422.6158,34.6589166 C422.6158,26.7315036 422.6158,26.6359926 421.819875,25.2988386 C421.405994,24.5665876 420.355373,23.5159666 419.527611,22.9747376 C416.88514,21.2237026 413.70144,21.7649316 412.650819,24.1845436 C412.42796,24.7257726 412.236938,28.7372346 412.10959,35.5185156 L411.950405,46.0247256 L407.461388,46.1202366 C405.009939,46.1520736 402.908697,46.0883996 402.781349,45.9928886 Z" id="Path" fill="#FFFFFF" transform="translate(417.503190, 32.028435) scale(-1, 1) rotate(-180.000000) translate(-417.503190, -32.028435) "></path>
        </g>
    </g>
</svg>