
<svg width="887px" height="115px" viewBox="0 0 887 115" version="1.1" xmlns="http://www.w3.org/2000/svg" xmlns:xlink="http://www.w3.org/1999/xlink">
    <defs>
        <polygon id="path-1" points="0.924273058 0.238072656 115.289603 0.238072656 115.289603 886.064848 0.924273058 886.064848 0.924273058 0.238072656"></polygon>
    </defs>
    <g id="Page-1" stroke="none" stroke-width="1" fill="none" fill-rule="evenodd">
        <g id="Frankfurter_Rundschau_logo" transform="translate(-1.000000, -1.000000)">
            <g id="g3191" transform="translate(444.108149, 58.874658) scale(-1, 1) rotate(-90.000000) translate(-444.108149, -58.874658) translate(386.108149, -384.625342)">
                <g id="g3193-Clipped" transform="translate(-0.000000, 0.000000)">
                    <mask id="mask-2" fill="white">
                        <use xlink:href="#path-1"></use>
                    </mask>
                    <g id="path3197"></g>
                    <g id="g3193" mask="url(#mask-2)">
                        <path d="M83.1873789,884.318122 L71.30129,884.318122 L71.30129,880.483676 L12.8103201,880.483676 L12.8103201,884.318122 L1.68972883,884.318122 L1.68972883,862.459688 L12.8103201,862.459688 L12.8103201,866.294135 L44.4323269,866.294135 L44.4323269,855.166585 L55.5459592,855.166585 L55.5459592,866.294135 L71.30129,866.294135 L71.30129,857.059451 L64.6484206,857.059451 L64.6484206,844.407865 L83.1873789,844.407865 L83.1873789,884.318122 Z M41.8017991,811.762875 L15.6983335,811.762875 C1.63405628,811.762875 0.924231304,801.484331 0.924231304,799.431406 C0.924231304,797.580294 2.32996312,791.839062 4.93961377,789.563447 L4.04885302,787.197364 L1.68972883,787.197364 L1.68972883,770.704371 L12.8103201,770.704371 L12.8103201,774.545777 L44.6828534,774.545777 L44.6828534,770.704371 L55.5459592,770.704371 L55.5459592,787.155609 C54.2933269,787.120814 52.7136183,787.0721 52.7136183,787.0721 L51.9133255,789.793096 C54.0915139,791.282337 56.3184158,793.481402 56.3184158,798.533686 C56.3184158,802.514273 54.8987658,811.762875 41.8017991,811.762875 Z M17.9948261,799.111289 L39.2408619,799.111289 C42.5255422,799.111289 45.1978245,796.439006 45.1978245,793.161285 C45.1978245,789.869646 42.5255422,787.197364 39.2408619,787.197364 L17.9948261,787.197364 C14.7171049,787.197364 12.0378635,789.869646 12.0378635,793.161285 C12.0378635,796.439006 14.7171049,799.111289 17.9948261,799.111289 Z" id="path3201" fill="#FFFFFF" fill-rule="nonzero"></path>
                        <path d="M72.3799943,658.851265 L55.5460079,658.851265 L55.5460079,663.07542 L44.4323757,663.07542 L44.4323757,658.851265 L12.8103688,658.851265 L12.8103688,663.07542 L1.68977754,663.07542 L1.68977754,641.585816 L12.8103688,641.585816 L12.8103688,646.199679 L44.4323757,646.199679 L44.4323757,641.843302 L55.5460079,641.843302 L55.5460079,646.199679 L65.9846105,646.199679 C72.3243218,646.199679 72.3243218,642.072951 72.3243218,639.853008 L72.3243218,639.672073 L82.7977197,639.672073 C83.1665504,642.15646 83.437954,644.536461 83.437954,646.505878 C83.437954,652.608981 82.1296492,658.851265 72.3799943,658.851265 Z M83.437954,713.49387 L72.3243218,713.49387 L72.3243218,709.645505 L12.8103688,709.645505 L12.8103688,713.49387 L1.68977754,713.49387 L1.68977754,693.159472 L12.8103688,693.159472 L12.8103688,696.993919 L24.7242939,696.993919 L24.7242939,691.301401 C24.7242939,685.85245 21.265637,685.85245 19.4075657,685.85245 L1.68977754,685.85245 L1.68977754,669.616944 L12.8103688,669.616944 L12.8103688,673.200864 L24.522481,673.200864 C28.9206122,673.200864 31.8434209,675.135485 32.5393278,678.517592 L33.6736559,684.161397 L44.4323757,673.562736 L44.4323757,669.616944 L55.5460079,669.616944 L55.5460079,692.115612 L44.4323757,692.115612 L44.4323757,688.99099 L41.8644794,688.037598 L35.4690956,694.432982 L36.4224879,696.993919 L83.437954,696.993919 L83.437954,713.49387 Z M52.0177602,744.04418 L52.9293982,746.646872 L55.5460079,746.646872 L55.5460079,763.139864 L44.4323757,763.139864 L44.4323757,759.298458 L12.8103688,759.298458 L12.8103688,763.139864 L1.68977754,763.139864 L1.68977754,742.812425 L12.8103688,742.812425 L12.8103688,746.646872 L39.2409106,746.646872 C42.5255909,746.646872 45.1978732,743.97459 45.1978732,740.689909 C45.1978732,737.39827 42.5255909,734.732947 39.2409106,734.732947 L1.68977754,734.732947 L1.68977754,718.239955 L12.8103688,718.239955 L12.8103688,722.074402 L41.2868767,722.074402 C43.7991004,722.074402 56.3115054,722.67984 56.3115054,734.545052 C56.3115054,737.363475 55.9774701,740.418506 52.0177602,744.04418 Z" id="path3205" fill="#FFFFFF" fill-rule="nonzero"></path>
                        <path d="M75.5115473,544.590251 L55.5529391,544.590251 L55.5529391,548.668266 C53.5765637,548.647388 46.380887,548.584757 44.4323478,548.56388 L44.4323478,544.590251 L12.810341,544.590251 L12.810341,550.345401 L1.69670877,550.345401 L1.69670877,527.582288 L12.810341,527.582288 L12.810341,531.938665 L44.4323478,531.938665 L44.4323478,527.714511 L55.5529391,527.714511 L55.5529391,531.938665 L75.5115473,531.938665 L75.5115473,544.590251 Z M50.7094275,566.121609 L51.0156265,568.786932 L55.5529391,568.786932 L55.5529391,585.154661 L44.4323478,585.154661 L44.4323478,581.438519 L12.810341,581.438519 L12.810341,585.279924 L1.57144554,585.279924 L1.57144554,562.134063 L12.810341,562.134063 L12.810341,568.786932 L46.1512377,568.786932 L46.5339865,565.885001 C43.5972596,565.015117 41.6208842,562.551607 41.6208842,559.754061 C41.6208842,556.128387 44.9125235,553.177742 48.9696604,553.177742 C53.0198382,553.177742 56.3184366,556.128387 56.3184366,559.754061 C56.3184366,562.732543 54.014985,565.356112 50.7094275,566.121609 Z M55.5529391,611.38339 L44.4323478,611.38339 L44.4323478,607.541984 L18.001806,607.541984 C14.7171257,607.541984 12.0448435,610.221226 12.0448435,613.498947 C12.0448435,616.790586 14.7171257,619.462868 18.001806,619.462868 L55.5529391,619.462868 L55.5529391,635.948901 L44.4323478,635.948901 L44.4323478,632.114455 L15.9488809,632.114455 C13.4436162,632.114455 0.924252181,631.515975 0.924252181,619.643804 C0.924252181,616.825381 1.25828746,613.777309 5.22495645,610.144676 L4.30635942,607.541984 L1.69670877,607.541984 L1.69670877,591.048992 L12.810341,591.048992 L12.810341,594.890398 L55.5529391,594.890398 L55.5529391,611.38339 Z" id="path3209" fill="#FFFFFF" fill-rule="nonzero"></path>
                        <path d="M50.8347603,454.797392 L51.1409593,457.462715 L55.6782719,457.462715 L55.6782719,473.823485 L44.5576806,473.823485 L44.5576806,470.121261 L12.8104106,470.121261 L12.8104106,473.955707 L1.69677836,473.955707 L1.69677836,453.113297 L12.8104106,453.113297 L12.8104106,457.462715 L46.2835296,457.462715 L46.6662784,454.560784 C43.7225924,453.6909 41.746217,451.22739 41.746217,448.436803 C41.746217,444.80417 45.0448154,441.853525 49.0949932,441.853525 C53.145171,441.853525 56.4437695,444.80417 56.4437695,448.436803 C56.4437695,451.408326 54.1403178,454.024935 50.8347603,454.797392 M40.521421,519.509769 L18.8926364,519.509769 C13.5202356,519.509769 0.924321771,519.509769 0.924321771,500.90122 C0.924321771,497.797476 1.53671979,482.285712 13.6454988,482.285712 L17.5425771,482.285712 L17.5425771,495.097357 C13.457604,495.459229 11.2724565,497.352095 11.2724565,500.90122 C11.2724565,503.128122 12.1492991,506.858183 18.0018756,506.858183 L24.3415869,506.858183 L24.3415869,482.285712 L42.5673871,482.285712 C43.9731189,482.285712 56.3185062,482.807642 56.3185062,500.90122 C56.3185062,506.496311 54.7735931,519.509769 40.521421,519.509769 M39.2409524,506.858183 C42.5256327,506.858183 45.1979149,504.1859 45.1979149,500.90122 C45.1979149,497.61654 42.5256327,494.937298 39.2409524,494.937298 L33.1587266,494.937298 L33.1587266,506.858183 L39.2409524,506.858183" id="path3213" fill="#FFFFFF" fill-rule="nonzero"></path>
                        <path d="M83.1873789,433.906269 L71.30129,433.906269 L71.30129,429.675155 L12.8103201,429.675155 L12.8103201,433.774046 L1.68972883,433.774046 L1.68972883,411.003974 L12.8103201,411.003974 L12.8103201,415.492574 L37.007001,415.492574 L37.007001,410.043623 C37.007001,405.666369 34.4947773,403.063677 30.2845409,403.063677 L1.68972883,403.063677 L1.68972883,384.782205 L12.8103201,384.782205 L12.8103201,388.867178 L31.5580504,388.867178 C36.5616206,388.867178 39.5609791,390.780922 41.593027,395.241685 L42.5464194,397.343323 L44.1678823,395.485252 C46.7357786,391.984841 53.4443205,386.055714 62.2753783,386.055714 C65.7618716,386.055714 83.1873789,387.078697 83.1873789,407.232159 L83.1873789,433.906269 Z M71.30129,415.492574 L71.30129,410.043623 C71.30129,406.960756 69.7424587,401.77625 59.3316924,401.77625 C50.1944356,401.77625 47.3551357,409.340757 47.3551357,412.089589 L47.3551357,415.492574 L71.30129,415.492574 Z M52.0177115,309.624266 L52.9293495,312.226958 L55.5459592,312.226958 L55.5459592,328.712991 L44.4323269,328.712991 L44.4323269,324.878544 L12.8103201,324.878544 L12.8103201,328.712991 L1.68972883,328.712991 L1.68972883,308.385552 L12.8103201,308.385552 L12.8103201,312.226958 L39.2408619,312.226958 C42.5255422,312.226958 45.1978245,309.554675 45.1978245,306.269995 C45.1978245,302.978356 42.5255422,300.306073 39.2408619,300.306073 L1.68972883,300.306073 L1.68972883,283.82004 L12.8103201,283.82004 L12.8103201,287.654487 L41.286828,287.654487 C43.7990517,287.654487 56.3184158,288.259926 56.3184158,300.125138 C56.3184158,302.936601 55.9843805,305.991632 52.0177115,309.624266 Z M55.5459592,355.338386 L44.4323269,355.338386 L44.4323269,351.496981 L17.9948261,351.496981 C14.7171049,351.496981 12.0378635,354.169263 12.0378635,357.453943 C12.0378635,360.738623 14.7171049,363.410906 17.9948261,363.410906 L55.5459592,363.410906 L55.5459592,379.903898 L44.4323269,379.903898 L44.4323269,376.062492 L15.94886,376.062492 C13.4366363,376.062492 0.924231304,375.457053 0.924231304,363.591841 C0.924231304,360.773419 1.25130752,357.725347 5.21797651,354.099672 L4.30633855,351.496981 L1.68972883,351.496981 L1.68972883,335.003988 L12.8103201,335.003988 L12.8103201,338.838435 L55.5459592,338.838435 L55.5459592,355.338386 Z" id="path3217" fill="#FFFFFF" fill-rule="nonzero"></path>
                        <path d="M83.4448853,256.297064 L72.331253,256.297064 L72.331253,252.330395 L52.6788439,252.330395 L51.9133463,254.919168 C54.0915348,256.415368 56.3184366,258.614434 56.3184366,263.659758 C56.3184366,267.640346 54.9057458,276.902866 41.80182,276.902866 L15.6983544,276.902866 C1.64103623,276.902866 0.924252181,266.617362 0.924252181,264.564437 C0.924252181,262.706366 2.33694307,256.965135 4.93963465,254.710396 L4.05583296,252.330395 L1.69670877,252.330395 L1.69670877,235.844362 L12.810341,235.844362 L12.810341,239.678809 L83.4448853,239.678809 L83.4448853,256.297064 Z M18.001806,264.24432 L39.2408828,264.24432 C42.5255631,264.24432 45.2048044,261.572038 45.2048044,258.287358 C45.2048044,255.002677 42.5255631,252.330395 39.2408828,252.330395 L18.001806,252.330395 C14.7171257,252.330395 12.0448435,255.002677 12.0448435,258.287358 C12.0448435,261.572038 14.7171257,264.24432 18.001806,264.24432 Z M41.80182,187.325737 L15.9488809,187.325737 C9.50478352,187.325737 0.924252181,185.544216 0.924252181,170.12292 C0.924252181,165.78742 1.91939896,151.639634 14.6753713,151.639634 L20.8759013,151.639634 L20.8759013,162.760226 L18.001806,162.760226 C14.7171257,162.760226 12.0448435,165.432508 12.0448435,168.717188 C12.0448435,172.001868 14.7171257,174.674151 18.001806,174.674151 L39.2408828,174.674151 C42.5255631,174.674151 45.2048044,172.001868 45.2048044,168.717188 C45.2048044,165.432508 42.5255631,162.760226 39.2408828,162.760226 L34.3208214,162.760226 L34.3208214,151.639634 L55.5529391,151.639634 L55.5529391,162.760226 L52.6788439,162.760226 L51.9133463,165.474262 C54.0915348,166.970462 56.3184366,169.169528 56.3184366,174.221811 C56.3184366,179.851698 54.8152779,187.325737 41.80182,187.325737 Z M43.8477861,230.840792 C40.6466146,230.840792 33.972868,230.840792 28.2316366,221.745289 L24.9052019,216.491193 C20.1939126,208.59265 17.9391744,207.931539 16.2133255,207.931539 C14.3691723,207.931539 11.279346,208.571773 11.279346,212.858559 C11.279346,215.370783 12.705955,218.272714 18.3149641,218.97558 L18.3149641,229.038393 C16.1367757,229.017516 3.74963395,228.940966 1.57840461,228.920089 C1.59928182,226.950673 1.6688725,219.942891 1.68279064,218.251837 C2.67097835,218.091779 3.87489718,217.903884 3.87489718,217.903884 L4.45249986,215.475169 C4.41770452,215.447333 0.924252181,212.809846 0.924252181,207.486158 C0.924252181,194.361355 14.7936755,193.992525 14.9328569,193.992525 C17.5633847,193.992525 24.5642075,193.992525 30.305439,202.733115 L37.0905307,213.095167 C38.4893034,215.252479 40.2569068,216.393766 42.1845687,216.393766 C44.9751552,216.393766 46.2277875,214.173823 46.2277875,211.967798 C46.2277875,209.156335 44.0983125,207.381772 40.7231644,207.047737 L40.7231644,197.325918 L55.6782024,197.325918 L55.6782024,207.674053 L53.5765637,207.674053 L52.6718848,210.290663 C53.813172,211.313646 56.3184366,214.807098 56.3184366,218.495404 C56.3184366,229.950031 46.7775539,230.840792 43.8477861,230.840792 Z" id="path3221" fill="#FFFFFF" fill-rule="nonzero"></path>
                        <path d="M83.4448853,145.10493 L72.331253,145.10493 L72.331253,141.263524 L12.810341,141.263524 L12.810341,145.10493 L1.69670877,145.10493 L1.69670877,124.770532 L12.810341,124.770532 L12.810341,128.611938 L39.2408828,128.611938 C42.5255631,128.611938 45.2048044,125.932697 45.2048044,122.648016 C45.2048044,119.370295 42.5255631,116.698013 39.2408828,116.698013 L1.69670877,116.698013 L1.69670877,100.205021 L12.810341,100.205021 L12.810341,104.039467 L41.293808,104.039467 C43.7990726,104.039467 56.3184366,104.644906 56.3184366,116.510118 C56.3184366,119.328541 55.9844014,122.383572 52.0246914,126.009246 L50.9808312,126.962639 L52.6370895,128.611938 L83.4448853,128.611938 L83.4448853,145.10493 Z M41.80182,92.8910397 L15.6983544,92.8910397 C1.64103623,92.8910397 0.924252181,82.6124957 0.924252181,80.5456524 C0.924252181,78.7014993 2.33694307,72.9602678 4.93963465,70.6985706 L4.05583296,68.3324874 L1.69670877,68.3324874 L1.69670877,51.8325362 L12.810341,51.8325362 L12.810341,55.6669829 L44.6898333,55.6669829 L44.6898333,51.8325362 L55.5529391,51.8325362 L55.5529391,68.2837739 C54.3003068,68.2489785 52.7205983,68.2002651 52.7205983,68.2002651 L51.9133463,70.9212608 C54.0915348,72.4105014 56.3184366,74.6165261 56.3184366,79.6618507 C56.3184366,83.6354788 54.9057458,92.8910397 41.80182,92.8910397 Z M18.001806,80.2464125 L39.2408828,80.2464125 C42.5255631,80.2464125 45.2048044,77.5741302 45.2048044,74.2824908 C45.2048044,71.0047696 42.5255631,68.3324874 39.2408828,68.3324874 L18.001806,68.3324874 C14.7171257,68.3324874 12.0448435,71.0047696 12.0448435,74.2824908 C12.0448435,77.5741302 14.7171257,80.2464125 18.001806,80.2464125 Z M55.5529391,21.7484835 L44.4323478,21.7484835 L44.4323478,17.9140368 L18.001806,17.9140368 C14.7171257,17.9140368 12.0448435,20.5863191 12.0448435,23.8709994 C12.0448435,27.1556796 14.7171257,29.8279619 18.001806,29.8279619 L55.5529391,29.8279619 L55.5529391,46.3139949 L44.4323478,46.3139949 L44.4323478,42.4865073 L15.9488809,42.4865073 C13.4436162,42.4865073 0.924252181,41.8741093 0.924252181,30.0088977 C0.924252181,27.190475 1.25828746,24.142403 5.22495645,20.5028102 L4.30635942,17.9140368 L1.69670877,17.9140368 L1.69670877,1.41408562 L12.810341,1.41408562 L12.810341,5.26245045 L55.5529391,5.26245045 L55.5529391,21.7484835 Z" id="path3225" fill="#FFFFFF" fill-rule="nonzero"></path>
                        <path d="M50.7094623,828.464639 L51.0156613,831.129962 L55.5529739,831.129962 L55.5529739,847.497691 L44.4323826,847.497691 L44.4323826,843.781549 L12.8103758,843.781549 L12.8103758,847.622955 L1.57148034,847.622955 L1.57148034,824.477093 L12.8103758,824.477093 L12.8103758,831.129962 L46.1582316,831.129962 L46.5340213,828.228031 C43.5972944,827.358147 41.620919,824.894637 41.620919,822.104051 C41.620919,818.471417 44.9125583,815.527731 48.9696952,815.527731 C53.019873,815.527731 56.3184714,818.471417 56.3184714,822.104051 C56.3184714,825.082532 54.0150198,827.699142 50.7094623,828.464639" id="path3229" fill="#FFFFFF"></path>
                        <polygon id="path3231" fill="#50B848" points="102.123046 0.238072656 115.289603 0.238072656 115.289603 886.482392 102.123046 886.482392 102.123046 0.238072656"></polygon>
                    </g>
                </g>
            </g>
        </g>
    </g>
</svg>