<svg xmlns="http://www.w3.org/2000/svg" xmlns:xlink="http://www.w3.org/1999/xlink" viewBox="0 0 113.11 28.9"><defs><style>.cls-1,.cls-5{fill:none;}.cls-2{fill:#fff;}.cls-3{fill:#e30613;}.cls-4{clip-path:url(#clip-path);}.cls-5{stroke:#1d1d1b;stroke-width:0.6px;}.cls-6{clip-path:url(#clip-path-2);}</style><clipPath id="clip-path" transform="translate(-0.66 -0.91)"><rect class="cls-1" x="0.96" y="1.21" width="16.43" height="16.43"/></clipPath><clipPath id="clip-path-2" transform="translate(-0.66 -0.91)"><rect class="cls-1" x="-189.12" y="-42.83" width="453.54" height="113.39"/></clipPath></defs><title>SR_Logo_3D_44mm_weiss_O39_mitA_ND</title><g id="ApoA"><rect class="cls-2" x="0.3" y="0.3" width="16.43" height="16.43"/><polygon class="cls-3" points="9.71 1.06 4.85 3.25 4.85 7.39 3.08 7.39 3.08 11.15 4.92 11.15 4.92 11.85 4.25 11.48 1.04 13.72 5.55 15.93 8.43 13.81 8.43 11.19 10.2 11.19 10.2 13.72 13.35 15.94 15.42 12.5 15.42 12.48 13.72 11.45 13.72 3.77 9.71 1.06"/><polygon class="cls-2" points="8.47 4.33 10.18 5.48 10.18 7.46 8.47 7.46 8.47 4.33"/><g class="cls-4"><path class="cls-2" d="M5.74,8.69C5.83,7.1,7.5,6.39,8.42,7.48l-.32.27c-.87-.87-1.92.06-1.94.94H10c.1.08-.11.16-.11.16H4.45s-.22-.07-.11-.16h1.4" transform="translate(-0.66 -0.91)"/><path class="cls-2" d="M8.41,7.46a1.1,1.1,0,0,1,.26.92s-.08-.17-.14-.25S8.45,8,8.42,8l0,0s.19.46.11.47-.28-.67-.39-.75l.31-.28" transform="translate(-0.66 -0.91)"/><path class="cls-3" d="M8.53,8a.07.07,0,1,0,0-.14.07.07,0,0,0,0,.14" transform="translate(-0.66 -0.91)"/><path class="cls-2" d="M6.81,9.91A3.65,3.65,0,0,0,9.74,9H4.61a3.48,3.48,0,0,0,1.53.81,3.5,3.5,0,0,0,1,.93v.9c-.61.32-.41.85-.38.77s0-.16.38-.33v.1h.12V10.82l.11.11v1.23h.13v-.34c1.15-.54.16-1.21.16-1.21l-.83-.7" transform="translate(-0.66 -0.91)"/><path class="cls-3" d="M6,8.69c0-1.11,1.2-1.85,2-1.2l.1-.1a1.44,1.44,0,0,0-2.24,1.3H6" transform="translate(-0.66 -0.91)"/><path class="cls-2" d="M6.6,12.56a1.16,1.16,0,0,1,1.45,0H6.6" transform="translate(-0.66 -0.91)"/><path class="cls-2" d="M6.5,12.67H8.14a.14.14,0,0,1,0,.13H6.46a.32.32,0,0,1,0-.13" transform="translate(-0.66 -0.91)"/><path class="cls-3" d="M7.11,11.79v.14l-.18.1c-.18.22-.06-.06-.06-.06s.16-.18.24-.18" transform="translate(-0.66 -0.91)"/><path class="cls-3" d="M7.47,11v.39c.34-.17,0-.39,0-.39" transform="translate(-0.66 -0.91)"/><path class="cls-3" d="M7.47,11.52c.54-.23.12-.59.12-.59a10.06,10.06,0,0,1-1.23-1.1l.25.07.57.52.49.38c.38.32.28.67-.2.87v-.15" transform="translate(-0.66 -0.91)"/><polygon class="cls-2" points="6.46 9.18 6.57 9.18 6.57 9.37 6.46 9.28 6.46 9.18"/><polygon class="cls-2" points="6.7 9.18 6.81 9.18 6.81 9.57 6.7 9.48 6.7 9.18"/><polygon class="cls-3" points="8.57 27.77 8.57 28.39 7.89 28.9 6.81 28.37 7.58 27.84 7.74 27.92 7.74 27.75 7.3 27.75 7.3 26.86 7.72 26.86 7.72 25.87 8.88 25.34 9.84 25.99 9.84 27.83 10.25 28.07 9.75 28.9 9 28.37 9 27.77 8.57 27.77"/><polygon class="cls-2" points="8.59 26.13 8.99 26.4 8.99 26.87 8.59 26.87 8.59 26.13"/><path class="cls-2" d="M8.43,27.86c0-.38.42-.55.64-.29L9,27.64c-.21-.21-.46,0-.47.22h.92s0,0,0,0H8.12s0,0,0,0h.33" transform="translate(-0.66 -0.91)"/><path class="cls-2" d="M9.07,27.57a.25.25,0,0,1,.06.22s0,0,0-.06l0,0h0s0,.11,0,.11S9,27.65,9,27.63l.08-.06" transform="translate(-0.66 -0.91)"/><path class="cls-3" d="M9.1,27.7a0,0,0,0,0,0,0h0a0,0,0,0,0,0,0" transform="translate(-0.66 -0.91)"/><path class="cls-2" d="M8.69,28.15a.87.87,0,0,0,.7-.22H8.16a.86.86,0,0,0,.37.19.75.75,0,0,0,.23.23v.21c-.14.08-.1.2-.09.18s0,0,.09-.07v0h0v-.32l0,0v.3h0v-.08c.27-.13,0-.29,0-.29l-.2-.17" transform="translate(-0.66 -0.91)"/><path class="cls-3" d="M8.5,27.86A.32.32,0,0,1,9,27.57l0,0c-.23-.18-.52,0-.53.31h0" transform="translate(-0.66 -0.91)"/><path class="cls-2" d="M8.64,28.79a.25.25,0,0,1,.34,0H8.64" transform="translate(-0.66 -0.91)"/><path class="cls-2" d="M8.61,28.81H9a.08.08,0,0,1,0,0H8.6a.1.1,0,0,1,0,0" transform="translate(-0.66 -0.91)"/><path class="cls-3" d="M8.76,28.6v0l0,0c-.05.05,0,0,0,0s0,0,.06,0" transform="translate(-0.66 -0.91)"/><path class="cls-3" d="M8.84,28.41v.09c.08,0,0-.09,0-.09" transform="translate(-0.66 -0.91)"/><path class="cls-3" d="M8.84,28.54c.13-.06,0-.14,0-.14s-.29-.23-.29-.27l.06,0,.14.12.11.09c.09.08.07.16,0,.21v0" transform="translate(-0.66 -0.91)"/><polygon class="cls-2" points="8.11 27.29 8.13 27.28 8.13 27.33 8.11 27.31 8.11 27.29"/><polygon class="cls-2" points="8.16 27.29 8.19 27.29 8.19 27.38 8.16 27.36 8.16 27.29"/></g><rect class="cls-5" x="0.3" y="0.3" width="16.43" height="16.43"/></g><g id="Ebene_3" data-name="Ebene 3"><g class="cls-6"><path class="cls-2" d="M82.53,20.94h.91l.38,0a1.29,1.29,0,0,1,.35.1.64.64,0,0,1,.24.22.81.81,0,0,1,0,.8.67.67,0,0,1-.28.22,1.42,1.42,0,0,1-.38.08H82.53Zm-1.39,5.23h1.39V23.6h.68l1.32,2.57h1.66l-1.6-2.72a1.55,1.55,0,0,0,1-.6A1.92,1.92,0,0,0,86,21.69a2.07,2.07,0,0,0-.19-.94,1.55,1.55,0,0,0-.51-.59,2.08,2.08,0,0,0-.76-.32,3.85,3.85,0,0,0-.91-.1H81.14Zm-7,0h4.44V24.86h-3V23.55h2.73v-1.3H75.53v-1.2h2.89V19.74H74.14Zm-6-2.66h1l.37,0a1.07,1.07,0,0,1,.36.1.65.65,0,0,1,.28.21.54.54,0,0,1,.11.37.75.75,0,0,1-.08.35.73.73,0,0,1-.22.24.79.79,0,0,1-.3.12,1.22,1.22,0,0,1-.32,0H68.18Zm0-2.57h.95l.32,0a1,1,0,0,1,.31.11.45.45,0,0,1,.21.2.58.58,0,0,1,.09.33.67.67,0,0,1-.08.33.6.6,0,0,1-.2.22.78.78,0,0,1-.28.11,1.1,1.1,0,0,1-.31,0h-1ZM66.8,26.17h2.57a4,4,0,0,0,.84-.09,2.38,2.38,0,0,0,.77-.3,1.8,1.8,0,0,0,.55-.55,1.6,1.6,0,0,0,.21-.85,1.57,1.57,0,0,0-.1-.58,1.44,1.44,0,0,0-.28-.48,1.41,1.41,0,0,0-.43-.33,1.73,1.73,0,0,0-.57-.18v0a1.6,1.6,0,0,0,.79-.51,1.36,1.36,0,0,0,.3-.9,1.53,1.53,0,0,0-.21-.85,1.39,1.39,0,0,0-.53-.49A2.22,2.22,0,0,0,70,19.8a5.79,5.79,0,0,0-.83-.06H66.8Zm-7.18,0h4.44V24.86H61V23.55h2.73v-1.3H61v-1.2H63.9V19.74H59.62Zm-2.75-3.81H54.4v1.3h1.13v1.05a3.08,3.08,0,0,1-.52.21,2.62,2.62,0,0,1-.79.1,2.07,2.07,0,0,1-.8-.15,1.82,1.82,0,0,1-.62-.43,1.94,1.94,0,0,1-.39-.65,2.28,2.28,0,0,1-.14-.84,2.21,2.21,0,0,1,.14-.82,1.89,1.89,0,0,1,.39-.66,1.82,1.82,0,0,1,.62-.43,2.07,2.07,0,0,1,.8-.15,2.26,2.26,0,0,1,.89.15,1.87,1.87,0,0,1,.64.45l1-1.09a2.81,2.81,0,0,0-1.11-.64,5.16,5.16,0,0,0-1.4-.18,4,4,0,0,0-1.36.23,3.21,3.21,0,0,0-1.07.68,3.08,3.08,0,0,0-.71,1.07,4,4,0,0,0,0,2.79,3.08,3.08,0,0,0,.71,1.07,3,3,0,0,0,1.07.67,3.78,3.78,0,0,0,1.36.24,6.92,6.92,0,0,0,1.37-.14,5.09,5.09,0,0,0,1.28-.48ZM46.19,26.17h1.39V21h1.79V19.74h-5V21h1.8Zm-5-2.56H39.64l.77-2Zm-4,2.56h1.53l.53-1.36h2.44l.54,1.36h1.57L41,19.74H39.87Zm-5.21-5.23h.9l.39,0a1.13,1.13,0,0,1,.34.1.74.74,0,0,1,.24,1,.74.74,0,0,1-.28.22,1.42,1.42,0,0,1-.38.08H31.94Zm-1.39,5.23h1.39V23.6h.68l1.32,2.57H35.6L34,23.45a1.52,1.52,0,0,0,1-.6,1.92,1.92,0,0,0,.35-1.16,2.07,2.07,0,0,0-.19-.94,1.5,1.5,0,0,0-.52-.59,2,2,0,0,0-.75-.32,3.85,3.85,0,0,0-.91-.1H30.55Z" transform="translate(-0.66 -0.91)"/><path class="cls-2" d="M101.72,11.11c0,.58,0,2.14-.06,2.7l-.16,2.89a3.29,3.29,0,0,1,.81-.12c.29,0,.7.1.92.12-.14-1.91-.16-2.12-.18-3.33,0-2.2-.06-3.72-.06-6.55,2.16,2,7.17,7.12,9.76,10a2.1,2.1,0,0,1,.43,0,2.17,2.17,0,0,1,.41,0c0-.52,0-1.61,0-2.06,0-1.09,0-4.08,0-5.29,0-3,0-4.51.23-7a2.88,2.88,0,0,1-.86.13,3,3,0,0,1-.87-.13c.14,1.71.24,3.5.24,5.27v4.61c-.45-.37-.63-.52-1-.89L108.86,9c-2.47-2.46-4.28-4.39-6.22-6.58a2.5,2.5,0,0,1-.47,0,2.81,2.81,0,0,1-.49,0c0,1.94,0,3.89,0,5.85ZM94.66,3.72c1.87,0,2.08,0,2.83,0l1.92.1a2.63,2.63,0,0,1,0-1.44c-1.47,0-2.81.13-3.75.13-1.1,0-2.69-.06-3.69-.13.14,2.08.18,6.1.18,7s0,3.5-.08,4.7c0,.87-.06,1.73-.1,2.6,1.3-.08,2.59-.12,3.81-.12s2.53,0,3.75.12a2.13,2.13,0,0,1-.1-.75,1.65,1.65,0,0,1,.1-.68c-1.73.08-4.34.14-4.87.14V9.78c.94,0,1.89,0,2.83,0,.51,0,1,.06,1.57.1a2.06,2.06,0,0,1-.1-.71,2.6,2.6,0,0,1,.1-.74c-1.08.12-3.36.14-4.4.14ZM85.37,9.63c1.85-.35,3.54-1.54,3.54-3.85A3.29,3.29,0,0,0,88,3.45a4.16,4.16,0,0,0-3.2-1c-.47,0-2.84.11-3.37.11a16.19,16.19,0,0,1-2-.11c.14,2.69.14,3,.14,5.7,0,4,0,4.47-.19,8.57a10.87,10.87,0,0,1,1.41-.12,13,13,0,0,1,1.37.12c0-.54-.08-3.22-.08-3.83V9.92h.48c1.1,1.58,2.37,3.41,3.41,5.05.3.48.75,1.25,1.06,1.73a9.7,9.7,0,0,1,1.65-.12,15.52,15.52,0,0,1,1.81.12C89.16,15.06,88.61,14.33,87,12c-.31-.44-.76-1.12-1.06-1.56ZM82,3.56c.3,0,1.06-.11,1.44-.11a3.11,3.11,0,0,1,1.9.52,2.45,2.45,0,0,1,.85,2.17A2.66,2.66,0,0,1,83.43,9c-.53,0-1,0-1.4-.07ZM69.4,2.27c-4.12,0-7.67,2.33-7.67,7.61,0,4.55,3.37,7.11,7.61,7.11,4.52,0,7.6-3,7.6-7.61,0-5-3.73-7.11-7.54-7.11M64.53,9.63c0-2.85,1.3-6.3,4.81-6.3s4.81,2.91,4.81,6.3c0,3-1.35,6.3-4.81,6.3s-4.81-3.2-4.81-6.3M56.74,7.24c0,3.55,0,7-.22,9.46.45,0,1-.12,1.47-.12s.95.1,1.42.12c-.16-1.68-.2-3.93-.2-7,0-2.1,0-5.7.22-7.24A10.69,10.69,0,0,1,58,2.56c-.31,0-1.06-.08-1.45-.13a44.82,44.82,0,0,1,.2,4.81M41.48,11.11c0,.58,0,2.14-.06,2.7l-.17,2.89a3.37,3.37,0,0,1,.82-.12c.28,0,.69.1.92.12-.15-1.91-.17-2.12-.19-3.33,0-2.2-.06-3.72-.06-6.55,2.16,2,7.18,7.12,9.76,10a2.18,2.18,0,0,1,.43,0,2.08,2.08,0,0,1,.41,0c0-.52,0-1.61,0-2.06,0-1.09,0-4.08,0-5.29,0-3,0-4.51.22-7a2.81,2.81,0,0,1-.85.13,3,3,0,0,1-.88-.13c.14,1.71.24,3.5.24,5.27v4.61c-.44-.37-.63-.52-1-.89L48.61,9c-2.47-2.46-4.28-4.39-6.22-6.58a2.4,2.4,0,0,1-.46,0,2.63,2.63,0,0,1-.49,0c0,1.94,0,3.89,0,5.85ZM34.41,3.72c1.88,0,2.08,0,2.84,0l1.91.1a2.63,2.63,0,0,1,0-1.44c-1.47,0-2.81.13-3.75.13-1.1,0-2.69-.06-3.69-.13.15,2.08.19,6.1.19,7s0,3.5-.09,4.7c0,.87-.06,1.73-.1,2.6,1.31-.08,2.59-.12,3.81-.12s2.53,0,3.75.12a2.13,2.13,0,0,1-.1-.75,1.65,1.65,0,0,1,.1-.68c-1.73.08-4.34.14-4.87.14V9.78c.94,0,1.9,0,2.84,0,.51,0,1,.06,1.57.1a1.81,1.81,0,0,1-.11-.71,2.26,2.26,0,0,1,.11-.74c-1.08.12-3.37.14-4.41.14ZM20.88,13.58a8.71,8.71,0,0,1-.46,2.35A8,8,0,0,0,24.23,17c3.73,0,5.17-2.43,5.17-4.55a4.23,4.23,0,0,0-1-2.75c-.6-.66-1.21-.89-2.78-1.52-1.79-.7-2.83-1.12-2.83-2.64a2.18,2.18,0,0,1,2.41-2.24A2.55,2.55,0,0,1,27.88,5.1h.28a9.55,9.55,0,0,1,.63-2,7.22,7.22,0,0,0-3.38-.85c-3.69,0-4.75,2.33-4.75,4.16s.59,2.78,2.57,3.68c.57.25,1.53.62,2.1.87a2.58,2.58,0,0,1-1,5c-1.2,0-2.22-.31-3.16-2.39Z" transform="translate(-0.66 -0.91)"/></g></g></svg>