
<svg width="61px" height="61px" viewBox="0 0 61 61" version="1.1" xmlns="http://www.w3.org/2000/svg" xmlns:xlink="http://www.w3.org/1999/xlink">
    <g id="Page-1" stroke="none" stroke-width="1" fill="none" fill-rule="evenodd">
        <g id="Group-20" transform="translate(1.000000, 1.000000)" stroke="#464646" stroke-linecap="round" stroke-linejoin="round" stroke-width="2">
            <g id="Group-18-Copy">
                <g id="5f90456225840218ab61f4b0_bright_house-copy-18">
                    <polyline id="Path_1679" points="50.707 33.805 50.707 58.22 6.573 58.22 6.573 32.866"></polyline>
                    <polygon id="Path_1680" points="29.11 0 0 20.659 0 28.171 7.512 28.171 7.512 24.415 29.112 8.921 50.712 24.415 50.712 29.115 58.224 29.115 58.224 20.664"></polygon>
                    <polyline id="Path_1681" points="41 2.817 41 0 50.39 0 50.39 11.268"></polyline>
                </g>
            </g>
        </g>
        <path d="M30.8789743,51.2973763 L20.4282806,41.9268292 C17.1459323,38.9837315 16.8709154,33.9370104 19.8140131,30.6546621 C20.9026232,29.4405681 22.3369513,28.5889974 23.9240413,28.2145093 C23.9240413,28.2145093 23.9240413,28.2145093 23.9240413,28.2145093 C26.084428,27.7047467 28.402739,28.7375632 30.8789743,31.3129587 C32.4302776,28.5423151 34.7046607,27.5094986 37.7021234,28.2145093 C37.7021234,28.2145093 37.7021234,28.2145093 37.7021234,28.2145093 L37.7021234,28.2145093 C42.0296451,29.2323532 44.7126691,33.5656282 43.6948252,37.89315 C43.3168852,39.5000207 42.4540621,40.9518475 41.2232869,42.0518768 L30.8789743,51.2973763 Z" id="Path-40" stroke="#D4BB9F" stroke-width="2"></path>
    </g>
</svg>