<?xml version="1.0" encoding="utf-8"?>
<!-- Generator: Adobe Illustrator 17.0.0, SVG Export Plug-In . SVG Version: 6.00 Build 0)  -->
<!DOCTYPE svg PUBLIC "-//W3C//DTD SVG 1.1//EN" "http://www.w3.org/Graphics/SVG/1.1/DTD/svg11.dtd">
<svg version="1.1" id="Layer_1" xmlns="http://www.w3.org/2000/svg" xmlns:xlink="http://www.w3.org/1999/xlink" x="0px" y="0px"
	 width="210px" height="172px" viewBox="0 0 210 172" enable-background="new 0 0 210 172" xml:space="preserve">
<g transform="translate(-446.317 -6056.847)">
	<g transform="translate(461.538 6059.114)">
		<path fill="none" stroke="#D4BB9F" stroke-width="3" stroke-linecap="round" stroke-linejoin="round" d="M71.128,25.915
			c0.632-5.149,0.824-10.7-1.661-15.425c-2.409-4.253-6.351-7.425-11.021-8.868c-5.198-1.74-10.821-1.74-16.019,0
			c-4.67,1.443-8.612,4.615-11.021,8.868c-2.485,4.728-2.293,10.276-1.661,15.425c1.169,9.542,9.638,30.911,21.292,29.623
			S69.959,35.457,71.128,25.915z"/>
		<g transform="translate(24.544 49.086)">
			
				<line fill="none" stroke="#D4BB9F" stroke-width="3" stroke-linecap="round" stroke-linejoin="round" x1="15.139" y1="0.317" x2="15.139" y2="7.987"/>
			
				<line fill="none" stroke="#D4BB9F" stroke-width="3" stroke-linecap="round" stroke-linejoin="round" x1="36.614" y1="0.317" x2="36.614" y2="7.987"/>
		</g>
		<path fill="none" stroke="#D4BB9F" stroke-width="3" stroke-linecap="round" stroke-linejoin="round" d="M18.224,66.275
			c4.109-1.825,21.459-9.2,21.459-9.2"/>
		<path fill="none" stroke="#D4BB9F" stroke-width="3" stroke-linecap="round" stroke-linejoin="round" d="M73.448,63.207
			c-4.108-1.825-11.84-5.369-11.84-5.369"/>
		<path fill="none" stroke="#D4BB9F" stroke-width="3" stroke-linecap="round" stroke-linejoin="round" d="M64.241,77.012"/>
		<path fill="none" stroke="#D4BB9F" stroke-width="3" stroke-linecap="round" stroke-linejoin="round" d="M56.571,77.013
			c0,0-0.014-3.077,4.586-19.941"/>
		<path fill="none" stroke="#D4BB9F" stroke-width="3" stroke-linecap="round" stroke-linejoin="round" d="M44.3,77.012
			c0,0-0.018-3.454-4.617-20.318"/>
		<path fill="none" stroke="#D4BB9F" stroke-width="3" stroke-linecap="square" stroke-linejoin="round" d="M36.615,21.792
			l4.6,0.015v-7.36l9.2,7.345H64.22"/>
		<path fill="none" stroke="#D4BB9F" stroke-width="3" stroke-linecap="round" stroke-linejoin="round" d="M58.105,69.343
			c-4.908,2.045-10.431,2.045-15.339,0"/>
		<path fill="none" stroke="#D4BB9F" stroke-width="3" stroke-linecap="round" stroke-linejoin="round" d="M33.547,1.972
			c-1.863-1.085-3.981-1.656-6.137-1.655l0,0c-6.769,0.02-12.251,5.502-12.271,12.271v35.28c0,0,6.136,1.534,7.67-3.068"/>
	</g>
	<g transform="translate(515.787 6095.977)">
		
			<line fill="none" stroke="#D4BB9F" stroke-width="3" stroke-linecap="round" stroke-linejoin="round" x1="64.141" y1="47.188" x2="48.162" y2="39.731"/>
		
			<line fill="none" stroke="#D4BB9F" stroke-width="3" stroke-linecap="round" stroke-linejoin="round" x1="15.139" y1="47.188" x2="30.784" y2="40.26"/>
		<g transform="translate(15.979 39.414)">
			<path fill="none" stroke="#D4BB9F" stroke-width="3" stroke-linecap="round" stroke-linejoin="round" d="M20.465,5.644
				c-2.577-0.735-4.592-2.75-5.326-5.327"/>
			<path fill="none" stroke="#D4BB9F" stroke-width="3" stroke-linecap="round" stroke-linejoin="round" d="M26.857,5.644
				c2.577-0.735,4.592-2.75,5.326-5.327"/>
			<path fill="none" stroke="#D4BB9F" stroke-width="3" stroke-linecap="round" stroke-linejoin="round" d="M36.443,2.448"/>
			<path fill="none" stroke="#D4BB9F" stroke-width="3" stroke-linecap="round" stroke-linejoin="round" d="M20.465,5.644
				c2.086,0.618,4.306,0.618,6.392,0"/>
		</g>
		<g transform="translate(9.848)">
			<path fill="none" stroke="#D4BB9F" stroke-width="3" stroke-linecap="round" stroke-linejoin="round" d="M44.162,18.093
				c0.437-3.576,0.572-7.429-1.155-10.713c-1.673-2.953-4.411-5.156-7.654-6.157c-3.609-1.209-7.515-1.209-11.124,0
				c-3.243,1.002-5.98,3.204-7.653,6.157c-1.727,3.284-1.592,7.137-1.155,10.713c0.813,6.628,1.855,19.347,14.371,19.347
				S43.355,24.675,44.162,18.093z"/>
			<g transform="translate(6.13 35.153)">
				
					<line fill="none" stroke="#D4BB9F" stroke-width="3" stroke-linecap="round" stroke-linejoin="round" x1="15.139" y1="0.317" x2="15.139" y2="4.578"/>
				
					<line fill="none" stroke="#D4BB9F" stroke-width="3" stroke-linecap="round" stroke-linejoin="round" x1="32.183" y1="0.317" x2="32.183" y2="4.578"/>
			</g>
			<path fill="none" stroke="#D4BB9F" stroke-width="3" stroke-linecap="round" stroke-linejoin="round" d="M43.641,15.231
				c0,0-1.16-4.585-5.327-3.2c-3.2,1.066-4.261,3.2-8.522,3.2s-5.326-2.131-8.521-3.2c-4.168-1.388-5.327,3.2-5.327,3.2"/>
		</g>
	</g>
	<g transform="translate(449 6154.776)">
		<path fill="none" stroke="#464646" stroke-width="4" stroke-linecap="round" stroke-linejoin="round" d="M15.139,25.627L32,17.21
			l28.122,44.995l-14.048,8.417"/>
		<path fill="none" stroke="#464646" stroke-width="4" stroke-linecap="round" stroke-linejoin="round" d="M88.256,22.815
			l33.714-0.02c6.207,0.001,11.238-5.03,11.239-11.237c0-0.001,0-0.001,0-0.002l0,0c0-6.207-5.032-11.239-11.239-11.239h0H78.209
			c-4.471,0-8.863,1.184-12.727,3.433L34.758,21.623"/>
		<path fill="none" stroke="#464646" stroke-width="4" stroke-linecap="round" stroke-linejoin="round" d="M125.991,22.049
			l47.953-20.8c5.74-2.361,12.309,0.359,14.7,6.086l0,0c2.36,5.74-0.36,12.308-6.087,14.7l-49.694,23.866
			c-3.471,1.471-7.202,2.229-10.972,2.229H76.116c-2.004,0-3.972,0.536-5.7,1.552l-13.253,7.794"/>
	</g>
	<g transform="translate(560.539 6058.347)">
		
			<line fill="none" stroke="#D4BB9F" stroke-width="3" stroke-linecap="round" stroke-linejoin="round" x1="73.869" y1="69.044" x2="52.394" y2="59.841"/>
		
			<line fill="none" stroke="#D4BB9F" stroke-width="3" stroke-linecap="round" stroke-linejoin="round" x1="15.139" y1="63.897" x2="25.876" y2="59.295"/>
		<g transform="translate(37.825 59.822)">
			<path fill="none" stroke="#D4BB9F" stroke-width="3" stroke-linecap="round" stroke-linejoin="round" d="M22.809,20.258"/>
			<path fill="none" stroke="#D4BB9F" stroke-width="3" stroke-linecap="round" stroke-linejoin="round" d="M21.275,9.52"/>
			<path fill="none" stroke="#D4BB9F" stroke-width="3" stroke-linecap="round" stroke-linejoin="round" d="M15.139,0.317"/>
		</g>
		<g transform="translate(2.921)">
			<g transform="translate(8.828 52.153)">
				
					<line fill="none" stroke="#D4BB9F" stroke-width="3" stroke-linecap="round" stroke-linejoin="round" x1="15.139" y1="0.317" x2="15.139" y2="7.987"/>
				
					<line fill="none" stroke="#D4BB9F" stroke-width="3" stroke-linecap="round" stroke-linejoin="round" x1="39.681" y1="0.317" x2="39.681" y2="7.987"/>
			</g>
			<path fill="none" stroke="#D4BB9F" stroke-width="3" stroke-linecap="round" stroke-linejoin="round" d="M56.929,25.915
				c0.63-5.149,0.824-10.7-1.663-15.425c-2.408-4.254-6.351-7.426-11.021-8.868c-5.197-1.74-10.82-1.74-16.017,0
				c-4.67,1.442-8.613,4.614-11.021,8.868c-2.486,4.728-2.293,10.276-1.663,15.425c1.17,9.542-0.606,29.623,21.189,29.623
				S55.76,35.457,56.929,25.915z"/>
			<g transform="translate(1.158 27.61)">
				
					<line fill="none" stroke="#D4BB9F" stroke-width="3" stroke-linecap="round" stroke-linejoin="round" x1="19.741" y1="3.385" x2="15.139" y2="1.851"/>
				
					<line fill="none" stroke="#D4BB9F" stroke-width="3" stroke-linecap="round" stroke-linejoin="round" x1="50.419" y1="3.385" x2="55.021" y2="1.851"/>
				<path fill="none" stroke="#D4BB9F" stroke-width="3" stroke-linecap="round" stroke-linejoin="round" d="M21.741,0.318h8.271
					c1.105,0,2,0.895,2,2v3.67c0,1.105-0.895,2-2,2h-8.271c-1.105,0-2-0.895-2-2v-3.67C19.741,1.213,20.637,0.318,21.741,0.318z"/>
				<path fill="none" stroke="#D4BB9F" stroke-width="3" stroke-linecap="round" stroke-linejoin="round" d="M40.148,0.318h8.271
					c1.105,0,2,0.895,2,2v3.67c0,1.105-0.895,2-2,2h-8.271c-1.105,0-2-0.895-2-2v-3.67C38.148,1.213,39.044,0.318,40.148,0.318z"/>
				<path fill="none" stroke="#D4BB9F" stroke-width="3" stroke-linecap="round" stroke-linejoin="round" d="M32.012,3.385
					c0.005-1.692,1.376-3.063,3.068-3.068l0,0c1.692,0.005,3.063,1.376,3.068,3.068"/>
			</g>
			<path fill="none" stroke="#D4BB9F" stroke-width="3" stroke-linecap="square" stroke-linejoin="round" d="M22.433,20.258
				c15.339,0,18.407-3.068,19.941-7.67c0,0,0,7.67,7.67,7.67"/>
		</g>
		<g transform="translate(11.307 58.761)">
			<path fill="none" stroke="#D4BB9F" stroke-width="3" stroke-linecap="round" stroke-linejoin="round" d="M23.029,9.168
				c-6.312-1.77-7.89-8.851-7.89-8.851"/>
			<path fill="none" stroke="#D4BB9F" stroke-width="3" stroke-linecap="round" stroke-linejoin="round" d="M32.498,9.168
				c6.312-1.77,7.89-8.851,7.89-8.851"/>
			<path fill="none" stroke="#D4BB9F" stroke-width="3" stroke-linecap="round" stroke-linejoin="round" d="M46.701,3.857"/>
			<path fill="none" stroke="#D4BB9F" stroke-width="3" stroke-linecap="round" stroke-linejoin="round" d="M23.029,9.168
				c3.073,1.026,6.396,1.026,9.469,0"/>
		</g>
	</g>
</g>
</svg>
