<?xml version="1.0" encoding="utf-8"?>
<!-- Generator: Adobe Illustrator 17.0.0, SVG Export Plug-In . SVG Version: 6.00 Build 0)  -->
<!DOCTYPE svg PUBLIC "-//W3C//DTD SVG 1.1//EN" "http://www.w3.org/Graphics/SVG/1.1/DTD/svg11.dtd">
<svg version="1.1" id="Layer_1" xmlns="http://www.w3.org/2000/svg" xmlns:xlink="http://www.w3.org/1999/xlink" x="0px" y="0px"
	 width="164px" height="164px" viewBox="0 0 164 164" enable-background="new 0 0 164 164" xml:space="preserve">
<g id="Group_279" transform="translate(-402 -479)">
	<path id="Path_433" fill="none" stroke="#333333" stroke-width="4" stroke-linecap="round" stroke-linejoin="round" d="
		M535.483,601.083c-21.434,26.1-51.708,39.785-51.708,39.785s-30.257-13.69-51.689-39.779"/>
	<path id="Path_435" fill="none" stroke="#D2B593" stroke-width="4" stroke-linecap="round" stroke-linejoin="round" d="
		M542.909,590.908l-17.007-13.228v-30.424h-21.063v14.042l-21.063-14.042l-59.679,42.126"/>
	<path id="Path_436" fill="none" stroke="#D2B593" stroke-width="4" stroke-linecap="round" stroke-linejoin="round" d="
		M467.393,617.466v-16.382h32.765v16.382"/>
	<path id="Path_437" fill="none" stroke="#333333" stroke-width="4" stroke-linecap="round" stroke-linejoin="round" d="
		M423.761,589.489c-7.449-12.067-12.536-26.159-12.536-42.232c0-23.266,18.86-42.126,42.126-42.126
		c14.042,0,25.744,9.361,30.424,17.72c4.68-8.358,16.382-17.72,30.425-17.72c23.266,0,42.126,18.86,42.126,42.126
		c0,16.7-5.484,31.278-13.417,43.652"/>
</g>
</svg>
