<?xml version="1.0" encoding="utf-8"?>
<!-- Generator: Adobe Illustrator 17.0.0, SVG Export Plug-In . SVG Version: 6.00 Build 0)  -->
<!DOCTYPE svg PUBLIC "-//W3C//DTD SVG 1.1//EN" "http://www.w3.org/Graphics/SVG/1.1/DTD/svg11.dtd">
<svg version="1.1" id="Layer_1" xmlns="http://www.w3.org/2000/svg" xmlns:xlink="http://www.w3.org/1999/xlink" x="0px" y="0px"
	 width="160px" height="160px" viewBox="0 0 160 160" enable-background="new 0 0 160 160" xml:space="preserve">
<g id="Group_277" transform="translate(-1350.004 -457)">
	<path id="Path_425" fill="none" stroke="#D2B593" stroke-width="4" stroke-linecap="round" stroke-linejoin="round" d="
		M1398.842,536.208h4.355c2.33-1.116,13.064-6.532,13.064-6.532c1.9-4.289,7.2-15.468,8.444-19.967
		c0.786-2.835,0.528-6.9,0.227-9.526c-0.205-1.913,0.719-3.771,2.367-4.763c2.69-1.669,5.036-1.355,7.233,1.016
		c1.883,2.174,3.106,4.84,3.523,7.686c1.175,6.671,0.287,17.122-2.2,23.377h26.128c3.603,0.01,6.521,2.929,6.532,6.532l0,0
		c-0.01,3.603-2.929,6.522-6.532,6.532h-2.177c3.603,0.01,6.521,2.929,6.532,6.532l0,0c-0.01,3.603-2.929,6.522-6.532,6.532h-2.178
		c3.603,0.01,6.521,2.929,6.532,6.532l0,0c-0.01,3.603-2.929,6.522-6.532,6.532h-1.086c3.002,0.009,5.434,2.441,5.443,5.443l0,0
		c-0.009,3.003-2.441,5.434-5.443,5.443h-35.926l-13.064-4.355h-8.71"/>
	<path id="Path_426" fill="none" stroke="#D2B593" stroke-width="4" stroke-linecap="round" stroke-linejoin="round" d="
		M1370.536,527.498h28.305v54.434h-10.887"/>
	
		<circle id="Ellipse_12" fill="none" stroke="#D2B593" stroke-width="3" stroke-linecap="round" stroke-linejoin="round" cx="1382" cy="566" r="4"/>
	<path id="Path_427" fill="none" stroke="#333333" stroke-width="4" stroke-linecap="round" stroke-linejoin="round" d="
		M1488.113,595v-67.5h10.891v-17.421l-67.5-50.079l-67.5,50.079V527.5h10.887"/>
	<path id="Path_428" fill="none" stroke="#333333" stroke-width="4" stroke-linecap="round" stroke-linejoin="round" d="
		M1464.162,470.887v-6.532h23.951v23.951"/>
</g>
</svg>
