<?xml version="1.0" encoding="utf-8"?>
<!-- Generator: Adobe Illustrator 17.0.0, SVG Export Plug-In . SVG Version: 6.00 Build 0)  -->
<!DOCTYPE svg PUBLIC "-//W3C//DTD SVG 1.1//EN" "http://www.w3.org/Graphics/SVG/1.1/DTD/svg11.dtd">
<svg version="1.1" id="Layer_1" xmlns="http://www.w3.org/2000/svg" xmlns:xlink="http://www.w3.org/1999/xlink" x="0px" y="0px"
	 width="210px" height="172px" viewBox="0 0 210 172" enable-background="new 0 0 210 172" xml:space="preserve">
<g transform="translate(-178.2 -218.2)">
	<g transform="translate(222.031 221)">
		<path fill="none" stroke="#464646" stroke-width="4" stroke-linecap="round" stroke-linejoin="round" d="M108.371,36
			l-11.239,6.743c0,0-23.361-0.737-31.073-0.018c-4.651,0.432-15.123,5.109-20.363,7.564c-1.994,0.937-3.574,2.574-4.439,4.6
			l-8.739,20.4c0.242,2.573,1.427,4.966,3.327,6.719c3.376,3.354,10.823,2.1,13.448,0c3.806-3.066,11.875-16.789,11.875-16.789
			h20.23"/>
		<path fill="none" stroke="#464646" stroke-width="4" stroke-linecap="round" stroke-linejoin="round" d="M130.849,69.713
			c0,0-3.678-17.4-22.478-33.713l22.478-13.487"/>
		<path fill="none" stroke="#464646" stroke-width="4" stroke-linecap="round" stroke-linejoin="round" d="M117.362,98.937
			c0,0,4.653-7.242,5.79-11.36l7.7-4.374"/>
		<path fill="none" stroke="#D4BB9F" stroke-width="4" stroke-linecap="round" stroke-linejoin="round" d="M85.893,83.203
			l27.093,24.029c3.365,3.015,3.657,8.183,0.654,11.558l0,0c-3.021,3.354-8.187,3.63-11.547,0.616L79.15,101.185"/>
		<path fill="none" stroke="#D4BB9F" stroke-width="4" stroke-linecap="round" stroke-linejoin="round" d="M105.516,130.409
			c-0.329,0.649-0.743,1.251-1.232,1.789l0,0c-3.021,3.36-8.193,3.637-11.556,0.62l-18.074-13.65"/>
		<path fill="none" stroke="#D4BB9F" stroke-width="4" stroke-linecap="round" stroke-linejoin="round" d="M85.922,139.402
			c-3.062,1.694-6.861,1.269-9.472-1.061l-4.044-3.439"/>
	</g>
	<g transform="translate(181 221)">
		<path fill="none" stroke="#D4BB9F" stroke-width="4" stroke-linecap="round" stroke-linejoin="round" d="M32.517,22.513
			l26.973,20.23c0,0,15.4-3.214,29.221-2.248"/>
		<path fill="none" stroke="#D4BB9F" stroke-width="4" stroke-linecap="round" stroke-linejoin="round" d="M54.995,53.982
			c0,0-6.854,23.285-22.478,31.469c0,0,6.757,6.015,8.991,8.991"/>
		<g transform="translate(9.526 73.07)">
			<path fill="none" stroke="#464646" stroke-width="4" stroke-linecap="round" stroke-linejoin="round" d="M53.979,26.405
				c0.359,0.42,0.664,0.883,0.908,1.378c1.41,2.85,0.695,6.294-1.731,8.348l-8.108,6.06c-2.932,2.448-7.289,2.079-9.767-0.829
				l-1.142-1.4c-2.452-2.931-2.082-7.291,0.829-9.767l8.1-6.065c2.916-2.451,7.266-2.076,9.719,0.838L53.979,26.405z"/>
			<path fill="none" stroke="#464646" stroke-width="4" stroke-linecap="round" stroke-linejoin="round" d="M65.699,27.787
				c2.01,0.05,3.902,0.958,5.2,2.493l1.223,1.416c2.495,2.984,2.113,7.423-0.856,9.937l-13.113,10.41
				c-2.97,2.494-7.397,2.115-9.9-0.847l-1.218-1.461c-1.931-2.297-2.18-5.57-0.618-8.132"/>
			<path fill="none" stroke="#464646" stroke-width="4" stroke-linecap="round" stroke-linejoin="round" d="M83.679,36.989
				c0.781,0.422,1.477,0.986,2.052,1.663l1.236,1.488c2.529,3.013,2.147,7.504-0.856,10.045L71.437,62.217
				c-3.012,2.529-7.503,2.142-10.039-0.865l-1.241-1.488c-2.527-3.012-2.142-7.501,0.861-10.039"/>
			<path fill="none" stroke="#464646" stroke-width="4" stroke-linecap="round" stroke-linejoin="round" d="M93.642,55.248
				c2.398,2.862,2.03,7.124-0.823,9.533l-5.671,4.453c-2.847,2.397-7.099,2.031-9.495-0.816c-0.013-0.015-0.025-0.03-0.038-0.045
				L76.433,67c-2.396-2.853-2.025-7.108,0.828-9.504c0.012-0.01,0.025-0.021,0.037-0.031"/>
		</g>
	</g>
</g>
</svg>
