<?xml version="1.0" encoding="utf-8"?>
<!-- Generator: Adobe Illustrator 17.0.0, SVG Export Plug-In . SVG Version: 6.00 Build 0)  -->
<!DOCTYPE svg PUBLIC "-//W3C//DTD SVG 1.1//EN" "http://www.w3.org/Graphics/SVG/1.1/DTD/svg11.dtd">
<svg version="1.1" id="Layer_1" xmlns="http://www.w3.org/2000/svg" xmlns:xlink="http://www.w3.org/1999/xlink" x="0px" y="0px"
	 width="210px" height="172px" viewBox="0 0 210 172" enable-background="new 0 0 210 172" xml:space="preserve">
<g id="Group_215" transform="translate(-2447.991 -680)">
	<path id="Path_470" fill="none" stroke="#D2B593" stroke-width="4" stroke-linecap="round" stroke-linejoin="round" d="
		M2553.151,683.365l-62.268,41.512v16.141h16.144v-6.916l46.125-31.134l46.125,31.134v9.224h16.143v-18.449L2553.151,683.365z"/>
	<path id="Path_471" fill="none" stroke="#D2B593" stroke-width="4" stroke-linecap="round" stroke-linejoin="round" d="
		M2578.518,687.977v-4.612h20.759v18.45"/>
	
		<line id="Line_22" fill="none" stroke="#D2B593" stroke-width="4" stroke-linecap="round" stroke-linejoin="round" x1="2564.682" y1="811.9" x2="2542.196" y2="811.9"/>
	
		<line id="Line_23" fill="none" stroke="#D2B593" stroke-width="4" stroke-linecap="round" stroke-linejoin="round" x1="2507.026" y1="754.858" x2="2507.026" y2="771.001"/>
	
		<line id="Line_24" fill="none" stroke="#D2B593" stroke-width="4" stroke-linecap="round" stroke-linejoin="round" x1="2599.837" y1="754.858" x2="2599.837" y2="771.001"/>
	<g id="Group_216" transform="translate(2450.024 728.882)">
		<path id="Path_472" fill="none" stroke="#464646" stroke-width="4" stroke-linecap="round" stroke-linejoin="round" d="
			M97.361,112.527l-4.897-14.659l-42.404,9.784l3.265,13.027"/>
		<path id="Path_473" fill="none" stroke="#464646" stroke-width="4" stroke-linecap="round" stroke-linejoin="round" d="
			M56.592,68.496L37.053,48.934c-3.599-3.599-3.6-9.434-0.001-13.033c0,0,0.001-0.001,0.001-0.001l0,0
			c3.599-3.599,9.435-3.599,13.034,0l25.377,25.376c2.592,2.593,4.452,5.826,5.39,9.37l7.452,28.181"/>
		<path id="Path_474" fill="none" stroke="#464646" stroke-width="4" stroke-linecap="round" stroke-linejoin="round" d="
			M35.154,46.171L19.412,6.299c-1.96-4.697-7.346-6.928-12.053-4.992l0,0C2.662,3.267,0.431,8.653,2.367,13.36l14.976,42.657
			c1.16,2.865,2.884,5.468,5.07,7.653l26.543,26.543c1.163,1.163,1.994,2.615,2.407,4.207l3.166,12.2"/>
	</g>
	<g id="Group_217" transform="translate(2559.024 728.882)">
		<path id="Path_475" fill="none" stroke="#464646" stroke-width="4" stroke-linecap="round" stroke-linejoin="round" d="
			M-0.095,112.527l4.897-14.659l42.404,9.784l-3.265,13.027"/>
		<path id="Path_476" fill="none" stroke="#464646" stroke-width="4" stroke-linecap="round" stroke-linejoin="round" d="
			M40.675,68.496l19.539-19.562c3.599-3.599,3.599-9.435,0-13.034l0,0c-3.599-3.599-9.435-3.599-13.034,0L21.804,61.277
			c-2.593,2.593-4.452,5.826-5.39,9.37L8.962,98.828"/>
		<path id="Path_477" fill="none" stroke="#464646" stroke-width="4" stroke-linecap="round" stroke-linejoin="round" d="
			M62.112,46.171L77.854,6.299c1.96-4.697,7.346-6.928,12.053-4.992l0,0c4.697,1.96,6.928,7.346,4.992,12.053L79.922,56.017
			c-1.16,2.865-2.884,5.468-5.07,7.653L48.309,90.214c-1.163,1.163-1.994,2.615-2.407,4.207l-3.166,12.2"/>
	</g>
</g>
</svg>
