
<svg width="210px" height="38px" viewBox="0 0 210 38" version="1.1" xmlns="http://www.w3.org/2000/svg" xmlns:xlink="http://www.w3.org/1999/xlink">
    <g id="Page-1" stroke="none" stroke-width="1" fill="none" fill-rule="evenodd">
        <g id="stars">
            <g id="Group-2">
                <rect id="Rectangle" fill="#00B67A" x="0" y="0" width="38" height="38"></rect>
                <g id="Group" transform="translate(6.000000, 6.000000)" fill="#FFFFFF">
                    <path d="M18.4214623,15.1229843 L18.3898305,15 L14,19 L18.6242526,17.4946582 L21.0357538,25 L13.0047917,19.0988372 L4.96424622,25 L8.04054552,15.4554264 L0,9.54457364 L9.92849244,9.55426357 L13.0047917,0 L16.0715076,9.55426357 L26,9.55426357 L18.4214623,15.1229843 Z" id="Combined-Shape"></path>
                </g>
            </g>
            <g id="Group-2-Copy" transform="translate(43.000000, 0.000000)">
                <rect id="Rectangle" fill="#00B67A" x="0" y="0" width="38" height="38"></rect>
                <g id="Group" transform="translate(6.000000, 6.000000)" fill="#FFFFFF">
                    <path d="M18.4214623,15.1229843 L18.3898305,15 L14,19 L18.6242526,17.4946582 L21.0357538,25 L13.0047917,19.0988372 L4.96424622,25 L8.04054552,15.4554264 L0,9.54457364 L9.92849244,9.55426357 L13.0047917,0 L16.0715076,9.55426357 L26,9.55426357 L18.4214623,15.1229843 Z" id="Combined-Shape"></path>
                </g>
            </g>
            <g id="Group-2-Copy-2" transform="translate(86.000000, 0.000000)">
                <rect id="Rectangle" fill="#00B67A" x="0" y="0" width="38" height="38"></rect>
                <g id="Group" transform="translate(6.000000, 6.000000)" fill="#FFFFFF">
                    <path d="M18.4214623,15.1229843 L18.3898305,15 L14,19 L18.6242526,17.4946582 L21.0357538,25 L13.0047917,19.0988372 L4.96424622,25 L8.04054552,15.4554264 L0,9.54457364 L9.92849244,9.55426357 L13.0047917,0 L16.0715076,9.55426357 L26,9.55426357 L18.4214623,15.1229843 Z" id="Combined-Shape"></path>
                </g>
            </g>
            <g id="Group-2-Copy-3" transform="translate(129.000000, 0.000000)">
                <rect id="Rectangle" fill="#00B67A" x="0" y="0" width="38" height="38"></rect>
                <g id="Group" transform="translate(6.000000, 6.000000)" fill="#FFFFFF">
                    <path d="M18.4214623,15.1229843 L18.3898305,15 L14,19 L18.6242526,17.4946582 L21.0357538,25 L13.0047917,19.0988372 L4.96424622,25 L8.04054552,15.4554264 L0,9.54457364 L9.92849244,9.55426357 L13.0047917,0 L16.0715076,9.55426357 L26,9.55426357 L18.4214623,15.1229843 Z" id="Combined-Shape"></path>
                </g>
            </g>
            <g id="Group-2-Copy-4" transform="translate(172.000000, 0.000000)">
                <rect id="Rectangle" fill="#D8D8D8" x="0" y="0" width="38" height="38"></rect>
                <rect id="Rectangle" fill="#00B67A" x="0" y="0" width="19" height="38"></rect>
                <g id="Group" transform="translate(6.000000, 6.000000)" fill="#FFFFFF">
                    <path d="M18.4214623,15.1229843 L18.3898305,15 L14,19 L18.6242526,17.4946582 L21.0357538,25 L13.0047917,19.0988372 L4.96424622,25 L8.04054552,15.4554264 L0,9.54457364 L9.92849244,9.55426357 L13.0047917,0 L16.0715076,9.55426357 L26,9.55426357 L18.4214623,15.1229843 Z" id="Combined-Shape"></path>
                </g>
            </g>
        </g>
    </g>
</svg>