<?xml version="1.0" encoding="utf-8"?>
<!-- Generator: Adobe Illustrator 17.0.0, SVG Export Plug-In . SVG Version: 6.00 Build 0)  -->
<!DOCTYPE svg PUBLIC "-//W3C//DTD SVG 1.1//EN" "http://www.w3.org/Graphics/SVG/1.1/DTD/svg11.dtd">
<svg version="1.1" id="Layer_1" xmlns="http://www.w3.org/2000/svg" xmlns:xlink="http://www.w3.org/1999/xlink" x="0px" y="0px"
	 width="164px" height="164px" viewBox="0 0 164 164" enable-background="new 0 0 164 164" xml:space="preserve">
<g id="Group_275" transform="translate(-859.317 -457)">
	<g id="Group_153" transform="translate(877.213 459)">
		<g id="Group_152" transform="translate(0)">
			<path id="Path_418" fill="#FFFFFF" stroke="#333333" stroke-width="4" stroke-linecap="round" stroke-linejoin="round" d="
				M68.817,0.45L0.359,46.089v17.748h17.749v-7.606l50.71-34.229l50.709,34.229v10.142h17.749V46.089L68.817,0.45z"/>
			<path id="Path_419" fill="none" stroke="#333333" stroke-width="4" stroke-linecap="round" stroke-linejoin="round" d="
				M96.707,5.521V0.45h22.819v20.284"/>
		</g>
		
			<line id="Line_10" fill="none" stroke="#333333" stroke-width="4" stroke-linecap="round" stroke-linejoin="round" x1="18.107" y1="79.05" x2="18.107" y2="104.587"/>
		
			<line id="Line_11" fill="none" stroke="#333333" stroke-width="4" stroke-linecap="round" stroke-linejoin="round" x1="119.527" y1="81.585" x2="119.527" y2="98.916"/>
	</g>
	<path id="Path_430" fill="none" stroke="#D2B593" stroke-width="4" stroke-linecap="round" stroke-linejoin="round" d="
		M862.359,577.083l15.2-7.589l25.355,40.568l-12.667,7.589"/>
	<path id="Path_431" fill="none" stroke="#D2B593" stroke-width="4" stroke-linecap="round" stroke-linejoin="round" d="
		M928.282,573.547l30.4-0.018c5.596,0,10.133-4.537,10.133-10.133v0l0,0c0-5.596-4.537-10.133-10.133-10.133
		c-0.001,0-0.002,0-0.003,0h-39.456c-4.031,0-7.99,1.068-11.475,3.095l-27.7,16.115"/>
	<path id="Path_432" fill="none" stroke="#D2B593" stroke-width="4" stroke-linecap="round" stroke-linejoin="round" d="
		M962.468,572.985l43.072-17.886c5.175-2.125,11.094,0.327,13.25,5.489l0,0c2.126,5.175-0.326,11.095-5.489,13.251l-44.8,21.519
		c-3.129,1.326-6.493,2.009-9.891,2.009h-41.269c-1.808,0-3.583,0.483-5.141,1.4l-11.949,7.026"/>
</g>
</svg>
