<?xml version="1.0" encoding="UTF-8"?>
<svg id="Cog" xmlns="http://www.w3.org/2000/svg" viewBox="0 0 125.33 125.33"><defs><style>.cls-1{fill:#c52928;}</style></defs><title>icons</title><path class="cls-1" d="M65.24,46.08c0-3.67,2.26-6.57,5.66-8.56a30.93,30.93,0,0,0-2.42-5.85c-3.81,1-6.9-.49-9.49-3.09S55.6,22.9,56.6,19.09a30.12,30.12,0,0,0-5.86-2.42,11.09,11.09,0,0,1-9.25,5.65,11.09,11.09,0,0,1-9.25-5.65,29.78,29.78,0,0,0-5.85,2.42c1,3.81.2,6.9-2.4,9.49s-5.67,4.09-9.49,3.09a30.93,30.93,0,0,0-2.42,5.85c3.4,2,5.65,4.89,5.65,8.56a11.08,11.08,0,0,1-5.65,9.25,30.76,30.76,0,0,0,2.42,5.86c3.82-1,6.9-.21,9.49,2.38s3.39,5.69,2.4,9.5a31,31,0,0,0,5.85,2.42,11.09,11.09,0,0,1,9.25-5.66,11.1,11.1,0,0,1,9.26,5.66,31.6,31.6,0,0,0,5.85-2.42c-1-3.81-.2-6.9,2.39-9.5s5.68-4.08,9.5-3.09a31,31,0,0,0,2.42-5.85C67.5,52.64,65.24,49.74,65.24,46.08ZM41.49,58.86A12.79,12.79,0,1,1,54.28,46.08,12.79,12.79,0,0,1,41.49,58.86Z"/><path class="cls-1" d="M78.81,85.14a5.39,5.39,0,0,1,.06-5.51,16.1,16.1,0,0,0-2.8-1.94,5.09,5.09,0,0,1-5.19,1.37A4.9,4.9,0,0,1,67,75.47a16.19,16.19,0,0,0-3.35.62,5.6,5.6,0,0,1-8.36,5.4,16.94,16.94,0,0,0-1.93,2.79,4.92,4.92,0,0,1,1.68,5,5.1,5.1,0,0,1-3.38,4.17,17,17,0,0,0,.61,3.35A5.36,5.36,0,0,1,57.35,99a6,6,0,0,1,.15,5.83,17.27,17.27,0,0,0,2.8,1.94,5.13,5.13,0,0,1,8.83,1.9,16.28,16.28,0,0,0,3.36-.62,5.58,5.58,0,0,1,8.35-5.39,16.56,16.56,0,0,0,1.94-2.81,4.93,4.93,0,0,1-1.69-5,5.13,5.13,0,0,1,3.39-4.17,16.31,16.31,0,0,0-.62-3.35A5.37,5.37,0,0,1,78.81,85.14Zm-7,12.71a6.88,6.88,0,1,1,2-9.51A6.87,6.87,0,0,1,71.81,97.85Z"/><path class="cls-1" d="M108.84,62.86c.28-2.43,2-4.17,4.41-5.22a20.83,20.83,0,0,0-1.15-4.07c-2.6.37-4.53-.86-6-2.78a6.11,6.11,0,0,1-.85-6.47,19.82,19.82,0,0,0-3.69-2.06,6.93,6.93,0,0,1-12.25-1.44A20.71,20.71,0,0,0,85.21,42a6.09,6.09,0,0,1-2.33,6.1c-1.92,1.52-4.07,2.27-6.52,1.31a20.48,20.48,0,0,0-2.06,3.69c2.09,1.58,3.36,3.67,3.08,6.11a7.43,7.43,0,0,1-4.47,5.69,20.73,20.73,0,0,0,1.15,4.06,6.36,6.36,0,0,1,7,8.79,20.46,20.46,0,0,0,3.69,2.07A6.92,6.92,0,0,1,97,81.22,20.85,20.85,0,0,0,101,80.06a6.1,6.1,0,0,1,2.32-6.1c1.92-1.51,4.08-2.26,6.53-1.3A21.4,21.4,0,0,0,111.93,69C109.83,67.38,108.55,65.29,108.84,62.86ZM92.12,69.48A8.53,8.53,0,1,1,101.58,62,8.52,8.52,0,0,1,92.12,69.48Z"/></svg>