<?xml version="1.0" encoding="UTF-8"?>
<svg id="Cog" xmlns="http://www.w3.org/2000/svg" viewBox="0 0 125.33 125.33"><defs><style>.cls-1{fill:#d70027;}</style></defs><title>icons</title><path class="cls-1" d="M90.91,26.38H82.84a4,4,0,0,0-4,4V99H94.94V30.41A4,4,0,0,0,90.91,26.38ZM66.7,50.58H58.63a4,4,0,0,0-4,4V99H70.73V54.61A4,4,0,0,0,66.7,50.58ZM42.5,74.79H34.43a4,4,0,0,0-4,4V99H46.53V78.82A4,4,0,0,0,42.5,74.79Z"/><path class="cls-1" d="M72.67,7.29l-17.39,11,5.42,2.83q-2.93,5.09-6.36,9.9c-2.91,4.15-6.16,8-9.44,12a147,147,0,0,1-10.46,11.3c-1.84,1.8-3.76,3.51-5.74,5.16A45.1,45.1,0,0,1,22.39,64a45.74,45.74,0,0,0,7-3.52c2.24-1.34,4.44-2.77,6.58-4.3a150.51,150.51,0,0,0,12.33-9.8A128.67,128.67,0,0,0,59.6,35.28,129.33,129.33,0,0,0,68,25l5.52,2.89Z"/></svg>