<?xml version="1.0" encoding="UTF-8"?>
<svg id="Cog" xmlns="http://www.w3.org/2000/svg" viewBox="0 0 125.33 125.33"><defs><style>.cls-1{fill:#c52928;}</style></defs><title>icons</title><path class="cls-1" d="M61.2,48.49A13.78,13.78,0,1,0,75,62.27,13.77,13.77,0,0,0,61.2,48.49ZM92,58.83A31,31,0,0,0,64.65,31.48V19.38H57.76v12.1A31,31,0,0,0,30.41,58.83H18.31v6.89h12.1A31,31,0,0,0,57.76,93.06v12.1h6.89V93.06A31,31,0,0,0,92,65.72h12.1V58.83ZM61.2,86.38A24.11,24.11,0,1,1,85.32,62.27,24.09,24.09,0,0,1,61.2,86.38Z"/></svg>